<svg width="34" height="34" fill="none" xmlns="http://www.w3.org/2000/svg"><path d="M33 17c0-8.843-7.156-16-16-16C8.157 1 1 8.156 1 17c0 8.765 7.096 16 16 16 8.867 0 16-7.195 16-16zM17 2.875c7.789 0 14.125 6.336 14.125 14.125 0 2.85-.847 5.588-2.419 7.907-6.31-6.788-17.09-6.8-23.412 0A14.06 14.06 0 012.875 17C2.875 9.211 9.211 2.875 17 2.875zM6.463 26.406c5.611-6.293 15.464-6.292 21.073 0-5.63 6.299-15.44 6.3-21.073 0z" fill="#FECD00"/><path d="M17 17c2.757 0 5-2.307 5-5.143v-1.714C22 7.307 19.757 5 17 5s-5 2.307-5 5.143v1.714C12 14.693 14.243 17 17 17zm-3.333-6.857c0-1.89 1.495-3.429 3.333-3.429s3.333 1.538 3.333 3.429v1.714c0 1.89-1.495 3.429-3.333 3.429s-3.333-1.538-3.333-3.429v-1.714z" fill="#FECD00"/></svg>