<svg width="24" height="24" fill="none" xmlns="http://www.w3.org/2000/svg"><path d="M7.902 16.098c5.607 5.607 10.964 6.794 12.941 6.902 1.263-1.851 1.797-3.38 2.157-4.746-1.366-1.33-3.354-2.687-5.176-3.45l-2.157 2.156c-.737-.197-2.76-1.033-5.176-3.45-2.418-2.419-3.254-4.44-3.452-5.177l2.158-2.157C8.433 4.354 7.076 2.366 5.745 1 4.38 1.36 2.851 1.893 1 3.157c.108 1.977 1.295 7.333 6.902 12.941zM12.986 8.365a2.682 2.682 0 012.682 2.683M12.986 5.683a5.366 5.366 0 015.364 5.365M12.986 3a8.048 8.048 0 018.047 8.047" stroke="#1F2532" stroke-miterlimit="10"/></svg>