<svg width="24" height="24" fill="none" xmlns="http://www.w3.org/2000/svg"><g clip-path="url(#clip0)" fill="#8CA050"><path d="M17.435 10.39V5.846c0-.13-.06-.25-.145-.345L12.198.155A.508.508 0 0011.833 0H3.759C2.27 0 1.08 1.215 1.08 2.706v15.267c0 1.49 1.19 2.686 2.68 2.686h6.373A6.879 6.879 0 0016.024 24c3.792 0 6.888-3.081 6.888-6.878.005-3.316-2.376-6.087-5.477-6.733zm-5.102-8.634l3.416 3.596h-2.216c-.66 0-1.2-.545-1.2-1.205V1.756zM3.759 19.658c-.935 0-1.68-.75-1.68-1.686V2.707c0-.94.745-1.706 1.68-1.706h7.573v3.147c0 1.215.986 2.206 2.201 2.206h2.901v3.906c-.15-.005-.27-.02-.4-.02a6.98 6.98 0 00-4.561 1.721H5.12c-.275 0-.5.225-.5.5s.225.5.5.5h5.422c-.355.5-.65 1-.88 1.551H5.12c-.275 0-.5.225-.5.5s.225.5.5.5h4.217c-.126.5-.19 1.056-.19 1.611 0 .9.175 1.791.49 2.541H3.759v-.005zm12.27 3.347a5.884 5.884 0 01-5.877-5.878 5.88 5.88 0 015.877-5.877 5.88 5.88 0 015.878 5.877 5.883 5.883 0 01-5.878 5.878z"/><path d="M5.12 10.454h5.067c.275 0 .5-.225.5-.5s-.225-.5-.5-.5H5.12c-.275 0-.5.225-.5.5s.225.5.5.5zM18.59 17.022l-2.055 2.216v-5.462c0-.275-.226-.5-.5-.5-.276 0-.5.225-.5.5v5.462l-2.072-2.216a.505.505 0 00-.71-.025.498.498 0 00-.025.706l2.926 3.146c.095.1.225.16.365.16.14 0 .27-.06.366-.16l2.93-3.146a.499.499 0 10-.726-.68z"/></g><defs><clipPath id="clip0"><path fill="#fff" d="M0 0h24v24H0z"/></clipPath></defs></svg>