<svg width="14" height="14" fill="none" xmlns="http://www.w3.org/2000/svg"><path d="M13.877 3.182a.547.547 0 00-.424-.202H3.547l-.04-.372-.002-.012A2.992 2.992 0 00.547 0a.547.547 0 100 1.094c.943 0 1.748.704 1.873 1.638l.65 5.972a1.643 1.643 0 00-.965 1.523c0 .904.736 1.64 1.641 1.64h.223A1.615 1.615 0 005.496 14a1.615 1.615 0 001.528-2.133h2.359A1.615 1.615 0 0010.91 14c.89 0 1.614-.724 1.614-1.613 0-.89-.724-1.614-1.614-1.614H3.746A.547.547 0 013.2 10.2c0-.301.246-.547.547-.547h6.982c.97 0 1.861-.6 2.27-1.53a.547.547 0 00-1.002-.44c-.23.525-.74.877-1.268.877H4.155l-.488-4.485h9.113l-.267 1.283a.547.547 0 001.07.223l.405-1.941a.547.547 0 00-.11-.457zm-2.967 8.685a.52.52 0 11-.001 1.04.52.52 0 01.001-1.04zm-5.414 0a.52.52 0 11-.001 1.04.52.52 0 01.001-1.04z" fill="#465A1E"/></svg>