<svg width="34" height="34" fill="none" xmlns="http://www.w3.org/2000/svg"><path d="M5.689 5.689c6.251-6.251 16.37-6.252 22.622 0 6.252 6.251 6.252 16.37 0 22.622-6.251 6.251-16.37 6.252-22.622 0-6.251-6.251-6.252-16.37 0-22.622zm.668 20.342a16.036 16.036 0 012.39-1.77c-.557-1.924-.887-4.04-.965-6.242H3.079a13.831 13.831 0 003.278 8.012zm24.564-8.012h-4.703c-.078 2.201-.408 4.318-.965 6.242.843.51 1.642 1.102 2.39 1.77a13.831 13.831 0 003.278-8.012zM27.643 7.97a16.035 16.035 0 01-2.39 1.77c.557 1.924.887 4.04.965 6.242h4.703a13.832 13.832 0 00-3.278-8.012zm-9.624 1.98a13.85 13.85 0 004.752-1.204c-.864-2.225-2.458-4.895-4.752-5.556v6.76zm0 2.043v3.989h6.16a24.02 24.02 0 00-.774-5.286 15.888 15.888 0 01-5.386 1.297zm0 6.027v3.99c1.881.116 3.698.557 5.386 1.296.439-1.636.703-3.424.773-5.286H18.02zm0 6.032v6.76c2.294-.661 3.888-3.33 4.752-5.556a13.85 13.85 0 00-4.752-1.204zm-2.038 0a13.85 13.85 0 00-4.752 1.204c.864 2.225 2.458 4.895 4.752 5.556v-6.76zm0-2.043V18.02H9.82c.071 1.862.335 3.65.774 5.286a15.888 15.888 0 015.386-1.297zm0-6.027v-3.99a15.888 15.888 0 01-5.386-1.296 24.018 24.018 0 00-.773 5.286h6.159zm0-6.032V3.19c-2.294.661-3.888 3.33-4.752 5.556a13.85 13.85 0 004.752 1.204zM11.4 4.207a13.896 13.896 0 00-3.613 2.307c.52.458 1.068.873 1.64 1.245.509-1.259 1.158-2.482 1.974-3.552zm13.17 3.552c.573-.372 1.121-.787 1.64-1.245a13.896 13.896 0 00-3.613-2.307c.816 1.07 1.466 2.294 1.974 3.552zm0 18.482c-.507 1.259-1.157 2.482-1.973 3.552a13.895 13.895 0 003.614-2.307 14.02 14.02 0 00-1.64-1.245zm-15.143 0c-.572.372-1.12.787-1.64 1.245a13.897 13.897 0 003.614 2.307c-.816-1.07-1.465-2.293-1.974-3.552zm-1.646-10.26c.078-2.201.408-4.318.965-6.242a16.038 16.038 0 01-2.39-1.77 13.832 13.832 0 00-3.278 8.012h4.703z" fill="#FECD00"/></svg>