<svg width="12" height="12" fill="none" xmlns="http://www.w3.org/2000/svg"><path d="M8.425 0h-4.85A3.579 3.579 0 000 3.575v4.85A3.579 3.579 0 003.575 12h4.85A3.579 3.579 0 0012 8.425v-4.85A3.579 3.579 0 008.425 0zm2.368 8.425a2.368 2.368 0 01-2.368 2.368h-4.85a2.368 2.368 0 01-2.368-2.368v-4.85a2.368 2.368 0 012.368-2.368h4.85a2.368 2.368 0 012.368 2.368v4.85z" fill="#7B808A"/><path d="M6 2.896A3.107 3.107 0 002.896 6 3.107 3.107 0 006 9.104 3.107 3.107 0 009.104 6 3.107 3.107 0 006 2.896zm0 5a1.896 1.896 0 110-3.792 1.896 1.896 0 010 3.793zM9.11 3.663a.744.744 0 100-1.487.744.744 0 000 1.487z" fill="#7B808A"/></svg>