<svg width="168" height="48" fill="none" xmlns="http://www.w3.org/2000/svg"><path d="M167.065 34.406H.867v12.497h166.198V34.406z" fill="#fff"/><path fill-rule="evenodd" clip-rule="evenodd" d="M168 47.523V10.465h-.02V0H0v35.33h.009v11.228H0V48h167.98v-.477h.02zm-1.47-12.193v11.228H1.479V35.33H166.53z" fill="#1E2E56"/><path fill-rule="evenodd" clip-rule="evenodd" d="M118.101 24.661c.421.536.925.804 1.515.804.364 0 .697-.106.996-.319.298-.214.617-.598.957-1.152l.31.245c-.459.972-.968 1.662-1.525 2.066-.56.404-1.205.607-1.936.607-1.26 0-2.216-.511-2.863-1.531-.521-.825-.782-1.846-.782-3.066 0-1.493.383-2.683 1.15-3.568.767-.884 1.664-1.326 2.695-1.326.86 0 1.606.368 2.24 1.108.63.737.974 1.83 1.021 3.282h-4.683c.056 1.202.356 2.152.905 2.85zm1.542-3.462c0-1.03-.053-1.735-.161-2.12-.107-.383-.273-.674-.498-.872-.129-.116-.3-.173-.514-.173-.319 0-.578.163-.779.49-.36.568-.541 1.347-.541 2.338v.337h2.493zM112.232 20.878c-.359 0-.656-.123-.891-.375-.234-.248-.379-.694-.434-1.334-.036-.403-.125-.685-.265-.847a.636.636 0 00-.492-.24c-.294 0-.543.165-.75.488-.317.491-.475 1.245-.475 2.257 0 .84.127 1.646.382 2.413.254.769.601 1.341 1.045 1.717.335.273.727.412 1.183.412.295 0 .578-.075.843-.221.268-.146.583-.422.948-.83l.281.23c-.4.799-.898 1.392-1.494 1.78a3.42 3.42 0 01-1.901.585c-1.134 0-2.039-.45-2.716-1.35-.678-.9-1.018-1.983-1.018-3.248 0-1.22.31-2.292.931-3.217.745-1.117 1.775-1.677 3.086-1.677.881 0 1.581.233 2.101.7.519.466.778.986.778 1.56 0 .366-.104.656-.315.873-.209.216-.487.324-.827.324zM103.123 15.51c-.457 0-.844-.171-1.166-.508a1.72 1.72 0 01-.483-1.229c0-.48.162-.892.483-1.232a1.544 1.544 0 011.166-.516c.465 0 .857.174 1.179.516.321.34.482.751.482 1.232s-.163.891-.488 1.229a1.57 1.57 0 01-1.173.508zM100.952 26.643V26.3c.385-.014.673-.128.86-.349.125-.146.188-.538.188-1.173v-5.223c0-.636-.073-1.041-.216-1.218-.144-.177-.422-.277-.832-.303v-.343h3.587v7.087c0 .635.071 1.042.212 1.217.143.177.42.278.838.305v.343h-4.637zM99.791 18.351c-.17.175-.424.685-.763 1.533l-2.824 7.029h-.407l-2.883-6.954c-.346-.837-.615-1.366-.81-1.59-.139-.165-.346-.277-.618-.334v-.344h4.507v.344c-.287 0-.48.053-.583.162a.675.675 0 00-.218.501c0 .238.13.686.4 1.34l1.405 3.36 1.114-2.901c.321-.834.483-1.423.483-1.77a.628.628 0 00-.205-.486c-.14-.124-.38-.194-.724-.206v-.344h2.781v.344a1.114 1.114 0 00-.655.316zM90.66 19.69c-.194.237-.43.356-.706.356-.324 0-.602-.111-.839-.333a5.466 5.466 0 00-.42-.37.379.379 0 00-.209-.058.714.714 0 00-.488.21c-.241.218-.427.527-.55.93a7 7 0 00-.283 2.05l.013 2.06.004.538c0 .363.021.598.064.699a.75.75 0 00.324.38c.145.08.387.127.73.148v.343h-4.614V26.3c.374-.034.626-.14.758-.323.132-.182.197-.663.197-1.445V19.58c0-.512-.024-.837-.072-.978a.774.774 0 00-.267-.394c-.116-.084-.322-.14-.616-.173v-.343h3.447l.014 2.024c.56-.924 1.05-1.537 1.471-1.84.421-.302.827-.454 1.22-.454.338 0 .609.11.812.332.202.22.305.533.305.936 0 .43-.098.765-.294 1.001zM78.788 24.661c.42.536.925.804 1.515.804.366 0 .696-.106.995-.319.299-.214.616-.598.959-1.152l.31.245c-.461.972-.97 1.662-1.527 2.066-.558.404-1.203.607-1.935.607-1.26 0-2.214-.511-2.862-1.531-.522-.825-.78-1.846-.78-3.066 0-1.493.381-2.683 1.148-3.568.765-.884 1.663-1.326 2.693-1.326.86 0 1.608.368 2.24 1.108.632.737.974 1.83 1.023 3.282h-4.683c.054 1.202.356 2.152.904 2.85zm1.543-3.462c0-1.03-.054-1.735-.161-2.12-.107-.383-.273-.674-.5-.872-.128-.116-.299-.173-.513-.173-.319 0-.578.163-.78.49-.36.568-.541 1.347-.541 2.338v.337h2.495zM65.908 14.226c.385.281 1.276.785 2.67 1.504 1.951 1.002 3.26 1.947 3.928 2.838.66.888.99 1.906.99 3.051 0 1.455-.54 2.707-1.62 3.754-1.08 1.048-2.452 1.572-4.115 1.572a6.448 6.448 0 01-1.479-.165c-.464-.113-1.048-.322-1.75-.63-.39-.172-.711-.256-.964-.256-.213 0-.438.086-.673.259-.237.174-.429.436-.575.792h-.437v-6.572h.437c.358 1.848 1.053 3.258 2.078 4.228 1.024.971 2.13 1.458 3.316 1.458.915 0 1.645-.26 2.189-.784.541-.525.814-1.132.814-1.824 0-.411-.107-.809-.314-1.195-.208-.386-.526-.752-.953-1.098-.425-.346-1.18-.799-2.263-1.355-1.518-.78-2.605-1.444-3.262-1.99-.656-.55-1.16-1.161-1.513-1.835a4.745 4.745 0 01-.53-2.235c0-1.385.485-2.566 1.456-3.543.97-.972 2.19-1.463 3.666-1.463.538 0 1.058.07 1.564.205.383.103.85.29 1.4.567.55.276.936.413 1.154.413.213 0 .38-.067.503-.203.12-.136.234-.461.341-.982h.374l.125 5.82h-.499c-.239-1.463-.819-2.64-1.746-3.53-.926-.89-1.93-1.336-3.009-1.336-.832 0-1.491.235-1.977.702-.486.466-.729 1.004-.729 1.61 0 .387.086.73.258 1.03.24.401.62.8 1.145 1.193zM58.989 21.277c-.373 1.034-.858 1.886-1.453 2.557a7.206 7.206 0 01-2.056 1.62c-.777.405-1.727.718-2.85.943-.495.102-1.278.155-2.342.155h-7.407v-.46h.551c.481 0 .851-.08 1.108-.241.259-.161.448-.379.572-.655.072-.181.108-.726.108-1.635V12.125c0-.9-.044-1.463-.133-1.688-.091-.224-.273-.422-.547-.592-.274-.169-.643-.25-1.108-.25h-.551v-.462h7.407c1.976 0 3.566.283 4.771.847 1.473.694 2.589 1.743 3.35 3.147.76 1.405 1.14 2.993 1.14 4.767 0 1.223-.186 2.353-.56 3.383zm-4.842-8.67c-.53-1.045-1.211-1.757-2.04-2.135-.587-.266-1.561-.394-2.921-.385v13.62c0 .718.032 1.16.098 1.324a.714.714 0 00.33.374c.22.129.538.194.954.194 1.358 0 2.397-.491 3.115-1.469.977-1.322 1.465-3.371 1.465-6.155 0-2.239-.333-4.027-1.002-5.367zM41.238 13.833c-.262-1.09-.551-1.87-.87-2.347a3.397 3.397 0 00-1.31-1.137c-.31-.153-.853-.23-1.628-.23h-1.218V23.56c0 .899.046 1.462.14 1.688.091.224.273.42.545.59.27.169.641.254 1.11.254h.545v.46h-8.646v-.46h.55c.478 0 .865-.092 1.156-.275.213-.121.38-.327.502-.622.088-.208.134-.753.134-1.635V10.12H31.03c-1.127 0-1.945.247-2.453.745-.715.693-1.168 1.683-1.357 2.969h-.436v-4.7h14.89v4.7h-.437zM21.812 26.552l-5.328-7.955h-1.082v4.93c0 .936.056 1.523.169 1.768.112.242.308.434.591.579.282.144.81.218 1.582.218v.46H9.189v-.46c.782 0 1.31-.076 1.589-.224.277-.15.473-.342.585-.58.112-.239.168-.825.168-1.76V12.155c0-.935-.056-1.524-.168-1.766-.112-.243-.31-.436-.592-.58-.282-.145-.81-.216-1.582-.216v-.461h7.706c2.007 0 3.475.145 4.403.437.931.29 1.69.827 2.277 1.607.588.783.88 1.7.88 2.752 0 1.282-.442 2.341-1.32 3.18-.564.529-1.352.927-2.363 1.19l3.967 5.924c.523.764.892 1.24 1.114 1.43.333.266.721.411 1.162.44v.459h-5.203zm-2.266-15.52c-.588-.632-1.536-.945-2.841-.945h-1.303v7.59h.694c1.127 0 1.97-.108 2.531-.326.56-.217 1-.608 1.32-1.176.32-.566.48-1.305.48-2.218 0-1.32-.293-2.295-.881-2.925z" fill="#fff"/><path fill-rule="evenodd" clip-rule="evenodd" d="M13.525 40.307h-.353l-.089-.236c-.13-.347-.317-.59-.56-.727-.177-.098-.405-.147-.687-.147H11.6c-.137 0-.224.014-.26.044-.036.03-.054.087-.054.172v2.582c0 .235.019.396.059.483.085.177.265.265.54.265h.167v.324l-1.425-.02-1.345.03v-.324l.167-.01c.17 0 .3-.052.388-.159.088-.104.132-.303.132-.59v-2.135c0-.297-.042-.495-.127-.596-.086-.104-.216-.154-.393-.154h-.167v-.334l1.345.03 2.702-.03.196 1.532zm5.884.594c0 .604-.18 1.125-.54 1.566a1.831 1.831 0 01-1.483.709c-.255 0-.508-.053-.757-.157a2.043 2.043 0 01-.658-.433v2.04c0 .244.02.404.06.482.084.179.27.268.559.268h.167v.334l-1.444-.03-1.346.03v-.325l.168-.01c.176 0 .307-.05.392-.152.085-.101.128-.303.128-.605v-4.3c0-.294-.03-.502-.089-.62-.098-.203-.298-.304-.599-.304v-.336c.413-.04.765-.09 1.056-.152.292-.063.581-.146.87-.253.032.18.054.316.063.415.01.098.015.247.015.443.164-.255.373-.455.629-.599.255-.144.54-.216.854-.216.577 0 1.051.226 1.425.68.354.425.53.934.53 1.525zm-1.404.07c0-.612-.112-1.052-.334-1.32a.854.854 0 00-.688-.317.953.953 0 00-.712.312c-.2.206-.3.492-.3.861v.789c0 .451.089.787.265 1.003.158.192.377.287.659.287a.951.951 0 00.717-.297c.262-.275.393-.715.393-1.319zm6.699-1.862c-.296.045-.538.27-.722.677-.146.334-.26.596-.346.786l-1.8 3.92c-.202.445-.345.723-.428.834-.22.302-.48.452-.778.452a.584.584 0 01-.402-.142.497.497 0 01-.16-.388c0-.151.048-.275.147-.374a.717.717 0 01.285-.167c.222-.072.445-.143.667-.216.25-.157.498-.523.747-1.1l.098-.225-1.473-3.36a3.005 3.005 0 00-.158-.344.733.733 0 00-.56-.354v-.334l1.346.03 1.218-.03v.334h-.108c-.164 0-.278.025-.343.074a.247.247 0 00-.099.211c0 .085.023.188.07.31.045.12.087.23.127.329l.677 1.66.6-1.395.137-.334c.066-.177.099-.334.099-.472 0-.157-.058-.26-.173-.309a.946.946 0 00-.377-.074v-.334l.913.03.795-.03v.335zm5.736 3.958l-1.346-.02-1.247.03v-.334l.118-.01c.157-.013.265-.052.324-.118.098-.104.147-.314.147-.628V39.57c0-.157-.022-.258-.068-.304-.046-.046-.148-.069-.304-.069h-.786c-.158 0-.26.023-.305.069-.046.045-.07.147-.07.304v2.417c0 .314.05.524.149.628.059.066.166.105.323.118h.119v.334l-1.248-.02-1.345.03v-.334l.166-.01c.17 0 .3-.052.388-.157.089-.105.133-.303.133-.59v-2.13c0-.294-.043-.494-.128-.595-.085-.102-.216-.153-.393-.153h-.166v-.334l1.345.03h2.849l1.345-.03v.325l-.166.01c-.171 0-.295.045-.374.137-.098.118-.147.323-.147.61v2.13c0 .294.043.494.128.595.085.101.216.152.393.152h.166v.334zm6.031 0l-1.345-.02-1.247.03v-.334l.118-.01c.157-.013.264-.052.324-.118.098-.104.147-.314.147-.628V39.57c0-.157-.023-.258-.069-.304-.046-.046-.147-.069-.305-.069h-.785c-.157 0-.259.023-.305.069-.046.045-.069.147-.069.304v2.417c0 .314.05.524.148.628.059.066.166.105.324.118h.118v.334l-1.248-.02-1.346.03v-.334l.167-.01c.17 0 .3-.052.389-.157.088-.105.132-.303.132-.59v-2.13c0-.294-.042-.494-.128-.595-.085-.102-.216-.153-.393-.153h-.167v-.334l1.346.03h2.849l1.345-.03v.325l-.166.01c-.17 0-.295.045-.374.137-.098.118-.147.323-.147.61v2.13c0 .294.042.494.128.595.085.101.216.152.392.152h.167v.334zm5.168-.501c-.145.21-.32.36-.526.452a1.521 1.521 0 01-.624.138c-.216 0-.408-.053-.574-.158a.782.782 0 01-.34-.481c-.17.177-.353.318-.55.422a1.744 1.744 0 01-.834.217c-.36 0-.646-.112-.855-.335a1.01 1.01 0 01-.275-.716c0-.426.222-.786.668-1.081.281-.183.727-.373 1.336-.57.216-.072.355-.13.418-.177a.21.21 0 00.093-.177v-.5c0-.178-.056-.309-.167-.394a.675.675 0 00-.423-.127c-.111 0-.21.02-.294.059a.643.643 0 00-.246.226c-.079.229-.144.4-.196.51a.494.494 0 01-.492.315.564.564 0 01-.417-.162.529.529 0 01-.162-.388c0-.223.104-.42.314-.59.144-.118.34-.208.59-.27.249-.062.586-.093 1.01-.093.735 0 1.242.164 1.524.49.183.21.275.495.275.856v2.023c0 .15.008.254.024.31.017.055.077.083.182.083a.437.437 0 00.344-.157l.197.275zm-2.063-.874V40.63l-.256.118c-.255.118-.438.225-.55.324a.922.922 0 00-.343.727c0 .196.059.347.176.451a.485.485 0 00.344.129.593.593 0 00.447-.192.693.693 0 00.182-.496zm10.088.667c-.125.322-.318.544-.58.669a1.517 1.517 0 01-.658.128c-.236 0-.435-.046-.599-.138-.242-.137-.439-.383-.59-.737l-.343-.786c-.072-.17-.137-.285-.197-.343a.476.476 0 00-.363-.148h-.246v.987c0 .231.017.39.05.476.071.184.215.276.431.276h.148v.334l-1.287-.03-1.287.03v-.324l.147-.01c.217 0 .357-.089.423-.267.04-.105.059-.267.059-.483v-2.135c0-.229-.017-.388-.05-.473-.071-.184-.215-.276-.432-.276h-.147v-.334l1.287.03 1.287-.03v.324l-.148.01c-.216 0-.357.088-.422.267-.039.104-.059.266-.059.484v.752h.275c.32 0 .583-.194.786-.58.131-.282.229-.49.295-.628.105-.203.222-.36.354-.472.19-.164.418-.246.687-.246.216 0 .38.053.492.157.11.105.166.23.166.374a.485.485 0 01-.127.343c-.086.092-.207.138-.364.138-.105 0-.226-.046-.364-.138a.377.377 0 00-.196-.068c-.118 0-.298.222-.54.668-.144.268-.308.461-.491.58l.079.048c.333.086.625.288.874.61l.57.844c.058.072.117.13.176.172a.364.364 0 00.217.063c.143 0 .254-.087.333-.265l.354.147zm5.216-1.444c0 .663-.244 1.201-.732 1.617a2.573 2.573 0 01-1.724.624c-.727 0-1.32-.246-1.778-.737-.413-.439-.619-.947-.619-1.523a2 2 0 01.727-1.586 2.53 2.53 0 011.7-.624c.66 0 1.23.208 1.709.624.478.416.717.951.717 1.605zm-1.464.099c0-.773-.08-1.288-.24-1.547a.785.785 0 00-.712-.388c-.387 0-.656.19-.806.57-.111.275-.167.687-.167 1.237 0 .74.092 1.248.275 1.523.157.236.39.354.698.354.373 0 .634-.184.785-.55.112-.275.167-.675.167-1.199zm8.389 2.053l-1.346-.02-1.297.03v-.334l.119-.01c.163 0 .28-.036.353-.108.111-.113.167-.327.167-.645v-1.8l-1.425 2.897h-.294l-1.425-2.878v1.788c0 .314.056.527.167.638.072.072.19.108.354.108h.118v.334l-.805-.02-.954.03v-.334l.167-.01c.171 0 .292-.05.364-.147.105-.152.157-.44.157-.868v-1.89c0-.19-.023-.338-.068-.445-.08-.183-.223-.274-.433-.274h-.157v-.334l.383.01h1.307l1.385 2.76 1.355-2.76h1.807v.314l-.166.01c-.17 0-.295.046-.374.137-.098.118-.147.323-.147.61v2.13c0 .294.042.494.128.595.085.102.216.152.393.152h.166v.334zm6.031 0l-1.346-.02-1.247.03v-.334l.118-.01c.156-.013.265-.052.324-.118.098-.104.147-.314.147-.628V39.57c0-.157-.023-.258-.069-.304-.045-.046-.147-.069-.304-.069h-.786c-.157 0-.259.023-.305.069-.045.045-.068.147-.068.304v2.417c0 .314.049.524.147.628.059.066.167.105.324.118h.118v.334l-1.247-.02-1.346.03v-.334l.167-.01c.17 0 .3-.052.388-.157.088-.105.132-.303.132-.59v-2.13c0-.294-.042-.494-.127-.595-.085-.102-.216-.153-.393-.153h-.167v-.334l1.346.03h2.848l1.346-.03v.325l-.167.01c-.17 0-.295.045-.373.137-.098.118-.147.323-.147.61v2.13c0 .294.042.494.127.595.085.101.216.152.393.152h.167v.334zm5.167-.501c-.144.21-.32.36-.525.452a1.52 1.52 0 01-.624.138 1.06 1.06 0 01-.575-.158.787.787 0 01-.34-.481c-.17.177-.353.318-.549.422a1.743 1.743 0 01-.835.217c-.36 0-.645-.112-.855-.335a1.011 1.011 0 01-.274-.716c0-.426.222-.786.667-1.081.282-.183.728-.373 1.336-.57.216-.072.356-.13.418-.177a.21.21 0 00.093-.177v-.5c0-.178-.056-.309-.167-.394a.675.675 0 00-.422-.127c-.112 0-.21.02-.295.059a.65.65 0 00-.246.226c-.079.229-.144.4-.196.51a.493.493 0 01-.491.315.564.564 0 01-.418-.162.528.528 0 01-.162-.388c0-.223.105-.42.314-.59.144-.118.34-.208.59-.27.249-.062.586-.093 1.011-.093.734 0 1.241.164 1.523.49.184.21.275.495.275.856v2.023c0 .15.008.254.025.31.016.055.076.083.181.083a.438.438 0 00.344-.157l.197.275zm-2.063-.874V40.63l-.255.118c-.256.118-.44.225-.55.324a.922.922 0 00-.344.727c0 .196.059.347.177.451a.486.486 0 00.344.129.593.593 0 00.447-.192.693.693 0 00.181-.496zm7.957 1.375l-1.346-.02-1.297.03v-.334l.168-.01c.15 0 .258-.036.323-.108.099-.111.148-.324.148-.638v-.983h-1.67v.983c0 .307.05.517.147.628.073.08.18.118.325.118h.166v.334l-1.296-.02-1.346.03v-.334l.167-.01c.17 0 .3-.052.388-.157.088-.105.133-.303.133-.59v-2.13c0-.294-.043-.494-.128-.595-.085-.102-.216-.153-.393-.153h-.167v-.334l1.346.03 1.296-.03v.325l-.166.01c-.151 0-.26.035-.325.108-.098.113-.147.327-.147.643v.751h1.67v-.75c0-.31-.05-.522-.148-.634-.071-.079-.18-.118-.323-.118h-.168v-.334l1.297.03 1.346-.03v.324l-.167.01c-.17 0-.295.046-.373.137-.098.118-.148.323-.148.61v2.13c0 .294.043.494.128.595.085.102.216.152.393.152h.167v.334zm6.168 0l-1.346-.02-1.296.03v-.334l.167-.01c.15 0 .259-.036.324-.108.098-.111.147-.324.147-.638v-1.798l-1.67 2.073v.048a.42.42 0 00.124.29.453.453 0 00.348.133h.167v.334l-1.296-.02-1.346.03v-.334l.167-.01c.17 0 .3-.052.387-.157.089-.105.133-.303.133-.59v-2.13c0-.294-.042-.494-.127-.595-.085-.102-.216-.153-.393-.153h-.167v-.334l1.346.03 1.296-.03v.325l-.167.01c-.15 0-.258.035-.324.108-.098.113-.148.325-.148.642v1.794l1.67-2.073v-.1a.46.46 0 00-.466-.371h-.172v-.334l1.296.03 1.346-.03v.324l-.167.01c-.17 0-.294.046-.373.137-.098.118-.147.323-.147.61v2.13c0 .294.043.494.127.595.086.102.216.152.393.152h.167v.334zm4.99-6.077c0 .316-.14.583-.422.8-.315.244-.727.366-1.238.366-.517 0-.923-.113-1.218-.341-.295-.228-.441-.503-.441-.825 0-.16.045-.283.137-.375a.512.512 0 01.383-.14c.163 0 .288.04.373.119a.387.387 0 01.098.433.517.517 0 01-.078.127c-.06.091-.088.163-.088.216 0 .124.07.229.21.314.141.086.35.128.624.128.269 0 .476-.045.62-.133.144-.088.215-.191.215-.31a.25.25 0 00-.024-.107 1.028 1.028 0 00-.064-.108.444.444 0 01-.108-.275c0-.118.04-.215.122-.29.082-.075.209-.113.379-.113.21 0 .357.072.441.218a.58.58 0 01.08.296zm1.18 6.077l-1.346-.02-1.297.03v-.334l.167-.01c.15 0 .26-.036.324-.108.098-.111.147-.324.147-.638v-1.798l-1.67 2.073v.048c0 .105.042.202.123.29a.455.455 0 00.349.133h.167v.334l-1.296-.02-1.346.03v-.334l.167-.01c.17 0 .3-.052.388-.157.088-.105.133-.303.133-.59v-2.13c0-.294-.043-.494-.129-.595-.085-.102-.215-.153-.392-.153h-.167v-.324l1.346.02 1.296-.03v.325l-.167.01c-.15 0-.258.035-.324.108-.098.113-.147.325-.147.642v1.794l1.67-2.073v-.1a.458.458 0 00-.467-.371h-.172v-.325l1.297.02 1.345-.03v.325l-.166.01c-.17 0-.295.046-.373.137-.099.118-.148.323-.148.61v2.13c0 .294.042.494.128.595.084.102.216.152.393.152h.166v.334z" fill="#1E2E56"/></svg>