<svg width="158" height="48" fill="none" xmlns="http://www.w3.org/2000/svg"><path d="M134.06 18.59v1.969h-4.09v8.66h-2.757v-8.66h-4.089v-1.968h10.936zM124.301 27.249v1.97h-8.763V18.59h2.756v8.658h6.007zM71.218 27.249v1.97H62.01V18.59h9.033v1.969H64.77v2.335h5.734v1.906H64.77v2.448h6.449zM55.677 23.546c-.212.208-.464.308-.855.308H51.06v-3.24h2.97c.885 0 1.358.1 1.676.36.312.25.463.632.463 1.195 0 .582-.155 1.05-.493 1.377zm1.394 1.725a3.698 3.698 0 001.91-3.232c0-1.105-.322-1.963-.996-2.527-.783-.65-1.857-.921-3.67-.921H47.99l-.112.64s.112.192.243.422c.196.338.18.438.18.664v8.902h2.759v-3.403h3.426l1.84 3.403h3.036L57.07 25.27zM82.763 18.59v7.05c-.643-.812-1.319-1.594-2.46-2.852a932.89 932.89 0 00-3.859-4.195h-2.662l-.11.64s.113.192.243.421c.148.253.177.373.181.51l-.001 9.056 2.478-.008v-7.04c.494.661 1.375 1.677 1.963 2.315 1.17 1.268 2.936 3.246 4.311 4.733h2.381V18.593l-2.465-.002zM109.762 18.59v6.5c0 .725-.144 1.156-.497 1.487-.446.416-1.183.615-2.248.615-1.08 0-1.836-.2-2.281-.615-.352-.331-.496-.764-.496-1.487v-6.5h-3.07l-.111.642s.114.191.242.42c.14.244.172.363.179.495l.002 5.043c0 2.778 1.878 4.192 5.498 4.192h.077c3.624 0 5.403-1.375 5.403-4.192v-6.6h-2.698zM91.584 25.375c.725-1.81 1.452-3.523 2.038-4.851.585 1.328 1.314 3.04 2.039 4.851h-4.077zm3.76-6.784H91.9a141.61 141.61 0 00-4.564 10.628h2.767c.22-.605.455-1.222.69-1.84h5.66c.237.618.47 1.235.69 1.84h2.768a142.323 142.323 0 00-4.565-10.628z" fill="#000"/><path d="M158 0h-5v48h5V0z" fill="#FFCE00"/><path d="M13.905.991c-.18.019-.248.052-.316.085-.089.05-.179.098-.322.312-.417.624-4.711 7.7-7.445 12.681-1.939 3.534-3.852 7.278-4.668 9.008-.216.458-.248.76-.248.901 0 .25.083.552.248.901.816 1.73 2.729 5.474 4.668 9.007 2.734 4.981 7.011 12.074 7.452 12.682.068.094.129.17.188.233.099.105.189.167.293.199.11.033.324.013.503-.006.096-.01.216-.007.309-.004 1.1.038 2.792.078 4.582.077 2.222 0 4.817-.058 5.208-.103l.062-.007a.91.91 0 00.278-.061c.09-.037.165-.11.348-.363.44-.607 4.698-7.666 7.432-12.647 1.939-3.533 3.852-7.277 4.668-9.007.216-.458.248-.817.248-.958 0-.249-.084-.495-.248-.844-.816-1.73-2.73-5.474-4.668-9.008-2.733-4.98-7.011-12.074-7.452-12.681a1.538 1.538 0 00-.313-.346.553.553 0 00-.168-.086c-.11-.033-.352-.013-.53.006-.096.01-.217.008-.309.004-.913-.039-2.747-.077-4.555-.077-2.222 0-4.899.067-5.245.102zM19.15 12.3c.128 0 .218.14.33.356 1.926 3.713 3.225 6.276 5.054 10.388.156.351.263.61.263.94 0 .332-.114.586-.268.93-1.829 4.111-3.127 6.674-5.054 10.387-.11.215-.202.354-.328.357-.127 0-.215-.141-.327-.358-1.927-3.712-3.225-6.276-5.055-10.387-.156-.351-.267-.611-.267-.941.005-.321.116-.584.269-.928 1.83-4.112 3.128-6.675 5.054-10.388.111-.214.2-.353.326-.356h.003z" fill="url(#paint0_linear)"/><path d="M11.69 23.979c-.157.148-.434.295-1.11.295-.6 0-5.702-.006-8.133-.006-.356 0-.834-.028-.834.538 0 .333.288 1.002.877 2.16a255.682 255.682 0 0010.652 18.822s.587.947.647 1.022c.06.075.131.108.275.107 0 0 2.437-4.474 4.405-9.351a238.369 238.369 0 01-6.101-12.079s-.538-1.008-.559-1.404c-.003-.053-.004-.07 0-.123.004-.043-.001-.061-.015-.061-.018 0-.053.032-.104.08z" fill="url(#paint1_linear)"/><path d="M36.941 24.044c-.087.09-.333.222-.883.222H29.36c-3.072 0-2.76-.082-3.558 1.546-.355.725-.722 1.578-1.095 2.278-2.682 5.622-9.227 16.944-10.11 18.347-.333.528-.382.556-.14.556 0 0 2.221.082 4.693.082 3.86 0 5.241-.107 5.241-.107 2.24-3.492 7.578-12.349 11.39-20.02.877-1.766 1.317-2.535 1.274-2.913-.003-.029-.016-.04-.032-.04-.025 0-.058.025-.08.049z" fill="url(#paint2_linear)"/><path d="M23.701 1.527C21.807 4.468 15.268 16.82 12.598 22.58c-.327.705-.493 1.05-.493 1.392l1.393.002s0 .001 0 0c.004-.32.115-.584.268-.928 1.83-4.112 3.128-6.675 5.054-10.388.112-.214.2-.353.326-.356l.542-1.579c1.885-4.71 4.524-9.665 4.524-9.665h-.014c-.159 0-.276.129-.497.47z" fill="url(#paint3_linear)"/><path d="M19.147 12.317h.003c.128 0 .218.14.33.356 1.926 3.713 3.224 6.276 5.054 10.388.156.351.263.61.263.94 0 .003 0 .002 0 0 0 0 0-.002 0 0h1.388c0-.341-.159-.677-.486-1.375a230.291 230.291 0 00-6.01-11.89l-.542 1.581z" fill="url(#paint4_linear)"/><path d="M12.591 25.363a229.633 229.633 0 006.003 11.881l.552-1.584c-.127 0-.215-.141-.327-.357-1.927-3.713-3.225-6.276-5.054-10.388-.157-.351-.267-.611-.267-.941l-1.393-.003c-.002.344.157.69.486 1.392zm.907-1.39zm5.648 11.687zm0 0z" fill="url(#paint5_linear)"/><path d="M24.797 23.996c0 .332-.115.585-.268.93-1.83 4.11-3.128 6.674-5.054 10.387-.111.214-.202.353-.328.356l-.552 1.584c-1.988 4.997-4.53 9.663-4.53 9.663.154.007.336-.18.549-.504l.223-.366c1.427-2.437 8.306-15.165 10.85-20.65.326-.706.498-1.059.498-1.4h-1.388z" fill="url(#paint6_linear)"/><path d="M.341 25.285c.635 1.38 2.413 4.9 4.693 9.056 2.49 4.539 7.008 12.087 7.513 12.778.207.284.384.456.553.563l.361-.864a2.324 2.324 0 01-.188-.233c-.44-.608-4.718-7.7-7.451-12.681-1.94-3.534-3.852-7.278-4.668-9.008-.165-.349-.248-.652-.248-.9h-.9c0 .306.066.703.335 1.289z" fill="url(#paint7_linear)"/><path d="M13.1 47.678c.243.155.468.175.74.199.672.06 3.616.108 5.31.108 1.693 0 4.872-.069 5.31-.108.207-.02.397-.038.593-.126l-.356-.842a.91.91 0 01-.278.06l-.062.008c-.39.045-2.986.102-5.207.103-1.791 0-3.482-.04-4.583-.077a2.394 2.394 0 00-.309.004c-.178.019-.394.04-.503.006a.668.668 0 01-.293-.2l-.361.865z" fill="url(#paint8_linear)"/><path d="M24.711 1.043c.099.072.196.183.314.346.44.608 4.719 7.7 7.452 12.682 1.939 3.533 3.852 7.278 4.668 9.007.164.35.248.595.248.844l.9.057c0-.25-.055-.703-.336-1.29-.68-1.422-2.856-5.718-4.693-9.056-2.456-4.465-6.986-12.07-7.512-12.777-.277-.373-.485-.548-.695-.64l-.346.827z" fill="url(#paint9_linear)"/><path d="M13.784.112a1.87 1.87 0 00-.552.124l.357.857c.068-.033.135-.067.315-.085.347-.035 3.024-.103 5.245-.103 1.808 0 3.642.039 4.556.077.092.004.212.007.308-.003.178-.02.421-.04.53-.006a.551.551 0 01.168.086l.345-.827c-.2-.091-.395-.102-.621-.123-.7-.064-3.71-.109-5.286-.109-1.388 0-4.61.036-5.365.112z" fill="url(#paint10_linear)"/><path d="M12.516.912c-.52.68-5.047 8.34-7.482 12.74C3.32 16.753.598 22.12.34 22.71c-.258.59-.334.983-.334 1.29h.9c0-.14.032-.443.248-.901.816-1.73 2.729-5.474 4.668-9.008C8.555 9.11 12.849 2.032 13.266 1.41c.144-.214.234-.262.323-.312L13.233.24c-.285.121-.454.328-.717.672z" fill="url(#paint11_linear)"/><path d="M37.144 24.882c-.815 1.73-2.729 5.474-4.668 9.007-2.733 4.98-6.99 12.04-7.431 12.647-.184.253-.26.325-.348.362l.356.843c.218-.098.441-.279.698-.637.489-.68 5.358-8.83 7.513-12.777 2.154-3.948 4.443-8.496 4.693-9.057.311-.698.335-1.04.335-1.29l-.9-.057c0 .141-.032.5-.248.959zM24.697 46.898z" fill="url(#paint12_linear)"/><path d="M24.012.962l.05-.005s-.228.174-.812.171c-.692-.003-2.13-.031-3.28-.038-2.123-.014-4.654.025-5.837.082-.626.03-.664.098-1.065.527l.197-.311c.144-.214.234-.262.323-.312a.784.784 0 01.316-.085C14.25.956 16.927.89 19.148.89c1.808 0 3.643.038 4.556.077.092.004.213.006.308-.004" fill="#fff"/><path d="M24.302 24.79l-.009.018c-.01.023-1.064 2.41-2.285 4.915a234.748 234.748 0 01-2.74 5.417l-.022.04c-.044.087-.083.15-.1.15s-.055-.062-.099-.148l-.068-.13a223.687 223.687 0 01-2.698-5.33A152.382 152.382 0 0114 24.81l-.011-.024c-.132-.31-.236-.556-.236-.816 0-.262.121-.55.245-.821l.06-.137c.74-1.68 1.484-3.282 2.212-4.765a299.43 299.43 0 012.776-5.473c.041-.078.077-.152.101-.152.024 0 .062.075.104.153.012.023 1.458 2.775 2.77 5.472a164.345 164.345 0 012.276 4.899c.15.34.241.565.241.837 0 .264-.09.468-.237.806zm.23-1.748a165.063 165.063 0 00-2.28-4.908 226.46 226.46 0 00-2.774-5.48c-.115-.216-.205-.356-.329-.356-.124 0-.207.124-.329.356-.06.114-1.527 2.934-2.78 5.48-1.246 2.538-2.21 4.768-2.274 4.908-.129.281-.269.607-.269.928 0 .32.121.597.267.94.07.166 1.107 2.507 2.286 4.926 1.282 2.631 2.714 5.355 2.768 5.463.109.212.202.357.328.357s.216-.14.328-.356c.058-.113 1.483-2.833 2.764-5.464a165.191 165.191 0 002.29-4.924c.16-.365.268-.606.268-.93 0-.323-.106-.584-.263-.94" fill="#000"/><path d="M37.722 25.185c-.267.6-2.59 5.203-4.684 9.038-2.184 4.001-7.041 12.118-7.495 12.75-.427.595-.698.62-1.108.657-.429.039-3.556.108-5.287.108-1.604 0-4.596-.047-5.287-.108-.433-.04-.671-.06-1.108-.658-.478-.655-4.993-8.188-7.495-12.75-2.399-4.374-4.116-7.803-4.685-9.04C.361 24.719.262 24.344.262 24c0-.322.099-.7.312-1.186.252-.576 2.967-5.933 4.684-9.036 2.373-4.29 6.924-12.006 7.46-12.709.378-.493.512-.638 1.091-.696.725-.073 3.861-.11 5.34-.11 1.724 0 4.588.034 5.257.107l.07.007c.435.047.634.068 1.07.653.506.682 4.983 8.185 7.493 12.748 1.83 3.328 3.991 7.592 4.686 9.044.27.563.31.98.31 1.178 0 .25-.038.567-.313 1.185zm.24-2.477c-.697-1.454-2.86-5.724-4.694-9.057C30.754 9.081 26.265 1.56 25.755.873c-.503-.677-.785-.707-1.252-.757L24.434.11C23.756.035 20.88 0 19.148 0c-1.482 0-4.631.039-5.365.112-.69.07-.877.281-1.272.797-.541.709-5.105 8.445-7.482 12.742-1.72 3.108-4.441 8.48-4.694 9.057C.106 23.23 0 23.64 0 24c0 .383.107.794.336 1.292.57 1.24 2.29 4.676 4.693 9.057 2.505 4.569 7.032 12.12 7.513 12.778.506.694.838.723 1.296.764.697.062 3.702.109 5.31.109 1.736 0 4.878-.07 5.31-.109.43-.04.8-.073 1.297-.764.456-.635 5.326-8.77 7.513-12.778 2.096-3.841 4.425-8.455 4.693-9.057.295-.663.336-1.013.336-1.293 0-.22-.044-.68-.336-1.29M49.096 37.902h1.789c1.145 0 1.618-.413 1.618-1.42 0-1.008-.473-1.422-1.618-1.422h-1.79v2.842zm1.849-3.507c1.669 0 2.372.625 2.372 2.086 0 1.451-.703 2.076-2.372 2.076h-1.85v2.61h-.803V35.03c0-.07-.03-.1-.1-.13l-.303-.132.07-.373h2.986zM57.239 39.192c-.382-.151-.824-.222-1.307-.222-.914 0-1.297.242-1.297.867 0 .594.372.866 1.217.866.965 0 1.387-.332 1.387-1.068v-.443zm.11 1.47c-.301.424-.854.626-1.648.626-1.276 0-1.86-.454-1.86-1.441 0-.988.603-1.431 1.97-1.431.523 0 1.016.07 1.428.212v-.676c0-.836-.422-1.169-1.458-1.169a4.96 4.96 0 00-1.507.242v-.645a5.473 5.473 0 011.598-.231c1.508 0 2.14.554 2.14 1.864v2.469c0 .08.01.11.081.14l.302.132-.08.413h-.835c-.06 0-.08 0-.09-.08l-.04-.424zM61.18 36.149c.562 0 1.085.08 1.578.221l-.131.625a4.42 4.42 0 00-1.407-.222c-.825 0-1.206.272-1.206.776 0 1.19 2.944.293 2.944 2.257 0 .978-.713 1.482-1.96 1.482-.623 0-1.196-.08-1.708-.242v-.655a5.1 5.1 0 001.648.272c.854 0 1.247-.312 1.247-.846 0-1.32-2.945-.323-2.945-2.258 0-.947.723-1.41 1.94-1.41zM65.773 36.149c.563 0 1.086.08 1.579.221l-.131.625a4.42 4.42 0 00-1.407-.222c-.825 0-1.206.272-1.206.776 0 1.19 2.944.293 2.944 2.257 0 .978-.713 1.482-1.96 1.482-.623 0-1.196-.08-1.708-.242v-.655a5.1 5.1 0 001.648.272c.855 0 1.247-.312 1.247-.846 0-1.32-2.945-.323-2.945-2.258 0-.947.723-1.41 1.94-1.41zM69.232 34.251c.362 0 .523.151.523.514 0 .353-.161.504-.523.504-.372 0-.523-.151-.523-.504 0-.363.151-.514.523-.514zm-.684 2.006h1.016c.07 0 .09.02.09.1v4.797h-.804v-4.212c0-.081-.01-.111-.08-.141l-.302-.131.08-.413zM73.282 40.643c1.116 0 1.578-.554 1.578-1.925 0-1.37-.462-1.925-1.578-1.925-1.126 0-1.588.555-1.588 1.925s.462 1.925 1.588 1.925zm0-4.494c1.689 0 2.402.765 2.402 2.57 0 1.813-.713 2.569-2.402 2.569-1.688 0-2.412-.756-2.412-2.57 0-1.804.724-2.57 2.412-2.57zM81.102 40.482c0 .08.01.11.08.14l.302.132-.08.413h-1.015c-.07 0-.09-.02-.09-.101v-2.952c0-.948-.353-1.3-1.227-1.3-.633 0-1.236.211-1.448.362v3.99h-.804v-4.211c0-.081-.01-.111-.08-.141l-.301-.131.08-.414h1.015c.07 0 .09.02.09.101v.343c.342-.323.865-.564 1.589-.564 1.347 0 1.89.564 1.89 1.944v2.389zM86.079 36.257h1.467v.634h-1.467v4.263h-.805v-4.142c0-.11 0-.12-.1-.15L84.6 36.7l.07-.443h.603v-.645c0-1.18.513-1.673 1.719-1.673.402 0 .724.06.915.131l-.13.625a2.216 2.216 0 00-.695-.111c-.703 0-1.005.292-1.005.997v.676zM90.451 40.643c1.116 0 1.578-.554 1.578-1.925 0-1.37-.462-1.925-1.578-1.925-1.126 0-1.588.555-1.588 1.925s.462 1.925 1.588 1.925zm0-4.494c1.689 0 2.402.765 2.402 2.57 0 1.813-.713 2.569-2.402 2.569-1.688 0-2.412-.756-2.412-2.57 0-1.804.724-2.57 2.412-2.57zM94.02 36.955c0-.08-.01-.111-.08-.141l-.301-.131.08-.413h1.016c.07 0 .09.02.09.1v.494c.372-.473.895-.715 1.588-.715.171 0 .362.02.473.04l-.141.705c-.12-.03-.271-.06-.453-.06-.703 0-1.115.242-1.467.534v3.799h-.804v-4.212zM100.555 40.468c0 .08.011.11.081.14l.301.132-.08.413h-1.015c-.07 0-.09-.02-.09-.1v-6.309c0-.08-.01-.11-.08-.14l-.302-.132.08-.413h1.015c.07 0 .09.02.09.1v6.309zM102.757 34.251c.362 0 .523.151.523.514 0 .353-.161.504-.523.504-.372 0-.523-.151-.523-.504 0-.363.151-.514.523-.514zm-.684 2.006h1.016c.07 0 .09.02.09.1v4.797h-.804v-4.212c0-.081-.01-.111-.08-.141l-.302-.131.08-.413zM105.892 36.257h1.467v.634h-1.467v4.263h-.804v-4.142c0-.11 0-.12-.101-.15l-.573-.162.071-.443h.603v-.645c0-1.18.512-1.673 1.718-1.673.403 0 .724.06.915.131l-.131.625a2.212 2.212 0 00-.693-.111c-.704 0-1.005.292-1.005.997v.676zM108.637 38.396h2.865c-.02-1.19-.402-1.663-1.337-1.663-1.045 0-1.497.494-1.528 1.663zm1.528-2.247c1.488 0 2.111.745 2.111 2.489 0 .11 0 .221-.01.312h-3.629c.04 1.22.573 1.703 1.89 1.703.523 0 1.035-.08 1.558-.242v.645c-.493.161-1.025.232-1.618.232-1.84 0-2.624-.756-2.624-2.57 0-1.804.694-2.57 2.322-2.57z" fill="#000"/><defs><linearGradient id="paint0_linear" x1="19.149" y1="47.067" x2="19.149" y2=".889" gradientUnits="userSpaceOnUse"><stop stop-color="#E5E5E5"/><stop offset=".69" stop-color="#fff"/><stop offset="1" stop-color="#919191"/></linearGradient><linearGradient id="paint1_linear" x1="10.041" y1="46.854" x2="10.041" y2="24.106" gradientUnits="userSpaceOnUse"><stop stop-color="#E5E5E5"/><stop offset=".01" stop-color="#E5E5E5"/><stop offset=".34" stop-color="#A7A7A7"/><stop offset=".69" stop-color="#303030"/><stop offset=".85" stop-color="#131313"/><stop offset=".95" stop-color="#090909"/><stop offset="1" stop-color="#666"/></linearGradient><linearGradient id="paint2_linear" x1="25.681" y1="46.847" x2="25.681" y2="24.079" gradientUnits="userSpaceOnUse"><stop stop-color="#E5E5E5"/><stop offset=".01" stop-color="#E5E5E5"/><stop offset=".34" stop-color="#A7A7A7"/><stop offset=".69" stop-color="#303030"/><stop offset=".85" stop-color="#131313"/><stop offset=".95" stop-color="#090909"/><stop offset="1" stop-color="#666"/></linearGradient><linearGradient id="paint3_linear" x1="18.158" y1="23.828" x2="18.158" y2=".912" gradientUnits="userSpaceOnUse"><stop stop-color="#303030"/><stop offset=".04" stop-color="#131313"/><stop offset=".25" stop-color="#1E0F00"/><stop offset="1" stop-color="#1E0F00"/></linearGradient><linearGradient id="paint4_linear" x1="22.666" y1="24.003" x2="22.666" y2="10.737" gradientUnits="userSpaceOnUse"><stop stop-color="#747474"/><stop offset=".8" stop-color="#131313"/><stop offset=".92" stop-color="#1E0F00"/><stop offset="1" stop-color="#1E0F00"/></linearGradient><linearGradient id="paint5_linear" x1="15.626" y1="37.268" x2="15.626" y2="23.995" gradientUnits="userSpaceOnUse"><stop stop-color="#BFBFBF"/><stop offset=".36" stop-color="#BFBFBF"/><stop offset=".96" stop-color="#666"/><stop offset="1" stop-color="#303030"/></linearGradient><linearGradient id="paint6_linear" x1="20.125" y1="46.771" x2="20.125" y2="23.85" gradientUnits="userSpaceOnUse"><stop stop-color="#fff"/><stop offset=".97" stop-color="#BFBFBF"/><stop offset=".99" stop-color="#747474"/><stop offset="1" stop-color="#747474"/></linearGradient><linearGradient id="paint7_linear" x1="6.734" y1="47.682" x2="6.734" y2="23.995" gradientUnits="userSpaceOnUse"><stop stop-color="#666"/><stop offset=".97" stop-color="#4C4C4C"/><stop offset="1" stop-color="#8C8C8C"/></linearGradient><linearGradient id="paint8_linear" x1="14.613" y1="44.813" x2="23.724" y2="50.06" gradientUnits="userSpaceOnUse"><stop stop-color="#666"/><stop offset=".02" stop-color="#666"/><stop offset=".1" stop-color="#202020"/><stop offset="1" stop-color="#202020"/></linearGradient><linearGradient id="paint9_linear" x1="21.5" y1="6.729" x2="41.691" y2="17.755" gradientUnits="userSpaceOnUse"><stop stop-color="#595959"/><stop offset="1" stop-color="#747474"/></linearGradient><linearGradient id="paint10_linear" x1="24.508" y1="2.147" x2="13.58" y2="-.979" gradientUnits="userSpaceOnUse"><stop stop-color="#595959"/><stop offset=".01" stop-color="#595959"/><stop offset=".07" stop-color="#A7A7A7"/><stop offset=".5" stop-color="#BEBEBE"/><stop offset="1" stop-color="#BFBFBF"/></linearGradient><linearGradient id="paint11_linear" x1="-3.051" y1="16.014" x2="16.443" y2="8.55" gradientUnits="userSpaceOnUse"><stop stop-color="#8C8C8C"/><stop offset=".99" stop-color="#747474"/><stop offset="1" stop-color="#BFBFBF"/></linearGradient><linearGradient id="paint12_linear" x1="31.494" y1="47.741" x2="31.494" y2="23.923" gradientUnits="userSpaceOnUse"><stop stop-color="#202020"/><stop offset=".02" stop-color="#202020"/><stop offset=".97" stop-color="#3D3D3D"/><stop offset="1" stop-color="#747474"/></linearGradient></defs></svg>