<svg width="146" height="48" fill="none" xmlns="http://www.w3.org/2000/svg"><path d="M65.386 24V12.264h4.032c.648 0 1.254.066 1.818.198.564.12 1.056.33 1.476.63.42.288.75.678.99 1.17.252.48.378 1.074.378 1.782 0 .684-.126 1.278-.378 1.782-.24.504-.57.918-.99 1.242-.42.324-.906.564-1.458.72a6.46 6.46 0 01-1.764.234h-1.458V24h-2.646zm2.646-6.084h1.296c1.44 0 2.16-.624 2.16-1.872 0-.612-.192-1.044-.576-1.296-.384-.252-.936-.378-1.656-.378h-1.224v3.546zM80.879 24.216a5.59 5.59 0 01-2.178-.414 4.835 4.835 0 01-1.674-1.224c-.469-.528-.835-1.17-1.099-1.926-.251-.756-.377-1.614-.377-2.574 0-.96.126-1.812.377-2.556.264-.756.63-1.386 1.099-1.89a4.548 4.548 0 011.674-1.17 5.59 5.59 0 012.178-.414c.791 0 1.511.138 2.16.414.66.264 1.224.654 1.692 1.17.468.516.828 1.152 1.08 1.908.263.744.395 1.59.395 2.538 0 .96-.132 1.818-.395 2.574-.253.756-.613 1.398-1.08 1.926a4.793 4.793 0 01-1.692 1.224c-.648.276-1.368.414-2.16.414zm0-2.286c.803 0 1.44-.342 1.907-1.026.468-.696.703-1.638.703-2.826 0-1.176-.235-2.094-.703-2.754-.468-.66-1.103-.99-1.907-.99-.805 0-1.44.33-1.909.99-.468.66-.701 1.578-.701 2.754 0 1.188.233 2.13.701 2.826.469.684 1.105 1.026 1.909 1.026zM91.995 24.216a6.773 6.773 0 01-2.304-.414 6.133 6.133 0 01-2.034-1.278l1.512-1.818c.42.36.882.654 1.386.882.516.228 1.02.342 1.512.342.552 0 .96-.102 1.224-.306a.976.976 0 00.414-.828.853.853 0 00-.126-.468.932.932 0 00-.342-.342 2.269 2.269 0 00-.54-.288 21.593 21.593 0 00-.684-.306l-1.53-.648c-.3-.12-.594-.276-.882-.468a4.423 4.423 0 01-.756-.666 3.337 3.337 0 01-.522-.9 3.278 3.278 0 01-.198-1.17c0-.48.102-.93.306-1.35.204-.432.492-.804.864-1.116.372-.324.81-.576 1.314-.756.516-.18 1.08-.27 1.692-.27.684 0 1.356.132 2.016.396.672.264 1.26.648 1.764 1.152l-1.35 1.674a4.847 4.847 0 00-1.152-.684 3.155 3.155 0 00-1.278-.252c-.456 0-.822.096-1.098.288-.264.18-.396.438-.396.774 0 .18.042.336.126.468.096.12.222.234.378.342.168.096.36.192.576.288.216.084.45.18.702.288l1.512.612c.72.288 1.284.684 1.692 1.188.42.504.63 1.17.63 1.998 0 .492-.102.96-.306 1.404-.192.432-.48.816-.864 1.152-.372.324-.834.588-1.386.792-.552.192-1.176.288-1.872.288zM98.415 24V12.264h2.646V24h-2.646zM106.115 24v-9.504h-3.222v-2.232h9.108v2.232h-3.222V24h-2.664zM115.864 18.06l-.288 1.08h2.502l-.27-1.08a41.949 41.949 0 01-.486-1.872c-.156-.66-.312-1.296-.468-1.908h-.072c-.144.624-.294 1.266-.45 1.926-.144.648-.3 1.266-.468 1.854zM111.616 24l3.672-11.736h3.186L122.146 24h-2.808l-.72-2.79h-3.582l-.72 2.79h-2.7zM123.429 24V12.264h2.718l3.06 5.832 1.152 2.592h.072c-.06-.624-.132-1.32-.216-2.088-.072-.768-.108-1.5-.108-2.196v-4.14h2.52V24h-2.718l-3.06-5.85-1.152-2.556h-.072c.06.648.126 1.344.198 2.088.084.744.126 1.464.126 2.16V24h-2.52zM140.17 24.216a5.59 5.59 0 01-2.178-.414 4.835 4.835 0 01-1.674-1.224c-.468-.528-.834-1.17-1.098-1.926-.252-.756-.378-1.614-.378-2.574 0-.96.126-1.812.378-2.556.264-.756.63-1.386 1.098-1.89a4.548 4.548 0 011.674-1.17 5.59 5.59 0 012.178-.414c.792 0 1.512.138 2.16.414.66.264 1.224.654 1.692 1.17.468.516.828 1.152 1.08 1.908.264.744.396 1.59.396 2.538 0 .96-.132 1.818-.396 2.574-.252.756-.612 1.398-1.08 1.926a4.793 4.793 0 01-1.692 1.224c-.648.276-1.368.414-2.16.414zm0-2.286c.804 0 1.44-.342 1.908-1.026.468-.696.702-1.638.702-2.826 0-1.176-.234-2.094-.702-2.754-.468-.66-1.104-.99-1.908-.99-.804 0-1.44.33-1.908.99-.468.66-.702 1.578-.702 2.754 0 1.188.234 2.13.702 2.826.468.684 1.104 1.026 1.908 1.026zM70.57 40.216c-.804 0-1.56-.126-2.268-.378a5.219 5.219 0 01-1.818-1.152c-.516-.504-.924-1.128-1.224-1.872-.288-.756-.432-1.626-.432-2.61 0-.972.15-1.836.45-2.592.3-.768.708-1.416 1.224-1.944a5.368 5.368 0 011.836-1.206 5.95 5.95 0 012.214-.414c.852 0 1.584.156 2.196.468.612.312 1.11.666 1.494 1.062l-1.386 1.692a5.059 5.059 0 00-.954-.666c-.336-.18-.756-.27-1.26-.27-.456 0-.876.09-1.26.27a2.757 2.757 0 00-.972.738 3.53 3.53 0 00-.648 1.188 5.38 5.38 0 00-.216 1.584c0 1.212.27 2.154.81 2.826.552.66 1.38.99 2.484.99.24 0 .474-.03.702-.09.228-.06.414-.15.558-.27v-2.016h-1.944v-2.16h4.284v5.4c-.408.396-.948.732-1.62 1.008-.672.276-1.422.414-2.25.414zM76.864 40V28.264h4.23c.624 0 1.206.06 1.746.18.552.12 1.032.324 1.44.612.408.276.732.648.972 1.116.24.468.36 1.05.36 1.746 0 .864-.192 1.578-.576 2.142a3.422 3.422 0 01-1.512 1.242L86.188 40h-2.97l-2.25-4.23H79.51V40h-2.646zm2.646-6.336h1.368c.696 0 1.224-.144 1.584-.432.372-.3.558-.738.558-1.314 0-.576-.186-.978-.558-1.206-.36-.228-.888-.342-1.584-.342H79.51v3.294zM92.674 40.216a5.59 5.59 0 01-2.178-.414 4.835 4.835 0 01-1.674-1.224c-.469-.528-.835-1.17-1.099-1.926-.251-.756-.377-1.614-.377-2.574 0-.96.126-1.812.377-2.556.264-.756.63-1.386 1.099-1.89a4.548 4.548 0 011.674-1.17 5.59 5.59 0 012.178-.414c.791 0 1.511.138 2.16.414.66.264 1.224.654 1.691 1.17.468.516.828 1.152 1.08 1.908.264.744.396 1.59.396 2.538 0 .96-.132 1.818-.395 2.574-.252.756-.612 1.398-1.08 1.926a4.793 4.793 0 01-1.692 1.224c-.648.276-1.368.414-2.16.414zm0-2.286c.803 0 1.44-.342 1.907-1.026.468-.696.703-1.638.703-2.826 0-1.176-.235-2.094-.703-2.754-.468-.66-1.103-.99-1.907-.99-.805 0-1.44.33-1.909.99-.468.66-.701 1.578-.701 2.754 0 1.188.234 2.13.702 2.826.468.684 1.103 1.026 1.907 1.026zM104.834 40.216c-1.524 0-2.688-.45-3.492-1.35-.804-.9-1.206-2.334-1.206-4.302v-6.3h2.664v6.57c0 1.152.174 1.956.522 2.412.348.456.852.684 1.512.684s1.17-.228 1.53-.684c.36-.456.54-1.26.54-2.412v-6.57h2.556v6.3c0 1.968-.396 3.402-1.188 4.302-.78.9-1.926 1.35-3.438 1.35zM112.179 40V28.264h4.032c.648 0 1.254.066 1.818.198.564.12 1.056.33 1.476.63.42.288.75.678.99 1.17.252.48.378 1.074.378 1.782 0 .684-.126 1.278-.378 1.782-.24.504-.57.918-.99 1.242-.42.324-.906.564-1.458.72a6.46 6.46 0 01-1.764.234h-1.458V40h-2.646zm2.646-6.084h1.296c1.44 0 2.16-.624 2.16-1.872 0-.612-.192-1.044-.576-1.296-.384-.252-.936-.378-1.656-.378h-1.224v3.546z" fill="#fff"/><path fill-rule="evenodd" clip-rule="evenodd" d="M4 0a4 4 0 00-4 4v40a4 4 0 004 4h40a4 4 0 004-4V4a4 4 0 00-4-4H4zm29.188 22.212v4.47H35.4v5.765c0 2.026-.84 3.039-2.521 3.039s-2.522-1.013-2.522-3.04V15.554c0-2.056.84-3.084 2.522-3.084 1.68 0 2.52 1.028 2.52 3.084v3.352H40v-3.04c0-2.532-.62-4.468-1.858-5.81C36.904 8.686 35.105 8 32.746 8c-2.36 0-4.158.685-5.397 2.056-1.238 1.34-1.857 3.277-1.857 5.81v16.268c0 2.533.619 4.484 1.857 5.855C28.588 39.329 30.387 40 32.746 40c2.359 0 4.158-.67 5.396-2.011C39.381 36.619 40 34.667 40 32.134v-9.922h-6.812zM23.42 16.09c0-5.154-2.418-7.731-7.254-7.731H9v31.284h4.866V27.889h2.3c4.836 0 7.254-2.577 7.254-7.732V16.09zm-9.554-3.262h2.3c.796 0 1.386.223 1.769.67.413.447.62 1.207.62 2.28v4.692c0 1.073-.207 1.833-.62 2.28-.383.447-.973.67-1.77.67h-2.3V12.827z" fill="#fff"/></svg>