<svg viewBox="0 0 28 28" xmlns="http://www.w3.org/2000/svg">
    <g clip-path="url(#clip0)">
        <path d="M21.6836 9.22266H25.2366C25.4632 9.22266 25.6467 9.03894 25.6467 8.8125C25.6467 8.58585 25.463 8.40234 25.2366 8.40234H21.6836C21.4569 8.40234 21.2734 8.58606 21.2734 8.8125C21.2734 9.03894 21.4569 9.22266 21.6836 9.22266Z"/>
        <path d="M21.6836 11.5791H25.2366C25.4632 11.5791 25.6467 11.3954 25.6467 11.1689C25.6467 10.9423 25.463 10.7588 25.2366 10.7588H21.6836C21.4569 10.7588 21.2734 10.9423 21.2734 11.1689C21.2734 11.3954 21.4569 11.5791 21.6836 11.5791Z"/>
        <path d="M21.2734 20.1461C21.2734 20.8453 21.8427 21.4142 22.5424 21.4142H24.3778C25.0776 21.4142 25.6467 20.8453 25.6467 20.1461V18.345C25.6467 18.1186 25.4632 17.9349 25.2366 17.9349C25.0101 17.9349 24.8264 18.1186 24.8264 18.345V20.1461C24.8264 20.393 24.6252 20.5938 24.3778 20.5938H22.5424C22.2952 20.5938 22.0938 20.393 22.0938 20.1461V14.3926C22.0938 14.1456 22.295 13.9448 22.5424 13.9448H24.3778C24.6252 13.9448 24.8264 14.1456 24.8264 14.3926V16.4496C24.8264 16.676 25.0101 16.8597 25.2366 16.8597C25.4632 16.8597 25.6467 16.676 25.6467 16.4496V14.3926C25.6467 13.6934 25.0776 13.1245 24.3778 13.1245H22.5424C21.8427 13.1245 21.2734 13.6934 21.2734 14.3926V20.1461Z"/>
        <path d="M21.9517 6.86646H24.9685C25.3425 6.86646 25.6467 6.56204 25.6467 6.18799V4.95944C25.6467 4.58517 25.3425 4.28076 24.9685 4.28076H21.9517C21.5776 4.28076 21.2734 4.58517 21.2734 4.95944V6.18799C21.2734 6.56204 21.5776 6.86646 21.9517 6.86646V6.86646ZM22.0938 5.10107H24.8264V6.04614H22.0938V5.10107Z"/>
        <path d="M6.69802 12.7435C6.13363 12.5286 5.55001 12.3062 5.0324 12.5792C4.66433 12.7732 4.42122 13.1624 4.26699 13.8037C3.98864 14.962 4.64168 17.3571 6.07958 18.1663C6.36178 18.3248 6.7134 18.4477 7.12676 18.4477C7.75652 18.4477 8.5292 18.1623 9.41466 17.2838C9.95727 16.7451 10.3918 16.12 10.709 15.4228C10.7586 15.426 10.8083 15.4281 10.8588 15.4281C11.2881 15.4281 11.6902 15.3093 12.0345 15.1032C12.2084 15.4104 12.3518 15.7317 12.4611 16.063C12.55 16.3328 12.6004 16.6248 12.6493 16.9072C12.7521 17.5028 12.8585 18.1187 13.3573 18.4246C13.5442 18.5391 13.7598 18.5963 14.0144 18.5963C14.2428 18.5963 14.5027 18.5502 14.8007 18.4581C15.9372 18.1078 17.6624 16.3257 17.6257 14.6757C17.6075 13.858 17.166 12.7741 15.1656 12.2537C14.422 12.061 13.6632 12.0061 12.9055 12.0892C12.7288 11.7429 12.4676 11.447 12.1484 11.2296C12.353 10.9418 12.5835 10.6758 12.8375 10.4359C13.0443 10.2411 13.2876 10.0715 13.5228 9.90745C14.0185 9.56223 14.5309 9.20505 14.5969 8.62379C14.6439 8.21021 14.4596 7.79002 14.017 7.30146C13.2197 6.41941 10.8771 5.60893 9.398 6.33909C8.66442 6.70118 7.86846 7.55995 8.24315 9.59449C8.38201 10.3471 8.65331 11.0589 9.05129 11.7147C8.74517 12.1052 8.56188 12.5965 8.56188 13.1299C8.56188 13.1317 8.56209 13.1332 8.56209 13.1349C8.20769 13.1278 7.85842 13.0872 7.5194 13.0118C7.24254 12.9507 6.96569 12.8454 6.69802 12.7435V12.7435ZM13.1556 13.1299C13.1556 13.0492 13.1514 12.9693 13.143 12.8905C13.7525 12.8403 14.362 12.893 14.9597 13.0477C16.1673 13.3619 16.7883 13.9157 16.8056 14.6939C16.8325 15.9043 15.4245 17.4075 14.5589 17.6743C14.1919 17.7876 13.9174 17.8057 13.7862 17.7252C13.6038 17.6135 13.5327 17.2027 13.4577 16.7677C13.4062 16.4704 13.3481 16.1335 13.2402 15.8062C13.0962 15.37 12.9016 14.9494 12.6617 14.5512C12.9706 14.1598 13.1556 13.6664 13.1556 13.1299V13.1299ZM12.3353 13.1299C12.3353 13.9449 11.6729 14.6078 10.8588 14.6078C10.0446 14.6078 9.38241 13.9447 9.38241 13.1299C9.38241 12.3152 10.0446 11.6523 10.8588 11.6523C11.6729 11.6523 12.3353 12.3152 12.3353 13.1299ZM9.05001 9.44581C8.82378 8.21726 9.06304 7.41938 9.76116 7.07481C10.8457 6.53926 12.8017 7.18012 13.4088 7.85175C13.6668 8.13673 13.7993 8.37791 13.782 8.53107C13.7578 8.74406 13.416 8.98225 13.0539 9.23453C12.8064 9.40714 12.5257 9.60261 12.2746 9.8393C11.941 10.1544 11.6428 10.5084 11.3841 10.8931C11.2153 10.8536 11.0395 10.8318 10.859 10.8318C10.4268 10.8318 10.0224 10.9521 9.67699 11.1603C9.37194 10.6259 9.16152 10.0508 9.05001 9.44581ZM8.7159 13.9556C8.93166 14.514 9.35891 14.9675 9.89916 15.2173C9.62957 15.7701 9.27346 16.2681 8.83681 16.7015C7.95135 17.5801 7.15902 17.8322 6.48205 17.4513C5.42739 16.8579 4.85253 14.8776 5.06466 13.9953C5.15438 13.6219 5.27892 13.3767 5.41521 13.3049C5.60448 13.2049 5.99392 13.3532 6.406 13.5102C6.68777 13.6174 7.00713 13.739 7.34231 13.8127C7.78814 13.912 8.24892 13.959 8.7159 13.9556V13.9556Z"/>
        <path d="M11.2799 12.0307C11.1449 11.9781 11.0041 11.9517 10.8614 11.9517C10.5707 11.9517 10.294 12.061 10.0819 12.2606C9.85547 12.4746 9.72559 12.7756 9.72559 13.0862C9.72559 13.1655 9.73434 13.2469 9.75229 13.331C9.84714 13.7613 10.1847 14.0992 10.6134 14.1934C10.6912 14.212 10.7723 14.2208 10.8614 14.2208C11.1511 14.2208 11.4265 14.1118 11.636 13.9149C11.8644 13.7012 11.9955 13.3994 11.9955 13.0862C11.9955 12.9642 11.9767 12.8448 11.9396 12.7312C11.9396 12.731 11.9396 12.7305 11.9394 12.7303C11.8351 12.4122 11.5963 12.1578 11.2799 12.0307ZM11.0748 13.3165C11.0174 13.3705 10.9413 13.4005 10.8614 13.4005C10.836 13.4005 10.817 13.3987 10.8016 13.3949C10.798 13.394 10.7946 13.3932 10.7909 13.3925C10.6747 13.3676 10.5794 13.2721 10.5542 13.1578C10.5487 13.1324 10.5461 13.1082 10.5461 13.0862C10.5461 12.9988 10.5814 12.9174 10.6448 12.8574C10.7036 12.8023 10.7805 12.772 10.8614 12.772C10.902 12.772 10.9426 12.7797 10.9781 12.7935C11.0635 12.8279 11.1314 12.8997 11.1599 12.9858C11.1699 13.0166 11.175 13.0514 11.175 13.0862C11.1752 13.1742 11.1398 13.2556 11.0748 13.3165Z"/>
        <path d="M18.2111 8.98979C18.4059 8.87422 18.4702 8.62257 18.3547 8.42775C16.8185 5.83993 13.9491 4.23242 10.8664 4.23242C6.02354 4.23242 2.0835 8.17503 2.0835 13.0211C2.0835 17.8671 6.02354 21.8097 10.8664 21.8097C15.7092 21.8097 19.649 17.8671 19.649 13.0211C19.649 12.1529 19.5161 11.2856 19.2538 10.4435C19.1865 10.2271 18.9564 10.1064 18.7403 10.1737C18.5239 10.241 18.4032 10.471 18.4705 10.6872C18.7082 11.4505 18.8287 12.2356 18.8287 13.0211C18.8287 17.4148 15.2567 20.9894 10.8664 20.9894C6.47578 20.9894 2.90381 17.4146 2.90381 13.0211C2.90381 8.62727 6.47578 5.05273 10.8661 5.05273C13.6612 5.05273 16.2601 6.50643 17.6491 8.84645C17.7646 9.04127 18.0163 9.10557 18.2111 8.98979V8.98979Z"/>
        <path d="M26.5184 2.02344H13.2768C13.0502 2.02344 12.8667 2.20715 12.8667 2.43359C12.8667 2.66025 13.0502 2.84375 13.2768 2.84375H26.5184C26.8831 2.84375 27.1796 3.14004 27.1796 3.50405V22.3475C27.1796 22.7123 26.8831 23.009 26.5184 23.009H1.47976C1.11618 23.009 0.820309 22.7123 0.820309 22.3475V3.50405C0.820309 3.14004 1.11618 2.84396 1.47976 2.84396H11.3839C11.6106 2.84396 11.7941 2.66025 11.7941 2.43381C11.7941 2.20715 11.6106 2.02365 11.3839 2.02365H1.47976C0.663938 2.02344 0 2.68759 0 3.50405V22.3475C0 23.1648 0.663938 23.8296 1.47976 23.8296H2.00143V25.0188C2.00143 25.5469 2.43081 25.9767 2.95867 25.9767H7.15976C7.68762 25.9767 8.11722 25.5469 8.11722 25.0188V23.8296H19.8814V25.0188C19.8814 25.5469 20.3108 25.9767 20.8386 25.9767H25.0397C25.5676 25.9767 25.9972 25.5469 25.9972 25.0188V23.8296H26.5186C27.3355 23.8296 28.0001 23.1648 28.0001 22.3475V3.50405C27.9999 2.68759 27.3353 2.02344 26.5184 2.02344V2.02344ZM7.29669 25.0188C7.29669 25.0931 7.2341 25.1562 7.15976 25.1562H2.95867C2.88433 25.1562 2.82174 25.0934 2.82174 25.0188V23.8296H7.29669V25.0188ZM25.1767 25.0188C25.1767 25.0931 25.1141 25.1562 25.0397 25.1562H20.8386C20.7643 25.1562 20.7017 25.0934 20.7017 25.0188V23.8296H25.1767V25.0188Z"/>
    </g>
    <defs>
        <clipPath id="clip0">
            <rect width="28" height="28"/>
        </clipPath>
    </defs>
</svg>
