<svg viewBox="0 0 28 28"lns="http://www.w3.org/2000/svg">
<path class="gallery__icon-color" d="M25.6012 0H2.39809C2.09009 0 1.84033 0.249703 1.84033 0.557758V27.4422C1.84033 27.7503 2.09009 28 2.39809 28H25.6013C25.9093 28 26.159 27.7503 26.159 27.4422V0.557758C26.159 0.249703 25.9092 0 25.6012 0ZM20.6231 26.8845H14.5171V7.75299C14.5171 7.44494 14.2673 7.19523 13.9593 7.19523C13.6513 7.19523 13.4015 7.44494 13.4015 7.75299V26.8845H7.37618V4.54125H20.6231V26.8845H20.6231ZM25.0435 26.8845H21.7387V3.98349C21.7387 3.67544 21.4889 3.42573 21.1809 3.42573H6.81843C6.51043 3.42573 6.26067 3.67544 6.26067 3.98349V26.8845H2.95585V1.11552H25.0435V26.8845V26.8845Z"/>
<path class="gallery__icon-color" d="M13.9596 5.24805C13.6516 5.24805 13.4019 5.49775 13.4019 5.8058V6.02395C13.4019 6.33201 13.6516 6.58171 13.9596 6.58171C14.2676 6.58171 14.5174 6.33201 14.5174 6.02395V5.80575C14.5174 5.49775 14.2677 5.24805 13.9596 5.24805Z"/>
<path class="gallery__icon-color" d="M4.57338 11.6572C4.26538 11.6572 4.01562 11.9069 4.01562 12.215V12.9401C4.01562 13.2481 4.26538 13.4978 4.57338 13.4978C4.88138 13.4978 5.13114 13.2481 5.13114 12.9401V12.215C5.1312 11.907 4.88138 11.6572 4.57338 11.6572Z"/>
<path class="gallery__icon-color" d="M4.57338 14.6694C4.26538 14.6694 4.01562 14.9191 4.01562 15.2272V15.9523C4.01562 16.2603 4.26538 16.51 4.57338 16.51C4.88138 16.51 5.13114 16.2603 5.13114 15.9523V15.2272C5.1312 14.9191 4.88138 14.6694 4.57338 14.6694Z"/>
<path class="gallery__icon-color" d="M9.06371 1.729H8.78481C8.47681 1.729 8.22705 1.97871 8.22705 2.28676C8.22705 2.59482 8.47681 2.84452 8.78481 2.84452H9.06371C9.37171 2.84452 9.62147 2.59482 9.62147 2.28676C9.62147 1.97871 9.37171 1.729 9.06371 1.729Z"/>
<path class="gallery__icon-color" d="M19.1038 1.729H18.8248C18.5168 1.729 18.2671 1.97871 18.2671 2.28676C18.2671 2.59482 18.5168 2.84452 18.8248 2.84452H19.1038C19.4118 2.84452 19.6615 2.59482 19.6615 2.28676C19.6615 1.97871 19.4118 1.729 19.1038 1.729Z"/>
<path class="gallery__icon-color" d="M11.5735 1.729H11.2946C10.9866 1.729 10.7368 1.97871 10.7368 2.28676C10.7368 2.59482 10.9866 2.84452 11.2946 2.84452H11.5735C11.8815 2.84452 12.1312 2.59482 12.1312 2.28676C12.1313 1.97871 11.8815 1.729 11.5735 1.729Z"/>
<path class="gallery__icon-color" d="M16.5935 1.729H16.3146C16.0066 1.729 15.7568 1.97871 15.7568 2.28676C15.7568 2.59482 16.0066 2.84452 16.3146 2.84452H16.5935C16.9015 2.84452 17.1513 2.59482 17.1513 2.28676C17.1513 1.97871 16.9015 1.729 16.5935 1.729Z"/>
<path class="gallery__icon-color" d="M14.0837 1.729H13.8048C13.4968 1.729 13.2471 1.97871 13.2471 2.28676C13.2471 2.59482 13.4968 2.84452 13.8048 2.84452H14.0837C14.3917 2.84452 14.6415 2.59482 14.6415 2.28676C14.6415 1.97871 14.3917 1.729 14.0837 1.729Z"/>
</svg>
