<svg width="28" height="28" viewBox="0 0 28 28" fill="none" xmlns="http://www.w3.org/2000/svg">
<path d="M27.5333 4.4334H22.4V0.700065C22.4 0.442348 22.1911 0.233398 21.9333 0.233398H6.06667C5.80895 0.233398 5.6 0.442348 5.6 0.700065V7.2334H0.466667C0.20895 7.2334 0 7.44235 0 7.70007V26.8334C0 27.0911 0.20895 27.3001 0.466667 27.3001C0.724383 27.3001 0.933333 27.0911 0.933333 26.8334V8.16673H5.6V27.3001C5.6 27.5578 5.80895 27.7667 6.06667 27.7667H21.9333C22.1911 27.7667 22.4 27.5578 22.4 27.3001V5.36673H27.0667V26.8334C27.0667 27.0911 27.2756 27.3001 27.5333 27.3001C27.7911 27.3001 28 27.0911 28 26.8334V4.90007C28 4.64235 27.7911 4.4334 27.5333 4.4334ZM13.5333 26.8334H11.6667V22.6334H13.5333V26.8334ZM16.3333 26.8334H14.4667V22.6334H16.3333V26.8334ZM21.4667 26.8334H17.2667V22.1667C17.2667 21.909 17.0577 21.7001 16.8 21.7001H11.2C10.9423 21.7001 10.7333 21.909 10.7333 22.1667V26.8334H6.53333V1.16673H21.4667V26.8334Z" fill="#FF7700"/>
<path d="M10.7335 2.1001H7.93346C7.67575 2.1001 7.4668 2.30905 7.4668 2.56676V5.36676C7.4668 5.62448 7.67575 5.83343 7.93346 5.83343H10.7335C10.9912 5.83343 11.2001 5.62448 11.2001 5.36676V2.56676C11.2001 2.30905 10.9912 2.1001 10.7335 2.1001ZM10.2668 4.9001H8.40013V3.03343H10.2668V4.9001Z" fill="#FF7700"/>
<path d="M15.4 2.1001H12.6C12.3423 2.1001 12.1333 2.30905 12.1333 2.56676V5.36676C12.1333 5.62448 12.3423 5.83343 12.6 5.83343H15.4C15.6577 5.83343 15.8666 5.62448 15.8666 5.36676V2.56676C15.8666 2.30905 15.6577 2.1001 15.4 2.1001ZM14.9333 4.9001H13.0666V3.03343H14.9333V4.9001Z" fill="#FF7700"/>
<path d="M20.0665 2.1001H17.2665C17.0088 2.1001 16.7998 2.30905 16.7998 2.56676V5.36676C16.7998 5.62448 17.0088 5.83343 17.2665 5.83343H20.0665C20.3242 5.83343 20.5331 5.62448 20.5331 5.36676V2.56676C20.5331 2.30905 20.3242 2.1001 20.0665 2.1001ZM19.5998 4.9001H17.7331V3.03343H19.5998V4.9001Z" fill="#FF7700"/>
<path d="M10.7335 6.7666H7.93346C7.67575 6.7666 7.4668 6.97555 7.4668 7.23327V10.0333C7.4668 10.291 7.67575 10.4999 7.93346 10.4999H10.7335C10.9912 10.4999 11.2001 10.291 11.2001 10.0333V7.23327C11.2001 6.97555 10.9912 6.7666 10.7335 6.7666ZM10.2668 9.5666H8.40013V7.69993H10.2668V9.5666Z" fill="#FF7700"/>
<path d="M15.4 6.7666H12.6C12.3423 6.7666 12.1333 6.97555 12.1333 7.23327V10.0333C12.1333 10.291 12.3423 10.4999 12.6 10.4999H15.4C15.6577 10.4999 15.8666 10.291 15.8666 10.0333V7.23327C15.8666 6.97555 15.6577 6.7666 15.4 6.7666ZM14.9333 9.5666H13.0666V7.69993H14.9333V9.5666Z" fill="#FF7700"/>
<path d="M20.0665 6.7666H17.2665C17.0088 6.7666 16.7998 6.97555 16.7998 7.23327V10.0333C16.7998 10.291 17.0088 10.4999 17.2665 10.4999H20.0665C20.3242 10.4999 20.5331 10.291 20.5331 10.0333V7.23327C20.5331 6.97555 20.3242 6.7666 20.0665 6.7666ZM19.5998 9.5666H17.7331V7.69993H19.5998V9.5666Z" fill="#FF7700"/>
<path d="M10.7335 11.4331H7.93346C7.67575 11.4331 7.4668 11.6421 7.4668 11.8998V14.6998C7.4668 14.9575 7.67575 15.1664 7.93346 15.1664H10.7335C10.9912 15.1664 11.2001 14.9575 11.2001 14.6998V11.8998C11.2001 11.6421 10.9912 11.4331 10.7335 11.4331ZM10.2668 14.2331H8.40013V12.3664H10.2668V14.2331Z" fill="#FF7700"/>
<path d="M15.4 11.4331H12.6C12.3423 11.4331 12.1333 11.6421 12.1333 11.8998V14.6998C12.1333 14.9575 12.3423 15.1664 12.6 15.1664H15.4C15.6577 15.1664 15.8666 14.9575 15.8666 14.6998V11.8998C15.8666 11.6421 15.6577 11.4331 15.4 11.4331ZM14.9333 14.2331H13.0666V12.3664H14.9333V14.2331Z" fill="#FF7700"/>
<path d="M20.0665 11.4331H17.2665C17.0088 11.4331 16.7998 11.6421 16.7998 11.8998V14.6998C16.7998 14.9575 17.0088 15.1664 17.2665 15.1664H20.0665C20.3242 15.1664 20.5331 14.9575 20.5331 14.6998V11.8998C20.5331 11.6421 20.3242 11.4331 20.0665 11.4331ZM19.5998 14.2331H17.7331V12.3664H19.5998V14.2331Z" fill="#FF7700"/>
<path d="M10.7335 16.1001H7.93346C7.67575 16.1001 7.4668 16.309 7.4668 16.5668V19.3668C7.4668 19.6245 7.67575 19.8334 7.93346 19.8334H10.7335C10.9912 19.8334 11.2001 19.6245 11.2001 19.3668V16.5668C11.2001 16.309 10.9912 16.1001 10.7335 16.1001ZM10.2668 18.9001H8.40013V17.0334H10.2668V18.9001Z" fill="#FF7700"/>
<path d="M15.4 16.1001H12.6C12.3423 16.1001 12.1333 16.309 12.1333 16.5668V19.3668C12.1333 19.6245 12.3423 19.8334 12.6 19.8334H15.4C15.6577 19.8334 15.8666 19.6245 15.8666 19.3668V16.5668C15.8666 16.309 15.6577 16.1001 15.4 16.1001ZM14.9333 18.9001H13.0666V17.0334H14.9333V18.9001Z" fill="#FF7700"/>
<path d="M20.0665 16.1001H17.2665C17.0088 16.1001 16.7998 16.309 16.7998 16.5668V19.3668C16.7998 19.6245 17.0088 19.8334 17.2665 19.8334H20.0665C20.3242 19.8334 20.5331 19.6245 20.5331 19.3668V16.5668C20.5331 16.309 20.3242 16.1001 20.0665 16.1001ZM19.5998 18.9001H17.7331V17.0334H19.5998V18.9001Z" fill="#FF7700"/>
<path d="M2.80003 9.1001H2.33337C2.07565 9.1001 1.8667 9.30905 1.8667 9.56676V10.0334C1.8667 10.2911 2.07565 10.5001 2.33337 10.5001H2.80003C3.05775 10.5001 3.2667 10.2911 3.2667 10.0334V9.56676C3.2667 9.30905 3.05775 9.1001 2.80003 9.1001Z" fill="#FF7700"/>
<path d="M4.66673 9.1001H4.20006C3.94235 9.1001 3.7334 9.30905 3.7334 9.56676V10.0334C3.7334 10.2911 3.94235 10.5001 4.20006 10.5001H4.66673C4.92445 10.5001 5.1334 10.2911 5.1334 10.0334V9.56676C5.1334 9.30905 4.92445 9.1001 4.66673 9.1001Z" fill="#FF7700"/>
<path d="M2.80003 10.9668H2.33337C2.07565 10.9668 1.8667 11.1757 1.8667 11.4335V11.9001C1.8667 12.1578 2.07565 12.3668 2.33337 12.3668H2.80003C3.05775 12.3668 3.2667 12.1578 3.2667 11.9001V11.4335C3.2667 11.1757 3.05775 10.9668 2.80003 10.9668Z" fill="#FF7700"/>
<path d="M4.66673 10.9668H4.20006C3.94235 10.9668 3.7334 11.1757 3.7334 11.4335V11.9001C3.7334 12.1578 3.94235 12.3668 4.20006 12.3668H4.66673C4.92445 12.3668 5.1334 12.1578 5.1334 11.9001V11.4335C5.1334 11.1757 4.92445 10.9668 4.66673 10.9668Z" fill="#FF7700"/>
<path d="M2.80003 12.8335H2.33337C2.07565 12.8335 1.8667 13.0424 1.8667 13.3002V13.7668C1.8667 14.0245 2.07565 14.2335 2.33337 14.2335H2.80003C3.05775 14.2335 3.2667 14.0245 3.2667 13.7668V13.3002C3.2667 13.0424 3.05775 12.8335 2.80003 12.8335Z" fill="#FF7700"/>
<path d="M4.66673 12.8335H4.20006C3.94235 12.8335 3.7334 13.0424 3.7334 13.3002V13.7668C3.7334 14.0245 3.94235 14.2335 4.20006 14.2335H4.66673C4.92445 14.2335 5.1334 14.0245 5.1334 13.7668V13.3002C5.1334 13.0424 4.92445 12.8335 4.66673 12.8335Z" fill="#FF7700"/>
<path d="M2.80003 14.7002H2.33337C2.07565 14.7002 1.8667 14.9091 1.8667 15.1669V15.6335C1.8667 15.8912 2.07565 16.1002 2.33337 16.1002H2.80003C3.05775 16.1002 3.2667 15.8912 3.2667 15.6335V15.1669C3.2667 14.9091 3.05775 14.7002 2.80003 14.7002Z" fill="#FF7700"/>
<path d="M4.66673 14.7002H4.20006C3.94235 14.7002 3.7334 14.9091 3.7334 15.1669V15.6335C3.7334 15.8912 3.94235 16.1002 4.20006 16.1002H4.66673C4.92445 16.1002 5.1334 15.8912 5.1334 15.6335V15.1669C5.1334 14.9091 4.92445 14.7002 4.66673 14.7002Z" fill="#FF7700"/>
<path d="M2.80003 16.5669H2.33337C2.07565 16.5669 1.8667 16.7758 1.8667 17.0336V17.5002C1.8667 17.7579 2.07565 17.9669 2.33337 17.9669H2.80003C3.05775 17.9669 3.2667 17.7579 3.2667 17.5002V17.0336C3.2667 16.7758 3.05775 16.5669 2.80003 16.5669Z" fill="#FF7700"/>
<path d="M4.66673 16.5669H4.20006C3.94235 16.5669 3.7334 16.7758 3.7334 17.0336V17.5002C3.7334 17.7579 3.94235 17.9669 4.20006 17.9669H4.66673C4.92445 17.9669 5.1334 17.7579 5.1334 17.5002V17.0336C5.1334 16.7758 4.92445 16.5669 4.66673 16.5669Z" fill="#FF7700"/>
<path d="M2.80003 18.4331H2.33337C2.07565 18.4331 1.8667 18.6421 1.8667 18.8998V19.3664C1.8667 19.6242 2.07565 19.8331 2.33337 19.8331H2.80003C3.05775 19.8331 3.2667 19.6242 3.2667 19.3664V18.8998C3.2667 18.6421 3.05775 18.4331 2.80003 18.4331Z" fill="#FF7700"/>
<path d="M4.66673 18.4331H4.20006C3.94235 18.4331 3.7334 18.6421 3.7334 18.8998V19.3664C3.7334 19.6242 3.94235 19.8331 4.20006 19.8331H4.66673C4.92445 19.8331 5.1334 19.6242 5.1334 19.3664V18.8998C5.1334 18.6421 4.92445 18.4331 4.66673 18.4331Z" fill="#FF7700"/>
<path d="M2.80003 20.2998H2.33337C2.07565 20.2998 1.8667 20.5088 1.8667 20.7665V21.2331C1.8667 21.4909 2.07565 21.6998 2.33337 21.6998H2.80003C3.05775 21.6998 3.2667 21.4909 3.2667 21.2331V20.7665C3.2667 20.5088 3.05775 20.2998 2.80003 20.2998Z" fill="#FF7700"/>
<path d="M4.66673 20.2998H4.20006C3.94235 20.2998 3.7334 20.5088 3.7334 20.7665V21.2331C3.7334 21.4909 3.94235 21.6998 4.20006 21.6998H4.66673C4.92445 21.6998 5.1334 21.4909 5.1334 21.2331V20.7665C5.1334 20.5088 4.92445 20.2998 4.66673 20.2998Z" fill="#FF7700"/>
<path d="M2.80003 22.1665H2.33337C2.07565 22.1665 1.8667 22.3755 1.8667 22.6332V23.0998C1.8667 23.3575 2.07565 23.5665 2.33337 23.5665H2.80003C3.05775 23.5665 3.2667 23.3575 3.2667 23.0998V22.6332C3.2667 22.3755 3.05775 22.1665 2.80003 22.1665Z" fill="#FF7700"/>
<path d="M4.66673 22.1665H4.20006C3.94235 22.1665 3.7334 22.3755 3.7334 22.6332V23.0998C3.7334 23.3575 3.94235 23.5665 4.20006 23.5665H4.66673C4.92445 23.5665 5.1334 23.3575 5.1334 23.0998V22.6332C5.1334 22.3755 4.92445 22.1665 4.66673 22.1665Z" fill="#FF7700"/>
<path d="M2.80003 24.0332H2.33337C2.07565 24.0332 1.8667 24.2422 1.8667 24.4999V24.9665C1.8667 25.2243 2.07565 25.4332 2.33337 25.4332H2.80003C3.05775 25.4332 3.2667 25.2243 3.2667 24.9665V24.4999C3.2667 24.2422 3.05775 24.0332 2.80003 24.0332Z" fill="#FF7700"/>
<path d="M4.66673 24.0332H4.20006C3.94235 24.0332 3.7334 24.2422 3.7334 24.4999V24.9665C3.7334 25.2243 3.94235 25.4332 4.20006 25.4332H4.66673C4.92445 25.4332 5.1334 25.2243 5.1334 24.9665V24.4999C5.1334 24.2422 4.92445 24.0332 4.66673 24.0332Z" fill="#FF7700"/>
<path d="M25.6668 6.2998H23.8002C23.5424 6.2998 23.3335 6.50875 23.3335 6.76647V8.63314C23.3335 8.89085 23.5424 9.0998 23.8002 9.0998H25.6668C25.9245 9.0998 26.1335 8.89085 26.1335 8.63314V6.76647C26.1335 6.50875 25.9245 6.2998 25.6668 6.2998ZM25.2002 8.16647H24.2668V7.23314H25.2002V8.16647Z" fill="#FF7700"/>
<path d="M25.6668 10.0332H23.8002C23.5424 10.0332 23.3335 10.2422 23.3335 10.4999V12.3665C23.3335 12.6243 23.5424 12.8332 23.8002 12.8332H25.6668C25.9245 12.8332 26.1335 12.6243 26.1335 12.3665V10.4999C26.1335 10.2422 25.9245 10.0332 25.6668 10.0332ZM25.2002 11.8999H24.2668V10.9665H25.2002V11.8999Z" fill="#FF7700"/>
<path d="M25.6668 13.7666H23.8002C23.5424 13.7666 23.3335 13.9756 23.3335 14.2333V16.0999C23.3335 16.3577 23.5424 16.5666 23.8002 16.5666H25.6668C25.9245 16.5666 26.1335 16.3577 26.1335 16.0999V14.2333C26.1335 13.9756 25.9245 13.7666 25.6668 13.7666ZM25.2002 15.6333H24.2668V14.6999H25.2002V15.6333Z" fill="#FF7700"/>
<path d="M25.6668 17.5H23.8002C23.5424 17.5 23.3335 17.709 23.3335 17.9667V19.8333C23.3335 20.0911 23.5424 20.3 23.8002 20.3H25.6668C25.9245 20.3 26.1335 20.0911 26.1335 19.8333V17.9667C26.1335 17.709 25.9245 17.5 25.6668 17.5ZM25.2002 19.3667H24.2668V18.4333H25.2002V19.3667Z" fill="#FF7700"/>
<path d="M25.6668 21.2334H23.8002C23.5424 21.2334 23.3335 21.4423 23.3335 21.7001V23.5667C23.3335 23.8245 23.5424 24.0334 23.8002 24.0334H25.6668C25.9245 24.0334 26.1335 23.8245 26.1335 23.5667V21.7001C26.1335 21.4423 25.9245 21.2334 25.6668 21.2334ZM25.2002 23.1001H24.2668V22.1667H25.2002V23.1001Z" fill="#FF7700"/>
</svg>
