<svg viewBox="0 0 28 28" fill="none" xmlns="http://www.w3.org/2000/svg">
    <path d="M20.5625 3.28125C20.8643 3.28125 21.1094 3.03622 21.1094 2.73438C21.1094 2.43253 20.8643 2.1875 20.5625 2.1875C20.2607 2.1875 20.0156 2.43253 20.0156 2.73438C20.0156 3.03622 20.2607 3.28125 20.5625 3.28125Z"/>
    <path d="M15.0938 3.28125C15.3956 3.28125 15.6406 3.03622 15.6406 2.73438C15.6406 2.43253 15.3956 2.1875 15.0938 2.1875C14.7919 2.1875 14.5469 2.43253 14.5469 2.73438C14.5469 3.03622 14.7919 3.28125 15.0938 3.28125Z"/>
    <path d="M9.625 3.28125C9.92685 3.28125 10.1719 3.03622 10.1719 2.73438C10.1719 2.43253 9.92685 2.1875 9.625 2.1875C9.32315 2.1875 9.07812 2.43253 9.07812 2.73438C9.07812 3.03622 9.32315 3.28125 9.625 3.28125Z"/>
    <path d="M0.546875 4.375H1.42188V6.01562C1.42188 6.92032 2.15781 7.65625 3.0625 7.65625H22.75C23.6547 7.65625 24.3906 6.92032 24.3906 6.01562V4.375H26.3594C26.661 4.375 26.9062 4.62024 26.9062 4.92188V9.29688C26.9062 9.59851 26.661 9.84375 26.3594 9.84375H14C13.0953 9.84375 12.3594 10.5797 12.3594 11.4844V14.2188H10.7188C9.81235 14.2188 9.07812 14.953 9.07812 15.8594C9.07812 16.5722 9.53528 17.1802 10.1719 17.406V26.3594C10.1719 27.2641 10.9078 28 11.8125 28H14C14.9047 28 15.6406 27.2641 15.6406 26.3594V17.4069C16.2635 17.187 16.7344 16.5885 16.7344 15.8594C16.7344 14.9547 15.9984 14.2188 15.0938 14.2188H13.4531V11.4844C13.4531 11.1827 13.6984 10.9375 14 10.9375H26.3594C27.2641 10.9375 28 10.2016 28 9.29688V4.92188C28 4.01718 27.2641 3.28125 26.3594 3.28125H24.3906V1.64062C24.3906 0.735931 23.6547 0 22.75 0H3.0625C2.15781 0 1.42188 0.735931 1.42188 1.64062V3.28125H0.546875C0.244812 3.28125 0 3.52606 0 3.82812C0 4.13019 0.244812 4.375 0.546875 4.375ZM14 26.9062H11.8125C11.5109 26.9062 11.2656 26.661 11.2656 26.3594V17.5H14.5469V26.3594C14.5469 26.661 14.3016 26.9062 14 26.9062ZM15.6406 15.8594C15.6406 16.1614 15.3956 16.4062 15.0938 16.4062H10.7188C10.4171 16.4062 10.1719 16.161 10.1719 15.8594C10.1719 15.5573 10.4169 15.3125 10.7188 15.3125H15.0938C15.3954 15.3125 15.6406 15.5577 15.6406 15.8594ZM2.51562 1.64062C2.51562 1.33899 2.76086 1.09375 3.0625 1.09375H22.75C23.0516 1.09375 23.2969 1.33899 23.2969 1.64062V6.01562C23.2969 6.31726 23.0516 6.5625 22.75 6.5625H3.0625C2.76086 6.5625 2.51562 6.31726 2.51562 6.01562V1.64062Z"/>
    <path d="M5.49472 5.41096L7.91293 4.20185C8.18317 4.06663 8.29254 3.73808 8.15753 3.46806C8.02252 3.19782 7.69376 3.08824 7.42395 3.22346L5.00552 4.43257C4.7355 4.56758 4.62591 4.89613 4.76092 5.16636C4.89636 5.43702 5.22513 5.54576 5.49472 5.41096Z"/>
    <path d="M10.9635 5.41096L13.3817 4.20185C13.6519 4.06663 13.7613 3.73808 13.6263 3.46806C13.4913 3.19782 13.1627 3.08824 12.8927 3.22346L10.4743 4.43257C10.2043 4.56758 10.0947 4.89613 10.2297 5.16636C10.3651 5.43702 10.6939 5.54576 10.9635 5.41096Z"/>
    <path d="M16.4322 5.41096L18.8504 4.20185C19.1207 4.06663 19.23 3.73808 19.095 3.46806C18.96 3.19782 18.6313 3.08824 18.3614 3.22346L15.943 4.43257C15.673 4.56758 15.5634 4.89613 15.6984 5.16636C15.8339 5.43702 16.1626 5.54576 16.4322 5.41096Z"/>
</svg>