<svg width="1312" height="354" viewBox="0 0 1312 354" fill="none" xmlns="http://www.w3.org/2000/svg">
<path d="M390.485 346H173.525V288.4C173.845 288.08 181.685 280.56 197.045 265.84L223.445 239.44C229.205 233.04 236.885 225.04 246.485 215.44C257.365 203.92 265.045 194.8 269.525 188.08L285.365 163.6C296.565 146.64 302.165 129.2 302.165 111.28C302.165 89.2 291.925 78.16 271.445 78.16C262.165 78.16 254.805 81.2 249.365 87.28C243.925 93.04 238.965 102 234.485 114.16L174.485 86.8C180.245 61.52 192.085 41.84 210.005 27.76C228.245 13.36 251.605 6.15999 280.085 6.15999C311.125 6.15999 335.285 14.96 352.565 32.56C370.165 50.16 378.965 71.6 378.965 96.88C378.965 160.56 341.525 221.2 266.645 278.8H390.485V346Z" fill="white"/>
<path d="M454.067 304.72C434.227 274.32 424.307 232.08 424.307 178C424.307 123.92 434.067 81.84 453.587 51.76C473.427 21.36 502.387 6.15999 540.467 6.15999C578.227 6.15999 607.027 21.36 626.867 51.76C646.707 82.16 656.627 124.24 656.627 178C656.627 232.4 646.867 274.64 627.347 304.72C607.827 334.8 579.187 349.84 541.427 349.84C503.347 349.84 474.227 334.8 454.067 304.72ZM501.107 178C501.107 247.76 514.547 282.64 541.427 282.64C555.187 282.64 564.947 274.8 570.707 259.12C576.787 243.44 579.827 216.4 579.827 178C579.827 139.6 576.787 112.56 570.707 96.88C564.947 81.2 554.867 73.36 540.467 73.36C526.707 73.36 516.627 81.52 510.227 97.84C504.147 113.84 501.107 140.56 501.107 178Z" fill="white"/>
<path d="M713.24 135.76L675.8 76.24L767 9.99997H818.84V346H746.84V112.24L713.24 135.76Z" fill="white"/>
<path d="M1004.81 137.2H1011.05C1021.29 137.2 1029.29 134.32 1035.05 128.56C1040.81 122.48 1043.69 114.96 1043.69 106C1043.69 86.16 1031.37 76.24 1006.73 76.24C995.21 76.24 986.41 78.96 980.33 84.4C974.25 89.84 971.21 97.04 971.21 106C971.21 114.96 974.09 122.48 979.85 128.56C985.93 134.32 994.25 137.2 1004.81 137.2ZM1011.05 209.2H1005.29C993.45 209.2 983.37 212.4 975.05 218.8C967.05 225.2 963.05 233.84 963.05 244.72C963.05 255.6 966.73 264.24 974.09 270.64C981.45 276.72 992.49 279.76 1007.21 279.76C1022.25 279.76 1033.45 276.88 1040.81 271.12C1048.49 265.36 1052.17 256.56 1051.85 244.72C1051.53 233.52 1047.69 224.88 1040.33 218.8C1033.29 212.4 1023.53 209.2 1011.05 209.2ZM1007.69 351.76C971.85 351.76 942.73 343.44 920.33 326.8C897.61 309.84 886.25 287.28 886.25 259.12C886.25 238.64 890.89 221.04 900.17 206.32C909.45 191.6 921.93 180.88 937.61 174.16V172.72C924.49 165.68 913.93 155.28 905.93 141.52C898.25 127.76 894.41 111.6 894.41 93.04C894.41 67.12 905.13 45.84 926.57 29.2C948.01 12.56 974.89 4.23999 1007.21 4.23999C1039.53 4.23999 1066.41 12.56 1087.85 29.2C1109.61 46.16 1120.49 67.44 1120.49 93.04C1120.49 109.68 1116.17 125.2 1107.53 139.6C1098.89 154 1087.21 164.88 1072.49 172.24V173.68C1088.81 177.84 1102.25 187.12 1112.81 201.52C1123.37 215.6 1128.65 232.72 1128.65 252.88C1128.65 283.92 1117.45 308.24 1095.05 325.84C1072.33 343.12 1043.21 351.76 1007.69 351.76Z" fill="white"/>
</svg>
