<svg width="42" height="54" viewBox="0 0 42 54" fill="none" xmlns="http://www.w3.org/2000/svg">
<path d="M27.4848 39.3954L27.4925 39.3928L27.5001 39.3901C35.0717 36.7139 40.5 29.4927 40.5 21C40.5 10.2311 31.7699 1.5 21.0004 1.5C10.2302 1.5 1.5 10.2311 1.5 21C1.5 29.4928 6.92806 36.714 14.5002 39.3901C16.9911 40.2705 18.733 41.9421 19.5779 44.4747L21.002 48.7434L22.424 44.474C23.2736 41.9231 24.9233 40.2698 27.4848 39.3954Z" fill="#FF7700" stroke="white" stroke-width="3"/>
<path d="M24.4738 24.0308C25.4275 23.0728 25.9527 21.7991 25.9527 20.4447C25.9527 19.0895 25.4275 17.8167 24.4738 16.8582C23.5222 15.9015 22.2538 15.3748 20.9034 15.3748C19.5534 15.3748 18.2859 15.9015 17.3343 16.8582C16.3802 17.8167 15.855 19.0899 15.855 20.4447C15.855 21.7995 16.3802 23.0732 17.3343 24.0299C17.9402 24.6399 18.6956 25.0821 19.5292 25.3175V34.4022H24.0374V31.6388H22.2794V25.3179C23.1113 25.0829 23.8658 24.6403 24.4738 24.0308ZM23.2021 20.4447C23.2021 21.061 22.9627 21.641 22.5296 22.0774C21.6324 22.9778 20.1753 22.9778 19.2781 22.0774C18.8445 21.641 18.606 21.061 18.606 20.4447C18.606 19.8281 18.8445 19.248 19.2781 18.8116C19.7112 18.377 20.2887 18.137 20.9039 18.137C21.5182 18.137 22.0952 18.377 22.5296 18.8116C22.9627 19.248 23.2021 19.8281 23.2021 20.4447Z" fill="white"/>
<path d="M12.8236 19.0631H6.93652V21.8261H12.8236V19.0631Z" fill="white"/>
<path d="M34.872 19.0631H28.9854V21.8261H34.872V19.0631Z" fill="white"/>
<path d="M14.2175 25.2079L10.0542 29.39L11.9989 31.3434L16.1622 27.1613L14.2175 25.2079Z" fill="white"/>
<path d="M25.6454 13.729L27.5903 15.6822L31.7525 11.5001L29.8075 9.54696L25.6454 13.729Z" fill="white"/>
<path d="M16.1632 13.7278L12.0005 9.5463L10.0555 11.5L14.2183 15.6815L16.1632 13.7278Z" fill="white"/>
<path d="M27.5899 25.2063L25.6455 27.16L29.8085 31.3406L31.7529 29.3869L27.5899 25.2063Z" fill="white"/>
<path d="M22.279 6.41373H19.5288V12.3277H22.279V6.41373Z" fill="white"/>
</svg>
