<svg viewBox="0 0 28 28" fill="none" xmlns="http://www.w3.org/2000/svg" class="gallery__tab-icon">
    <path class="gallery__icon-color" d="M26.9291 11.2179L26.3188 10.5718L24.1769 4.79825C23.812 3.82304 22.8786 3.17688 21.8376 3.1709H6.53932C5.49829 3.1709 4.56496 3.82304 4.2 4.79825L2.08803 10.5L1.20855 11.3136C0.442735 11.9658 0 12.923 0 13.9282V22.3401C0.00598291 23.7162 1.12479 24.829 2.50085 24.829H4.08034C5.45641 24.829 6.57521 23.7162 6.5812 22.3401V21.1196H21.4188V22.3401C21.4248 23.7162 22.5436 24.829 23.9197 24.829H25.4991C26.8752 24.829 27.994 23.7162 28 22.3401V13.7068C27.994 12.7675 27.6111 11.87 26.9291 11.2179ZM5.32479 5.20509C5.51624 4.69654 6.00085 4.36748 6.53932 4.36748H21.8436C22.3821 4.36748 22.8667 4.70252 23.0581 5.20509L24.9248 10.2307H23.5308C23.2017 7.98714 21.1137 6.43756 18.8701 6.77261C17.0812 7.03586 15.6752 8.44184 15.412 10.2307H3.45812L5.32479 5.20509ZM22.3103 10.2307H16.6205C16.9496 8.65722 18.4932 7.65209 20.0667 7.98115C21.1915 8.22047 22.0709 9.09996 22.3103 10.2307ZM5.38462 22.3401C5.37863 23.0581 4.79829 23.6324 4.08034 23.6324H2.50085C1.78291 23.6324 1.20256 23.0581 1.19658 22.3401V20.7726C1.55556 21.0059 2.02821 21.1196 2.50085 21.1196H5.38462V22.3401ZM26.8034 22.3401C26.7974 23.0581 26.2171 23.6324 25.4991 23.6324H23.9197C23.2017 23.6324 22.6214 23.0521 22.6154 22.3401V21.1196H25.4991C25.9718 21.1196 26.4444 21.0059 26.8034 20.7726V22.3401ZM25.4991 19.923H2.50085C1.78889 19.929 1.20256 19.3606 1.19658 18.6427V13.9282C1.19658 13.27 1.48974 12.6418 1.99231 12.2171C1.99829 12.2111 2.01026 12.1991 2.01624 12.1931L2.82991 11.4273H25.4872L26.0615 12.0435C26.0675 12.0555 26.0855 12.0615 26.0915 12.0735C26.5402 12.4982 26.7974 13.0906 26.7974 13.7068V18.6427H26.8034C26.7974 19.3547 26.2111 19.929 25.4991 19.923Z"/>
    <path class="gallery__icon-color" d="M7.89748 13.8203H3.4103C3.08124 13.8203 2.81201 14.0895 2.81201 14.4186V17.5297C2.81201 17.8588 3.08124 18.128 3.4103 18.128H7.89748C8.22654 18.128 8.49577 17.8588 8.49577 17.5297V14.4186C8.49577 14.0895 8.22654 13.8203 7.89748 13.8203ZM7.29919 16.9314H4.00859V15.0169H7.29919V16.9314Z"/>
    <path class="gallery__icon-color" d="M24.5899 13.8203H20.1027C19.7736 13.8203 19.5044 14.0895 19.5044 14.4186V17.5297C19.5044 17.8588 19.7736 18.128 20.1027 18.128H24.5899C24.9189 18.128 25.1882 17.8588 25.1882 17.5297V14.4186C25.1882 14.0895 24.9189 13.8203 24.5899 13.8203ZM23.9916 16.9314H20.701V15.0169H23.9916V16.9314Z"/>
    <path class="gallery__icon-color" d="M16.8895 16.3335H11.11C10.7809 16.3335 10.5117 16.6027 10.5117 16.9318C10.5117 17.2608 10.7809 17.5301 11.11 17.5301H16.8895C17.2185 17.5301 17.4878 17.2608 17.4878 16.9318C17.4878 16.6027 17.2185 16.3335 16.8895 16.3335Z"/>
    <path class="gallery__icon-color" d="M16.8895 14.4785H11.11C10.7809 14.4785 10.5117 14.7477 10.5117 15.0768C10.5117 15.4059 10.7809 15.6751 11.11 15.6751H16.8895C17.2185 15.6751 17.4878 15.4059 17.4878 15.0768C17.4878 14.7477 17.2185 14.4785 16.8895 14.4785Z"/>
</svg>
