<svg width="28" height="37" viewBox="0 0 28 37" fill="none" xmlns="http://www.w3.org/2000/svg">
<path d="M0.5 0.5H18.4609L22.9814 4.98014L27.5 9.45842V36.5H0.5V0.5Z" stroke="#1D1D1B"/>
<path d="M6.20021 29.4702V32.0002H4.97021V25.0002C5.26355 25.0002 5.58021 24.9969 5.92021 24.9902C6.26688 24.9835 6.61355 24.9802 6.96021 24.9802C7.45355 24.9802 7.88021 25.0435 8.24022 25.1702C8.60688 25.2902 8.89021 25.4602 9.09021 25.6802C9.29021 25.8935 9.43688 26.1302 9.53022 26.3902C9.62355 26.6435 9.67021 26.9235 9.67021 27.2302C9.67021 27.8635 9.44355 28.4002 8.99022 28.8402C8.54355 29.2802 7.91688 29.5002 7.11021 29.5002C6.70355 29.5002 6.40021 29.4902 6.20021 29.4702ZM7.08022 26.1302L6.20021 26.1502V28.3002C6.55355 28.3335 6.84355 28.3502 7.07021 28.3502C7.46355 28.3502 7.77688 28.2535 8.01022 28.0602C8.25021 27.8669 8.37021 27.5869 8.37021 27.2202C8.37021 26.4935 7.94022 26.1302 7.08022 26.1302Z" fill="#1D1D1B"/>
<path d="M11.2333 32.0002H11.0933V25.0002H11.2233C11.5166 25.0002 11.8266 24.9969 12.1533 24.9902C12.8066 24.9769 13.1399 24.9702 13.1533 24.9702C14.5133 24.9702 15.5199 25.3169 16.1733 26.0102C16.7799 26.6569 17.0833 27.4635 17.0833 28.4302C17.0833 29.4702 16.7333 30.3302 16.0333 31.0102C15.3399 31.6835 14.3533 32.0202 13.0733 32.0202C12.8066 32.0202 12.5266 32.0169 12.2333 32.0102C11.9466 32.0035 11.6133 32.0002 11.2333 32.0002ZM13.1333 26.1202C12.8733 26.1202 12.6033 26.1302 12.3233 26.1502V30.8502C12.6299 30.8635 12.8933 30.8702 13.1133 30.8702C13.9466 30.8702 14.5999 30.6502 15.0733 30.2102C15.5466 29.7702 15.7833 29.1769 15.7833 28.4302C15.7833 27.7169 15.5466 27.1535 15.0733 26.7402C14.6066 26.3269 13.9599 26.1202 13.1333 26.1202Z" fill="#1D1D1B"/>
<path d="M19.7354 32.0002H18.5054V25.0002H22.5054V26.1502H19.7354V28.1302H22.2054V29.2802H19.7354V32.0002Z" fill="#1D1D1B"/>
</svg>
