<svg width="1312" height="207" viewBox="0 0 1312 207" fill="none" xmlns="http://www.w3.org/2000/svg">
<path d="M39.8274 177.144H0V2.98557H39.8274V78.869L96.8304 2.98557H144.623L79.157 83.3474L149.851 177.144H99.3196L39.8274 94.2945V177.144Z" fill="white"/>
<path d="M150.909 90.0649C150.909 64.3558 159.455 42.9591 176.547 25.875C193.806 8.625 216.126 0 243.507 0C270.723 0 292.877 8.21033 309.969 24.631C327.394 41.0517 336.106 62.863 336.106 90.0649C336.106 116.272 327.311 137.834 309.72 154.752C292.296 171.671 270.225 180.13 243.507 180.13C216.458 180.13 194.221 171.919 176.796 155.499C159.538 139.078 150.909 117.267 150.909 90.0649ZM193.225 90.0649C193.225 104.827 198.121 117.35 207.912 127.633C217.536 137.751 229.402 142.81 243.507 142.81C259.438 142.81 271.801 137.917 280.597 128.131C289.392 118.013 293.789 105.325 293.789 90.0649C293.789 74.3077 288.977 61.619 279.352 51.9988C269.561 42.2127 257.613 37.3197 243.507 37.3197C228.904 37.3197 216.873 42.2127 207.414 51.9988C197.955 61.7848 193.225 74.4735 193.225 90.0649Z" fill="white"/>
<path d="M408.348 177.144H368.52V2.98557H408.597L462.364 76.381L513.143 2.98557H550.731V177.144H510.903V66.1803L462.364 134.102H456.638L408.348 66.9267V177.144Z" fill="white"/>
<path d="M613.237 177.144H573.161L645.597 2.98557H681.193L753.629 177.144H711.063L696.626 140.571H627.674L613.237 177.144ZM681.69 103.251L662.275 53.9892L642.61 103.251H681.69Z" fill="white"/>
<path d="M919.064 177.144H879.237V106.983H815.762V177.144H775.934V2.98557H815.762V69.6635H879.237V2.98557H919.064V177.144Z" fill="white"/>
<path d="M981.265 207H943.927V139.825H962.596C967.575 133.19 972.636 120.999 977.78 103.251C983.091 85.1719 986.41 63.3606 987.737 37.8173L989.231 2.98557H1102.99V139.825H1126.64V207H1089.3V177.144H981.265V207ZM1027.81 40.3053L1025.08 69.6635C1023.91 83.5961 1021.26 97.8606 1017.11 112.457C1013.13 126.555 1009.56 135.678 1006.41 139.825H1063.16V40.3053H1027.81Z" fill="white"/>
<path d="M1171.61 177.144H1131.53L1203.97 2.98557H1239.56L1312 177.144H1269.43L1255 140.571H1186.05L1171.61 177.144ZM1240.06 103.251L1220.65 53.9892L1200.98 103.251H1240.06Z" fill="white"/>
</svg>
