<svg width="16" height="16" viewBox="0 0 16 16" fill="none" xmlns="http://www.w3.org/2000/svg">
<path d="M16 7.99977C16 12.4178 12.4184 15.9995 8.00037 15.9995C3.58161 15.9997 0 12.418 0 7.99977C0 3.58188 3.58161 0 8.00019 0C12.4184 0 16 3.58188 16 7.99977Z" fill="#FF7700"/>
<path d="M9.54545 9.34648C9.96931 8.92072 10.2027 8.35466 10.2027 7.75273C10.2027 7.15043 9.96931 6.58474 9.54545 6.15879C9.12251 5.7336 8.55878 5.49951 7.9586 5.49951C7.3586 5.49951 6.79525 5.7336 6.37231 6.15879C5.94826 6.58474 5.71484 7.15062 5.71484 7.75273C5.71484 8.35485 5.94826 8.92091 6.37231 9.34611C6.64162 9.61718 6.97733 9.81372 7.34782 9.91834V13.9559H9.35146V12.7277H8.57013V9.91852C8.93987 9.81409 9.27521 9.61737 9.54545 9.34648ZM8.98023 7.75273C8.98023 8.02661 8.87385 8.28442 8.68135 8.47834C8.28259 8.8785 7.63498 8.8785 7.23622 8.47834C7.04354 8.28442 6.93753 8.02661 6.93753 7.75273C6.93753 7.47867 7.04354 7.22086 7.23622 7.02694C7.42872 6.83377 7.68538 6.7271 7.95879 6.7271C8.23182 6.7271 8.48829 6.83377 8.68135 7.02694C8.87385 7.22086 8.98023 7.47867 8.98023 7.75273Z" fill="white"/>
<path d="M4.36648 7.13885H1.75V8.36681H4.36648V7.13885Z" fill="white"/>
<path d="M14.1651 7.13867H11.5488V8.36663H14.1651V7.13867Z" fill="white"/>
<path d="M4.98514 9.86987L3.13477 11.7285L3.99906 12.5967L5.84943 10.738L4.98514 9.86987Z" fill="white"/>
<path d="M10.0653 4.76819L10.9297 5.63623L12.7795 3.77759L11.9151 2.90955L10.0653 4.76819Z" fill="white"/>
<path d="M5.85011 4.76756L4 2.90918L3.13557 3.77747L4.98568 5.63585L5.85011 4.76756Z" fill="white"/>
<path d="M10.9286 9.86902L10.0645 10.7373L11.9147 12.5953L12.7789 11.727L10.9286 9.86902Z" fill="white"/>
<path d="M8.56997 1.51709H7.34766V4.14544H8.56997V1.51709Z" fill="white"/>
</svg>
