<svg width="690" height="345" viewBox="0 0 690 345" fill="none" xmlns="http://www.w3.org/2000/svg">
<g clip-path="url(#clip0)">
<path opacity="0.3" d="M0.5 345C0.499996 299.76 9.41075 254.962 26.7235 213.166C44.0362 171.369 69.4119 133.392 101.402 101.402C133.391 69.4119 171.369 44.0363 213.166 26.7235C254.962 9.41076 299.76 0.500002 345 0.5C390.24 0.499998 435.038 9.41075 476.834 26.7235C518.631 44.0362 556.608 69.4119 588.598 101.402C620.588 133.391 645.964 171.369 663.276 213.166C680.589 254.962 689.5 299.76 689.5 345" stroke="white"/>
<path d="M343.16 241.5C399.734 241.5 445.819 287.268 445.819 344.16C445.819 400.733 400.053 446.818 343.162 446.819C286.266 446.502 240.5 400.732 240.5 344.16C240.5 287.267 286.267 241.5 343.16 241.5Z" stroke="white"/>
<path d="M294.295 371.365C290.231 357.57 291.406 341.457 297.113 323.883C310.443 333.492 318.819 345.166 322.92 358.716C327.028 372.294 326.855 387.794 323.015 405.046C307.655 396.663 298.354 385.143 294.295 371.365Z" stroke="white"/>
<path d="M337.511 400.32C334.276 373.333 336.545 349.689 345.096 329.947C353.633 310.235 368.45 294.375 390.391 282.948C396.14 311.045 395.199 335.779 386.694 355.781C378.199 375.761 362.134 391.075 337.511 400.32Z" stroke="white"/>
</g>
<defs>
<clipPath id="clip0">
<rect width="690" height="345" fill="white"/>
</clipPath>
</defs>
</svg>
