<svg width="1032" height="456" viewBox="0 0 1032 456" fill="none" xmlns="http://www.w3.org/2000/svg">
<g id="combain">
<g clip-path="url(#clip0)">
<g id="Group">
<path id="Vector" d="M244.333 152.571L330.644 141.695L364.896 148.644V167.977H253.99L244.333 152.571Z" stroke="#233C78" stroke-linecap="round" stroke-linejoin="round"/>
<path id="Vector_2" d="M267.721 167.977H364.896V287.907H293.826L267.721 167.977ZM355.541 277.334V177.493H296.844L319.93 277.334H355.541ZM319.93 277.334L296.693 177.493H279.943L303.332 277.334H319.93Z" stroke="#233C78" stroke-linecap="round" stroke-linejoin="round"/>
<path id="Vector_3" d="M634.091 403.91H595.16L546.422 369.622L662.761 343.189V354.82L634.091 403.91Z" stroke="#233C78" stroke-linecap="round" stroke-linejoin="round"/>
<path id="Vector_4" d="M751.335 289.568L737.604 240.63L869.032 226.13L893.175 260.417V312.376L746.054 324.309L736.849 326.423L751.335 289.568Z" stroke="#233C78" stroke-linecap="round" stroke-linejoin="round"/>
<path id="Vector_5" d="M724.627 185.649L369.122 227.338V149.248H708.783L714.97 163.446H761.596V174.925H719.949L724.627 185.649Z" stroke="#233C78" stroke-linecap="round" stroke-linejoin="round"/>
<path id="Vector_6" d="M746.053 243.651L759.332 290.626L746.204 324.309L546.572 369.622L460.714 313.434C451.207 307.241 440.343 303.918 429.026 303.918H369.272V227.338L724.627 185.65L733.077 204.832" stroke="#233C78" stroke-linecap="round" stroke-linejoin="round"/>
<path id="Vector_7" d="M934.067 237.005C932.558 237.156 931.2 237.156 929.842 237.307L910.075 221.598L452.113 272.198C451.51 272.198 450.906 272.349 450.302 272.349C442.456 272.349 435.817 266.459 434.911 258.604C434.006 250.146 440.042 242.442 448.643 241.536L928.786 188.368C928.786 188.368 928.786 188.368 928.937 188.368C935.425 188.368 949.458 219.333 950.665 230.661C950.816 232.171 950.364 232.927 950.062 233.38C947.798 236.099 940.254 236.552 934.067 237.005Z" stroke="#233C78" stroke-linecap="round" stroke-linejoin="round"/>
<path id="Vector_8" d="M811.24 319.022L893.175 312.376L865.712 361.466L819.086 344.549L811.24 319.022Z" stroke="#233C78" stroke-linecap="round" stroke-linejoin="round"/>
<path id="Vector_9" d="M137.047 440.312H242.974L318.119 401.04V356.33" stroke="#233C78" stroke-linecap="round" stroke-linejoin="round"/>
<path id="Vector_10" d="M137.048 440.312L243.729 391.826" stroke="#233C78" stroke-linecap="round" stroke-linejoin="round"/>
<path id="Vector_11" d="M564.227 122.211L623.83 149.248H504.775L564.227 122.211Z" stroke="#FECD00" stroke-linecap="round" stroke-linejoin="round"/>
<path id="Vector_12" d="M822.859 195.014L808.373 196.525V190.634H804.752V167.977H826.48V190.634H822.859V195.014Z" stroke="#233C78" stroke-linecap="round" stroke-linejoin="round"/>
<path id="Vector_13" d="M414.088 303.918C356.748 303.918 336.529 347.916 336.529 391.826L292.468 414.634V369.32L323.25 353.763V288.209H365.048H369.273" stroke="#233C78" stroke-linecap="round" stroke-linejoin="round"/>
<path id="Vector_14" d="M323.25 340.773L165.717 358.747L212.494 406.024L289.45 370.68L323.25 353.612V340.773Z" stroke="#233C78" stroke-linecap="round" stroke-linejoin="round"/>
<path id="rotator" d="M172.912 356.33C172.912 360.643 169.42 364.138 165.113 364.138C160.806 364.138 157.314 360.643 157.314 356.33C157.314 352.018 160.806 348.523 165.113 348.523C169.42 348.523 172.912 352.018 172.912 356.33ZM165.039 409.56L119.591 383.331V330.722L165.039 304.345L210.636 330.723V383.33L165.039 409.56ZM165.113 377.221C176.641 377.221 185.984 367.868 185.984 356.33C185.984 344.793 176.641 335.439 165.113 335.439C153.586 335.439 144.243 344.793 144.243 356.33C144.243 367.868 153.586 377.221 165.113 377.221Z" stroke="#FECD00" stroke-linecap="round" stroke-linejoin="round"/>
<path id="Vector_15" d="M605 255L546.422 369.622L514.583 380.951C514.583 380.951 491.647 323.403 448.794 307.543" stroke="#233C78" stroke-linecap="round" stroke-linejoin="round"/>
<g id="wheel-1">
<path fill-rule="evenodd" clip-rule="evenodd" d="M420.123 415.691C402.921 415.691 389.039 401.795 389.039 384.576C389.039 367.357 402.921 353.461 420.123 353.461C437.325 353.461 451.207 367.357 451.207 384.576C451.207 401.644 437.325 415.691 420.123 415.691ZM430.082 401.04C428.271 399.227 428.271 396.206 430.082 394.394C431.893 392.581 434.91 392.581 436.721 394.394C438.532 396.206 438.532 399.227 436.721 401.04C434.76 402.852 431.893 402.852 430.082 401.04ZM430.082 367.961C428.271 369.774 428.271 372.795 430.082 374.607C431.893 376.42 434.76 376.42 436.721 374.607C438.532 372.795 438.532 369.774 436.721 367.961C434.91 366.149 431.893 366.149 430.082 367.961ZM403.675 374.607C401.865 372.795 401.865 369.774 403.675 367.961C405.486 366.149 408.504 366.149 410.315 367.961C412.125 369.774 412.125 372.795 410.315 374.607C408.504 376.42 405.486 376.42 403.675 374.607ZM410.315 401.04C412.125 399.227 412.125 396.206 410.315 394.394C408.504 392.581 405.486 392.581 403.675 394.394C401.865 396.206 401.865 399.227 403.675 401.04C405.486 402.852 408.504 402.852 410.315 401.04ZM420.123 390.769C416.652 390.769 413.936 388.05 413.936 384.576C413.936 381.102 416.652 378.383 420.123 378.383C423.594 378.383 426.31 381.102 426.31 384.576C426.31 387.899 423.594 390.769 420.123 390.769Z" stroke="#233C78" stroke-linecap="round" stroke-linejoin="round"/>
<path fill-rule="evenodd" clip-rule="evenodd" d="M348.6 383.67C348.6 383.67 348.6 383.518 348.751 383.518C348.751 383.443 348.788 383.33 348.826 383.216C348.864 383.103 348.901 382.99 348.901 382.914H349.052C349.958 381.555 351.467 380.195 353.428 379.591L354.183 379.289C354.334 377.477 354.484 375.815 354.786 374.003C352.825 373.247 351.316 371.888 351.316 370.076L351.165 363.883C351.165 361.315 354.183 359.2 357.955 359.049H358.86C359.318 357.788 359.864 356.614 360.43 355.395C360.609 355.008 360.791 354.616 360.973 354.216C359.313 352.856 358.408 351.044 358.86 349.382L360.671 343.492C361.426 341.075 364.896 339.866 368.518 341.075L369.423 341.377C370.479 340.018 371.686 338.658 372.893 337.45C371.686 335.637 371.385 333.674 372.29 332.314L375.76 327.179C377.269 325.064 380.891 325.064 384.06 327.33L384.815 327.783C386.323 326.876 387.832 325.97 389.341 325.215C388.737 323.1 389.039 321.137 390.397 320.08L395.377 316.303C397.338 314.793 400.96 316.001 403.223 319.022L403.676 319.777C405.116 319.384 406.67 319.105 408.141 318.84C408.365 318.8 408.587 318.76 408.806 318.72C408.957 316.606 409.862 314.793 411.371 314.189L417.256 312.225C419.67 311.319 422.688 313.585 423.895 317.21L424.197 317.965C426.008 318.116 427.668 318.267 429.479 318.569C430.233 316.606 431.591 315.095 433.402 315.095L439.588 314.944C442.154 314.944 444.266 317.965 444.417 321.741V322.647C445.677 323.106 446.85 323.652 448.068 324.218C448.455 324.398 448.846 324.58 449.246 324.762C450.604 323.1 452.414 322.194 454.074 322.647L459.959 324.46C462.373 325.215 463.43 328.689 462.373 332.314L462.072 333.22C463.43 334.278 464.788 335.486 465.995 336.695C467.805 335.486 469.767 335.184 471.125 336.09L476.256 339.564C478.368 341.075 478.368 344.7 476.105 347.872L475.652 348.627C476.557 350.138 477.463 351.648 478.217 353.158C480.33 352.554 482.291 352.856 483.347 354.216L487.12 359.2C488.629 361.164 487.422 364.789 484.404 367.055L483.649 367.508C484.042 368.95 484.321 370.505 484.586 371.977C484.626 372.202 484.666 372.424 484.706 372.643C486.818 372.794 488.629 373.701 489.232 375.211L491.194 381.102C491.345 381.706 491.345 382.159 491.345 382.763C491.345 382.763 491.345 382.914 491.194 382.914C491.194 382.99 491.156 383.103 491.118 383.216C491.081 383.33 491.043 383.443 491.043 383.518H490.892C489.987 384.878 488.478 386.237 486.516 386.841L485.762 387.144C485.611 388.956 485.46 390.618 485.158 392.43C487.12 393.185 488.629 394.545 488.629 396.357L488.78 402.55C488.78 405.118 485.762 407.233 481.989 407.384H481.084C480.626 408.645 480.081 409.819 479.515 411.039L479.513 411.041C479.334 411.427 479.153 411.818 478.972 412.217C480.631 413.576 481.537 415.389 481.084 417.05L479.273 422.941C478.519 425.358 475.048 426.566 471.427 425.358L470.522 425.056C469.465 426.415 468.258 427.775 467.051 428.983C468.258 430.796 468.56 432.759 467.655 434.119L464.184 439.254C462.675 441.369 459.054 441.369 455.885 439.103L455.13 438.65C453.621 439.556 452.113 440.462 450.604 441.218C451.207 443.332 450.905 445.296 449.547 446.353L444.568 450.129C442.606 451.64 438.985 450.431 436.721 447.411L436.269 446.655C434.829 447.049 433.275 447.328 431.805 447.592C431.58 447.633 431.358 447.673 431.138 447.713C430.987 449.827 430.082 451.64 428.573 452.244L422.688 454.208C420.274 455.114 417.256 452.848 416.049 449.223L415.747 448.468C413.936 448.317 412.277 448.166 410.466 447.864C409.711 449.827 408.353 451.338 406.543 451.338L400.356 451.489C397.791 451.489 395.678 448.468 395.527 444.692V443.785C394.267 443.327 393.094 442.781 391.876 442.214C391.49 442.035 391.099 441.853 390.699 441.671C389.341 443.332 387.53 444.239 385.87 443.785L379.985 441.973C377.571 441.218 376.515 437.744 377.571 434.119L377.873 433.212C376.515 432.155 375.157 430.947 373.95 429.738C372.139 430.947 370.177 431.249 368.819 430.342L363.689 426.868C361.576 425.358 361.576 421.733 363.84 418.561L364.293 417.806C363.387 416.295 362.482 414.785 361.727 413.274C359.615 413.879 357.653 413.576 356.597 412.217L352.825 407.233C351.316 405.269 352.523 401.644 355.541 399.378L356.295 398.925C355.902 397.483 355.623 395.927 355.359 394.455L355.358 394.451C355.318 394.228 355.279 394.008 355.239 393.79C353.126 393.639 351.316 392.732 350.712 391.222L348.751 385.331C348.6 384.727 348.6 384.274 348.6 383.67ZM420.123 420.978C400.054 420.978 383.758 404.665 383.758 384.576C383.758 364.487 400.054 348.174 420.123 348.174C440.192 348.174 456.488 364.487 456.488 384.576C456.488 404.665 440.343 420.978 420.123 420.978Z" stroke="#233C78" stroke-linecap="round" stroke-linejoin="round"/>
</g>
<g id="Union">
<path d="M734.736 397.868C734.434 399.68 735.642 401.493 737.452 401.946C739.263 402.399 741.225 401.191 741.526 399.227C741.828 397.415 740.621 395.602 738.81 395.149C737 394.847 735.189 396.055 734.736 397.868Z" stroke="#233C78" stroke-linecap="round" stroke-linejoin="round"/>
<path d="M726.89 385.482C725.079 385.029 723.872 383.216 724.174 381.404C724.626 379.591 726.437 378.383 728.248 378.685C730.058 379.138 731.266 380.951 730.964 382.763C730.662 384.727 728.7 385.784 726.89 385.482Z" stroke="#233C78" stroke-linecap="round" stroke-linejoin="round"/>
<path d="M707.575 391.977C707.273 393.79 708.48 395.602 710.291 396.055C712.253 396.508 714.063 395.3 714.365 393.337C714.667 391.524 713.46 389.711 711.649 389.258C709.838 388.956 708.028 390.165 707.575 391.977Z" stroke="#233C78" stroke-linecap="round" stroke-linejoin="round"/>
<path d="M722.363 405.873C724.174 406.326 725.381 408.139 725.079 409.951C724.626 411.764 722.816 412.972 721.005 412.67C719.194 412.217 717.987 410.405 718.289 408.592C718.591 406.628 720.552 405.42 722.363 405.873Z" stroke="#233C78" stroke-linecap="round" stroke-linejoin="round"/>
<path d="M720.703 398.17C722.061 400.285 724.928 400.889 727.041 399.53C729.304 398.17 729.908 395.3 728.399 393.186C727.041 391.071 724.174 390.467 722.061 391.826C719.949 393.186 719.345 396.055 720.703 398.17Z" stroke="#233C78" stroke-linecap="round" stroke-linejoin="round"/>
<path fill-rule="evenodd" clip-rule="evenodd" d="M665.627 395.753C665.477 395.753 665.477 395.904 665.477 395.904C665.477 396.357 665.477 396.962 665.627 397.264L667.287 402.097C667.74 403.306 669.249 404.061 671.06 404.212C671.211 404.892 671.361 405.609 671.512 406.326C671.663 407.044 671.814 407.761 671.965 408.441L671.361 408.894C668.947 410.858 668.042 413.728 669.249 415.389L672.267 419.467C673.172 420.525 674.832 420.827 676.492 420.374C677.095 421.582 677.85 422.941 678.604 424.15L678.152 424.754C676.341 427.322 676.19 430.343 678.001 431.551L682.226 434.421C683.282 435.176 684.942 435.025 686.451 433.968C687.356 434.874 688.563 435.931 689.62 436.838L689.469 437.593C688.563 440.614 689.469 443.484 691.43 444.088L696.259 445.598C697.617 446.051 699.126 445.296 700.182 443.937C701.389 444.541 702.747 445.145 704.104 445.749L704.105 446.504C704.105 449.676 705.916 452.093 708.029 452.093L713.159 451.942C714.517 451.942 715.724 450.734 716.328 449.072C717.082 449.148 717.799 449.223 718.516 449.299C719.232 449.374 719.949 449.45 720.704 449.525L721.005 450.281C722.062 453.15 724.476 455.114 726.438 454.359L731.266 452.697C732.473 452.093 733.228 450.734 733.379 448.921C734.058 448.77 734.775 448.619 735.491 448.468C736.208 448.317 736.925 448.166 737.604 448.015L738.056 448.619C740.018 451.187 742.885 452.093 744.545 450.885L748.619 447.864C749.675 446.958 749.977 445.296 749.524 443.635C750.882 443.03 752.089 442.275 753.296 441.52L753.9 441.973C756.465 443.786 759.483 443.786 760.69 442.124L763.557 437.895C764.312 436.838 764.161 435.176 763.105 433.666C764.01 432.759 765.066 431.551 765.972 430.494L766.726 430.645C769.744 431.551 772.611 430.645 773.215 428.681L774.723 423.848C775.025 422.488 774.271 420.978 772.913 419.921C773.516 418.712 774.12 417.353 774.723 415.994L775.478 415.993C778.647 415.993 781.061 414.181 781.061 412.066L780.91 406.931C780.91 405.571 779.703 404.363 778.043 403.759C778.119 403.004 778.194 402.286 778.269 401.569C778.345 400.852 778.42 400.134 778.496 399.378L779.25 399.076C780.91 398.472 782.117 397.415 782.872 396.206H783.023C783.023 396.131 783.06 396.055 783.098 395.98C783.136 395.904 783.174 395.829 783.174 395.753C783.324 395.753 783.324 395.602 783.324 395.602C783.324 395.149 783.324 394.696 783.174 394.243L781.514 389.409C781.061 388.201 779.552 387.446 777.741 387.295C777.59 386.615 777.44 385.898 777.289 385.18C777.138 384.463 776.987 383.745 776.836 383.065L777.44 382.612C779.854 380.649 780.759 377.779 779.552 376.117L776.534 372.039C775.629 370.982 773.969 370.68 772.309 371.133C771.706 369.925 770.951 368.565 770.197 367.357L770.649 366.753C772.46 364.185 772.611 361.164 770.8 359.956L766.575 357.086C765.519 356.331 763.859 356.482 762.35 357.539C761.445 356.633 760.238 355.575 759.181 354.669L759.332 353.914C760.238 350.893 759.332 348.023 757.371 347.419L752.542 345.908C751.184 345.455 749.675 346.21 748.619 347.57C747.412 346.966 746.054 346.362 744.696 345.758L744.696 345.002C744.696 341.83 742.885 339.413 740.772 339.413L735.642 339.565C734.284 339.565 733.077 340.773 732.473 342.434C731.719 342.359 731.002 342.283 730.285 342.208C729.569 342.132 728.852 342.057 728.097 341.981L727.796 341.226C726.739 338.356 724.325 336.393 722.363 337.148L717.535 338.809C716.328 339.413 715.573 340.773 715.422 342.585C714.743 342.736 714.027 342.887 713.31 343.039C712.593 343.19 711.876 343.341 711.197 343.492L710.745 342.888C708.783 340.32 705.916 339.413 704.256 340.622L700.182 343.643C699.126 344.549 698.824 346.21 699.277 347.872C697.919 348.476 696.712 349.231 695.505 349.987L694.901 349.533C692.336 347.721 689.318 347.721 688.111 349.382L685.244 353.612C684.489 354.669 684.64 356.331 685.696 357.841C684.791 358.747 683.735 359.956 682.829 361.013L682.075 360.862C679.057 359.956 676.19 360.862 675.586 362.825L674.077 367.659C673.776 369.018 674.53 370.529 675.888 371.586C675.285 372.794 674.681 374.154 674.078 375.513L673.323 375.513C670.154 375.513 667.74 377.326 667.74 379.44L667.891 384.576C667.891 385.935 669.098 387.144 670.758 387.748C670.682 388.503 670.607 389.22 670.532 389.938C670.456 390.655 670.381 391.373 670.305 392.128L669.551 392.43C667.891 393.034 666.684 394.092 665.929 395.3H665.778C665.778 395.376 665.741 395.451 665.703 395.527C665.665 395.602 665.627 395.678 665.627 395.753ZM748.317 395.904C748.015 408.592 737.604 418.863 724.778 418.863C711.801 418.863 701.238 408.29 701.238 395.3H701.087C701.389 382.612 711.801 372.341 724.627 372.341C737.604 372.341 748.166 382.914 748.166 395.904H748.317Z" stroke="#233C78" stroke-linecap="round" stroke-linejoin="round"/>
</g>
</g>
<path id="ground-3" d="M209.153 455.404H975.503" stroke="#233C78" stroke-linecap="round" stroke-linejoin="round"/>
<path id="ground-2" d="M0.000908626 455.404H182.21" stroke="#233C78" stroke-linecap="round" stroke-linejoin="round"/>
<path id="ground-1" d="M1001 455H1031" stroke="#233C78" stroke-linecap="round" stroke-linejoin="round"/>
</g>
</g>
<defs>
<clipPath id="clip0">
<rect width="1032" height="456" transform="matrix(-1 0 0 1 1032 0)" fill="white"/>
</clipPath>
</defs>
</svg>
