<svg width="120" height="536" fill="none" xmlns="http://www.w3.org/2000/svg"><g clip-path="url(#clip0)"><path d="M58.13 81.994L43.598 68.57v16.4l14.617 16.908V81.994h-.085zm18.102-13.17l-14.617 13.51v19.628l14.617-16.994V68.824zm0-21.327l-14.617 14.53V77.66l14.617-13.425V47.497zM59.66 58.118l8.669-7.987.85-.934-9.434-9.092-9.178 9.431 4.844 4.674 4.249 3.908zm-1.53 3.739c-.85-1.615-12.578-11.98-14.617-13.85v15.889L58.13 77.321V61.857zm0-60.158c0-.934.765-1.699 1.7-1.699.935 0 1.7.765 1.7 1.7V37.13l10.198 9.856 4.42-4.078v-25.49c0-.935.764-1.7 1.699-1.7s1.7.765 1.7 1.7v68.909l-18.102 20.987v557.986c0 .934-.765 1.699-1.7 1.699-.935 0-1.7-.765-1.7-1.699V107.23L40.028 86.243v-68.91c0-.934.765-1.699 1.7-1.699.935 0 1.7.765 1.7 1.7v26l4.334 3.993L57.96 36.791V1.7h.17z" fill="url(#paint0_linear)"/><path d="M98.499 231.453L83.88 218.028v16.399l14.618 16.909v-19.883zm18.102-13.085l-14.618 13.425v19.628l14.618-16.994v-16.059zm0-21.327l-14.618 14.445v15.634l14.618-13.425v-16.654zm-16.573 10.536l8.669-7.987.85-.934-9.434-9.177-9.178 9.516 4.844 4.674 4.249 3.908zm-1.53 3.739c-.85-1.615-12.577-11.981-14.617-13.85v15.889l14.618 13.425v-15.464zm0-60.073c0-.934.765-1.699 1.7-1.699.935 0 1.7.765 1.7 1.699v35.432l10.198 9.856 4.42-4.078v-25.491c0-.934.764-1.699 1.699-1.699s1.7.765 1.7 1.699v68.91l-17.932 20.817-.085 408.527c0 .934-.765 1.699-1.7 1.699-.935 0-1.7-.765-1.7-1.699l.085-408.527-18.016-20.987v-68.91c0-.934.764-1.699 1.7-1.699.934 0 1.699.765 1.699 1.699v26.001l4.334 3.993L98.5 186.25v-35.007z" fill="url(#paint1_linear)"/><path d="M18.017 172.91L3.484 159.485v16.399l14.533 16.994V172.91zm18.102-13.085L21.501 173.25v19.628l14.618-16.994v-16.059zm0-21.327l-14.618 14.445v15.634l14.618-13.425v-16.654zm-16.572 10.536l8.668-7.987.85-.935-9.433-9.176-9.179 9.431 4.845 4.674 4.249 3.993zm-1.53 3.739c-.85-1.615-12.578-11.981-14.618-13.85v15.889l14.618 13.425v-15.464zm0-60.073c0-.934.765-1.7 1.7-1.7.935 0 1.7.766 1.7 1.7v35.432l10.198 9.856 4.419-4.078v-25.491c0-.934.765-1.699 1.7-1.699.935 0 1.7.765 1.7 1.699v68.909L21.33 198.316l-.084 466.985c0 .934-.765 1.699-1.7 1.699-.935 0-1.7-.765-1.7-1.699l.085-467.07L0 177.159v-68.91c0-.934.765-1.699 1.7-1.699.935 0 1.7.765 1.7 1.699v26.001l4.334 3.993 10.198-10.536V92.7h.085z" fill="url(#paint2_linear)"/></g><defs><linearGradient id="paint0_linear" x1="59.788" y1="0" x2="59.788" y2="667" gradientUnits="userSpaceOnUse"><stop stop-color="#FECD06"/><stop offset=".49" stop-color="#FECD06" stop-opacity="0"/></linearGradient><linearGradient id="paint1_linear" x1="100.241" y1="149.544" x2="100.241" y2="666.915" gradientUnits="userSpaceOnUse"><stop stop-color="#FECD00"/><stop offset=".49" stop-color="#FECD06" stop-opacity="0"/></linearGradient><linearGradient id="paint2_linear" x1="19.717" y1="91.001" x2="19.717" y2="667" gradientUnits="userSpaceOnUse"><stop stop-color="#FECD00"/><stop offset=".49" stop-color="#FECD06" stop-opacity="0"/></linearGradient><clipPath id="clip0"><path fill="#fff" d="M0 0h120v536H0z"/></clipPath></defs></svg>