<svg width="536" height="232" viewBox="0 0 536 232" fill="none" xmlns="http://www.w3.org/2000/svg">
<g clip-path="url(#clip0)">
<path d="M164.131 28.3741L222.111 21.0759L245.121 25.7387V38.7132H170.619L164.131 28.3741Z" stroke="white" stroke-linecap="round" stroke-linejoin="round"/>
<path d="M179.843 38.7132H245.121V119.196H197.379L179.843 38.7132ZM238.836 112.1V45.0991H199.406L214.915 112.1H238.836ZM214.915 112.1L199.305 45.0991H188.053L203.765 112.1H214.915Z" stroke="white" stroke-linecap="round" stroke-linejoin="round"/>
<path d="M425.954 197.043H399.802L367.061 174.034L445.213 156.295V164.1L425.954 197.043Z" stroke="white" stroke-linecap="round" stroke-linejoin="round"/>
<path d="M504.713 120.311L495.489 87.469L583.777 77.7381L599.995 100.748V135.617L501.166 143.624L494.982 145.044L504.713 120.311Z" stroke="white" stroke-linecap="round" stroke-linejoin="round"/>
<path d="M486.772 50.5727L247.959 78.5491V26.1441H476.128L480.284 35.6723H511.606V43.3759H483.629L486.772 50.5727Z" stroke="white" stroke-linecap="round" stroke-linejoin="round"/>
<path d="M501.165 89.4964L510.085 121.02L501.267 143.625L367.163 174.034L309.487 136.326C303.101 132.17 295.803 129.94 288.2 129.94H248.06V78.5491L486.772 50.5728L492.448 63.4459" stroke="white" stroke-linecap="round" stroke-linejoin="round"/>
<path d="M627.464 85.0363C626.451 85.1377 625.538 85.1377 624.626 85.239L611.348 74.6972L303.709 108.654C303.304 108.654 302.898 108.755 302.493 108.755C297.222 108.755 292.762 104.802 292.154 99.5313C291.546 93.8549 295.6 88.6854 301.378 88.0772L623.917 52.3972C623.917 52.3972 623.917 52.3972 624.018 52.3972C628.377 52.3972 637.803 73.1768 638.614 80.779C638.716 81.7927 638.412 82.2995 638.209 82.6036C636.688 84.4281 631.62 84.7322 627.464 85.0363Z" stroke="white" stroke-linecap="round" stroke-linejoin="round"/>
<path d="M92.0619 221.472H163.219L213.698 195.117V165.114" stroke="white" stroke-linecap="round" stroke-linejoin="round"/>
<path d="M92.062 221.472L163.726 188.934" stroke="white" stroke-linecap="round" stroke-linejoin="round"/>
<path d="M379.022 8L419.061 26.1441H339.085L379.022 8Z" stroke="#FECD00" stroke-linecap="round" stroke-linejoin="round"/>
<path d="M278.166 129.94C239.647 129.94 226.065 159.467 226.065 188.934L196.466 204.24V173.831L217.145 163.39V119.399H245.222H248.061" stroke="white" stroke-linecap="round" stroke-linejoin="round"/>
<path d="M217.145 154.673L111.321 166.735L142.744 198.462L194.439 174.743L217.145 163.289V154.673Z" stroke="white" stroke-linecap="round" stroke-linejoin="round"/>
<path d="M80.4995 148.023V183.138L110.866 200.645L141.331 183.137V148.024L110.866 130.417L80.4995 148.023Z" stroke="#FECD00" stroke-linecap="round" stroke-linejoin="round"/>
<circle cx="110.916" cy="165.113" r="13.1841" stroke="#FECD00"/>
<circle cx="110.915" cy="165.114" r="5.075" stroke="#FECD00"/>
<path d="M405.579 99.9368L367.061 174.034L345.673 181.636C345.673 181.636 330.266 143.016 301.479 132.373" stroke="white" stroke-linecap="round" stroke-linejoin="round"/>
<path d="M234.174 183.46C234.174 183.46 234.174 183.359 234.275 183.359C234.275 183.258 234.377 183.055 234.377 182.954H234.478C235.086 182.041 236.1 181.129 237.417 180.724L237.924 180.521C238.026 179.304 238.127 178.189 238.33 176.973C237.012 176.466 235.998 175.554 235.998 174.338L235.897 170.182C235.897 168.459 237.924 167.039 240.458 166.938H241.066C241.472 165.823 241.979 164.809 242.486 163.694C241.371 162.782 240.762 161.566 241.066 160.451L242.283 156.498C242.79 154.876 245.121 154.065 247.554 154.876L248.162 155.079C248.871 154.166 249.682 153.254 250.493 152.443C249.682 151.227 249.48 149.909 250.088 148.997L252.419 145.55C253.433 144.131 255.866 144.131 257.994 145.652L258.501 145.956C259.515 145.348 260.528 144.739 261.542 144.233C261.136 142.814 261.339 141.496 262.251 140.786L265.596 138.252C266.914 137.239 269.347 138.049 270.867 140.077L271.171 140.584C272.286 140.279 273.503 140.077 274.618 139.874C274.719 138.455 275.327 137.239 276.341 136.833L280.294 135.515C281.916 134.907 283.943 136.428 284.754 138.86L284.957 139.367C286.173 139.469 287.288 139.57 288.505 139.773C289.011 138.455 289.924 137.441 291.14 137.441L295.296 137.34C297.019 137.34 298.438 139.367 298.54 141.901V142.509C299.655 142.915 300.668 143.422 301.783 143.929C302.696 142.814 303.912 142.205 305.027 142.509L308.98 143.726C310.602 144.233 311.311 146.564 310.602 148.997L310.399 149.605C311.311 150.314 312.224 151.125 313.035 151.936C314.251 151.125 315.569 150.923 316.481 151.531L319.927 153.862C321.346 154.876 321.346 157.309 319.826 159.437L319.522 159.944C320.13 160.958 320.738 161.971 321.245 162.985C322.664 162.579 323.982 162.782 324.691 163.694L327.226 167.039C328.239 168.357 327.428 170.79 325.401 172.31L324.894 172.614C325.198 173.729 325.401 174.946 325.604 176.061C327.023 176.162 328.239 176.77 328.645 177.784L329.962 181.737C330.064 182.143 330.064 182.447 330.064 182.852C330.064 182.852 330.064 182.954 329.962 182.954C329.962 183.055 329.861 183.258 329.861 183.359H329.76C329.151 184.271 328.138 185.184 326.82 185.589L326.313 185.792C326.212 187.008 326.111 188.123 325.908 189.339C327.226 189.846 328.239 190.759 328.239 191.975L328.341 196.131C328.341 197.854 326.313 199.273 323.779 199.374H323.171C322.766 200.489 322.259 201.503 321.752 202.618C322.867 203.53 323.475 204.747 323.171 205.862L321.955 209.815C321.448 211.437 319.116 212.248 316.684 211.437L316.076 211.234C315.366 212.146 314.555 213.059 313.744 213.869C314.555 215.086 314.758 216.404 314.15 217.316L311.818 220.762C310.805 222.181 308.372 222.181 306.243 220.661L305.736 220.357C304.723 220.965 303.709 221.573 302.696 222.08C303.101 223.499 302.898 224.817 301.986 225.526L298.641 228.06C297.323 229.074 294.891 228.263 293.37 226.236L293.066 225.729C291.951 226.033 290.735 226.236 289.62 226.439C289.518 227.858 288.91 229.074 287.896 229.479L283.943 230.797C282.321 231.405 280.294 229.885 279.483 227.452L279.281 226.945C278.064 226.844 276.949 226.743 275.733 226.54C275.226 227.858 274.314 228.871 273.097 228.871L268.941 228.973C267.218 228.973 265.799 226.945 265.698 224.411V223.803C264.583 223.398 263.569 222.891 262.454 222.384C261.542 223.499 260.326 224.107 259.211 223.803L255.257 222.587C253.636 222.08 252.926 219.749 253.636 217.316L253.838 216.708C252.926 215.998 252.014 215.187 251.203 214.376C249.986 215.187 248.669 215.39 247.756 214.782L244.31 212.45C242.891 211.437 242.891 209.004 244.411 206.875L244.716 206.369C244.107 205.355 243.499 204.341 242.992 203.328C241.573 203.733 240.256 203.53 239.546 202.618L237.012 199.273C235.998 197.955 236.809 195.523 238.836 194.002L239.343 193.698C239.039 192.583 238.836 191.367 238.634 190.252C237.215 190.15 235.998 189.542 235.593 188.529L234.275 184.575C234.174 184.17 234.174 183.866 234.174 183.46Z" stroke="white" stroke-linecap="round" stroke-linejoin="round"/>
<path d="M288.91 195.117C287.694 193.901 287.694 191.874 288.91 190.657C290.126 189.441 292.154 189.441 293.37 190.657C294.586 191.874 294.586 193.901 293.37 195.117C292.052 196.334 290.126 196.334 288.91 195.117Z" stroke="white" stroke-linecap="round" stroke-linejoin="round"/>
<path d="M288.91 177.379C287.694 176.162 287.694 174.135 288.91 172.919C290.126 171.702 292.154 171.702 293.37 172.919C294.586 174.135 294.586 176.162 293.37 177.379C292.052 178.595 290.126 178.595 288.91 177.379Z" stroke="white" stroke-linecap="round" stroke-linejoin="round"/>
<path d="M271.171 177.379C269.955 176.162 269.955 174.135 271.171 172.919C272.388 171.702 274.415 171.702 275.631 172.919C276.848 174.135 276.848 176.162 275.631 177.379C274.415 178.595 272.388 178.595 271.171 177.379Z" stroke="white" stroke-linecap="round" stroke-linejoin="round"/>
<path d="M275.631 190.657C276.848 191.874 276.848 193.901 275.631 195.117C274.415 196.334 272.388 196.334 271.171 195.117C269.955 193.901 269.955 191.874 271.171 190.657C272.388 189.441 274.415 189.441 275.631 190.657Z" stroke="white" stroke-linecap="round" stroke-linejoin="round"/>
<path d="M282.22 188.224C279.888 188.224 278.064 186.4 278.064 184.069C278.064 181.737 279.888 179.913 282.22 179.913C284.551 179.913 286.376 181.737 286.376 184.069C286.376 186.299 284.551 188.224 282.22 188.224Z" stroke="white" stroke-linecap="round" stroke-linejoin="round"/>
<path d="M282.22 204.949C270.664 204.949 261.339 195.624 261.339 184.069C261.339 172.513 270.664 163.188 282.22 163.188C293.775 163.188 303.101 172.513 303.101 184.069C303.101 195.523 293.775 204.949 282.22 204.949Z" stroke="white" stroke-linecap="round" stroke-linejoin="round"/>
<path d="M282.22 208.497C268.739 208.497 257.791 197.55 257.791 184.069C257.791 170.587 268.739 159.64 282.22 159.64C295.701 159.64 306.649 170.587 306.649 184.069C306.649 197.55 295.803 208.497 282.22 208.497Z" stroke="white" stroke-linecap="round" stroke-linejoin="round"/>
<path d="M447.037 191.671C447.037 191.671 447.037 191.569 447.138 191.569C447.138 191.468 447.24 191.367 447.24 191.265H447.341C447.848 190.454 448.659 189.745 449.774 189.339L450.281 189.137C450.382 188.123 450.483 187.211 450.585 186.197C449.47 185.792 448.659 184.981 448.659 184.069L448.557 180.622C448.557 179.203 450.179 177.987 452.308 177.987H452.815C453.22 177.074 453.626 176.162 454.031 175.351C453.119 174.642 452.612 173.628 452.815 172.716L453.828 169.472C454.234 168.154 456.16 167.546 458.187 168.154L458.694 168.256C459.302 167.546 460.011 166.735 460.62 166.127C459.91 165.114 459.809 163.999 460.316 163.289L462.241 160.451C463.052 159.336 465.08 159.336 466.803 160.552L467.208 160.856C468.019 160.349 468.83 159.843 469.742 159.437C469.438 158.322 469.641 157.207 470.351 156.599L473.087 154.572C474.202 153.761 476.128 154.369 477.446 156.092L477.75 156.498C478.662 156.295 479.676 156.092 480.588 155.889C480.69 154.673 481.196 153.761 482.007 153.355L485.251 152.24C486.569 151.734 488.191 153.051 488.9 154.977L489.103 155.484C490.116 155.585 491.029 155.687 492.042 155.788C492.448 154.673 493.259 153.862 494.171 153.862L497.617 153.761C499.036 153.761 500.253 155.383 500.253 157.511V158.018C501.165 158.424 502.077 158.829 502.888 159.234C503.598 158.322 504.611 157.815 505.524 158.119L508.767 159.133C510.085 159.539 510.693 161.464 510.085 163.492L509.984 163.999C510.693 164.607 511.504 165.316 512.112 165.924C513.126 165.215 514.241 165.114 514.951 165.62L517.789 167.546C519.005 168.357 518.904 170.384 517.687 172.108L517.383 172.513C517.89 173.324 518.397 174.236 518.802 175.047C519.917 174.743 521.032 174.946 521.641 175.655L523.668 178.392C524.479 179.507 523.871 181.433 522.249 182.751L521.843 183.055C522.046 183.967 522.249 184.981 522.451 185.893C523.668 185.994 524.681 186.501 524.986 187.312L526.101 190.556C526.202 190.86 526.202 191.164 526.202 191.468C526.202 191.468 526.202 191.569 526.101 191.569C526.101 191.671 525.999 191.772 525.999 191.874H525.898C525.391 192.684 524.58 193.394 523.465 193.799L522.958 194.002C522.857 195.016 522.756 195.928 522.654 196.942C523.769 197.347 524.58 198.158 524.58 199.07L524.681 202.517C524.681 203.936 523.06 205.152 520.931 205.152H520.424C520.019 206.064 519.613 206.977 519.208 207.788C520.12 208.497 520.627 209.511 520.424 210.423L519.411 213.667C519.005 214.984 517.079 215.593 515.052 214.984L514.545 214.883C513.937 215.593 513.227 216.404 512.619 217.012C513.329 218.025 513.43 219.14 512.923 219.85L510.997 222.688C510.186 223.803 508.159 223.803 506.436 222.587L506.031 222.283C505.22 222.789 504.409 223.296 503.496 223.702C503.801 224.817 503.598 225.932 502.888 226.54L500.151 228.567C499.036 229.378 497.111 228.77 495.793 227.047L495.489 226.641C494.576 226.844 493.563 227.047 492.651 227.249C492.549 228.466 492.042 229.378 491.231 229.784L487.988 230.899C486.67 231.405 485.048 230.088 484.339 228.162L484.136 227.655C483.122 227.554 482.21 227.452 481.196 227.351C480.791 228.466 479.98 229.277 479.068 229.277L475.621 229.378C474.202 229.378 472.986 227.756 472.986 225.628V225.121C472.074 224.715 471.161 224.31 470.351 223.904C469.641 224.817 468.627 225.324 467.715 225.019L464.471 224.006C463.154 223.6 462.546 221.674 463.154 219.647L463.255 219.14C462.546 218.532 461.735 217.823 461.126 217.214C460.113 217.924 458.998 218.025 458.288 217.519L455.45 215.593C454.234 214.782 454.335 212.754 455.551 211.031L455.856 210.626C455.349 209.815 454.842 208.903 454.436 208.092C453.321 208.396 452.206 208.193 451.598 207.484L449.571 204.747C448.76 203.632 449.368 201.706 450.99 200.388L451.396 200.084C451.193 199.172 450.99 198.158 450.787 197.246C449.571 197.144 448.557 196.638 448.253 195.827L447.138 192.583C447.037 192.38 447.037 191.975 447.037 191.671ZM486.873 207.078C495.489 207.078 502.483 200.185 502.686 191.671H502.584C502.584 182.954 495.489 175.858 486.771 175.858C478.156 175.858 471.161 182.751 470.959 191.265H471.06C471.06 199.983 478.156 207.078 486.873 207.078Z" stroke="white" stroke-linecap="round" stroke-linejoin="round"/>
<path d="M495.387 195.725C494.171 195.421 493.36 194.205 493.563 192.988C493.867 191.772 495.083 190.961 496.299 191.164C497.516 191.468 498.327 192.684 498.124 193.901C497.921 195.218 496.604 196.029 495.387 195.725Z" stroke="white" stroke-linecap="round" stroke-linejoin="round"/>
<path d="M488.292 184.677C487.075 184.373 486.264 183.156 486.467 181.94C486.771 180.723 487.988 179.913 489.204 180.115C490.42 180.419 491.231 181.636 491.029 182.852C490.826 184.17 489.508 184.879 488.292 184.677Z" stroke="white" stroke-linecap="round" stroke-linejoin="round"/>
<path d="M477.142 191.772C475.925 191.468 475.114 190.252 475.317 189.035C475.621 187.819 476.837 187.008 478.054 187.211C479.27 187.515 480.081 188.731 479.878 189.948C479.676 191.265 478.459 192.076 477.142 191.772Z" stroke="white" stroke-linecap="round" stroke-linejoin="round"/>
<path d="M485.251 198.361C486.467 198.665 487.278 199.881 487.075 201.098C486.771 202.314 485.555 203.125 484.339 202.922C483.122 202.618 482.311 201.402 482.514 200.185C482.717 198.868 484.034 198.057 485.251 198.361Z" stroke="white" stroke-linecap="round" stroke-linejoin="round"/>
<path d="M488.393 194.104C486.974 195.016 485.048 194.61 484.136 193.191C483.223 191.772 483.629 189.846 485.048 188.934C486.467 188.022 488.393 188.427 489.305 189.846C490.319 191.265 489.913 193.191 488.393 194.104Z" stroke="white" stroke-linecap="round" stroke-linejoin="round"/>
<path d="M140.5 231.6H655.3" stroke="white" stroke-linecap="round" stroke-linejoin="round"/>
<path d="M-6.10352e-05 231.6H122.4" stroke="white" stroke-linecap="round" stroke-linejoin="round"/>
</g>
<defs>
<clipPath id="clip0">
<rect width="536" height="232" transform="matrix(-1 0 0 1 536 0)" fill="white"/>
</clipPath>
</defs>
</svg>
