<svg width="424" height="424" viewBox="0 0 424 424" fill="none" xmlns="http://www.w3.org/2000/svg">
<g opacity="0.3">
<path d="M212 0.5C328.555 0.5 423.5 94.7911 423.5 212C423.5 328.554 329.21 423.499 212.003 423.5C94.7891 422.845 0.5 328.552 0.5 212C0.5 94.7901 94.7901 0.5 212 0.5Z" stroke="#1C1D1F"/>
<path d="M110.181 265.891C101.805 237.461 104.306 204.267 116.149 168.119C143.741 187.844 161.072 211.873 169.525 239.81C177.987 267.774 177.566 299.692 169.58 335.186C137.802 318.014 118.551 294.304 110.181 265.891Z" stroke="#1C1D1F"/>
<path d="M198.337 325.484C191.619 270.139 196.21 221.621 213.757 181.108C231.291 140.626 261.779 108.099 306.937 84.7312C318.821 142.348 316.968 193.117 299.508 234.18C282.058 275.22 248.995 306.621 198.337 325.484Z" stroke="#1C1D1F"/>
</g>
</svg>
