<svg width="24" height="24" viewBox="0 0 24 24" fill="none" xmlns="http://www.w3.org/2000/svg">
<path d="M7.90199 16.098C13.5094 21.7054 18.8663 22.8916 20.8433 22.9995C22.1062 21.1486 22.6405 19.6206 23 18.2542C21.6341 16.9242 19.6458 15.5674 17.8239 14.8034L15.6667 16.9601C14.9301 16.7627 12.9075 15.9269 10.4906 13.5094C8.07313 11.0914 7.23728 9.06994 7.03931 8.3328L9.19655 6.17609C8.43258 4.35416 7.07579 2.36538 5.74529 1C4.37937 1.35945 2.85144 1.89326 1 3.15671C1.10837 5.13422 2.29456 10.49 7.90199 16.098Z" stroke="#1F2532" stroke-miterlimit="10"/>
<path d="M12.9856 8.36523C14.4674 8.36523 15.6681 9.56644 15.6681 11.0477" stroke="#1F2532" stroke-miterlimit="10"/>
<path d="M12.9856 5.68262C15.9481 5.68262 18.3505 8.08504 18.3505 11.0476" stroke="#1F2532" stroke-miterlimit="10"/>
<path d="M12.9856 3C17.4299 3 21.033 6.60309 21.033 11.0474" stroke="#1F2532" stroke-miterlimit="10"/>
</svg>
