<svg width="80" height="80" viewBox="0 0 80 80" fill="none" xmlns="http://www.w3.org/2000/svg">
<rect width="80" height="80" fill="#1F2532"/>
<path d="M40.5 20.5C29.4724 20.5 20.5 29.4724 20.5 40.5009C20.5 51.5284 29.4724 60.5 40.5 60.5C51.5276 60.5 60.5 51.5284 60.5 40.5009C60.5 29.4724 51.5276 20.5 40.5 20.5Z" stroke="#FFCE00" stroke-width="2" stroke-miterlimit="10"/>
<path d="M40.4998 53.8333C33.1478 53.8333 27.1665 47.852 27.1665 40.5C27.1665 33.1471 33.1478 27.1666 40.4998 27.1666C47.8518 27.1666 53.8332 33.148 53.8332 40.5C53.8332 47.852 47.8518 53.8333 40.4998 53.8333Z" stroke="#FFCE00" stroke-width="2" stroke-miterlimit="10"/>
<path d="M40.5 39.6111V41.3889" stroke="#FFCE00" stroke-width="2" stroke-miterlimit="10"/>
<path d="M42.2779 31.1089V36.8307C42.2779 37.4342 42.8673 37.8627 43.4415 37.676L48.8877 35.9071C49.4451 35.7258 49.6859 35.0573 49.3597 34.5711C47.9686 32.4973 45.8673 30.9427 43.4051 30.2476C42.8397 30.0867 42.2779 30.5213 42.2779 31.1089ZM31.0086 39.2849C30.4451 39.1018 29.8699 39.5107 29.8424 40.1027C29.837 40.2342 29.8335 40.3667 29.8335 40.5C29.8335 42.9862 30.6868 45.2716 32.1135 47.0849C32.4788 47.5498 33.1917 47.5347 33.5393 47.0564L36.9046 42.4253C37.2593 41.9364 37.0344 41.244 36.4602 41.0573L31.0086 39.2849ZM37.5962 30.2458C35.1331 30.9409 33.0326 32.4956 31.6406 34.5693C31.3144 35.0564 31.5553 35.724 32.1135 35.9053L37.5588 37.6742C38.133 37.8609 38.7224 37.4333 38.7224 36.8289V31.1071C38.7224 30.5213 38.1606 30.0867 37.5962 30.2458ZM36.4166 49.1453C36.0735 49.6182 36.2673 50.2982 36.8148 50.5018C37.9633 50.9293 39.2033 51.1667 40.5002 51.1667C41.7979 51.1667 43.037 50.9293 44.1855 50.5018C44.733 50.2982 44.9268 49.6173 44.5837 49.1453L41.2184 44.5142C40.8637 44.0253 40.1348 44.0253 39.7802 44.5142L36.4166 49.1453ZM49.9917 39.2849L44.5402 41.0564C43.9659 41.2431 43.7411 41.9356 44.0957 42.4244L47.461 47.0556C47.8086 47.5338 48.5206 47.5489 48.8868 47.084C50.3135 45.2716 51.1668 42.9862 51.1668 40.5C51.1668 40.3667 51.1633 40.2342 51.1571 40.1027C51.1304 39.5107 50.5553 39.1027 49.9917 39.2849Z" stroke="#FFCE00" stroke-width="2" stroke-miterlimit="10"/>
</svg>
