<svg width="24" height="17" viewBox="0 0 24 17" fill="none" xmlns="http://www.w3.org/2000/svg">
<path d="M22.4501 4.71428V7.39285H15.8501V1.5H20.8001" stroke="white" stroke-miterlimit="10"/>
<path d="M22.4501 10.6072H15.8501V16.5H22.4501V10.6072Z" stroke="white" stroke-miterlimit="10"/>
<path d="M17.5 4.17857L19.15 5.78571L23 1.5" stroke="white" stroke-miterlimit="10"/>
<path d="M13.1 14.5001H4.3C3.38865 14.5001 2.65 13.6377 2.65 12.7501V9.53578C2.65 9.26792 2.68245 8.95292 2.7424 8.86507L3.31715 8.0256C3.52835 7.71757 3.3617 7.29864 2.9932 7.20917L1.55 6.85721C1.2464 6.85721 1 6.61775 1 6.3215V5.25007C1 4.95382 1.2464 4.71436 1.55 4.71436H4.00575C4.18945 4.71436 4.36105 4.80382 4.46335 4.95275L5.191 6.01507C5.2966 6.15757 6.3713 6.50009 7.05 6.50009C7.43005 6.50009 13.1 6.50009 13.1 6.50009" stroke="white" stroke-miterlimit="10"/>
<path d="M13.1001 1.5C10.6603 1.5 8.77047 1.79304 7.66442 1.94571C7.28327 1.99821 6.75307 2.27946 6.50007 2.57143C6.24707 2.86339 4.92542 5.62821 4.92542 5.62821" stroke="white" stroke-miterlimit="10"/>
<path d="M4.30005 9C5.0046 9.68571 5.95995 10.0714 6.956 10.0714H8.15005" stroke="white" stroke-miterlimit="10"/>
<path d="M3.19995 13.8213V15.9641C3.19995 16.2604 3.44635 16.4999 3.74995 16.4999H7.59995C7.90355 16.4999 8.14995 16.2604 8.14995 15.9641V14.357" stroke="white" stroke-miterlimit="10"/>
<path d="M13.0477 11.5H8.33337" stroke="white" stroke-miterlimit="10"/>
</svg>
