<svg width="50" height="50" viewBox="0 0 50 50" fill="none" xmlns="http://www.w3.org/2000/svg">
<path d="M25 46C36.598 46 46 36.598 46 25C46 13.402 36.598 4 25 4C13.402 4 4 13.402 4 25C4 36.598 13.402 46 25 46Z" stroke="#FFCE00" stroke-width="2" stroke-miterlimit="10"/>
<path d="M20.7339 40.415C15.3299 38.923 11.077 34.67 9.58496 29.266C9.40996 28.631 9.88395 28 10.543 28H15.85C16.256 28 16.606 28.254 16.77 28.625C17.675 30.678 19.323 32.325 21.375 33.23C21.747 33.394 22 33.745 22 34.15V39.457C22 40.115 21.3689 40.59 20.7339 40.415Z" stroke="#FFCE00" stroke-width="2" stroke-miterlimit="10"/>
<path d="M10.8871 21.636C10.1471 21.833 9.46107 21.151 9.68007 20.417C11.6501 13.815 17.7581 9 25.0001 9C32.2421 9 38.3501 13.815 40.3201 20.417C40.5391 21.15 39.8531 21.833 39.1131 21.636C35.2941 20.615 30.3761 20 25.0001 20C19.6241 20 14.7061 20.615 10.8871 21.636Z" stroke="#FFCE00" stroke-width="2" stroke-miterlimit="10"/>
<path d="M28 39.457V34.15C28 33.745 28.253 33.394 28.625 33.23C30.678 32.325 32.325 30.677 33.23 28.625C33.394 28.254 33.744 28 34.15 28H39.457C40.116 28 40.59 28.631 40.415 29.266C38.923 34.67 34.67 38.923 29.266 40.415C28.631 40.59 28 40.115 28 39.457Z" stroke="#FFCE00" stroke-width="2" stroke-miterlimit="10"/>
</svg>
