<?xml version="1.0" encoding="utf-8"?><svg viewBox="0 0 50 51" xmlns="http://www.w3.org/2000/svg" xmlns:xlink="http://www.w3.org/1999/xlink"><style>:root>svg{display:none}:root>svg:target{display:block}</style><svg fill="none" viewBox="0 0 50 50" id="content-icon-01" xmlns="http://www.w3.org/2000/svg"><path d="M25 46c11.598 0 21-9.402 21-21S36.598 4 25 4 4 13.402 4 25s9.402 21 21 21z" stroke="#FFCE00" stroke-width="2" stroke-miterlimit="10"/><path d="M20.734 40.415A16.016 16.016 0 019.585 29.266.998.998 0 0110.543 28h5.307c.406 0 .756.254.92.625a9.016 9.016 0 004.605 4.605c.372.164.625.515.625.92v5.307a.999.999 0 01-1.266.958zm-9.847-18.779c-.74.197-1.426-.485-1.207-1.219C11.65 13.815 17.758 9 25 9c7.242 0 13.35 4.815 15.32 11.417.22.733-.467 1.416-1.207 1.219C35.294 20.615 30.376 20 25 20c-5.376 0-10.294.615-14.113 1.636zM28 39.457V34.15c0-.405.253-.756.625-.92a9.016 9.016 0 004.605-4.605c.164-.371.514-.625.92-.625h5.307a.998.998 0 01.958 1.266 16.016 16.016 0 01-11.149 11.149.999.999 0 01-1.266-.958z" stroke="#FFCE00" stroke-width="2" stroke-miterlimit="10"/></svg><svg fill="none" viewBox="0 0 50 50" id="content-icon-02" xmlns="http://www.w3.org/2000/svg"><path d="M36 45v2a1 1 0 001 1h5a1 1 0 001-1v-4" stroke="#FFCE00" stroke-width="2" stroke-miterlimit="10"/><path d="M29 44H17a3 3 0 01-3-3v-2.586c0-.905.36-1.774 1-2.414v-1l-3-.656a1 1 0 01-1-1V32a1 1 0 011-1h4c.334 0 3.031 3 5 3h16c1.969 0 4.666-3 5-3h4a1 1 0 011 1v1.344a1 1 0 01-1 1L43 35v1c.64.64 1 1.509 1 2.414V41a3 3 0 01-3 3H29z" stroke="#FFCE00" stroke-width="2" stroke-miterlimit="10"/><path d="M40 32l-1.316-3.949A3 3 0 0035.838 26H22.162a3 3 0 00-2.846 2.051L18 32m6 9h10m-12 4v2a1 1 0 01-1 1h-5a1 1 0 01-1-1v-4m25.587-6.62A6.828 6.828 0 0136.171 38H35m-17.587-1.62A6.828 6.828 0 0021.83 38H23" stroke="#FFCE00" stroke-width="2" stroke-miterlimit="10"/><path d="M12 39H5a2 2 0 01-2-2V12h39v16M8 4H5a2 2 0 00-2 2v6h39V6a2 2 0 00-2-2h-3m-6 0H14" stroke="#FFCE00" stroke-width="2" stroke-miterlimit="10"/><path d="M14 2H8v5h6V2zm23 0h-6v5h6V2zM15 17H8v5h7v-5zM8 32v-6h7v3m11-12h-7v5h7v-5zm11 0h-7v5h7v-5z" stroke="#FFCE00" stroke-width="2" stroke-miterlimit="10"/></svg><svg fill="none" viewBox="0 0 50 50" id="content-icon-03" xmlns="http://www.w3.org/2000/svg"><path d="M17.998 41c.383-.383.776-1 2-1h14c1.111 0 7.224-6.129 8-7 .748-.838 4.078-5.841 5-8-.58-.781-2.146-1.43-4-1-1.767.411-2.807 1.68-4 4l-4.584 2.38" stroke="#FFCE00" stroke-width="2" stroke-miterlimit="10" stroke-linejoin="round"/><path d="M23.998 34h8c4 0 4-5 0-5h-5.284c-.832 0-2.395-2-3.715-2h-5c-1.351 0-3.03 1.096-4 2l-4 4" stroke="#FFCE00" stroke-width="2" stroke-miterlimit="10" stroke-linejoin="round"/><path d="M15 48l5-5L8 31l-5 4.999 12 12zM7.999 36l2 2" stroke="#FFCE00" stroke-width="2" stroke-miterlimit="10" stroke-linejoin="round"/><path d="M34.998 9l-1.316-2.949A3 3 0 0030.836 4H19.162a3 3 0 00-2.847 2.051L14.998 9m5 8h10" stroke="#FFCE00" stroke-width="2" stroke-miterlimit="10"/><path d="M39.998 8h-3c-.334 0-3.03 3-5 3h-14c-1.969 0-4.666-3-5-3h-3a1 1 0 00-1 1v1.344a1 1 0 001 1l2 .656v1c-.64.64-1 1.509-1 2.414V17c0 .885.392 1.672 1 2.221V22a1 1 0 001 1h4a1 1 0 001-1v-2h14v2a1 1 0 001 1h4a1 1 0 001-1v-2.779c.61-.549 1-1.336 1-2.221v-1.586c0-.905-.36-1.774-1-2.414v-1l2-.656a1 1 0 001-1V9a1 1 0 00-1-1zm-4.412 5.38c-1.23 1.042-2.963 1.62-4.587 1.62m-16.587-1.62C15.64 14.422 17.375 15 18.999 15m-1.001 5h-4m22 0h-4" stroke="#FFCE00" stroke-width="2" stroke-miterlimit="10"/></svg><svg fill="none" viewBox="0 0 50 50" id="content-icon-04" xmlns="http://www.w3.org/2000/svg"><path d="M43.719 22a6.019 6.019 0 00-.727-1.512L42 19l4-1a1 1 0 001-1v-2a1 1 0 00-1-1h-5l-2 3-3 1H13l-3-1-2-3H3a1 1 0 00-1 1v2a1 1 0 001 1l4 1-.992 1.488A6.003 6.003 0 005 23.817V30a3 3 0 003 3h20" stroke="#FFCE00" stroke-width="2" stroke-miterlimit="10"/><path d="M9 16s2.54-5.455 3-6c.46-.545 1.3-1 2-1h21c.7 0 1.54.455 2 1 .46.545 3 6 3 6M8 22l.536.536A4.998 4.998 0 0012.071 24H15m-9 8v4a1 1 0 001 1h7a1 1 0 001-1v-3m13-5H15m19 3a3 3 0 100-6 3 3 0 000 6zm9 8a3 3 0 110-6 3 3 0 010 6zm-10 0l11-14" stroke="#FFCE00" stroke-width="2" stroke-miterlimit="10"/></svg><svg fill="none" viewBox="0 0 50 50" id="content-icon-05" xmlns="http://www.w3.org/2000/svg"><path d="M19 29v4h-1l-3 3-5.009 2.358C7.292 39.058 5.051 41.024 5 43v7" stroke="#FFCE00" stroke-width="2" stroke-miterlimit="10"/><path d="M35 12v2l2 1v3.93c0 .669-.334 1.293-.891 1.664L35 22v2c0 3.875-5.125 5.563-6 6-.875.437-2.375 1-4 1s-3.125-.563-4-1c-.875-.437-6-2.125-6-6v-2l-1.109-1.406A1.998 1.998 0 0113 18.93V15l2-1v-2a9 9 0 019-9h2a9 9 0 019 9zM19 33l6 5m0 0l-5 4-5-6" stroke="#FFCE00" stroke-width="2" stroke-miterlimit="10"/><path d="M31 29v4h1l3 3 5.009 2.358c2.699.7 4.94 2.666 4.991 4.642v7M31 33l-6 5" stroke="#FFCE00" stroke-width="2" stroke-miterlimit="10"/><path d="M25 38l5 4 5-6" stroke="#FFCE00" stroke-width="2" stroke-miterlimit="10"/><path d="M28 40l-1 5h-4l-1-5m6 9l-1-4h-4l-1 4" stroke="#FFCE00" stroke-width="2" stroke-miterlimit="10"/></svg><svg fill="none" viewBox="0 0 49 51" id="content-icon-06" xmlns="http://www.w3.org/2000/svg"><path d="M15 3v7H9V3C5.875 3 4 5.735 4 9v2c0 2.979 1.729 5.125 4 6v27a4 4 0 008 0V17c2.271-.875 4-3.021 4-6V9c0-3.265-1.875-6-5-6zm-3 39v2" stroke="#FFCE00" stroke-width="2" stroke-miterlimit="10" stroke-linejoin="round"/><path d="M18 37h20a3 3 0 003-3v-6c0-.5-.059-1.088-.168-1.252l-1.045-1.567a.999.999 0 01.589-1.524L43 23a1 1 0 001-1v-2a1 1 0 00-1-1h-4.465c-.334 0-.646.167-.832.445l-1.323 1.983C36.188 21.694 34.234 23 33 23H18" stroke="#FFCE00" stroke-width="2" stroke-miterlimit="10"/><path d="M22 13c4.436 0 7.872.547 9.883.832.693.098 1.657.623 2.117 1.168.46.545 2.863 5.706 2.863 5.706M38 27a6.833 6.833 0 01-4.829 2H31m9 7v4a1 1 0 01-1 1h-7a1 1 0 01-1-1v-3m-13-4h13" stroke="#FFCE00" stroke-width="2" stroke-miterlimit="10"/></svg></svg>