<svg width="50" height="50" viewBox="0 0 50 50" fill="none" xmlns="http://www.w3.org/2000/svg">
<path d="M17.9985 41C18.3815 40.617 18.7745 40 19.9985 40C21.2225 40 32.7745 40 33.9985 40C35.1095 40 41.2215 33.871 41.9985 33C42.7455 32.162 46.0755 27.159 46.9985 25C46.4185 24.219 44.8515 23.57 42.9985 24C41.2305 24.411 40.1905 25.68 38.9985 28L34.4145 30.38" stroke="#FFCE00" stroke-width="2" stroke-miterlimit="10" stroke-linejoin="round"/>
<path d="M23.9985 34C23.9985 34 30.9985 34 31.9985 34C35.9985 34 35.9985 29 31.9985 29C30.9985 29 29.4955 29 26.7145 29C25.8815 29 24.3185 27 22.9985 27C22.4115 27 19.3495 27 17.9985 27C16.6475 27 14.9685 28.096 13.9985 29C12.4995 30.499 9.99854 33 9.99854 33" stroke="#FFCE00" stroke-width="2" stroke-miterlimit="10" stroke-linejoin="round"/>
<path d="M15.0001 47.9992L20 42.9993L7.99976 30.9991L2.99984 35.999L15.0001 47.9992Z" stroke="#FFCE00" stroke-width="2" stroke-miterlimit="10" stroke-linejoin="round"/>
<path d="M7.99854 36L9.99854 38" stroke="#FFCE00" stroke-width="2" stroke-miterlimit="10" stroke-linejoin="round"/>
<path d="M34.9985 9L33.6825 6.051C33.2745 4.826 32.1275 4 30.8365 4H24.9985H19.1605C17.8695 4 16.7225 4.826 16.3145 6.051L14.9985 9" stroke="#FFCE00" stroke-width="2" stroke-miterlimit="10"/>
<path d="M19.9985 17H24.9985H29.9985" stroke="#FFCE00" stroke-width="2" stroke-miterlimit="10"/>
<path d="M39.9985 8H36.9985C36.6645 8 33.9675 11 31.9985 11H17.9985C16.0295 11 13.3325 8 12.9985 8H9.99854C9.44654 8 8.99854 8.448 8.99854 9V10.344C8.99854 10.896 9.44654 11.344 9.99854 11.344L11.9985 12V13C11.3585 13.64 10.9985 14.509 10.9985 15.414V17C10.9985 17.885 11.3895 18.672 11.9985 19.221V22C11.9985 22.552 12.4465 23 12.9985 23H16.9985C17.5505 23 17.9985 22.552 17.9985 22V20H31.9985V22C31.9985 22.552 32.4465 23 32.9985 23H36.9985C37.5505 23 37.9985 22.552 37.9985 22V19.221C38.6075 18.672 38.9985 17.885 38.9985 17V15.414C38.9985 14.509 38.6385 13.64 37.9985 13V12L39.9985 11.344C40.5505 11.344 40.9985 10.896 40.9985 10.344V9C40.9985 8.448 40.5505 8 39.9985 8Z" stroke="#FFCE00" stroke-width="2" stroke-miterlimit="10"/>
<path d="M35.5855 13.3799C34.3565 14.4219 32.6225 14.9999 30.9985 14.9999" stroke="#FFCE00" stroke-width="2" stroke-miterlimit="10"/>
<path d="M14.4116 13.3799C15.6406 14.4219 17.3746 14.9999 18.9986 14.9999" stroke="#FFCE00" stroke-width="2" stroke-miterlimit="10"/>
<path d="M17.9985 20H13.9985" stroke="#FFCE00" stroke-width="2" stroke-miterlimit="10"/>
<path d="M35.9985 20H31.9985" stroke="#FFCE00" stroke-width="2" stroke-miterlimit="10"/>
</svg>
