<svg width="50" height="50" viewBox="0 0 50 50" fill="none" xmlns="http://www.w3.org/2000/svg">
<path d="M19 29V33H18L15 36L9.991 38.358C7.292 39.058 5.051 41.024 5 43V50" stroke="#FFCE00" stroke-width="2" stroke-miterlimit="10"/>
<path d="M35 12V14L37 15V18.93C37 19.599 36.666 20.223 36.109 20.594L35 22C35 22 35 23.568 35 24C35 27.875 29.875 29.563 29 30C28.125 30.437 26.625 31 25 31C23.375 31 21.875 30.437 21 30C20.125 29.563 15 27.875 15 24C15 23.535 15 22 15 22L13.891 20.594C13.334 20.223 13 19.599 13 18.93V15L15 14V12C15 7.029 19.029 3 24 3H26C30.971 3 35 7.029 35 12Z" stroke="#FFCE00" stroke-width="2" stroke-miterlimit="10"/>
<path d="M19 33L25 38" stroke="#FFCE00" stroke-width="2" stroke-miterlimit="10"/>
<path d="M25 38L20 42L15 36" stroke="#FFCE00" stroke-width="2" stroke-miterlimit="10"/>
<path d="M31 29V33H32L35 36L40.009 38.358C42.708 39.058 44.949 41.024 45 43V50" stroke="#FFCE00" stroke-width="2" stroke-miterlimit="10"/>
<path d="M31 33L25 38" stroke="#FFCE00" stroke-width="2" stroke-miterlimit="10"/>
<path d="M25 38L30 42L35 36" stroke="#FFCE00" stroke-width="2" stroke-miterlimit="10"/>
<path d="M28 40L27 45H23L22 40" stroke="#FFCE00" stroke-width="2" stroke-miterlimit="10"/>
<path d="M28 49L27 45H23L22 49" stroke="#FFCE00" stroke-width="2" stroke-miterlimit="10"/>
</svg>
