<svg width="38" height="38" viewBox="0 0 38 38" fill="none" xmlns="http://www.w3.org/2000/svg">
<path d="M32.6668 17.9666C32.546 17.5587 32.3732 17.1677 32.1499 16.8074L31.4444 15.6666L34.2889 14.8999C34.6821 14.8999 35 14.5564 35 14.1332V12.5999C35 12.1767 34.6821 11.8333 34.2889 11.8333H30.7333L29.3111 14.1332L27.1778 14.8999H18.6444H10.8222L8.68889 14.1332L7.26667 11.8333H3.71111C3.31787 11.8333 3 12.1767 3 12.5999V14.1332C3 14.5564 3.31787 14.8999 3.71111 14.8999L6.55556 15.6666L5.85013 16.8074C5.38293 17.5633 5.13333 18.4511 5.13333 19.3596V24.0999C5.13333 25.3702 6.08836 26.3999 7.26667 26.3999H18.6444H21.4889" stroke="#FFCE00" stroke-miterlimit="10"/>
<path d="M7.97754 13.3667C7.97754 13.3667 9.78376 9.1845 10.1109 8.76666C10.438 8.34883 11.0353 8 11.5331 8C12.6446 8 24.9553 8 26.4664 8C26.9642 8 27.5615 8.34883 27.8887 8.76666C28.2158 9.1845 30.022 13.3667 30.022 13.3667" stroke="#FFCE00" stroke-miterlimit="10"/>
<path d="M7.2666 17.9667L7.64776 18.3776C8.31479 19.0967 9.21861 19.5 10.1615 19.5H12.2444" stroke="#FFCE00" stroke-miterlimit="10"/>
<path d="M5.84448 25.6333V28.7C5.84448 29.1232 6.16235 29.4666 6.55559 29.4666H11.5334C11.9266 29.4666 12.2445 29.1232 12.2445 28.7V26.4" stroke="#FFCE00" stroke-miterlimit="10"/>
<path d="M21.4891 22.5667H12.2446" stroke="#FFCE00" stroke-miterlimit="10"/>
<path d="M25.7554 24.8667C26.9336 24.8667 27.8887 23.837 27.8887 22.5667C27.8887 21.2965 26.9336 20.2667 25.7554 20.2667C24.5772 20.2667 23.6221 21.2965 23.6221 22.5667C23.6221 23.837 24.5772 24.8667 25.7554 24.8667Z" stroke="#FFCE00" stroke-miterlimit="10"/>
<path d="M32.1558 30.9999C30.9775 30.9999 30.0225 29.9703 30.0225 28.6999C30.0225 27.4295 30.9775 26.3999 32.1558 26.3999C33.3341 26.3999 34.2891 27.4295 34.2891 28.6999C34.2891 29.9703 33.3341 30.9999 32.1558 30.9999Z" stroke="#FFCE00" stroke-miterlimit="10"/>
<path d="M25.0444 31L32.8667 20.2667" stroke="#FFCE00" stroke-miterlimit="10"/>
</svg>
