<?xml version="1.0" encoding="utf-8"?><svg viewBox="0 0 80 80" xmlns="http://www.w3.org/2000/svg" xmlns:xlink="http://www.w3.org/1999/xlink"><style>:root>svg{display:none}:root>svg:target{display:block}</style><svg fill="none" viewBox="0 0 80 80" id="cat" xmlns="http://www.w3.org/2000/svg"><path fill="#1F2532" d="M0 0h80v80H0z"/><path d="M40.5 20.5c-11.028 0-20 8.972-20 20s8.972 20 20 20 20-8.972 20-20-8.972-20-20-20z" stroke="#FFCE00" stroke-width="2" stroke-miterlimit="10"/><path d="M40.5 53.833c-7.352 0-13.334-5.981-13.334-13.333 0-7.353 5.982-13.333 13.334-13.333 7.352 0 13.333 5.981 13.333 13.333S47.852 53.833 40.5 53.833zm0-14.222v1.778" stroke="#FFCE00" stroke-width="2" stroke-miterlimit="10"/><path d="M42.278 31.109v5.722a.889.889 0 001.163.845l5.447-1.769a.891.891 0 00.472-1.336 10.671 10.671 0 00-5.955-4.323.891.891 0 00-1.127.86zm-11.27 8.176a.894.894 0 00-1.166.818 10.612 10.612 0 002.271 6.982.895.895 0 001.426-.029l3.366-4.63a.89.89 0 00-.445-1.369l-5.451-1.772zm6.588-9.04a10.674 10.674 0 00-5.955 4.324.89.89 0 00.473 1.336l5.445 1.77a.889.889 0 001.163-.846v-5.722a.892.892 0 00-1.126-.861zm-1.18 18.9c-.342.473-.149 1.153.399 1.357a10.539 10.539 0 007.37 0 .891.891 0 00.399-1.357l-3.366-4.63a.888.888 0 00-1.438 0l-3.363 4.63zm13.576-9.86l-5.452 1.771a.89.89 0 00-.444 1.368l3.365 4.632a.896.896 0 001.426.028 10.607 10.607 0 002.27-6.981.894.894 0 00-1.165-.818z" stroke="#FFCE00" stroke-width="2" stroke-miterlimit="10"/></svg><svg fill="none" viewBox="0 0 80 80" id="instr" xmlns="http://www.w3.org/2000/svg"><path fill="#1F2532" d="M0 0h80v80H0z"/><path d="M26 20h22l8 7.619v30.476C56 59.147 55.104 60 54 60H26c-1.104 0-2-.853-2-1.905v-36.19c0-1.052.896-1.905 2-1.905z" stroke="#FFCE00" stroke-width="2" stroke-miterlimit="10"/><path d="M53 29h-6v-6m-7 10h-5.019c-.727 0-1.517.742-2.02 1.935L32 38m8-5h5.019c.727 0 1.517.742 2.02 1.935L48 38m-8 1h-7l-2-1m9 9H29v-5.93c0-.668 2-3.07 2-3.07" stroke="#FFCE00" stroke-width="2" stroke-miterlimit="10"/><path d="M35 47v2a1 1 0 01-1 1h-3a1 1 0 01-1-1v-3m5-3h-4m0-5l-2-2h-2m13 3h7l2-1m-9 9h11v-5.93c0-.668-2-3.07-2-3.07" stroke="#FFCE00" stroke-width="2" stroke-miterlimit="10"/><path d="M45 47v2a1 1 0 001 1h3a1 1 0 001-1v-3m-5-3h4m0-5l2-2h2" stroke="#FFCE00" stroke-width="2" stroke-miterlimit="10"/></svg><svg fill="none" viewBox="0 0 80 80" id="journal" xmlns="http://www.w3.org/2000/svg"><path fill="#1F2532" d="M0 0h80v80H0z"/><path d="M26 37.048V21.905c0-1.052.896-1.905 2-1.905h22l8 7.619v30.476C58 59.147 57.104 60 56 60H28c-1.104 0-2-.853-2-1.905v-4.762" stroke="#FFCE00" stroke-width="2" stroke-miterlimit="10"/><path d="M55 29h-6v-6m.931 30H24.069C22.927 53 22 52.044 22 50.867V39.133c0-1.177.927-2.133 2.069-2.133h25.862c1.142 0 2.069.956 2.069 2.133v11.734C52 52.044 51.073 53 49.931 53z" stroke="#FFCE00" stroke-width="2" stroke-miterlimit="10"/><path d="M27.616 42.16h1.74c1.116 0 1.572.408 1.572 1.38 0 .984-.456 1.38-1.572 1.38h-1.74v-2.76zm-2.076-1.224l-.132.696.432.168c.156.06.18.096.18.264V49h1.596v-2.844h1.86c2.124 0 3.024-.768 3.024-2.616 0-1.836-.9-2.604-3.024-2.604H25.54zm9.951 1.224h1.38c1.944 0 2.736.828 2.736 2.808s-.792 2.808-2.736 2.808h-1.38V42.16zm-2.076-1.224l-.132.696.432.168c.156.06.18.096.18.264V49h3.096c3 0 4.248-1.188 4.248-4.032 0-2.844-1.248-4.032-4.248-4.032h-3.576zm8.835 0l-.131.696.432.168c.156.06.18.096.18.264V49h1.596v-3.168h3.36v-1.2h-3.36V42.16h4.224v-1.224h-6.3z" fill="#FFCE00"/></svg><svg fill="none" viewBox="0 0 80 80" id="price" xmlns="http://www.w3.org/2000/svg"><path fill="#1F2532" d="M0 0h80v80H0z"/><path d="M40 39l9 .019m-24 3.445a3.994 3.994 0 01-2-3.462 4 4 0 014.003-3.997A3.997 3.997 0 0129 42.467M53.003 43a4 4 0 004.003-3.998 4 4 0 00-4.003-3.998A4 4 0 0049 39.002 4 4 0 0053.003 43z" stroke="#FFCE00" stroke-width="2" stroke-miterlimit="10" stroke-linejoin="round"/><path d="M33 39h3l10 10-9 9-10-10v-9h2m28 0h6v-5c0-2.337-3.417-4.5-12.953-6-3.884-3.685-7.327-5-11.111-5H33c-3.875 0-9.281 3.75-11 5h-3.007A.993.993 0 0018 29v4l-1 2v2a2 2 0 002 2h4" stroke="#FFCE00" stroke-width="2" stroke-miterlimit="10" stroke-linejoin="round"/><path d="M47.095 29.203l-2 .797H26l-1-1" stroke="#FFCE00" stroke-width="2" stroke-miterlimit="10" stroke-linejoin="round"/></svg></svg>