<svg width="38" height="38" viewBox="0 0 38 38" fill="none" xmlns="http://www.w3.org/2000/svg">
<path d="M19 34C27.2843 34 34 27.2843 34 19C34 10.7157 27.2843 4 19 4C10.7157 4 4 10.7157 4 19C4 27.2843 10.7157 34 19 34Z" stroke="#FFCE00" stroke-miterlimit="10"/>
<path d="M15.9529 30.0107C12.0929 28.945 9.05501 25.9071 7.98929 22.0471C7.86429 21.5935 8.20286 21.1428 8.67357 21.1428H12.4643C12.7543 21.1428 13.0043 21.3243 13.1214 21.5893C13.7679 23.0557 14.945 24.2321 16.4107 24.8785C16.6764 24.9957 16.8571 25.2464 16.8571 25.5357V29.3264C16.8571 29.7964 16.4064 30.1357 15.9529 30.0107Z" stroke="#FFCE00" stroke-miterlimit="10"/>
<path d="M8.9193 16.5972C8.39073 16.738 7.90073 16.2508 8.05716 15.7265C9.4643 11.0108 13.8272 7.57153 19 7.57153C24.1729 7.57153 28.5357 11.0108 29.9429 15.7265C30.0993 16.2501 29.6093 16.738 29.0807 16.5972C26.3529 15.868 22.84 15.4287 19 15.4287C15.16 15.4287 11.6472 15.868 8.9193 16.5972Z" stroke="#FFCE00" stroke-miterlimit="10"/>
<path d="M21.1428 29.3264V25.5357C21.1428 25.2464 21.3235 24.9957 21.5893 24.8785C23.0557 24.2321 24.2321 23.055 24.8785 21.5893C24.9957 21.3243 25.2457 21.1428 25.5357 21.1428H29.3264C29.7971 21.1428 30.1357 21.5935 30.0107 22.0471C28.945 25.9071 25.9071 28.945 22.0471 30.0107C21.5935 30.1357 21.1428 29.7964 21.1428 29.3264Z" stroke="#FFCE00" stroke-miterlimit="10"/>
</svg>
