<svg width="12" height="12" viewBox="0 0 12 12" fill="none" xmlns="http://www.w3.org/2000/svg">
<path d="M8.99951 0.0024968L7.4434 0C5.69515 0 4.56536 1.15914 4.56536 2.95322V4.31485H3.00076C2.86556 4.31485 2.75607 4.42446 2.75607 4.55966V6.53251C2.75607 6.66771 2.86568 6.77719 3.00076 6.77719H4.56536V11.7553C4.56536 11.8905 4.67485 12 4.81005 12H6.85141C6.98661 12 7.09609 11.8904 7.09609 11.7553V6.77719H8.92548C9.06068 6.77719 9.17017 6.66771 9.17017 6.53251L9.17091 4.55966C9.17091 4.49474 9.14507 4.43257 9.09926 4.38663C9.05344 4.34069 8.99102 4.31485 8.92611 4.31485H7.09609V3.16058C7.09609 2.60579 7.2283 2.32415 7.95099 2.32415L8.99926 2.32377C9.13434 2.32377 9.24382 2.21416 9.24382 2.07909V0.247183C9.24382 0.112231 9.13446 0.00274648 8.99951 0.0024968Z" fill="#7B808A"/>
</svg>
