<svg width="64" height="64" viewBox="0 0 64 64" fill="none" xmlns="http://www.w3.org/2000/svg">
<circle opacity="0.3" cx="32" cy="32" r="31.5" stroke="white"/>
<g clip-path="url(#clip0)">
<path d="M42.8667 32C42.8667 26.0081 37.9919 21.1333 32 21.1333C26.0081 21.1333 21.1333 26.0081 21.1333 32C21.1333 34.8214 22.2145 37.3949 23.9838 39.3286L21.6729 41.6395C21.3358 41.9765 21.5792 42.55 22.05 42.55C22.1865 42.55 22.323 42.4979 22.4271 42.3938L24.7414 40.0795C26.6779 41.821 29.2267 42.8669 32.0006 42.8667C37.9923 42.8663 42.8667 37.9917 42.8667 32V32ZM37.244 31.4667H32.5333V22.7005C34.0181 23.8727 37.0277 26.8081 37.244 31.4667ZM31.4667 22.2147V31.4667H26.7567C26.9096 28.246 28.4206 25.8569 29.6997 24.3941C29.8935 24.1723 29.8709 23.8354 29.6492 23.6415C29.4275 23.4476 29.0905 23.4703 28.8967 23.692C27.4969 25.2929 25.8422 27.916 25.6891 31.4667H22.2147C22.4831 26.4866 26.4866 22.4831 31.4667 22.2147ZM22.2147 32.5333H25.6887C25.8813 37.0623 28.4916 40.1069 30.2175 41.6371C25.8607 40.8331 22.4617 37.1178 22.2147 32.5333V32.5333ZM26.7557 32.5333H31.4667V41.2942C28.8277 39.1993 26.9211 36.1286 26.7557 32.5333ZM32.5333 41.7853V32.5333H37.2431C37.0853 35.866 35.4783 38.316 34.1183 39.8097C33.9199 40.0275 33.9358 40.3649 34.1536 40.5631C34.3714 40.7615 34.7087 40.7456 34.907 40.5278C36.3943 38.8943 38.1529 36.2061 38.3109 32.5333H40C40.2945 32.5333 40.5333 32.2945 40.5333 32C40.5333 31.7055 40.2945 31.4667 40 31.4667H38.3114C38.1191 26.9387 35.5099 23.8938 33.7847 22.3634C38.3392 23.2049 41.8 27.2057 41.8 32C41.8 37.2248 37.69 41.5074 32.5333 41.7853V41.7853ZM43.9957 43.3081L41.4105 40.7229C41.2022 40.5146 40.8645 40.5146 40.6563 40.7229C40.4479 40.9311 40.4479 41.2688 40.6563 41.4771L43.2559 44.0767C42.1919 45.7785 43.4223 48 45.4333 48C46.8486 48 48 46.8486 48 45.4333C48 43.3735 45.6866 42.1606 43.9957 43.3081ZM45.4333 46.9333C44.6062 46.9333 43.9333 46.2605 43.9333 45.4333C43.9333 44.6062 44.6062 43.9333 45.4333 43.9333C46.2605 43.9333 46.9333 44.6062 46.9333 45.4333C46.9333 46.2605 46.2605 46.9333 45.4333 46.9333ZM19.9232 20.7441L22.5229 23.3438C22.7312 23.5521 23.0688 23.5521 23.2771 23.3438C23.4854 23.1355 23.4854 22.7979 23.2771 22.5896L20.6919 20.0043C21.8393 18.3134 20.6263 16 18.5667 16C17.1514 16 16 17.1514 16 18.5667C16 20.5805 18.2245 21.8062 19.9232 20.7441ZM18.5667 17.0667C19.3938 17.0667 20.0667 17.7395 20.0667 18.5667C20.0667 19.3938 19.3938 20.0667 18.5667 20.0667C17.7395 20.0667 17.0667 19.3938 17.0667 18.5667C17.0667 17.7395 17.7395 17.0667 18.5667 17.0667ZM18.5667 42.8667C17.1514 42.8667 16 44.0181 16 45.4333C16 46.8486 17.1514 48 18.5667 48C19.9819 48 21.1333 46.8486 21.1333 45.4333C21.1333 44.0181 19.9819 42.8667 18.5667 42.8667ZM18.5667 46.9333C17.7395 46.9333 17.0667 46.2605 17.0667 45.4333C17.0667 44.6062 17.7395 43.9333 18.5667 43.9333C19.3938 43.9333 20.0667 44.6062 20.0667 45.4333C20.0667 46.2605 19.3938 46.9333 18.5667 46.9333ZM41.4105 23.2771L43.9957 20.6919C45.6866 21.8393 48 20.6263 48 18.5667C48 17.1514 46.8486 16 45.4333 16C43.4195 16 42.1938 18.2245 43.2559 19.9232L40.6562 22.5229C40.4479 22.7311 40.4479 23.0688 40.6562 23.2771C40.8645 23.4854 41.2022 23.4854 41.4105 23.2771V23.2771ZM45.4333 17.0667C46.2605 17.0667 46.9333 17.7395 46.9333 18.5667C46.9333 19.3938 46.2605 20.0667 45.4333 20.0667C44.6062 20.0667 43.9333 19.3938 43.9333 18.5667C43.9333 17.7395 44.6062 17.0667 45.4333 17.0667Z" fill="white"/>
</g>
<defs>
<clipPath id="clip0">
<rect width="32" height="32" fill="white" transform="translate(16 16)"/>
</clipPath>
</defs>
</svg>
