<svg width="320" height="321" viewBox="0 0 320 321" fill="none" xmlns="http://www.w3.org/2000/svg">
<path d="M200.9 202.016C211.825 191.031 217.841 176.426 217.841 160.895C217.841 145.355 211.825 130.759 200.9 119.769C190 108.798 175.47 102.758 160.001 102.758C144.537 102.758 130.017 108.798 119.117 119.769C108.187 130.759 102.171 145.359 102.171 160.895C102.171 176.43 108.187 191.036 119.117 202.007C126.058 209.001 134.71 214.071 144.259 216.771V320.945H195.901V289.257H175.763V216.776C185.292 214.081 193.935 209.005 200.9 202.016ZM186.333 160.895C186.333 167.961 183.591 174.613 178.629 179.617C168.352 189.942 151.66 189.942 141.383 179.617C136.417 174.613 133.684 167.961 133.684 160.895C133.684 153.824 136.417 147.172 141.383 142.168C146.344 137.184 152.96 134.432 160.006 134.432C167.043 134.432 173.654 137.184 178.629 142.168C183.591 147.172 186.333 153.824 186.333 160.895Z" fill="white" fill-opacity="0.1"/>
<path d="M67.4364 145.05H0V176.734H67.4364V145.05Z" fill="white" fill-opacity="0.1"/>
<path d="M320 145.05H252.568V176.734H320V145.05Z" fill="white" fill-opacity="0.1"/>
<path d="M83.4096 215.512L35.7185 263.468L57.9947 285.868L105.686 237.912L83.4096 215.512Z" fill="white" fill-opacity="0.1"/>
<path d="M214.309 83.8841L236.589 106.281L284.266 58.325L261.987 35.9284L214.309 83.8841Z" fill="white" fill-opacity="0.1"/>
<path d="M105.697 83.8714L58.0123 35.9225L35.7328 58.3257L83.417 106.275L105.697 83.8714Z" fill="white" fill-opacity="0.1"/>
<path d="M236.588 215.496L214.315 237.899L262.003 285.838L284.276 263.435L236.588 215.496Z" fill="white" fill-opacity="0.1"/>
<path d="M175.758 0H144.254V67.8155H175.758V0Z" fill="white" fill-opacity="0.1"/>
</svg>
