<svg width="80" height="80" viewBox="0 0 80 80" fill="none" xmlns="http://www.w3.org/2000/svg">
<rect width="80" height="80" fill="#1F2532"/>
<path d="M26 20H48L56 27.619V58.0952C56 59.1467 55.104 60 54 60H26C24.896 60 24 59.1467 24 58.0952V21.9048C24 20.8533 24.896 20 26 20Z" stroke="#FFCE00" stroke-width="2" stroke-miterlimit="10"/>
<path d="M53 29H47V23" stroke="#FFCE00" stroke-width="2" stroke-miterlimit="10"/>
<path d="M40 33H34.981C34.254 33 33.464 33.742 32.961 34.935L32 38" stroke="#FFCE00" stroke-width="2" stroke-miterlimit="10"/>
<path d="M40 33H45.019C45.746 33 46.536 33.742 47.039 34.935L48 38" stroke="#FFCE00" stroke-width="2" stroke-miterlimit="10"/>
<path d="M40 39H33L31 38" stroke="#FFCE00" stroke-width="2" stroke-miterlimit="10"/>
<path d="M40 47H29V41.07C29 40.402 31 38 31 38" stroke="#FFCE00" stroke-width="2" stroke-miterlimit="10"/>
<path d="M35 47V49C35 49.552 34.552 50 34 50H31C30.448 50 30 49.552 30 49V46" stroke="#FFCE00" stroke-width="2" stroke-miterlimit="10"/>
<path d="M35 43H31" stroke="#FFCE00" stroke-width="2" stroke-miterlimit="10"/>
<path d="M31 38L29 36H27" stroke="#FFCE00" stroke-width="2" stroke-miterlimit="10"/>
<path d="M40 39H47L49 38" stroke="#FFCE00" stroke-width="2" stroke-miterlimit="10"/>
<path d="M40 47H51V41.07C51 40.402 49 38 49 38" stroke="#FFCE00" stroke-width="2" stroke-miterlimit="10"/>
<path d="M45 47V49C45 49.552 45.447 50 46 50H49C49.553 50 50 49.552 50 49V46" stroke="#FFCE00" stroke-width="2" stroke-miterlimit="10"/>
<path d="M45 43H49" stroke="#FFCE00" stroke-width="2" stroke-miterlimit="10"/>
<path d="M49 38L51 36H53" stroke="#FFCE00" stroke-width="2" stroke-miterlimit="10"/>
</svg>
