<svg width="40" height="40" viewBox="0 0 40 40" fill="none" xmlns="http://www.w3.org/2000/svg">
<rect width="40" height="40" fill="#FFCE00"/>
<path d="M27.953 16.815C27.917 16.038 27.801 15.432 27.574 14.85C27.349 14.271 27.054 13.818 26.618 13.381C26.182 12.944 25.728 12.65 25.149 12.424C24.567 12.198 23.961 12.081 23.184 12.046C22.357 12.009 22.083 12 20 12C17.917 12 17.642 12.009 16.815 12.046C16.038 12.082 15.432 12.199 14.85 12.425C14.27 12.65 13.817 12.945 13.381 13.382C12.945 13.819 12.649 14.271 12.424 14.85C12.198 15.432 12.082 16.038 12.046 16.815C12.008 17.642 12 17.917 12 20C12 22.084 12.009 22.358 12.046 23.185C12.082 23.962 12.198 24.569 12.424 25.15C12.649 25.73 12.944 26.182 13.381 26.619C13.818 27.056 14.271 27.35 14.85 27.576C15.432 27.802 16.038 27.919 16.815 27.954C17.642 27.991 17.916 28 20 28C22.084 28 22.358 27.991 23.185 27.953C23.962 27.918 24.568 27.801 25.15 27.575C25.729 27.349 26.182 27.054 26.619 26.618C27.056 26.182 27.35 25.729 27.575 25.149C27.802 24.568 27.918 23.961 27.954 23.184C27.99 22.358 28 22.084 28 20C28 17.917 27.99 17.642 27.953 16.815ZM20 25.995C17.954 25.995 17.712 25.987 16.907 25.95C16.202 25.918 15.826 25.803 15.577 25.706C15.257 25.582 15.039 25.44 14.8 25.201C14.561 24.961 14.419 24.743 14.294 24.423C14.197 24.175 14.083 23.798 14.05 23.094C14.013 22.287 14.005 22.046 14.005 20C14.005 17.955 14.013 17.712 14.049 16.907C14.081 16.202 14.196 15.826 14.293 15.577C14.418 15.257 14.56 15.039 14.799 14.8C15.038 14.561 15.257 14.419 15.576 14.295C15.825 14.198 16.201 14.083 16.906 14.051C17.71 14.013 17.952 14.005 20 14.005C22.048 14.005 22.29 14.013 23.093 14.049C23.798 14.081 24.174 14.196 24.423 14.293C24.743 14.417 24.961 14.559 25.2 14.798C25.439 15.037 25.581 15.256 25.706 15.575C25.803 15.824 25.918 16.2 25.949 16.905C25.986 17.712 25.994 17.954 25.994 20C25.994 22.046 25.986 22.288 25.949 23.094C25.918 23.798 25.803 24.175 25.706 24.423C25.581 24.743 25.439 24.961 25.2 25.2C24.961 25.44 24.742 25.582 24.423 25.706C24.174 25.803 23.798 25.918 23.093 25.95C22.287 25.987 22.046 25.995 20 25.995Z" fill="white"/>
<path d="M20 15.741C17.651 15.741 15.741 17.652 15.741 20C15.741 22.349 17.652 24.259 20 24.259C22.348 24.259 24.259 22.349 24.259 20C24.259 17.652 22.348 15.741 20 15.741ZM20 22.254C18.757 22.254 17.747 21.242 17.747 20C17.747 18.757 18.758 17.746 20 17.746C21.242 17.746 22.253 18.757 22.253 20C22.253 21.242 21.242 22.254 20 22.254Z" fill="white"/>
<path d="M24.104 17.1271C24.7844 17.1271 25.336 16.5755 25.336 15.8951C25.336 15.2147 24.7844 14.6631 24.104 14.6631C23.4236 14.6631 22.872 15.2147 22.872 15.8951C22.872 16.5755 23.4236 17.1271 24.104 17.1271Z" fill="white"/>
</svg>
