<svg width="80" height="80" viewBox="0 0 80 80" fill="none" xmlns="http://www.w3.org/2000/svg">
<rect width="80" height="80" fill="#1F2532"/>
<path d="M26 37.0476V21.9048C26 20.8533 26.896 20 28 20H50L58 27.619V58.0952C58 59.1467 57.104 60 56 60H28C26.896 60 26 59.1467 26 58.0952V53.3333" stroke="#FFCE00" stroke-width="2" stroke-miterlimit="10"/>
<path d="M55 29H49V23" stroke="#FFCE00" stroke-width="2" stroke-miterlimit="10"/>
<path d="M49.931 53H24.069C22.9269 53 22 52.0443 22 50.8667V39.1333C22 37.9557 22.9269 37 24.069 37H49.931C51.0731 37 52 37.9557 52 39.1333V50.8667C52 52.0443 51.0731 53 49.931 53Z" stroke="#FFCE00" stroke-width="2" stroke-miterlimit="10"/>
<path d="M27.616 42.16H29.356C30.472 42.16 30.928 42.568 30.928 43.54C30.928 44.524 30.472 44.92 29.356 44.92H27.616V42.16ZM25.54 40.936L25.408 41.632L25.84 41.8C25.996 41.86 26.02 41.896 26.02 42.064V49H27.616V46.156H29.476C31.6 46.156 32.5 45.388 32.5 43.54C32.5 41.704 31.6 40.936 29.476 40.936H25.54Z" fill="#FFCE00"/>
<path d="M35.491 42.16H36.871C38.815 42.16 39.607 42.988 39.607 44.968C39.607 46.948 38.815 47.776 36.871 47.776H35.491V42.16ZM33.415 40.936L33.283 41.632L33.715 41.8C33.871 41.86 33.895 41.896 33.895 42.064V49H36.991C39.991 49 41.239 47.812 41.239 44.968C41.239 42.124 39.991 40.936 36.991 40.936H33.415Z" fill="#FFCE00"/>
<path d="M42.2509 40.936L42.1189 41.632L42.5509 41.8C42.7069 41.86 42.7309 41.896 42.7309 42.064V49H44.3269V45.832H47.6869V44.632H44.3269V42.16H48.5509V40.936H42.2509Z" fill="#FFCE00"/>
</svg>
