<svg width="158" height="48" viewBox="0 0 158 48" fill="none" xmlns="http://www.w3.org/2000/svg">
<path d="M134.06 18.5908V20.559H129.97V29.2186H127.213V20.559H123.124V18.5908H134.06Z" fill="black"/>
<path d="M124.301 27.2488V29.2185H115.538V18.5908H118.294V27.2488H124.301V27.2488Z" fill="black"/>
<path d="M71.2178 27.2488V29.2185H62.0112V18.5908H71.0443V20.56H64.7694V22.8953H70.5033V24.8008H64.7694V27.2488H71.2178V27.2488Z" fill="black"/>
<path d="M55.6769 23.5458C55.4649 23.7538 55.2131 23.854 54.8219 23.854H51.0606V20.6145H54.0319C54.9161 20.6145 55.3887 20.7146 55.7071 20.974C56.0189 21.2241 56.1697 21.606 56.1697 22.1688C56.1697 22.751 56.0154 23.2182 55.6769 23.5458V23.5458ZM57.0713 25.271C58.252 24.6292 58.981 23.365 58.981 22.0393C58.981 20.934 58.6594 20.0762 57.9853 19.5123C57.2017 18.8614 56.1277 18.5908 54.3143 18.5908H47.9913L47.879 19.2316C47.879 19.2316 47.9913 19.4231 48.1224 19.6527C48.3184 19.991 48.3021 20.0906 48.3021 20.3168V29.2186H51.0606V25.8157H54.4875L56.3263 29.2186H59.3627L57.0713 25.271V25.271Z" fill="black"/>
<path d="M82.7628 18.5908V25.6405C82.1198 24.8285 81.4445 24.0459 80.3034 22.7884C79.3746 21.7663 77.439 19.6691 76.4443 18.5925H73.7825L73.6714 19.2331C73.6714 19.2331 73.7852 19.4246 73.9148 19.6542C74.0626 19.9069 74.0923 20.0266 74.0965 20.1639C74.0965 20.1751 74.095 29.2202 74.095 29.2202L76.573 29.2124V22.1722C77.0674 22.8334 77.9484 23.8486 78.5355 24.4871C79.7053 25.7553 81.4718 27.7326 82.8471 29.2202H85.2281V18.5925L82.7628 18.5908V18.5908Z" fill="black"/>
<path d="M109.762 18.5908V25.0896C109.762 25.8146 109.618 26.2458 109.265 26.5769C108.819 26.9929 108.082 27.1919 107.017 27.1919C105.937 27.1919 105.181 26.9929 104.736 26.5769C104.384 26.2458 104.24 25.8132 104.24 25.0896V18.5908H101.17L101.059 19.2316C101.059 19.2316 101.173 19.4231 101.301 19.6527C101.441 19.896 101.473 20.0154 101.48 20.1473C101.48 20.1639 101.482 25.1897 101.482 25.1897C101.482 27.9683 103.36 29.3822 106.98 29.3822H107.057C110.681 29.3822 112.46 28.0071 112.46 25.1897V18.5908H109.762V18.5908Z" fill="black"/>
<path d="M91.5841 25.3751C92.3091 23.5645 93.0358 21.8515 93.6216 20.5238C94.2074 21.8515 94.9365 23.5645 95.6608 25.3751H91.5841ZM95.3449 18.5908H91.8993C90.8546 20.7544 89.0364 24.7469 87.335 29.2191H90.1023C90.3227 28.6143 90.557 27.9971 90.7923 27.3785H96.4514C96.6894 27.9971 96.9221 28.6143 97.1419 29.2191H99.9104C98.2073 24.7469 96.3894 20.7544 95.3449 18.5908Z" fill="black"/>
<path d="M158 0H153V48H158V0Z" fill="#FFCE00"/>
<path d="M13.9047 0.991287C13.7248 1.00958 13.6571 1.04276 13.589 1.07578C13.5002 1.12557 13.41 1.174 13.2666 1.38803C12.8496 2.01152 8.55554 9.0886 5.82201 14.0695C3.88317 17.6026 1.97 21.3471 1.1542 23.0767C0.938175 23.5347 0.905914 23.8375 0.905914 23.9785C0.905914 24.2273 0.989353 24.53 1.1542 24.8794C1.96984 26.6088 3.883 30.3532 5.82201 33.8865C8.55554 38.8674 12.8333 45.9604 13.2737 46.5678C13.3421 46.6623 13.4029 46.7387 13.4615 46.8007C13.5608 46.906 13.6507 46.9678 13.7551 46.9998C13.8642 47.0335 14.0795 47.013 14.258 46.9942C14.3536 46.984 14.4742 46.9871 14.5665 46.9903C15.6677 47.0277 17.3586 47.0679 19.1495 47.0673C21.3707 47.0665 23.9661 47.0093 24.3568 46.9642L24.4193 46.9571C24.5679 46.9405 24.652 46.918 24.6971 46.8958C24.7865 46.8587 24.862 46.7861 25.0454 46.5331C25.4859 45.9257 29.7434 38.8674 32.477 33.8865C34.4158 30.3535 36.3291 26.6089 37.1446 24.8795C37.3608 24.4212 37.393 24.0617 37.393 23.9206C37.393 23.672 37.3094 23.426 37.1448 23.0767C36.3291 21.3473 34.4158 17.6028 32.477 14.0695C29.7436 9.0886 25.4656 1.99543 25.0253 1.38803C24.9067 1.22446 24.8101 1.11405 24.7115 1.04209C24.6566 1.00179 24.6027 0.974354 24.5439 0.956236C24.4348 0.922539 24.1919 0.943028 24.0134 0.961993C23.9178 0.971984 23.7972 0.969613 23.705 0.965718C22.7919 0.927111 20.9576 0.888672 19.1495 0.888672C16.9282 0.888672 14.2513 0.956405 13.9047 0.991287V0.991287ZM19.1503 12.2988C19.2782 12.2988 19.3675 12.439 19.4795 12.6551C21.406 16.368 22.7046 18.9311 24.5338 23.0426C24.6902 23.3941 24.7971 23.6532 24.7971 23.9836C24.7971 24.3155 24.6826 24.5686 24.5294 24.9129C22.7002 29.0245 21.4016 31.5873 19.4751 35.3004C19.3642 35.5145 19.2731 35.6542 19.1469 35.6565C19.0196 35.6565 18.9316 35.5155 18.8196 35.2994C16.8929 31.5865 15.5946 29.0234 13.7654 24.9119C13.609 24.5605 13.4985 24.3008 13.4985 23.9706C13.5029 23.6498 13.6138 23.3869 13.767 23.0426C15.5961 18.9311 16.8948 16.368 18.8213 12.6551C18.9324 12.4409 19.0209 12.3015 19.1471 12.299C19.1481 12.299 19.1491 12.2988 19.1503 12.2988V12.2988Z" fill="url(#paint0_linear)"/>
<path d="M11.6905 23.9789C11.5329 24.1274 11.2562 24.274 10.5799 24.274C9.98033 24.274 4.87844 24.2677 2.44725 24.2677C2.09087 24.2677 1.6127 24.2403 1.6127 24.8059C1.6127 25.1386 1.90051 25.8085 2.49032 26.9657C5.7162 33.2921 9.3005 39.6115 13.1422 45.7875C13.1422 45.7875 13.7285 46.7348 13.7891 46.8103C13.8494 46.8855 13.9203 46.9185 14.0644 46.9168C14.0644 46.9168 16.501 42.4432 18.4691 37.5657C16.2799 33.5158 14.2576 29.5123 12.3678 25.4871C12.3678 25.4871 11.83 24.4794 11.8092 24.0825C11.8063 24.0295 11.8047 24.0124 11.8092 23.9604C11.8129 23.917 11.808 23.8989 11.7942 23.8989C11.7756 23.8989 11.7411 23.9313 11.6905 23.9789V23.9789Z" fill="url(#paint1_linear)"/>
<path d="M36.9413 24.0435C36.8538 24.134 36.6076 24.2657 36.0583 24.2657H29.3593C26.2874 24.2657 26.599 24.1836 25.8011 25.8122C25.4459 26.537 25.0791 27.3897 24.7056 28.0899C22.024 33.7118 15.4791 45.0337 14.5954 46.4371C14.2627 46.9652 14.2142 46.9932 14.4563 46.9932C14.4563 46.9932 16.677 47.0751 19.1491 47.0751C23.0092 47.0751 24.3901 46.9683 24.3901 46.9683C26.6291 43.476 31.9676 34.6194 35.7794 26.9483C36.6572 25.1818 37.0974 24.4127 37.054 24.0349C37.0506 24.006 37.0381 23.9951 37.022 23.9951C36.9972 23.9951 36.9639 24.0203 36.9413 24.0435V24.0435Z" fill="url(#paint2_linear)"/>
<path d="M23.7013 1.52746C21.807 4.46843 15.2684 16.8192 12.5977 22.5787C12.2709 23.2841 12.1049 23.6286 12.1049 23.9705L13.4975 23.973C13.4973 23.9737 13.4973 23.974 13.4977 23.973C13.5021 23.6523 13.613 23.3893 13.7662 23.045C15.5953 18.9335 16.894 16.3705 18.8205 12.6575C18.9316 12.4433 19.0201 12.304 19.1463 12.3014H19.1466L19.6881 10.7222C21.5726 6.01105 24.212 1.05722 24.212 1.05722C24.2071 1.05688 24.2024 1.05688 24.1977 1.05688C24.0394 1.05688 23.9215 1.18592 23.7013 1.52746Z" fill="url(#paint3_linear)"/>
<path d="M19.1474 12.317H19.1471C19.1481 12.317 19.1491 12.3168 19.1503 12.3168C19.2781 12.3168 19.3675 12.457 19.4795 12.6731C21.406 16.386 22.7045 18.949 24.5337 23.0606C24.6901 23.4121 24.797 23.6712 24.797 24.0016C24.797 24.0038 24.797 24.0028 24.797 24.0016C24.797 24.0006 24.797 23.9995 24.797 24.0016H26.1849C26.1847 23.6599 26.0263 23.3237 25.6986 22.6259C23.8529 18.6955 21.9228 14.8651 19.6892 10.7366L19.1474 12.317V12.317Z" fill="url(#paint4_linear)"/>
<path d="M12.5915 25.3634C14.4376 29.2947 16.3601 33.1148 18.5943 37.244L19.1461 35.6597C19.1458 35.6597 19.146 35.6597 19.1461 35.6597C19.0188 35.6597 18.9308 35.5187 18.8188 35.3026C16.8921 31.5896 15.5938 29.0266 13.7646 24.915C13.6081 24.5637 13.4977 24.3039 13.4977 23.9737L12.1049 23.9712C12.1029 24.3149 12.2618 24.6617 12.5915 25.3634V25.3634ZM13.4977 23.9737V23.9736V23.9737ZM19.1461 35.6597H19.1463H19.1461ZM19.1461 35.6597H19.1463L19.1461 35.6595V35.6597Z" fill="url(#paint5_linear)"/>
<path d="M24.7967 23.9958C24.7967 24.3277 24.6822 24.5808 24.529 24.9251C22.6998 29.0367 21.4013 31.5995 19.4748 35.3126C19.3638 35.5267 19.2728 35.6664 19.1466 35.6687L18.5948 37.253C16.6065 42.2502 14.065 46.916 14.065 46.916C14.2185 46.9232 14.4014 46.7361 14.6139 46.4122C14.6698 46.3226 14.7446 46.1995 14.8369 46.0464C16.2639 43.6094 23.1428 30.8812 25.6864 25.3952C26.0133 24.6897 26.1846 24.3375 26.1846 23.9958L24.7969 23.9951C24.7969 23.9951 24.7969 23.9953 24.7967 23.9958V23.9958Z" fill="url(#paint6_linear)"/>
<path d="M0.341285 25.2848C0.976191 26.6658 2.7544 30.1841 5.03426 34.3413C7.52321 38.88 12.042 46.4279 12.5466 47.1187C12.7545 47.403 12.9311 47.5748 13.1004 47.6822L13.4613 46.8178C13.4027 46.7558 13.3419 46.6794 13.2735 46.5849C12.8332 45.9775 8.55538 38.8845 5.82185 33.9036C3.88284 30.3703 1.96968 26.6259 1.15405 24.8965C0.989196 24.5471 0.905758 24.2444 0.905758 23.9956L0.00601196 23.9951C0.00601196 24.3019 0.0720532 24.6994 0.341285 25.2848V25.2848Z" fill="url(#paint7_linear)"/>
<path d="M13.1007 47.6779C13.3434 47.8325 13.5679 47.8525 13.84 47.8767C14.5124 47.9368 17.456 47.9854 19.1496 47.9854C20.843 47.9854 24.0218 47.9165 24.4592 47.8767C24.6667 47.8577 24.8572 47.8386 25.0533 47.7509L24.6972 46.9086C24.6521 46.9308 24.568 46.9533 24.4194 46.9699L24.3569 46.9771C23.9662 47.0221 21.3709 47.0793 19.1496 47.0802C17.3587 47.0807 15.6678 47.0405 14.5666 47.0031C14.4744 46.9999 14.3538 46.9969 14.2582 47.007C14.0796 47.0258 13.8643 47.0463 13.7552 47.0126C13.6508 46.9806 13.5609 46.9188 13.4616 46.8135L13.1007 47.6779V47.6779Z" fill="url(#paint8_linear)"/>
<path d="M24.7113 1.04333C24.81 1.1153 24.9066 1.2257 25.0252 1.38928C25.4655 1.99667 29.7435 9.08984 32.4768 14.0708C34.4157 17.6041 36.329 21.3485 37.1446 23.0779C37.3093 23.4272 37.3929 23.6733 37.3929 23.9219L38.2927 23.9787C38.2927 23.729 38.2383 23.2762 37.9574 22.6896C37.2765 21.2672 35.1009 16.9711 33.2644 13.633C30.8079 9.16791 26.2784 1.56369 25.7519 0.855709C25.4751 0.483346 25.2665 0.307579 25.0566 0.216309L24.7113 1.04333V1.04333Z" fill="url(#paint9_linear)"/>
<path d="M13.7845 0.111928C13.5518 0.135296 13.3778 0.174074 13.2324 0.236049L13.5886 1.09253C13.6567 1.05951 13.7244 1.02632 13.9043 1.00803C14.2509 0.973152 16.9278 0.905419 19.1491 0.905419C20.9572 0.905419 22.7915 0.943858 23.7046 0.982465C23.7968 0.98636 23.9174 0.988731 24.013 0.97874C24.1915 0.959775 24.4344 0.939286 24.5435 0.972983C24.6023 0.991101 24.6562 1.01853 24.711 1.05883L25.0563 0.231816C24.8555 0.140546 24.6612 0.129709 24.4347 0.108881C23.735 0.0448733 20.7253 0 19.1491 0C17.7614 0 14.539 0.036237 13.7845 0.111928V0.111928Z" fill="url(#paint10_linear)"/>
<path d="M12.5162 0.911638C11.9963 1.59235 7.46917 9.2511 5.03426 13.6527C3.32023 16.7513 0.598017 22.1204 0.340102 22.7093C0.0823556 23.2984 0.00601196 23.6921 0.00601196 23.9989L0.905758 23.9994C0.905758 23.8584 0.938019 23.5556 1.15405 23.0976C1.96985 21.368 3.88301 17.6236 5.82185 14.0904C8.55538 9.10953 12.8494 2.03245 13.2664 1.40897C13.4098 1.19493 13.5 1.1465 13.5889 1.09672L13.2326 0.240234C12.9482 0.360968 12.779 0.567893 12.5162 0.911638V0.911638Z" fill="url(#paint11_linear)"/>
<path d="M37.144 24.882C36.3286 26.6114 34.4152 30.356 32.4764 33.889C29.7429 38.8699 25.4853 45.9282 25.0448 46.5356C24.8614 46.7886 24.7859 46.8612 24.6966 46.8983L25.0526 47.7406C25.271 47.6434 25.4941 47.4625 25.7515 47.104C26.2397 46.4245 31.1095 38.2742 33.264 34.3267C35.4185 30.3792 37.7073 25.8308 37.957 25.2701C38.2683 24.5716 38.2922 24.2299 38.2922 23.98L37.3925 23.9231C37.3925 24.0641 37.3602 24.4236 37.144 24.882V24.882ZM24.6966 46.8981C24.6966 46.8983 24.6962 46.8986 24.6966 46.8983C24.6969 46.898 24.6971 46.898 24.6971 46.898C24.6971 46.898 24.6967 46.8981 24.6966 46.8981V46.8981Z" fill="url(#paint12_linear)"/>
<path d="M24.0124 0.961823C24.0283 0.96013 24.0448 0.958437 24.0617 0.956743C24.0611 0.957251 23.8339 1.13132 23.2503 1.12845C22.5576 1.12523 21.1203 1.09678 19.9709 1.0895C17.8469 1.07595 15.3161 1.11524 14.1334 1.17213C13.5065 1.20227 13.4691 1.27035 13.0683 1.69892L13.0677 1.69825L13.2654 1.38803C13.4088 1.17383 13.499 1.12557 13.5879 1.07578C13.6559 1.04259 13.7237 1.00957 13.9037 0.991287C14.2503 0.956404 16.9271 0.888672 19.1483 0.888672C20.9565 0.888672 22.7909 0.92711 23.704 0.965718C23.7962 0.969613 23.9166 0.971983 24.0124 0.961823" fill="white"/>
<path d="M24.3017 24.7895L24.2932 24.8085C24.2838 24.8305 23.2285 27.2174 22.008 29.7234C20.9158 31.9662 19.7278 34.2583 19.2678 35.1396L19.2464 35.1808C19.2016 35.267 19.1631 35.3293 19.1459 35.3293C19.1287 35.3293 19.091 35.2683 19.0471 35.1818C19.0408 35.1696 19.0175 35.1251 18.9792 35.0516C17.6903 32.5792 16.8003 30.7891 16.2806 29.7227C15.1125 27.3256 14.0744 24.9851 14.0003 24.8103L13.99 24.786C13.858 24.4752 13.754 24.2299 13.754 23.9696C13.754 23.7075 13.8751 23.4205 13.9991 23.1487C14.0068 23.1317 14.0273 23.0852 14.0597 23.0115C14.7987 21.3323 15.5427 19.7295 16.2712 18.2475C17.5555 15.6347 19.0343 12.7982 19.0469 12.7742C19.0883 12.6958 19.1243 12.6221 19.1483 12.6221C19.1722 12.6221 19.2099 12.6965 19.2521 12.7755C19.2641 12.7979 20.7101 15.5504 22.0223 18.2467C23.1774 20.6199 24.1868 22.8945 24.2981 23.146C24.4483 23.4851 24.5393 23.7109 24.5393 23.9825C24.5393 24.2466 24.4498 24.451 24.3017 24.7895V24.7895ZM24.5326 23.0417C24.4589 22.8752 23.4284 20.5489 22.2529 18.1339C20.9721 15.5021 19.5386 12.7667 19.4783 12.654C19.3629 12.4382 19.2732 12.2979 19.1493 12.2979C19.0251 12.2979 18.9424 12.4223 18.8201 12.654C18.76 12.7679 17.2925 15.5876 16.0409 18.1339C14.7936 20.6717 13.8297 22.902 13.7658 23.0417C13.6373 23.3231 13.4974 23.6492 13.4974 23.9696C13.4974 24.2898 13.6184 24.5672 13.7641 24.9109C13.8339 25.0755 14.8713 27.4167 16.0501 29.8356C17.3325 32.4674 18.7638 35.1913 18.8184 35.2986C18.9267 35.5111 19.0199 35.6556 19.1457 35.6556C19.2716 35.6556 19.3618 35.5154 19.4739 35.2995C19.5323 35.1869 20.9575 32.4665 22.2385 29.8361C23.4134 27.4235 24.4518 25.0865 24.5282 24.9119C24.6879 24.547 24.7959 24.3062 24.7959 23.9825C24.7959 23.6589 24.6903 23.3979 24.5326 23.0417" fill="black"/>
<path d="M37.7221 25.1847C37.4548 25.7848 35.1315 30.3878 33.0385 34.2228C30.8544 38.2243 25.9969 46.3411 25.5429 46.9732C25.1157 47.5677 24.8448 47.5925 24.4349 47.6297C24.006 47.6688 20.879 47.7376 19.1484 47.7376C17.5445 47.7376 14.5517 47.6913 13.8614 47.6297C13.4283 47.5909 13.1896 47.5698 12.7527 46.9717C12.2747 46.3172 7.75975 38.7843 5.25812 34.2223C2.85936 29.8483 1.14212 26.4194 0.573257 25.182C0.360608 24.7193 0.26163 24.3438 0.26163 24C0.26163 23.6779 0.360946 23.3008 0.574102 22.8137C0.826106 22.2379 3.54139 16.8809 5.25762 13.7784C7.63121 9.48771 12.1816 1.77207 12.7189 1.069C13.0957 0.5759 13.2302 0.431121 13.8092 0.37304C14.5339 0.300396 17.6703 0.262465 19.1484 0.262465C20.8734 0.262465 23.7373 0.296501 24.4062 0.369822L24.4754 0.377273C24.9114 0.42367 25.11 0.444837 25.5452 1.03005C26.0523 1.71178 30.5286 9.21542 33.0388 13.7779C34.8697 17.1058 37.0302 21.3698 37.7252 22.8216C37.9949 23.3852 38.0351 23.8016 38.0351 23.9995C38.0351 24.2503 37.9971 24.5673 37.7221 25.1847V25.1847ZM37.9611 22.7082C37.2651 21.2541 35.1016 16.9841 33.2678 13.6513C30.7539 9.08182 26.2649 1.55904 25.755 0.873248C25.2515 0.196087 24.97 0.166115 24.5033 0.116332L24.4345 0.10905C23.7559 0.0347127 20.879 0 19.1484 0C17.6657 0 14.5165 0.0386076 13.7833 0.112098C13.093 0.181186 12.9056 0.393359 12.5112 0.909485C11.9698 1.61797 7.40607 9.35376 5.02892 13.6513C3.30983 16.7587 0.587615 22.1301 0.334598 22.7084C0.106241 23.2299 0 23.6404 0 24C0 24.3832 0.106578 24.7935 0.33561 25.2917C0.905996 26.5322 2.62644 29.968 5.02875 34.3488C7.53426 38.9175 12.0612 46.4691 12.5416 47.1266C13.0484 47.8205 13.3798 47.8502 13.8382 47.891C14.5351 47.9531 17.5399 47.9999 19.1484 47.9999C20.8842 47.9999 24.0255 47.9304 24.4585 47.891C24.8877 47.8519 25.2585 47.8182 25.755 47.1266C26.2111 46.4918 31.0805 38.3562 33.2678 34.3488C35.3643 30.5078 37.6928 25.894 37.9611 25.2917C38.2562 24.6294 38.2968 24.2792 38.2968 23.9995C38.2968 23.7792 38.2532 23.3185 37.9611 22.7082" fill="black"/>
<path d="M49.0957 37.902H50.8846C52.0304 37.902 52.5028 37.489 52.5028 36.4812C52.5028 35.4735 52.0304 35.0605 50.8846 35.0605H49.0955V37.902H49.0957ZM50.945 34.3955C52.6136 34.3955 53.3171 35.02 53.3171 36.4812C53.3171 37.9324 52.6136 38.557 50.945 38.557H49.0957V41.1671H48.2916V35.0303C48.2916 34.9596 48.2615 34.9294 48.1911 34.8993L47.8894 34.768L47.9598 34.3955H50.9452H50.945Z" fill="black"/>
<path d="M57.2388 39.1918C56.8569 39.0407 56.4146 38.9701 55.9322 38.9701C55.0176 38.9701 54.6355 39.2121 54.6355 39.8367C54.6355 40.4313 55.0074 40.7034 55.8518 40.7034C56.8167 40.7034 57.2388 40.3708 57.2388 39.6351V39.1918V39.1918ZM57.3493 40.6629C57.0478 41.0863 56.4951 41.2878 55.7011 41.2878C54.4245 41.2878 53.8415 40.8343 53.8415 39.8467C53.8415 38.8594 54.4445 38.4159 55.8116 38.4159C56.3343 38.4159 56.8269 38.4863 57.2388 38.6275V37.9524C57.2388 37.1159 56.8167 36.7835 55.7813 36.7835C55.2888 36.7835 54.7762 36.8639 54.2737 37.0251V36.3802C54.7762 36.2291 55.299 36.1487 55.8719 36.1487C57.3795 36.1487 58.0127 36.7027 58.0127 38.0127V40.4816C58.0127 40.5623 58.0229 40.5923 58.0933 40.6226L58.3948 40.7537L58.3142 41.167H57.4802C57.4197 41.167 57.3996 41.167 57.3896 41.0863L57.3493 40.6629V40.6629Z" fill="black"/>
<path d="M61.1794 36.1487C61.7422 36.1487 62.265 36.2291 62.7575 36.3703L62.6268 36.9952C62.1645 36.844 61.712 36.7733 61.2196 36.7733C60.3954 36.7733 60.0135 37.0455 60.0135 37.5492C60.0135 38.7383 62.9585 37.8415 62.9585 39.8064C62.9585 40.784 62.2449 41.2879 60.9985 41.2879C60.3753 41.2879 59.8023 41.2073 59.2897 41.046V40.3911C59.8224 40.5723 60.3753 40.6631 60.9381 40.6631C61.7925 40.6631 62.1846 40.3507 62.1846 39.8166C62.1846 38.4965 59.2396 39.494 59.2396 37.5594C59.2396 36.6121 59.9631 36.1487 61.1794 36.1487Z" fill="black"/>
<path d="M65.7735 36.1487C66.3363 36.1487 66.859 36.2291 67.3515 36.3703L67.2208 36.9952C66.7585 36.844 66.306 36.7733 65.8137 36.7733C64.9894 36.7733 64.6075 37.0455 64.6075 37.5492C64.6075 38.7383 67.5525 37.8415 67.5525 39.8064C67.5525 40.784 66.8389 41.2879 65.5926 41.2879C64.9693 41.2879 64.3964 41.2073 63.8838 41.046V40.3911C64.4165 40.5723 64.9693 40.6631 65.5321 40.6631C66.3866 40.6631 66.7786 40.3507 66.7786 39.8166C66.7786 38.4965 63.8336 39.494 63.8336 37.5594C63.8336 36.6121 64.5572 36.1487 65.7735 36.1487Z" fill="black"/>
<path d="M69.2321 34.2512C69.5939 34.2512 69.7547 34.4024 69.7547 34.765C69.7547 35.1177 69.5939 35.2689 69.2319 35.2689C68.86 35.2689 68.7091 35.1177 68.7091 34.765C68.7091 34.4024 68.8601 34.2512 69.2321 34.2512V34.2512ZM68.5483 36.2565H69.5638C69.6339 36.2565 69.654 36.2766 69.654 36.3574V41.1539H68.85V36.9417C68.85 36.861 68.8399 36.8308 68.7696 36.8007L68.468 36.6698L68.5483 36.2565Z" fill="black"/>
<path d="M73.2821 40.6429C74.3977 40.6429 74.8603 40.0885 74.8603 38.7183C74.8603 37.3477 74.3977 36.7935 73.2821 36.7935C72.1563 36.7935 71.6941 37.3477 71.6941 38.7183C71.6941 40.0885 72.1563 40.6429 73.2821 40.6429ZM73.2821 36.1487C74.9708 36.1487 75.6844 36.9144 75.6844 38.7183C75.6844 40.5322 74.9708 41.2879 73.2821 41.2879C71.5936 41.2879 70.8698 40.5322 70.8698 38.7183C70.8698 36.9144 71.5936 36.1487 73.2821 36.1487Z" fill="black"/>
<path d="M81.1024 40.4816C81.1024 40.5623 81.1125 40.5923 81.1828 40.6226L81.4842 40.7537L81.4039 41.1668H80.3886C80.3183 41.1668 80.2982 41.1467 80.2982 41.0659V38.1136C80.2982 37.1664 79.9464 36.8136 79.072 36.8136C78.4386 36.8136 77.8356 37.0251 77.6245 37.1765V41.1668H76.8203V36.9547C76.8203 36.8739 76.8104 36.844 76.7401 36.8136L76.4386 36.6828L76.5188 36.2694H77.5341C77.6044 36.2694 77.6245 36.2897 77.6245 36.3703V36.7129C77.9663 36.3903 78.4889 36.1487 79.2127 36.1487C80.5595 36.1487 81.1024 36.7129 81.1024 38.0933V40.4816V40.4816Z" fill="black"/>
<path d="M86.0786 36.2566H87.546V36.8914H86.0786V41.1541H85.2744V37.0123C85.2744 36.9016 85.2744 36.8914 85.1739 36.8611L84.6008 36.7001L84.6714 36.2566H85.2744V35.6116C85.2744 34.4327 85.7869 33.939 86.993 33.939C87.3953 33.939 87.7169 33.9994 87.9078 34.07L87.7771 34.6949C87.5761 34.6241 87.3146 34.584 87.0835 34.584C86.3799 34.584 86.0784 34.8762 86.0784 35.5815V36.2566H86.0786Z" fill="black"/>
<path d="M90.4511 40.6429C91.5667 40.6429 92.0293 40.0885 92.0293 38.7183C92.0293 37.3477 91.5667 36.7935 90.4511 36.7935C89.3254 36.7935 88.8631 37.3477 88.8631 38.7183C88.8631 40.0885 89.3254 40.6429 90.4511 40.6429ZM90.4511 36.1487C92.1398 36.1487 92.8534 36.9144 92.8534 38.7183C92.8534 40.5322 92.1398 41.2879 90.4511 41.2879C88.7626 41.2879 88.0388 40.5322 88.0388 38.7183C88.0388 36.9144 88.7626 36.1487 90.4511 36.1487Z" fill="black"/>
<path d="M94.0209 36.9549C94.0209 36.8741 94.0108 36.844 93.9405 36.8138L93.639 36.6829L93.7194 36.2696H94.7347C94.8051 36.2696 94.8251 36.2897 94.8251 36.3703V36.8641C95.197 36.3905 95.7198 36.1487 96.4133 36.1487C96.584 36.1487 96.7751 36.1688 96.8857 36.189L96.7448 36.8944C96.6242 36.8641 96.4736 36.834 96.2925 36.834C95.589 36.834 95.1769 37.0758 94.8251 37.3679V41.167H94.0209V36.9549V36.9549Z" fill="black"/>
<path d="M100.555 40.4678C100.555 40.5486 100.566 40.5786 100.636 40.6089L100.937 40.7399L100.857 41.1531H99.8418C99.7714 41.1531 99.7515 41.1329 99.7515 41.0522V34.7442C99.7515 34.6636 99.7415 34.6333 99.6711 34.6031L99.3696 34.4721L99.4498 34.0591H100.465C100.535 34.0591 100.555 34.0791 100.555 34.1597V40.4678Z" fill="black"/>
<path d="M102.757 34.2512C103.119 34.2512 103.28 34.4024 103.28 34.765C103.28 35.1177 103.119 35.2689 102.757 35.2689C102.385 35.2689 102.234 35.1177 102.234 34.765C102.234 34.4024 102.385 34.2512 102.757 34.2512V34.2512ZM102.073 36.2565H103.089C103.159 36.2565 103.179 36.2766 103.179 36.3574V41.1539H102.375V36.9417C102.375 36.861 102.365 36.8308 102.295 36.8007L101.993 36.6698L102.073 36.2565Z" fill="black"/>
<path d="M105.892 36.2566H107.359V36.8914H105.892V41.1541H105.088V37.0123C105.088 36.9016 105.088 36.8914 104.987 36.8611L104.414 36.7001L104.485 36.2566H105.088V35.6116C105.088 34.4327 105.6 33.939 106.806 33.939C107.209 33.939 107.53 33.9994 107.721 34.07L107.59 34.6949C107.389 34.6241 107.128 34.584 106.897 34.584C106.193 34.584 105.892 34.8762 105.892 35.5815V36.2566V36.2566Z" fill="black"/>
<path d="M108.637 38.3959H111.502C111.482 37.2067 111.1 36.7331 110.165 36.7331C109.12 36.7331 108.668 37.2268 108.637 38.3959ZM110.165 36.1487C111.653 36.1487 112.276 36.8944 112.276 38.6375C112.276 38.7486 112.276 38.8594 112.266 38.9501H108.637C108.677 40.1693 109.21 40.6531 110.527 40.6531C111.05 40.6531 111.562 40.5725 112.085 40.4111V41.0559C111.592 41.2173 111.06 41.2879 110.467 41.2879C108.627 41.2879 107.843 40.5322 107.843 38.7183C107.843 36.9144 108.537 36.1487 110.165 36.1487Z" fill="black"/>
<defs>
<linearGradient id="paint0_linear" x1="19.1495" y1="47.0673" x2="19.1495" y2="0.888842" gradientUnits="userSpaceOnUse">
<stop stop-color="#E5E5E5"/>
<stop offset="0.69" stop-color="white"/>
<stop offset="1" stop-color="#919191"/>
</linearGradient>
<linearGradient id="paint1_linear" x1="10.041" y1="46.8538" x2="10.041" y2="24.1057" gradientUnits="userSpaceOnUse">
<stop stop-color="#E5E5E5"/>
<stop offset="0.01" stop-color="#E5E5E5"/>
<stop offset="0.34" stop-color="#A7A7A7"/>
<stop offset="0.69" stop-color="#303030"/>
<stop offset="0.85" stop-color="#131313"/>
<stop offset="0.95" stop-color="#090909"/>
<stop offset="1" stop-color="#666666"/>
</linearGradient>
<linearGradient id="paint2_linear" x1="25.6807" y1="46.8474" x2="25.6807" y2="24.0794" gradientUnits="userSpaceOnUse">
<stop stop-color="#E5E5E5"/>
<stop offset="0.01" stop-color="#E5E5E5"/>
<stop offset="0.34" stop-color="#A7A7A7"/>
<stop offset="0.69" stop-color="#303030"/>
<stop offset="0.85" stop-color="#131313"/>
<stop offset="0.95" stop-color="#090909"/>
<stop offset="1" stop-color="#666666"/>
</linearGradient>
<linearGradient id="paint3_linear" x1="18.1584" y1="23.8284" x2="18.1584" y2="0.911767" gradientUnits="userSpaceOnUse">
<stop stop-color="#303030"/>
<stop offset="0.04" stop-color="#131313"/>
<stop offset="0.25" stop-color="#1E0F00"/>
<stop offset="1" stop-color="#1E0F00"/>
</linearGradient>
<linearGradient id="paint4_linear" x1="22.666" y1="24.0028" x2="22.666" y2="10.7366" gradientUnits="userSpaceOnUse">
<stop stop-color="#747474"/>
<stop offset="0.8" stop-color="#131313"/>
<stop offset="0.92" stop-color="#1E0F00"/>
<stop offset="1" stop-color="#1E0F00"/>
</linearGradient>
<linearGradient id="paint5_linear" x1="15.6255" y1="37.2684" x2="15.6255" y2="23.9954" gradientUnits="userSpaceOnUse">
<stop stop-color="#BFBFBF"/>
<stop offset="0.36" stop-color="#BFBFBF"/>
<stop offset="0.96" stop-color="#666666"/>
<stop offset="1" stop-color="#303030"/>
</linearGradient>
<linearGradient id="paint6_linear" x1="20.1249" y1="46.771" x2="20.1249" y2="23.85" gradientUnits="userSpaceOnUse">
<stop stop-color="white"/>
<stop offset="0.97" stop-color="#BFBFBF"/>
<stop offset="0.99" stop-color="#747474"/>
<stop offset="1" stop-color="#747474"/>
</linearGradient>
<linearGradient id="paint7_linear" x1="6.73376" y1="47.6822" x2="6.73376" y2="23.9951" gradientUnits="userSpaceOnUse">
<stop stop-color="#666666"/>
<stop offset="0.97" stop-color="#4C4C4C"/>
<stop offset="1" stop-color="#8C8C8C"/>
</linearGradient>
<linearGradient id="paint8_linear" x1="14.6134" y1="44.8133" x2="23.7236" y2="50.0598" gradientUnits="userSpaceOnUse">
<stop stop-color="#666666"/>
<stop offset="0.02" stop-color="#666666"/>
<stop offset="0.1" stop-color="#202020"/>
<stop offset="1" stop-color="#202020"/>
</linearGradient>
<linearGradient id="paint9_linear" x1="21.4998" y1="6.72886" x2="41.6911" y2="17.7552" gradientUnits="userSpaceOnUse">
<stop stop-color="#595959"/>
<stop offset="1" stop-color="#747474"/>
</linearGradient>
<linearGradient id="paint10_linear" x1="24.5084" y1="2.14715" x2="13.5797" y2="-0.978646" gradientUnits="userSpaceOnUse">
<stop stop-color="#595959"/>
<stop offset="0.01" stop-color="#595959"/>
<stop offset="0.07" stop-color="#A7A7A7"/>
<stop offset="0.5" stop-color="#BEBEBE"/>
<stop offset="1" stop-color="#BFBFBF"/>
</linearGradient>
<linearGradient id="paint11_linear" x1="-3.0513" y1="16.0144" x2="16.4427" y2="8.55035" gradientUnits="userSpaceOnUse">
<stop stop-color="#8C8C8C"/>
<stop offset="0.99" stop-color="#747474"/>
<stop offset="1" stop-color="#BFBFBF"/>
</linearGradient>
<linearGradient id="paint12_linear" x1="31.4944" y1="47.7407" x2="31.4944" y2="23.9233" gradientUnits="userSpaceOnUse">
<stop stop-color="#202020"/>
<stop offset="0.02" stop-color="#202020"/>
<stop offset="0.97" stop-color="#3D3D3D"/>
<stop offset="1" stop-color="#747474"/>
</linearGradient>
</defs>
</svg>
