<svg width="168" height="48" viewBox="0 0 168 48" fill="none" xmlns="http://www.w3.org/2000/svg">
<path d="M167.065 34.4062H0.867275V46.9026H167.065V34.4062Z" fill="white"/>
<path fill-rule="evenodd" clip-rule="evenodd" d="M168 47.5235V10.4643H167.98V0H0V35.33H0.0086644V46.5577H0V48H167.98V47.5235H168ZM166.53 35.33V46.5577H1.47895V35.33H166.53Z" fill="#1E2E56"/>
<path fill-rule="evenodd" clip-rule="evenodd" d="M118.101 24.661C118.522 25.1967 119.026 25.4649 119.616 25.4649C119.98 25.4649 120.313 25.3593 120.612 25.1464C120.91 24.9324 121.229 24.5483 121.569 23.994L121.879 24.2386C121.42 25.2113 120.911 25.901 120.354 26.3051C119.794 26.7093 119.149 26.9124 118.418 26.9124C117.158 26.9124 116.202 26.4009 115.555 25.3806C115.034 24.5562 114.773 23.5346 114.773 22.3147C114.773 20.822 115.156 19.6324 115.923 18.7473C116.69 17.8634 117.587 17.4207 118.618 17.4207C119.478 17.4207 120.224 17.7886 120.858 18.529C121.488 19.2657 121.832 20.3599 121.879 21.811H117.196C117.252 23.0131 117.552 23.9627 118.101 24.661ZM119.643 21.199C119.643 20.1695 119.59 19.4643 119.482 19.0789C119.375 18.6957 119.209 18.4046 118.984 18.2073C118.855 18.0912 118.684 18.0342 118.47 18.0342C118.151 18.0342 117.892 18.1968 117.691 18.5232C117.331 19.0917 117.15 19.8714 117.15 20.8619V21.199H119.643V21.199Z" fill="white"/>
<path fill-rule="evenodd" clip-rule="evenodd" d="M112.232 20.8776C111.873 20.8776 111.576 20.7545 111.341 20.5034C111.107 20.2549 110.962 19.8087 110.907 19.1689C110.871 18.766 110.782 18.4837 110.642 18.3224C110.503 18.1626 110.337 18.0828 110.15 18.0828C109.856 18.0828 109.607 18.2469 109.4 18.57C109.083 19.0614 108.925 19.8147 108.925 20.8273C108.925 21.6677 109.052 22.4734 109.307 23.2398C109.561 24.0085 109.908 24.5813 110.352 24.9572C110.687 25.2302 111.079 25.3685 111.535 25.3685C111.83 25.3685 112.113 25.2942 112.378 25.148C112.646 25.0024 112.961 24.7258 113.326 24.3187L113.607 24.5488C113.207 25.347 112.709 25.94 112.113 26.3279C111.518 26.7168 110.883 26.9129 110.212 26.9129C109.078 26.9129 108.173 26.4627 107.496 25.5623C106.818 24.6635 106.478 23.5799 106.478 22.3152C106.478 21.0957 106.788 20.0228 107.409 19.0976C108.154 17.9807 109.184 17.4211 110.495 17.4211C111.376 17.4211 112.076 17.6543 112.596 18.1201C113.115 18.587 113.374 19.1071 113.374 19.6814C113.374 20.047 113.27 20.3366 113.059 20.554C112.85 20.77 112.572 20.8776 112.232 20.8776Z" fill="white"/>
<path fill-rule="evenodd" clip-rule="evenodd" d="M103.123 15.5103C102.666 15.5103 102.279 15.3388 101.957 15.0019C101.636 14.664 101.474 14.2544 101.474 13.7734C101.474 13.2922 101.636 12.8809 101.957 12.5408C102.279 12.1988 102.666 12.0251 103.123 12.0251C103.588 12.0251 103.98 12.1988 104.302 12.5408C104.623 12.8809 104.784 13.2922 104.784 13.7734C104.784 14.2544 104.621 14.664 104.296 15.0019C103.972 15.3388 103.582 15.5103 103.123 15.5103Z" fill="white"/>
<path fill-rule="evenodd" clip-rule="evenodd" d="M100.952 26.6432V26.3002C101.337 26.2862 101.625 26.1717 101.812 25.9514C101.937 25.8046 102 25.4135 102 24.7784V19.5545C102 18.919 101.927 18.514 101.784 18.337C101.64 18.1604 101.362 18.0596 100.952 18.0342V17.6912H104.539V24.7782C104.539 25.4134 104.61 25.8201 104.751 25.9946C104.894 26.1722 105.171 26.2732 105.589 26.3V26.6431H100.952V26.6432Z" fill="white"/>
<path fill-rule="evenodd" clip-rule="evenodd" d="M99.7912 18.3514C99.6217 18.5257 99.3674 19.0361 99.028 19.8835L96.2036 26.9126H95.7967L92.9135 19.9593C92.5684 19.122 92.2987 18.593 92.1049 18.3682C91.9653 18.2041 91.7578 18.0915 91.4864 18.0345V17.6914H95.9928V18.0345C95.7058 18.0345 95.5131 18.0881 95.4102 18.1971C95.264 18.3396 95.1922 18.5059 95.1922 18.6983C95.1922 18.9358 95.322 19.3835 95.5916 20.0373L96.9966 23.3986L98.1109 20.497C98.432 19.6626 98.5942 19.0736 98.5942 18.7263C98.5942 18.5295 98.5262 18.3669 98.3889 18.2413C98.2497 18.1166 98.0095 18.0468 97.6647 18.0345V17.6914H100.446V18.0345C100.18 18.073 99.9591 18.1796 99.7912 18.3514Z" fill="white"/>
<path fill-rule="evenodd" clip-rule="evenodd" d="M90.6607 19.6904C90.4661 19.9269 90.2292 20.0457 89.9539 20.0457C89.6304 20.0457 89.3519 19.9345 89.1152 19.7132C88.8774 19.4933 88.7374 19.3693 88.6954 19.3437C88.6343 19.3048 88.5656 19.2848 88.4862 19.2848C88.315 19.2848 88.1513 19.3543 87.9976 19.4956C87.757 19.7131 87.5711 20.0223 87.4483 20.4246C87.259 21.0452 87.1649 21.7272 87.1649 22.4759L87.1782 24.5342L87.1815 25.0727C87.1815 25.4363 87.2032 25.6711 87.2462 25.772C87.317 25.9441 87.4271 26.0704 87.5701 26.1518C87.7145 26.2311 87.9568 26.2789 88.2992 26.2999V26.643H83.6856V26.2999C84.0602 26.2657 84.3124 26.1604 84.4437 25.9768C84.5757 25.7954 84.641 25.3136 84.641 24.5323V19.5788C84.641 19.0674 84.6167 18.7421 84.569 18.601C84.5069 18.4212 84.4184 18.2899 84.3024 18.2073C84.1858 18.1235 83.98 18.0665 83.6856 18.0342V17.6911H87.1335L87.1475 19.7154C87.707 18.7915 88.1969 18.1783 88.6183 17.8754C89.0393 17.5733 89.4452 17.4207 89.8373 17.4207C90.1761 17.4207 90.4466 17.5318 90.6503 17.7531C90.8522 17.9728 90.955 18.2861 90.955 18.6893C90.955 19.1192 90.8572 19.4545 90.6607 19.6904Z" fill="white"/>
<path fill-rule="evenodd" clip-rule="evenodd" d="M78.7876 24.661C79.2081 25.1967 79.7133 25.4649 80.303 25.4649C80.6686 25.4649 80.9993 25.3593 81.2984 25.1464C81.5968 24.9324 81.9144 24.5483 82.2568 23.994L82.5671 24.2386C82.1057 25.2113 81.5968 25.901 81.0401 26.3051C80.4821 26.7093 79.8375 26.9124 79.1048 26.9124C77.8448 26.9124 76.8906 26.4009 76.2432 25.3806C75.7214 24.5562 75.4628 23.5346 75.4628 22.3147C75.4628 20.822 75.844 19.6324 76.6106 18.7473C77.3758 17.8634 78.2737 17.4207 79.3044 17.4207C80.1635 17.4207 80.912 17.7886 81.5445 18.529C82.176 19.2657 82.5181 20.3599 82.5671 21.811H77.8838C77.9383 23.0131 78.2402 23.9627 78.7876 24.661ZM80.331 21.199C80.331 20.1695 80.2772 19.4643 80.1697 19.0789C80.0627 18.6957 79.8966 18.4046 79.6693 18.2073C79.542 18.0912 79.3714 18.0342 79.157 18.0342C78.8382 18.0342 78.5785 18.1968 78.3772 18.5232C78.0174 19.0917 77.836 19.8714 77.836 20.8619V21.199H80.331V21.199Z" fill="white"/>
<path fill-rule="evenodd" clip-rule="evenodd" d="M65.9077 14.2256C66.293 14.5072 67.1836 15.0107 68.5777 15.7297C70.5292 16.7319 71.8389 17.6774 72.5058 18.5683C73.1652 19.4556 73.4956 20.4742 73.4956 21.6192C73.4956 23.0743 72.9562 24.3255 71.8758 25.3729C70.7955 26.4212 69.4238 26.9447 67.7609 26.9447C67.2391 26.9447 66.7465 26.889 66.2821 26.7799C65.8176 26.6666 65.2341 26.4578 64.5328 26.1507C64.1419 25.9783 63.821 25.8938 63.5679 25.8938C63.3554 25.8938 63.1301 25.9803 62.8945 26.1527C62.6578 26.3268 62.466 26.5889 62.3198 26.9447H61.8826V20.3732H62.3198C62.6783 22.2211 63.3727 23.6309 64.3983 24.6013C65.4224 25.5722 66.5277 26.0586 67.7141 26.0586C68.6292 26.0586 69.359 25.7982 69.9025 25.2746C70.4442 24.7504 70.7173 24.1426 70.7173 23.4512C70.7173 23.0398 70.6103 22.6421 70.4027 22.2559C70.1946 21.8703 69.8767 21.5036 69.4505 21.158C69.0249 20.8116 68.2693 20.3595 67.1874 19.8028C65.6691 19.0229 64.5824 18.3592 63.9249 17.8123C63.2691 17.2633 62.7641 16.6518 62.4123 15.978C62.0583 15.3015 61.8826 14.5567 61.8826 13.7434C61.8826 12.3579 62.367 11.1772 63.3376 10.2004C64.3082 9.22768 65.5288 8.73747 67.0043 8.73747C67.5421 8.73747 68.0625 8.80646 68.5684 8.94242C68.9513 9.04456 69.4172 9.23218 69.9675 9.50878C70.5184 9.78454 70.9036 9.92167 71.1222 9.92167C71.3348 9.92167 71.5011 9.85519 71.6247 9.71889C71.7454 9.58276 71.8594 9.25784 71.9665 8.7373H72.3402L72.4652 14.5565H71.9665C71.7274 13.0942 71.147 11.9173 70.2201 11.0271C69.2937 10.1371 68.29 9.69056 67.2111 9.69056C66.3791 9.69056 65.72 9.92551 65.2338 10.3926C64.7482 10.8586 64.5051 11.3971 64.5051 12.0033C64.5051 12.3897 64.5908 12.7325 64.7627 13.0321C65.0021 13.4343 65.383 13.8332 65.9077 14.2256Z" fill="white"/>
<path fill-rule="evenodd" clip-rule="evenodd" d="M58.9889 21.2771C58.616 22.3113 58.131 23.1627 57.5363 23.8341C56.9416 24.5057 56.2566 25.0449 55.4798 25.4532C54.7032 25.8587 53.7533 26.172 52.6307 26.3969C52.1345 26.4992 51.3524 26.5516 50.2882 26.5516H42.8806V26.0923H43.432C43.9135 26.0923 44.2831 26.0112 44.5402 25.8509C44.7988 25.6896 44.9881 25.4723 45.1117 25.1956C45.1842 25.0148 45.2202 24.4698 45.2202 23.5606V12.1247C45.2202 11.2246 45.1758 10.6616 45.0867 10.4366C44.9956 10.2125 44.8139 10.0151 44.5402 9.84513C44.2661 9.67601 43.8968 9.59419 43.432 9.59419H42.8806V9.13281H50.2882C52.2637 9.13281 53.8539 9.41557 55.0594 9.98026C56.5319 10.6736 57.6479 11.7227 58.4087 13.1268C59.169 14.5323 59.5494 16.1205 59.5494 17.8941C59.5492 19.1174 59.3626 20.2473 58.9889 21.2771ZM54.1465 12.6079C53.6175 11.5619 52.936 10.8497 52.107 10.4723C51.5202 10.2059 50.5458 10.0777 49.1856 10.0867V23.7061C49.1856 24.4254 49.2178 24.8678 49.2844 25.0313C49.3503 25.1957 49.4581 25.3197 49.614 25.4052C49.8335 25.534 50.152 25.5988 50.5676 25.5988C51.9259 25.5988 52.9651 25.1079 53.6826 24.13C54.6602 22.8083 55.1479 20.759 55.1479 17.9752C55.1481 15.7365 54.815 13.9484 54.1465 12.6079Z" fill="white"/>
<path fill-rule="evenodd" clip-rule="evenodd" d="M41.2382 13.833C40.9758 12.7425 40.6868 11.9623 40.3678 11.486C40.0498 11.0114 39.6134 10.6329 39.0581 10.3494C38.7477 10.1963 38.2053 10.1185 37.43 10.1185H36.2123V23.5604C36.2123 24.4587 36.258 25.0222 36.352 25.2475C36.4431 25.4721 36.6252 25.6687 36.8972 25.8378C37.1679 26.0068 37.538 26.0921 38.0072 26.0921H38.5521V26.5513H29.9057V26.0921H30.4552C30.9342 26.0921 31.3211 25.9995 31.6117 25.8167C31.8245 25.696 31.9911 25.4903 32.1136 25.1953C32.2019 24.9867 32.2479 24.4424 32.2479 23.5604V10.1185H31.0309C29.904 10.1185 29.0864 10.3663 28.5782 10.8638C27.8629 11.5575 27.4101 12.5474 27.2214 13.833H26.785V9.13257H41.6754V13.833H41.2382V13.833Z" fill="white"/>
<path fill-rule="evenodd" clip-rule="evenodd" d="M21.8118 26.5516L16.4843 18.5974H15.4018V23.5272C15.4018 24.4626 15.4581 25.0499 15.5708 25.2952C15.6826 25.5366 15.879 25.7286 16.1623 25.8739C16.4435 26.0177 16.9712 26.0923 17.7435 26.0923V26.5516H9.18909V26.0923C9.97072 26.0923 10.4999 26.016 10.778 25.8679C11.0554 25.7183 11.2505 25.5255 11.3629 25.2882C11.475 25.0494 11.5306 24.4626 11.5306 23.5272V12.1559C11.5306 11.2208 11.475 10.6319 11.3629 10.39C11.2505 10.1471 11.0524 9.9536 10.7713 9.80947C10.4889 9.66534 9.96122 9.59419 9.18909 9.59419V9.13281H16.8954C18.9024 9.13281 20.3698 9.27827 21.2978 9.56987C22.2292 9.85929 22.9878 10.3972 23.5752 11.1775C24.1627 11.9596 24.4541 12.8774 24.4541 13.9289C24.4541 15.2109 24.0134 16.2703 23.1346 17.1086C22.5708 17.6378 21.7831 18.0361 20.7724 18.2997L24.739 24.2226C25.2625 24.9868 25.631 25.4638 25.8526 25.6526C26.1865 25.9194 26.5745 26.064 27.0146 26.0923V26.5516H21.8118V26.5516ZM19.5457 11.0323C18.9579 10.4003 18.0101 10.0866 16.7046 10.0866H15.402V17.6773H16.0961C17.2228 17.6773 18.0664 17.5693 18.6271 17.3511C19.1868 17.1339 19.6267 16.7434 19.9468 16.1749C20.2667 15.6087 20.4276 14.8702 20.4276 13.9569C20.4275 12.6378 20.1339 11.6625 19.5457 11.0323Z" fill="white"/>
<path fill-rule="evenodd" clip-rule="evenodd" d="M13.5255 40.307H13.1717L13.0831 40.0711C12.9524 39.724 12.7657 39.4819 12.5236 39.3439C12.3464 39.2461 12.1175 39.1971 11.8359 39.1971H11.6C11.4625 39.1971 11.3757 39.2115 11.3397 39.2408C11.3037 39.2705 11.2859 39.3281 11.2859 39.4127V41.9951C11.2859 42.2302 11.305 42.391 11.3447 42.4776C11.4297 42.6546 11.6098 42.7434 11.8851 42.7434H12.052V43.0672L10.6274 43.0475L9.28174 43.0772V42.7529L9.44886 42.7434C9.61915 42.7434 9.74845 42.6908 9.83659 42.5845C9.92507 42.4798 9.96922 42.2815 9.96922 41.9931V39.8586C9.96922 39.5624 9.92724 39.3641 9.84192 39.2625C9.75628 39.1588 9.62582 39.1088 9.44886 39.1088H9.28174V38.7747L10.6274 38.8042L13.3292 38.7747L13.5255 40.307ZM19.4091 40.9012C19.4091 41.5051 19.2288 42.0256 18.8691 42.4665C18.4828 42.9392 17.9881 43.1755 17.3856 43.1755C17.1305 43.1755 16.8784 43.123 16.6293 43.0193C16.3804 42.9165 16.1614 42.7724 15.9712 42.5858V44.6253C15.9712 44.8697 15.9906 45.0303 16.0303 45.1083C16.1154 45.2869 16.3017 45.3756 16.59 45.3756H16.7571V45.7095L15.313 45.6802L13.9673 45.7095V45.3852L14.1346 45.3756C14.3111 45.3756 14.4421 45.3249 14.5272 45.2234C14.6122 45.1216 14.6548 44.9202 14.6548 44.6178V40.3182C14.6548 40.0238 14.6253 39.816 14.5664 39.6977C14.4684 39.4952 14.2683 39.3936 13.9672 39.3936V39.0578C14.3799 39.0187 14.7316 38.9679 15.0231 38.9057C15.3145 38.8432 15.6042 38.7603 15.8927 38.6533C15.9253 38.8321 15.9467 38.9694 15.9563 39.0677C15.9662 39.1655 15.9712 39.3148 15.9712 39.5112C16.1349 39.2558 16.3444 39.0562 16.5998 38.9122C16.8553 38.7681 17.1397 38.6959 17.4543 38.6959C18.0306 38.6959 18.5052 38.9219 18.8786 39.3759C19.2325 39.8011 19.4091 40.3099 19.4091 40.9012ZM18.0048 40.9702C18.0048 40.3592 17.8931 39.9188 17.6707 39.6507C17.4938 39.4392 17.2646 39.3344 16.9829 39.3344C16.708 39.3344 16.4707 39.4377 16.2711 39.6457C16.0715 39.8523 15.9713 40.1382 15.9713 40.507V41.2958C15.9713 41.7473 16.0598 42.0832 16.2364 42.2993C16.3939 42.4908 16.6133 42.5861 16.8949 42.5861C17.183 42.5861 17.4218 42.4876 17.6119 42.2895C17.8737 42.0144 18.0048 41.5744 18.0048 40.9702ZM24.7037 39.1087C24.4078 39.1545 24.1665 39.3799 23.9819 39.786C23.8358 40.1201 23.7215 40.3822 23.6361 40.572L21.8353 44.4911C21.634 44.937 21.4914 45.2151 21.4084 45.3264C21.1871 45.628 20.9283 45.7783 20.6303 45.7783C20.4683 45.7783 20.3343 45.731 20.2275 45.6362C20.1214 45.5409 20.0671 45.4114 20.0671 45.2478C20.0671 45.0968 20.1162 44.9728 20.2149 44.8744C20.2867 44.8026 20.3813 44.7471 20.4995 44.7074C20.7219 44.6354 20.9447 44.5638 21.1671 44.4911C21.4161 44.3345 21.665 43.9676 21.9138 43.3914L22.0119 43.1655L20.5386 39.806C20.453 39.6029 20.4008 39.4881 20.381 39.4617C20.2569 39.259 20.0699 39.141 19.8213 39.1085V38.7744L21.167 38.8039L22.3851 38.7744V39.1085H22.2775C22.1134 39.1085 21.9989 39.1328 21.9336 39.182C21.8678 39.2311 21.8351 39.3014 21.8351 39.3933C21.8351 39.4782 21.8578 39.5812 21.9041 39.7025C21.9497 39.8235 21.9924 39.9334 22.0317 40.0316L22.7092 41.6917L23.3087 40.2969C23.3744 40.1399 23.4199 40.0283 23.4464 39.9631C23.5117 39.786 23.5448 39.6289 23.5448 39.4912C23.5448 39.3341 23.4873 39.2311 23.3724 39.182C23.2582 39.1328 23.1318 39.1085 22.9946 39.1085V38.7744L23.9081 38.8039L24.7034 38.7744V39.1087H24.7037ZM30.4402 43.067L29.0945 43.0473L27.8469 43.077V42.7432L27.9648 42.7331C28.1221 42.7201 28.2301 42.6809 28.2891 42.6151C28.3874 42.5106 28.4364 42.301 28.4364 41.9868V39.57C28.4364 39.4129 28.4137 39.3116 28.3677 39.2656C28.3217 39.2198 28.2201 39.1971 28.0635 39.1971H27.2777C27.1202 39.1971 27.0189 39.2198 26.9729 39.2656C26.9271 39.3114 26.9039 39.4128 26.9039 39.57V41.9868C26.9039 42.3012 26.9531 42.5108 27.0516 42.6151C27.1106 42.6809 27.2185 42.7201 27.3755 42.7331H27.4935V43.067L26.2463 43.0473L24.9005 43.077V42.7432L25.0671 42.7331C25.2374 42.7331 25.367 42.6809 25.4553 42.576C25.5435 42.4713 25.5881 42.2727 25.5881 41.9851V39.8563C25.5881 39.562 25.5451 39.3623 25.4603 39.2608C25.3754 39.1586 25.2442 39.1085 25.0671 39.1085H24.9005V38.7744L26.2463 38.8039H29.0947L30.4404 38.7744V39.0985L30.2737 39.1087C30.1029 39.1087 29.979 39.1545 29.9 39.2461C29.8022 39.3641 29.753 39.5687 29.753 39.8565V41.9853C29.753 42.28 29.7955 42.4798 29.8805 42.5809C29.9658 42.6824 30.0968 42.7332 30.2737 42.7332H30.4404V43.067H30.4402ZM36.4714 43.067L35.1258 43.0473L33.8786 43.077V42.7432L33.9966 42.7331C34.1537 42.7201 34.2615 42.6809 34.3207 42.6151C34.419 42.5106 34.4678 42.301 34.4678 41.9868V39.57C34.4678 39.4129 34.445 39.3116 34.3991 39.2656C34.3532 39.2198 34.2519 39.1971 34.0942 39.1971H33.3088C33.1515 39.1971 33.05 39.2198 33.004 39.2656C32.9582 39.3114 32.9355 39.4128 32.9355 39.57V41.9868C32.9355 42.3012 32.9842 42.5108 33.0825 42.6151C33.1418 42.6809 33.2495 42.7201 33.4066 42.7331H33.5245V43.067L32.2769 43.0473L30.9314 43.077V42.7432L31.0983 42.7331C31.2688 42.7331 31.3979 42.6809 31.4866 42.576C31.5749 42.4713 31.6192 42.2727 31.6192 41.9851V39.8563C31.6192 39.562 31.5766 39.3623 31.4914 39.2608C31.4063 39.1586 31.275 39.1085 31.0982 39.1085H30.9312V38.7744L32.2767 38.8039H35.1256L36.4713 38.7744V39.0985L36.3045 39.1087C36.1342 39.1087 36.0096 39.1545 35.9314 39.2461C35.8331 39.3641 35.7838 39.5687 35.7838 39.8565V41.9853C35.7838 42.28 35.8263 42.4798 35.9116 42.5809C35.9966 42.6824 36.1277 42.7332 36.3045 42.7332H36.4713V43.067H36.4714ZM41.6389 42.5656C41.4945 42.7759 41.3193 42.9264 41.1131 43.0178C40.9066 43.1098 40.6985 43.1558 40.4892 43.1558C40.2731 43.1558 40.0812 43.103 39.9149 42.9982C39.7477 42.8937 39.6344 42.7331 39.5758 42.517C39.4053 42.6941 39.2219 42.8347 39.0258 42.939C38.7572 43.0833 38.4786 43.1558 38.1905 43.1558C37.8303 43.1558 37.5455 43.0442 37.3364 42.8212C37.1526 42.6251 37.0608 42.386 37.0608 42.1046C37.0608 41.6788 37.2832 41.3186 37.7289 41.0237C38.0104 40.8407 38.4558 40.6509 39.0648 40.454C39.2809 40.382 39.4203 40.3232 39.4825 40.277C39.5446 40.231 39.5758 40.1726 39.5758 40.1001V39.5994C39.5758 39.4222 39.5201 39.2914 39.4087 39.2063C39.2975 39.1212 39.1566 39.079 38.9864 39.079C38.8748 39.079 38.7768 39.0983 38.6915 39.1377C38.6062 39.1768 38.5242 39.2523 38.4461 39.3638C38.3671 39.593 38.302 39.7632 38.2496 39.8745C38.1575 40.0839 37.994 40.1889 37.7584 40.1889C37.5881 40.1889 37.449 40.1349 37.3409 40.0266C37.2327 39.9186 37.1788 39.7893 37.1788 39.6387C37.1788 39.4159 37.2832 39.2196 37.4932 39.0492C37.637 38.9314 37.8336 38.8412 38.0823 38.7794C38.3316 38.7173 38.6687 38.6858 39.0939 38.6858C39.8277 38.6858 40.3349 38.8496 40.6169 39.1768C40.8003 39.3864 40.8919 39.6713 40.8919 40.0316V42.0552C40.8919 42.2057 40.8998 42.309 40.9163 42.3647C40.9329 42.4202 40.9929 42.448 41.0981 42.448C41.2354 42.448 41.3505 42.396 41.4416 42.2914L41.6389 42.5656ZM39.576 41.6918V40.6306L39.3204 40.7487C39.0649 40.8667 38.8816 40.9745 38.7703 41.0727C38.5412 41.2693 38.4266 41.5119 38.4266 41.7995C38.4266 41.9963 38.4856 42.1469 38.6034 42.2514C38.6949 42.3368 38.8097 42.3795 38.947 42.3795C39.1241 42.3795 39.2727 42.3155 39.3942 42.188C39.515 42.0602 39.576 41.895 39.576 41.6918ZM49.664 42.3595C49.5395 42.6809 49.3462 42.9034 49.0843 43.028C48.9073 43.1128 48.6881 43.156 48.4263 43.156C48.1905 43.156 47.9909 43.11 47.827 43.018C47.585 42.8807 47.3881 42.6351 47.2376 42.2814L46.8937 41.4954C46.8217 41.3253 46.7566 41.2101 46.6974 41.1516C46.6059 41.0538 46.4841 41.0043 46.3339 41.0043H46.0882V41.9913C46.0882 42.2224 46.1046 42.3813 46.1372 42.4665C46.2094 42.6513 46.3532 42.7432 46.5693 42.7432H46.7168V43.077L45.4299 43.0473L44.1426 43.077V42.7527L44.2902 42.7432C44.5068 42.7432 44.6473 42.6544 44.7126 42.4761C44.7521 42.3712 44.7718 42.2092 44.7718 41.9929V39.8585C44.7718 39.629 44.7551 39.4704 44.7228 39.3851C44.6508 39.2005 44.507 39.1087 44.2904 39.1087H44.1428V38.7746L45.4301 38.8041L46.7169 38.7746V39.0987L46.5695 39.1088C46.3533 39.1088 46.2124 39.1973 46.1472 39.3759C46.1082 39.4804 46.0882 39.6424 46.0882 39.8603V40.6115H46.363C46.6839 40.6115 46.9459 40.4185 47.1488 40.0319C47.2801 39.7502 47.3779 39.5411 47.4437 39.4036C47.5487 39.2006 47.6665 39.0435 47.7978 38.9317C47.9874 38.7681 48.2164 38.6861 48.4846 38.6861C48.7009 38.6861 48.8645 38.7386 48.9765 38.8434C49.0876 38.9482 49.1433 39.0727 49.1433 39.2166C49.1433 39.3543 49.1005 39.4687 49.0155 39.5602C48.9303 39.6524 48.809 39.6978 48.6521 39.6978C48.5469 39.6978 48.4261 39.6524 48.2885 39.5602C48.2164 39.5147 48.151 39.4916 48.0922 39.4916C47.9743 39.4916 47.7941 39.7142 47.5517 40.1596C47.4079 40.4283 47.2441 40.6213 47.0607 40.7392L47.1396 40.7882C47.4732 40.8737 47.7646 41.0763 48.0137 41.3971C48.2034 41.679 48.3931 41.9604 48.5831 42.242C48.6422 42.3142 48.7009 42.3712 48.7599 42.414C48.8189 42.4561 48.8912 42.4775 48.9765 42.4775C49.12 42.4775 49.2314 42.3895 49.3102 42.2122L49.664 42.3595ZM54.8799 40.9155C54.8799 41.5777 54.636 42.1162 54.1478 42.5318C53.6603 42.9477 53.0854 43.156 52.4239 43.156C51.6973 43.156 51.1044 42.91 50.6462 42.4187C50.2333 41.9803 50.0272 41.4724 50.0272 40.8962C50.0272 40.2547 50.2695 39.7258 50.7539 39.3099C51.2386 38.8942 51.8052 38.6861 52.4534 38.6861C53.1149 38.6861 53.6844 38.8942 54.163 39.3099C54.6405 39.7257 54.8799 40.261 54.8799 40.9155ZM53.416 41.014C53.416 40.2412 53.3363 39.7257 53.1756 39.4669C53.0151 39.2085 52.7778 39.0792 52.4636 39.0792C52.077 39.0792 51.8084 39.269 51.658 39.6487C51.5465 39.9238 51.4907 40.3362 51.4907 40.8862C51.4907 41.6264 51.5826 42.1337 51.7659 42.4088C51.9232 42.6448 52.1555 42.7626 52.4636 42.7626C52.8366 42.7626 53.0984 42.5791 53.2489 42.2122C53.3608 41.9376 53.416 41.5382 53.416 41.014ZM61.8046 43.067L60.4591 43.0473L59.1622 43.077V42.7432L59.2805 42.7331C59.4436 42.7331 59.5619 42.6968 59.634 42.6253C59.7452 42.5123 59.8011 42.2977 59.8011 41.9803V40.1794L58.3764 43.077H58.0819L56.6575 40.1987V41.9868C56.6575 42.3012 56.7133 42.514 56.8243 42.6253C56.8962 42.6969 57.0145 42.7331 57.1783 42.7331H57.2961V43.067L56.4907 43.0473L55.5374 43.077V42.7432L55.7042 42.7331C55.8752 42.7331 55.9965 42.6839 56.0683 42.5858C56.1726 42.4335 56.2251 42.1452 56.2251 41.7178V39.8273C56.2251 39.6372 56.2023 39.4902 56.1566 39.3833C56.0778 39.2003 55.9337 39.1087 55.7242 39.1087H55.5669V38.7746L55.9503 38.7844H56.3236H57.2565L58.6415 41.5444L59.9974 38.7844H60.9697C61.1073 38.7844 61.2464 38.7844 61.3869 38.7844C61.5282 38.7844 61.667 38.7844 61.8045 38.7844V39.0987L61.6377 39.1088C61.4674 39.1088 61.3431 39.1546 61.2644 39.2463C61.1663 39.3643 61.1173 39.5689 61.1173 39.8566V41.9854C61.1173 42.2802 61.1593 42.48 61.2446 42.5811C61.3303 42.6826 61.4612 42.7334 61.6377 42.7334H61.8045V43.067H61.8046ZM67.8362 43.067L66.4904 43.0473L65.2427 43.077V42.7432L65.3607 42.7331C65.5175 42.7201 65.6258 42.6809 65.6846 42.6151C65.7831 42.5106 65.8322 42.301 65.8322 41.9868V39.57C65.8322 39.4129 65.8092 39.3116 65.7633 39.2656C65.7176 39.2198 65.6161 39.1971 65.4588 39.1971H64.6729C64.5157 39.1971 64.4144 39.2198 64.3683 39.2656C64.3228 39.3114 64.2996 39.4128 64.2996 39.57V41.9868C64.2996 42.3012 64.349 42.5108 64.4473 42.6151C64.5059 42.6809 64.6144 42.7201 64.771 42.7331H64.889V43.067L63.6415 43.0473L62.2962 43.077V42.7432L62.4628 42.7331C62.6332 42.7331 62.7622 42.6809 62.8512 42.576C62.9392 42.4713 62.9833 42.2727 62.9833 41.9851V39.8563C62.9833 39.562 62.941 39.3623 62.856 39.2608C62.7709 39.1586 62.6399 39.1085 62.463 39.1085H62.2963V38.7744L63.6416 38.8039H66.4904L67.8362 38.7744V39.0985L67.6693 39.1087C67.4988 39.1087 67.3743 39.1545 67.2959 39.2461C67.1982 39.3641 67.1487 39.5687 67.1487 39.8565V41.9853C67.1487 42.28 67.1914 42.4798 67.2759 42.5809C67.3612 42.6824 67.4923 42.7332 67.6693 42.7332H67.8362V43.067V43.067ZM73.0029 42.5656C72.8586 42.7759 72.6838 42.9264 72.4775 43.0178C72.2712 43.1098 72.0633 43.1558 71.8537 43.1558C71.6379 43.1558 71.4459 43.103 71.279 42.9982C71.1122 42.8937 70.9992 42.7331 70.9399 42.517C70.7699 42.6941 70.5863 42.8347 70.3902 42.939C70.1216 43.0833 69.8434 43.1558 69.5549 43.1558C69.1949 43.1558 68.9099 43.0442 68.7005 42.8212C68.5172 42.6251 68.4257 42.386 68.4257 42.1046C68.4257 41.6788 68.6482 41.3186 69.0934 41.0237C69.3753 40.8407 69.8207 40.6509 70.4289 40.454C70.6453 40.382 70.7846 40.3232 70.8468 40.277C70.9089 40.231 70.9399 40.1726 70.9399 40.1001V39.5994C70.9399 39.4222 70.8844 39.2914 70.7731 39.2063C70.6616 39.1212 70.521 39.079 70.351 39.079C70.2392 39.079 70.1409 39.0983 70.0561 39.1377C69.971 39.1768 69.889 39.2523 69.8102 39.3638C69.7315 39.593 69.6664 39.7632 69.6136 39.8745C69.5221 40.0839 69.3583 40.1889 69.1227 40.1889C68.9526 40.1889 68.8131 40.1349 68.7053 40.0266C68.5968 39.9186 68.543 39.7893 68.543 39.6387C68.543 39.4159 68.6478 39.2196 68.8573 39.0492C69.0012 38.9314 69.1979 38.8412 69.4468 38.7794C69.6959 38.7173 70.0331 38.6858 70.4584 38.6858C71.1917 38.6858 71.6994 38.8496 71.981 39.1768C72.1647 39.3864 72.2557 39.6713 72.2557 40.0316V42.0552C72.2557 42.2057 72.2642 42.309 72.2809 42.3647C72.297 42.4202 72.3575 42.448 72.4622 42.448C72.6 42.448 72.7143 42.396 72.8061 42.2914L73.0029 42.5656ZM70.9401 41.6918V40.6306L70.6851 40.7487C70.429 40.8667 70.2459 40.9745 70.1351 41.0727C69.906 41.2693 69.7909 41.5119 69.7909 41.7995C69.7909 41.9963 69.85 42.1469 69.968 42.2514C70.06 42.3368 70.1743 42.3795 70.3119 42.3795C70.4885 42.3795 70.6376 42.3155 70.7589 42.188C70.8797 42.0602 70.9401 41.895 70.9401 41.6918ZM78.8968 43.067L77.551 43.0473L76.2545 43.077V42.7432L76.4216 42.7331C76.5721 42.7331 76.6801 42.6968 76.7454 42.6253C76.8438 42.514 76.8928 42.3012 76.8928 41.9868V41.0043H75.2231V41.9868C75.2231 42.2945 75.2721 42.504 75.3702 42.6151C75.4427 42.6943 75.5505 42.7331 75.6945 42.7331H75.8611V43.067L74.5646 43.0473L73.219 43.077V42.7432L73.3861 42.7331C73.5564 42.7331 73.6852 42.6809 73.7738 42.576C73.8623 42.4713 73.9066 42.2727 73.9066 41.9851V39.8563C73.9066 39.562 73.8641 39.3623 73.7793 39.2608C73.6937 39.1586 73.5629 39.1085 73.3861 39.1085H73.219V38.7744L74.5646 38.8039L75.8611 38.7744V39.0985L75.6945 39.1087C75.5439 39.1087 75.4359 39.1445 75.3702 39.2165C75.2721 39.3298 75.2231 39.5439 75.2231 39.8601V40.6113H76.8928V39.8601C76.8928 39.5507 76.8438 39.3394 76.7454 39.2266C76.6736 39.148 76.5659 39.1087 76.4216 39.1087H76.2545V38.7746L77.551 38.8041L78.8968 38.7746V39.0987L78.7297 39.1088C78.5596 39.1088 78.4351 39.1546 78.3566 39.2463C78.2586 39.3643 78.2092 39.5689 78.2092 39.8566V41.9854C78.2092 42.2802 78.2518 42.48 78.3368 42.5811C78.4221 42.6826 78.5531 42.7334 78.7297 42.7334H78.8968V43.067V43.067ZM85.0655 43.067L83.7195 43.0473L82.423 43.077V42.7432L82.5897 42.7331C82.7401 42.7331 82.8486 42.6968 82.9139 42.6253C83.0124 42.514 83.0612 42.3012 83.0612 41.9868V40.1891L81.3915 42.2619V42.3102C81.3915 42.4155 81.4328 42.5123 81.5146 42.6006C81.5964 42.6884 81.7124 42.7331 81.8629 42.7331H82.0301V43.067L80.7335 43.0473L79.3878 43.077V42.7432L79.5546 42.7331C79.7249 42.7331 79.8542 42.6809 79.9425 42.576C80.031 42.4713 80.0753 42.2727 80.0753 41.9851V39.8563C80.0753 39.562 80.0327 39.3623 79.9479 39.2608C79.8626 39.1586 79.7316 39.1085 79.5546 39.1085H79.3878V38.7744L80.7335 38.8039L82.0301 38.7744V39.0985L81.8629 39.1087C81.7124 39.1087 81.6048 39.1445 81.5391 39.2165C81.4408 39.3298 81.3915 39.5424 81.3915 39.8585V41.6527L83.0612 39.5797V39.4802C83.0421 39.3784 82.9907 39.2916 82.9088 39.2181C82.8288 39.1445 82.7248 39.1087 82.5948 39.1087H82.4229V38.7746L83.7194 38.8041L85.0654 38.7746V39.0987L84.8981 39.1088C84.7279 39.1088 84.6038 39.1546 84.5252 39.2463C84.4267 39.3643 84.3784 39.5689 84.3784 39.8566V41.9854C84.3784 42.2802 84.4207 42.48 84.5055 42.5811C84.5906 42.6826 84.7213 42.7334 84.8981 42.7334H85.0654V43.067H85.0655ZM90.0552 36.9902C90.0552 37.3056 89.9146 37.5727 89.6335 37.7905C89.3184 38.0344 88.9062 38.1556 88.395 38.1556C87.8781 38.1556 87.4724 38.0426 87.1771 37.8148C86.8825 37.5869 86.7356 37.3123 86.7356 36.9902C86.7356 36.8309 86.7811 36.7069 86.873 36.6153C86.9649 36.5218 87.0927 36.4758 87.256 36.4758C87.4192 36.4758 87.5442 36.5151 87.6295 36.5936C87.7145 36.6723 87.757 36.7672 87.757 36.8784C87.757 36.9307 87.7467 36.98 87.7278 37.0262C87.7082 37.0722 87.6817 37.1142 87.6492 37.1535C87.5897 37.2451 87.5609 37.3171 87.5609 37.3696C87.5609 37.4941 87.6309 37.5987 87.7715 37.6842C87.9124 37.7695 88.1207 37.8118 88.395 37.8118C88.6636 37.8118 88.8705 37.7672 89.0147 37.6794C89.1585 37.5907 89.2303 37.4876 89.2303 37.3696C89.2303 37.3303 89.2216 37.2941 89.2063 37.2618C89.1896 37.229 89.1684 37.1931 89.1418 37.1537C89.0698 37.0622 89.0342 36.9704 89.0342 36.8786C89.0342 36.7606 89.0745 36.6641 89.1563 36.589C89.2383 36.5136 89.3647 36.476 89.535 36.476C89.7446 36.476 89.8918 36.5483 89.9762 36.6939C90.0289 36.7849 90.0552 36.8836 90.0552 36.9902ZM91.2342 43.067L89.8886 43.0473L88.5918 43.077V42.7432L88.7587 42.7331C88.9095 42.7331 89.0182 42.6968 89.0833 42.6253C89.1813 42.514 89.2303 42.3012 89.2303 41.9868V40.1891L87.5609 42.2619V42.3102C87.5609 42.4155 87.6017 42.5123 87.683 42.6006C87.7651 42.6884 87.8815 42.7331 88.0317 42.7331H88.1992V43.067L86.9029 43.0473L85.5567 43.077V42.7432L85.7239 42.7331C85.894 42.7331 86.0231 42.6809 86.1116 42.576C86.1999 42.4713 86.2449 42.2727 86.2449 41.9851V39.8563C86.2449 39.562 86.2019 39.3623 86.1164 39.2608C86.0313 39.1586 85.9006 39.1085 85.724 39.1085H85.5569V38.7842L86.903 38.8039L88.1994 38.7744V39.0985L88.0319 39.1087C87.8818 39.1087 87.7735 39.1445 87.7083 39.2165C87.6099 39.3298 87.561 39.5424 87.561 39.8585V41.6527L89.2304 39.5797V39.4802C89.2114 39.3784 89.1603 39.2916 89.0781 39.2181C88.9982 39.1445 88.893 39.1087 88.7642 39.1087H88.5919V38.7844L89.8888 38.8041L91.2344 38.7746V39.0987L91.0678 39.1088C90.8972 39.1088 90.7727 39.1546 90.6947 39.2463C90.5962 39.3643 90.5466 39.5689 90.5466 39.8566V41.9854C90.5466 42.2802 90.5894 42.48 90.675 42.5811C90.7594 42.6826 90.8905 42.7334 91.0678 42.7334H91.2344V43.067H91.2342Z" fill="#1E2E56"/>
</svg>
