<svg width="140" height="40" viewBox="0 0 140 40" fill="none" xmlns="http://www.w3.org/2000/svg">
<path d="M139.221 28.6719H0.722733V39.0855H139.221V28.6719Z" fill="white"/>
<path fill-rule="evenodd" clip-rule="evenodd" d="M140 39.6029V8.72029H139.983V0H0V29.4417H0.00722034V38.7981H0V40H139.983V39.6029H140ZM138.775 29.4417V38.7981H1.23246V29.4417H138.775Z" fill="#1E2E56"/>
<path fill-rule="evenodd" clip-rule="evenodd" d="M103.339 20.5509C103.707 20.9974 104.148 21.2209 104.664 21.2209C104.983 21.2209 105.274 21.1329 105.536 20.9554C105.796 20.7771 106.075 20.4571 106.373 19.9951L106.645 20.199C106.242 21.0096 105.797 21.5843 105.309 21.921C104.82 22.2579 104.256 22.4271 103.615 22.4271C102.513 22.4271 101.677 22.0009 101.11 21.1507C100.655 20.4636 100.426 19.6123 100.426 18.5957C100.426 17.3518 100.762 16.3605 101.432 15.6229C102.104 14.8863 102.889 14.5173 103.791 14.5173C104.543 14.5173 105.196 14.8239 105.751 15.441C106.302 16.0549 106.603 16.9667 106.645 18.176H102.546C102.596 19.1777 102.858 19.969 103.339 20.5509ZM104.688 17.666C104.688 16.808 104.641 16.2204 104.547 15.8992C104.454 15.5798 104.308 15.3373 104.111 15.1729C103.998 15.0761 103.849 15.0286 103.661 15.0286C103.382 15.0286 103.155 15.1641 102.98 15.4361C102.664 15.9099 102.507 16.5596 102.507 17.3851V17.666H104.688Z" fill="white"/>
<path fill-rule="evenodd" clip-rule="evenodd" d="M98.2033 17.398C97.8888 17.398 97.629 17.2954 97.4234 17.0861C97.2186 16.8791 97.0919 16.5072 97.0438 15.974C97.0118 15.6383 96.9346 15.4031 96.8115 15.2686C96.6901 15.1355 96.5453 15.069 96.3811 15.069C96.1239 15.069 95.9064 15.2057 95.7246 15.475C95.4473 15.8845 95.3095 16.5122 95.3095 17.356C95.3095 18.0564 95.4209 18.7278 95.6435 19.3665C95.8657 20.007 96.1697 20.4844 96.558 20.7977C96.8515 21.0251 97.1939 21.1404 97.593 21.1404C97.8513 21.1404 98.0992 21.0784 98.3311 20.9567C98.565 20.8353 98.8413 20.6048 99.1604 20.2656L99.4065 20.4573C99.0563 21.1224 98.6201 21.6166 98.0992 21.9399C97.5784 22.264 97.0226 22.4274 96.4356 22.4274C95.4431 22.4274 94.6511 22.0522 94.0593 21.3018C93.4661 20.5529 93.1681 19.6499 93.1681 18.596C93.1681 17.5797 93.4398 16.6856 93.9825 15.9146C94.6345 14.9839 95.5359 14.5176 96.6834 14.5176C97.4539 14.5176 98.0665 14.7118 98.5217 15.1001C98.9758 15.4891 99.2024 15.9225 99.2024 16.4011C99.2024 16.7058 99.1111 16.9471 98.9268 17.1283C98.7437 17.3083 98.5008 17.398 98.2033 17.398Z" fill="white"/>
<path fill-rule="evenodd" clip-rule="evenodd" d="M90.2329 12.9253C89.8327 12.9253 89.4939 12.7824 89.2121 12.5016C88.9314 12.22 88.7899 11.8787 88.7899 11.4778C88.7899 11.0768 88.9316 10.7341 89.2121 10.4507C89.4939 10.1657 89.8327 10.021 90.2329 10.021C90.6397 10.021 90.9825 10.1657 91.2644 10.4507C91.5452 10.7341 91.6864 11.0768 91.6864 11.4778C91.6864 11.8787 91.5436 12.22 91.2592 12.5016C90.9752 12.7824 90.634 12.9253 90.2329 12.9253Z" fill="white"/>
<path fill-rule="evenodd" clip-rule="evenodd" d="M88.3332 22.2025V21.9166C88.6703 21.9049 88.9218 21.8095 89.0855 21.626C89.1949 21.5036 89.2504 21.1777 89.2504 20.6484V16.2952C89.2504 15.7656 89.1866 15.4281 89.0607 15.2806C88.9351 15.1334 88.6919 15.0494 88.3332 15.0283V14.7424H91.4715V20.6483C91.4715 21.1776 91.5339 21.5166 91.6572 21.6619C91.7826 21.8099 92.0249 21.8941 92.3901 21.9165V22.2023H88.3332V22.2025Z" fill="white"/>
<path fill-rule="evenodd" clip-rule="evenodd" d="M87.3173 15.2927C87.169 15.4379 86.9465 15.8632 86.6496 16.5694L84.1782 22.427H83.8222L81.2993 16.6326C80.9974 15.9349 80.7614 15.494 80.5918 15.3067C80.4696 15.1699 80.2881 15.0761 80.0506 15.0286V14.7427H83.9938V15.0286C83.7426 15.0286 83.574 15.0733 83.4839 15.1641C83.3561 15.2828 83.2932 15.4214 83.2932 15.5818C83.2932 15.7796 83.4068 16.1527 83.6427 16.6976L84.872 19.4987L85.8471 17.0807C86.1281 16.3853 86.2699 15.8945 86.2699 15.6051C86.2699 15.4411 86.2104 15.3056 86.0903 15.2009C85.9686 15.097 85.7583 15.0388 85.4567 15.0286V14.7427H87.8901V15.0286C87.6573 15.0606 87.4643 15.1495 87.3173 15.2927Z" fill="white"/>
<path fill-rule="evenodd" clip-rule="evenodd" d="M79.3282 16.4088C79.1579 16.6058 78.9506 16.7048 78.7097 16.7048C78.4266 16.7048 78.1829 16.6122 77.9758 16.4278C77.7677 16.2445 77.6453 16.1412 77.6085 16.1198C77.555 16.0875 77.4949 16.0708 77.4254 16.0708C77.2757 16.0708 77.1324 16.1287 76.9979 16.2465C76.7874 16.4277 76.6247 16.6854 76.5172 17.0206C76.3516 17.5378 76.2693 18.1061 76.2693 18.73L76.2809 20.4453L76.2838 20.894C76.2838 21.197 76.3028 21.3927 76.3404 21.4768C76.4024 21.6202 76.4987 21.7255 76.6238 21.7933C76.7502 21.8593 76.9622 21.8992 77.2618 21.9167V22.2026H73.2249V21.9167C73.5527 21.8882 73.7734 21.8005 73.8883 21.6475C74.0037 21.4962 74.0609 21.0948 74.0609 20.4437V16.3158C74.0609 15.8896 74.0396 15.6186 73.9979 15.501C73.9435 15.3511 73.8661 15.2417 73.7646 15.1729C73.6626 15.103 73.4825 15.0555 73.2249 15.0286V14.7427H76.2418L76.2541 16.4296C76.7437 15.6597 77.1723 15.1487 77.541 14.8963C77.9094 14.6445 78.2646 14.5173 78.6077 14.5173C78.9041 14.5173 79.1408 14.6099 79.319 14.7943C79.4957 14.9775 79.5856 15.2385 79.5856 15.5746C79.5856 15.9328 79.5001 16.2122 79.3282 16.4088Z" fill="white"/>
<path fill-rule="evenodd" clip-rule="evenodd" d="M68.9391 20.5509C69.3071 20.9974 69.7491 21.2209 70.2651 21.2209C70.585 21.2209 70.8744 21.1329 71.1361 20.9554C71.3972 20.7771 71.6751 20.4571 71.9747 19.9951L72.2462 20.199C71.8425 21.0096 71.3972 21.5843 70.9101 21.921C70.4218 22.2579 69.8578 22.4271 69.2167 22.4271C68.1142 22.4271 67.2792 22.0009 66.7128 21.1507C66.2562 20.4636 66.0299 19.6123 66.0299 18.5957C66.0299 17.3518 66.3635 16.3605 67.0343 15.6229C67.7038 14.8863 68.4895 14.5173 69.3914 14.5173C70.1431 14.5173 70.798 14.8239 71.3514 15.441C71.904 16.0549 72.2033 16.9667 72.2462 18.176H68.1483C68.196 19.1777 68.4602 19.969 68.9391 20.5509ZM70.2896 17.666C70.2896 16.808 70.2425 16.2204 70.1485 15.8992C70.0549 15.5798 69.9095 15.3373 69.7107 15.1729C69.5993 15.0761 69.45 15.0286 69.2623 15.0286C68.9834 15.0286 68.7561 15.1641 68.58 15.4361C68.2652 15.9099 68.1065 16.5596 68.1065 17.3851V17.666H70.2896Z" fill="white"/>
<path fill-rule="evenodd" clip-rule="evenodd" d="M57.6693 11.8546C58.0064 12.0892 58.7856 12.5088 60.0055 13.108C61.7131 13.9432 62.859 14.7311 63.4426 15.4735C64.0195 16.2129 64.3087 17.0617 64.3087 18.0159C64.3087 19.2285 63.8367 20.2712 62.8914 21.144C61.946 22.0176 60.7459 22.4538 59.2908 22.4538C58.8342 22.4538 58.4032 22.4075 57.9969 22.3165C57.5904 22.2221 57.0798 22.0481 56.4662 21.7922C56.1242 21.6485 55.8434 21.5781 55.6219 21.5781C55.436 21.5781 55.2389 21.6501 55.0327 21.7939C54.8256 21.939 54.6577 22.1574 54.5299 22.4538H54.1473V16.9776H54.5299C54.8435 18.5175 55.4512 19.6923 56.3485 20.501C57.2446 21.3101 58.2118 21.7154 59.2499 21.7154C60.0506 21.7154 60.6891 21.4984 61.1647 21.0621C61.6387 20.6253 61.8777 20.1187 61.8777 19.5426C61.8777 19.1998 61.7841 18.8684 61.6024 18.5465C61.4203 18.2252 61.1421 17.9196 60.7692 17.6316C60.3968 17.3429 59.7356 16.9662 58.789 16.5023C57.4605 15.8523 56.5096 15.2993 55.9343 14.8435C55.3605 14.386 54.9186 13.8764 54.6108 13.3149C54.301 12.7511 54.1473 12.1305 54.1473 11.4527C54.1473 10.2982 54.5711 9.31424 55.4204 8.50028C56.2697 7.68965 57.3378 7.28115 58.6288 7.28115C59.0994 7.28115 59.5547 7.33863 59.9973 7.45194C60.3324 7.53705 60.74 7.6934 61.2216 7.9239C61.7036 8.1537 62.0407 8.26798 62.2319 8.26798C62.418 8.26798 62.5635 8.21258 62.6717 8.099C62.7772 7.98555 62.8769 7.71478 62.9707 7.28101H63.2977L63.4071 12.1303H62.9707C62.7615 10.9118 62.2537 9.93103 61.4426 9.18913C60.632 8.44752 59.7537 8.07539 58.8097 8.07539C58.0817 8.07539 57.505 8.27117 57.0795 8.66038C56.6547 9.04876 56.442 9.49753 56.442 10.0027C56.442 10.3247 56.5169 10.6103 56.6674 10.86C56.8769 11.1952 57.2102 11.5276 57.6693 11.8546Z" fill="white"/>
<path fill-rule="evenodd" clip-rule="evenodd" d="M51.6153 17.7308C51.289 18.5927 50.8646 19.3022 50.3443 19.8617C49.8239 20.4214 49.2245 20.8707 48.5449 21.2109C47.8653 21.5489 47.0341 21.8099 46.0519 21.9974C45.6177 22.0826 44.9334 22.1262 44.0022 22.1262H37.5206V21.7435H38.003C38.4243 21.7435 38.7477 21.6759 38.9727 21.5423C39.1989 21.4079 39.3646 21.2269 39.4728 20.9962C39.5362 20.8456 39.5677 20.3914 39.5677 19.6338V10.1039C39.5677 9.35376 39.5289 8.88458 39.4509 8.69712C39.3711 8.51037 39.2122 8.34583 38.9727 8.20419C38.7328 8.06326 38.4098 7.99508 38.003 7.99508H37.5206V7.6106H44.0022C45.7307 7.6106 47.1222 7.84623 48.177 8.31681C49.4654 8.89458 50.4419 9.7688 51.1076 10.9389C51.7729 12.1101 52.1058 13.4337 52.1058 14.9117C52.1056 15.9311 51.9423 16.8727 51.6153 17.7308ZM47.3782 10.5065C46.9153 9.6348 46.319 9.04134 45.5937 8.72684C45.0802 8.50481 44.2276 8.39803 43.0374 8.40553V19.755C43.0374 20.3544 43.0656 20.7231 43.1239 20.8593C43.1815 20.9964 43.2758 21.0997 43.4123 21.1709C43.6043 21.2782 43.8831 21.3323 44.2467 21.3323C45.4352 21.3323 46.3445 20.9232 46.9723 20.1083C47.8277 19.0069 48.2544 17.2991 48.2544 14.9793C48.2546 13.1136 47.9631 11.6236 47.3782 10.5065Z" fill="white"/>
<path fill-rule="evenodd" clip-rule="evenodd" d="M36.0834 11.5277C35.8538 10.6189 35.601 9.96875 35.3218 9.57176C35.0436 9.17631 34.6618 8.86083 34.1759 8.62464C33.9042 8.49703 33.4297 8.43219 32.7513 8.43219H31.6858V19.6338C31.6858 20.3824 31.7258 20.852 31.808 21.0397C31.8878 21.2269 32.0471 21.3907 32.285 21.5317C32.522 21.6724 32.8458 21.7435 33.2563 21.7435H33.7331V22.1262H26.1675V21.7435H26.6483C27.0675 21.7435 27.406 21.6663 27.6603 21.514C27.8465 21.4135 27.9923 21.242 28.0994 20.9962C28.1767 20.8224 28.2169 20.3688 28.2169 19.6338V8.43219H27.152C26.166 8.43219 25.4506 8.63867 25.0059 9.05328C24.38 9.63133 23.9839 10.4563 23.8187 11.5277H23.4369V7.6106H36.466V11.5277H36.0834Z" fill="white"/>
<path fill-rule="evenodd" clip-rule="evenodd" d="M19.0853 22.1262L14.4238 15.4978H13.4766V19.6059C13.4766 20.3854 13.5259 20.8749 13.6244 21.0793C13.7223 21.2805 13.8942 21.4404 14.142 21.5615C14.3881 21.6813 14.8498 21.7435 15.5256 21.7435V22.1262H8.04047V21.7435C8.7244 21.7435 9.18745 21.6799 9.43078 21.5565C9.67353 21.4318 9.84425 21.2712 9.94252 21.0734C10.0406 20.8745 10.0893 20.3854 10.0893 19.6059V10.1298C10.0893 9.35057 10.0406 8.85986 9.94252 8.65824C9.84425 8.4558 9.6709 8.29459 9.42495 8.17448C9.17782 8.05437 8.71609 7.99508 8.04047 7.99508V7.6106H14.7835C16.5396 7.6106 17.8236 7.73181 18.6356 7.97481C19.4506 8.216 20.1144 8.66422 20.6283 9.31447C21.1424 9.96625 21.3974 10.7311 21.3974 11.6074C21.3974 12.6757 21.0117 13.5585 20.2428 14.2571C19.7494 14.6981 19.0603 15.03 18.1759 15.2496L21.6467 20.1855C22.1048 20.8222 22.4271 21.2198 22.621 21.3771C22.9132 21.5994 23.2527 21.7199 23.6378 21.7435V22.1262H19.0853ZM17.1025 9.19353C16.5882 8.66685 15.7589 8.40539 14.6166 8.40539H13.4767V14.731H14.0841C15.07 14.731 15.8082 14.641 16.2988 14.4591C16.7885 14.2782 17.1734 13.9527 17.4534 13.479C17.7334 13.0071 17.8742 12.3917 17.8742 11.6307C17.8741 10.5314 17.6172 9.71867 17.1025 9.19353Z" fill="white"/>
<path fill-rule="evenodd" clip-rule="evenodd" d="M11.8348 33.5894H11.5253L11.4477 33.3928C11.3334 33.1035 11.17 32.9018 10.9581 32.7868C10.8031 32.7053 10.6028 32.6645 10.3564 32.6645H10.15C10.0297 32.6645 9.95374 32.6764 9.92224 32.7009C9.89075 32.7256 9.87515 32.7736 9.87515 32.8442V34.9961C9.87515 35.192 9.89192 35.326 9.92662 35.3982C10.001 35.5457 10.1586 35.6197 10.3994 35.6197H10.5455V35.8895L9.29897 35.8731L8.12153 35.8978V35.6276L8.26776 35.6197C8.41676 35.6197 8.5299 35.5758 8.60703 35.4872C8.68444 35.4 8.72308 35.2348 8.72308 34.9945V33.2157C8.72308 32.9689 8.68634 32.8036 8.61169 32.7189C8.53675 32.6326 8.4226 32.5909 8.26776 32.5909H8.12153V32.3125L9.29897 32.3371L11.663 32.3125L11.8348 33.5894ZM16.983 34.0845C16.983 34.5877 16.8252 35.0215 16.5104 35.3889C16.1725 35.7829 15.7396 35.9798 15.2124 35.9798C14.9892 35.9798 14.7686 35.936 14.5507 35.8497C14.3328 35.764 14.1413 35.6439 13.9748 35.4884V37.1879C13.9748 37.3916 13.9918 37.5255 14.0265 37.5905C14.101 37.7393 14.264 37.8132 14.5162 37.8132H14.6625V38.0914L13.3989 38.067L12.2214 38.0914V37.8212L12.3678 37.8132C12.5222 37.8132 12.6368 37.771 12.7113 37.6864C12.7857 37.6016 12.823 37.4337 12.823 37.1817V33.5987C12.823 33.3533 12.7972 33.1802 12.7456 33.0816C12.6598 32.9129 12.4847 32.8282 12.2213 32.8282V32.5484C12.5824 32.5158 12.8902 32.4734 13.1452 32.4216C13.4002 32.3696 13.6537 32.3004 13.9061 32.2113C13.9347 32.3603 13.9533 32.4747 13.9618 32.5566C13.9704 32.6381 13.9748 32.7625 13.9748 32.9262C14.1181 32.7134 14.3013 32.547 14.5249 32.427C14.7484 32.3069 14.9972 32.2468 15.2725 32.2468C15.7768 32.2468 16.192 32.4351 16.5187 32.8135C16.8284 33.1678 16.983 33.5917 16.983 34.0845ZM15.7542 34.142C15.7542 33.6328 15.6565 33.2659 15.4619 33.0424C15.307 32.8662 15.1066 32.7789 14.86 32.7789C14.6195 32.7789 14.4119 32.865 14.2372 33.0383C14.0625 33.2105 13.9749 33.4487 13.9749 33.756V34.4133C13.9749 34.7896 14.0523 35.0696 14.2069 35.2497C14.3446 35.4092 14.5367 35.4886 14.7831 35.4886C15.0351 35.4886 15.2441 35.4066 15.4104 35.2415C15.6395 35.0122 15.7542 34.6455 15.7542 34.142ZM21.6157 32.5908C21.3568 32.6289 21.1457 32.8168 20.9842 33.1552C20.8563 33.4336 20.7563 33.652 20.6816 33.8102L19.1059 37.0761C18.9298 37.4477 18.805 37.6795 18.7324 37.7722C18.5387 38.0235 18.3123 38.1488 18.0515 38.1488C17.9098 38.1488 17.7926 38.1094 17.6991 38.0303C17.6062 37.9509 17.5587 37.843 17.5587 37.7067C17.5587 37.5809 17.6017 37.4776 17.688 37.3955C17.7509 37.3357 17.8337 37.2894 17.937 37.2564C18.1317 37.1964 18.3266 37.1367 18.5212 37.0761C18.7391 36.9456 18.9569 36.6399 19.1745 36.1597L19.2604 35.9714L17.9713 33.1719C17.8964 33.0026 17.8507 32.9069 17.8334 32.885C17.7248 32.716 17.5612 32.6177 17.3437 32.5906V32.3122L18.5211 32.3368L19.587 32.3122V32.5906H19.4928C19.3492 32.5906 19.249 32.6109 19.1919 32.6518C19.1343 32.6928 19.1057 32.7514 19.1057 32.8279C19.1057 32.8987 19.1256 32.9845 19.1661 33.0856C19.206 33.1864 19.2434 33.2781 19.2778 33.3599L19.8706 34.7433L20.3951 33.5809C20.4526 33.4501 20.4924 33.3571 20.5156 33.3028C20.5727 33.1552 20.6017 33.0243 20.6017 32.9096C20.6017 32.7786 20.5514 32.6928 20.4508 32.6518C20.351 32.6109 20.2403 32.5906 20.1203 32.5906V32.3122L20.9196 32.3368L21.6154 32.3122V32.5908H21.6157ZM26.6352 35.8894L25.4577 35.873L24.366 35.8977V35.6196L24.4692 35.6111C24.6069 35.6003 24.7013 35.5676 24.753 35.5128C24.839 35.4257 24.8818 35.2511 24.8818 34.9892V32.9752C24.8818 32.8443 24.862 32.7599 24.8218 32.7216C24.7815 32.6834 24.6926 32.6645 24.5556 32.6645H23.868C23.7302 32.6645 23.6416 32.6834 23.6013 32.7216C23.5612 32.7597 23.541 32.8442 23.541 32.9752V34.9892C23.541 35.2512 23.584 35.4259 23.6701 35.5128C23.7218 35.5676 23.8162 35.6003 23.9536 35.6111H24.0568V35.8894L22.9655 35.873L21.7879 35.8977V35.6196L21.9337 35.6111C22.0827 35.6111 22.1962 35.5676 22.2734 35.4802C22.3505 35.393 22.3896 35.2274 22.3896 34.9878V33.2138C22.3896 32.9686 22.352 32.8021 22.2778 32.7175C22.2034 32.6324 22.0887 32.5906 21.9337 32.5906H21.7879V32.3122L22.9655 32.3368H25.4579L26.6353 32.3122V32.5823L26.4895 32.5908C26.3401 32.5908 26.2316 32.6289 26.1625 32.7053C26.0769 32.8036 26.0339 32.9741 26.0339 33.2139V34.9879C26.0339 35.2336 26.0711 35.4 26.1455 35.4843C26.2201 35.5689 26.3347 35.6112 26.4895 35.6112H26.6353V35.8894H26.6352ZM31.9125 35.8894L30.7351 35.873L29.6438 35.8977V35.6196L29.747 35.6111C29.8845 35.6003 29.9788 35.5676 30.0306 35.5128C30.1166 35.4257 30.1593 35.2511 30.1593 34.9892V32.9752C30.1593 32.8443 30.1394 32.7599 30.0993 32.7216C30.059 32.6834 29.9704 32.6645 29.8325 32.6645H29.1452C29.0076 32.6645 28.9188 32.6834 28.8785 32.7216C28.8384 32.7597 28.8186 32.8442 28.8186 32.9752V34.9892C28.8186 35.2512 28.8612 35.4259 28.9472 35.5128C28.9991 35.5676 29.0933 35.6003 29.2308 35.6111H29.334V35.8894L28.2423 35.873L27.065 35.8977V35.6196L27.2111 35.6111C27.3602 35.6111 27.4732 35.5676 27.5508 35.4802C27.628 35.393 27.6668 35.2274 27.6668 34.9878V33.2138C27.6668 32.9686 27.6295 32.8021 27.555 32.7175C27.4805 32.6324 27.3656 32.5906 27.2109 32.5906H27.0648V32.3122L28.2421 32.3368H30.7349L31.9124 32.3122V32.5823L31.7664 32.5908C31.6174 32.5908 31.5084 32.6289 31.44 32.7053C31.354 32.8036 31.3108 32.9741 31.3108 33.2139V34.9879C31.3108 35.2336 31.348 35.4 31.4227 35.4843C31.497 35.5689 31.6117 35.6112 31.7664 35.6112H31.9124V35.8894H31.9125ZM36.4341 35.4715C36.3077 35.6468 36.1544 35.7722 35.9739 35.8484C35.7933 35.925 35.6112 35.9634 35.4281 35.9634C35.239 35.9634 35.071 35.9194 34.9255 35.832C34.7793 35.745 34.6802 35.6111 34.6288 35.431C34.4797 35.5786 34.3192 35.6958 34.1476 35.7827C33.9125 35.903 33.6688 35.9634 33.4167 35.9634C33.1015 35.9634 32.8523 35.8703 32.6693 35.6846C32.5085 35.5211 32.4282 35.3219 32.4282 35.0873C32.4282 34.7326 32.6228 34.4324 33.0128 34.1866C33.2591 34.0341 33.6488 33.876 34.1817 33.7119C34.3708 33.6519 34.4928 33.6029 34.5472 33.5644C34.6016 33.5261 34.6288 33.4773 34.6288 33.4169V32.9997C34.6288 32.8521 34.5801 32.7431 34.4826 32.6721C34.3853 32.6012 34.262 32.566 34.1131 32.566C34.0155 32.566 33.9297 32.5821 33.8551 32.6149C33.7804 32.6475 33.7087 32.7104 33.6403 32.8033C33.5712 32.9944 33.5142 33.1362 33.4684 33.2289C33.3878 33.4035 33.2448 33.4909 33.0386 33.4909C32.8896 33.4909 32.7679 33.446 32.6733 33.3557C32.5787 33.2657 32.5314 33.158 32.5314 33.0324C32.5314 32.8468 32.6228 32.6832 32.8065 32.5412C32.9324 32.443 33.1044 32.3679 33.3221 32.3164C33.5402 32.2646 33.8351 32.2383 34.2072 32.2383C34.8493 32.2383 35.2931 32.3748 35.5398 32.6475C35.7003 32.8222 35.7805 33.0597 35.7805 33.3599V35.0462C35.7805 35.1716 35.7873 35.2577 35.8018 35.3041C35.8163 35.3503 35.8688 35.3735 35.9608 35.3735C36.0809 35.3735 36.1817 35.3302 36.2614 35.243L36.4341 35.4715ZM34.629 34.7434V33.859L34.4053 33.9575C34.1818 34.0558 34.0214 34.1456 33.9241 34.2274C33.7236 34.3913 33.6233 34.5934 33.6233 34.8331C33.6233 34.9971 33.6749 35.1226 33.778 35.2097C33.858 35.2809 33.9585 35.3164 34.0786 35.3164C34.2336 35.3164 34.3636 35.2631 34.4699 35.1569C34.5756 35.0504 34.629 34.9127 34.629 34.7434ZM43.456 35.2998C43.3471 35.5676 43.178 35.753 42.9488 35.8569C42.7939 35.9275 42.6021 35.9635 42.373 35.9635C42.1667 35.9635 41.9921 35.9252 41.8486 35.8485C41.6369 35.7341 41.4646 35.5295 41.3329 35.2347L41.032 34.5797C40.969 34.4379 40.912 34.342 40.8603 34.2932C40.7802 34.2117 40.6736 34.1705 40.5421 34.1705H40.3272V34.9929C40.3272 35.1855 40.3415 35.318 40.3701 35.3889C40.4332 35.5429 40.559 35.6196 40.7481 35.6196H40.8772V35.8977L39.7512 35.873L38.6248 35.8977V35.6275L38.754 35.6196C38.9435 35.6196 39.0664 35.5456 39.1235 35.397C39.1581 35.3095 39.1753 35.1745 39.1753 34.9943V33.2156C39.1753 33.0244 39.1607 32.8922 39.1324 32.8211C39.0695 32.6673 38.9436 32.5908 38.7541 32.5908H38.6249V32.3123L39.7513 32.3369L40.8773 32.3123V32.5824L40.7483 32.5909C40.5592 32.5909 40.4358 32.6646 40.3788 32.8135C40.3447 32.9005 40.3272 33.0355 40.3272 33.2171V33.8431H40.5676C40.8484 33.8431 41.0776 33.6823 41.2552 33.3601C41.3701 33.1253 41.4557 32.9511 41.5133 32.8365C41.6051 32.6674 41.7082 32.5365 41.8231 32.4433C41.989 32.3069 42.1893 32.2386 42.4241 32.2386C42.6133 32.2386 42.7565 32.2824 42.8544 32.3697C42.9517 32.457 43.0004 32.5608 43.0004 32.6807C43.0004 32.7954 42.9629 32.8908 42.8886 32.967C42.8141 33.0438 42.7079 33.0817 42.5706 33.0817C42.4786 33.0817 42.3729 33.0438 42.2525 32.967C42.1893 32.9291 42.1322 32.9098 42.0807 32.9098C41.9775 32.9098 41.8199 33.0953 41.6077 33.4665C41.4819 33.6905 41.3386 33.8513 41.1781 33.9496L41.2472 33.9904C41.5391 34.0616 41.7941 34.2305 42.012 34.4978C42.178 34.7327 42.344 34.9672 42.5102 35.2019C42.562 35.262 42.6133 35.3095 42.6649 35.3452C42.7165 35.3803 42.7798 35.3981 42.8544 35.3981C42.98 35.3981 43.0775 35.3248 43.1465 35.177L43.456 35.2998ZM48.02 34.0965C48.02 34.6483 47.8065 35.0971 47.3793 35.4434C46.9527 35.7899 46.4497 35.9635 45.8709 35.9635C45.2351 35.9635 44.7164 35.7586 44.3155 35.3491C43.9542 34.9838 43.7738 34.5605 43.7738 34.0804C43.7738 33.5458 43.9858 33.1051 44.4096 32.7585C44.8338 32.412 45.3296 32.2386 45.8967 32.2386C46.4756 32.2386 46.9739 32.412 47.3926 32.7585C47.8105 33.1049 48.02 33.5511 48.02 34.0965ZM46.739 34.1785C46.739 33.5345 46.6693 33.1049 46.5286 32.8893C46.3882 32.6739 46.1806 32.5662 45.9056 32.5662C45.5674 32.5662 45.3324 32.7243 45.2007 33.0408C45.1032 33.27 45.0543 33.6137 45.0543 34.072C45.0543 34.6888 45.1348 35.1116 45.2952 35.3409C45.4328 35.5375 45.6361 35.6357 45.9056 35.6357C46.2321 35.6357 46.4611 35.4828 46.5928 35.177C46.6908 34.9482 46.739 34.6154 46.739 34.1785ZM54.0791 35.8894L52.9018 35.873L51.7669 35.8977V35.6196L51.8704 35.6111C52.0131 35.6111 52.1167 35.5808 52.1798 35.5213C52.277 35.4271 52.326 35.2483 52.326 34.9838V33.483L51.0793 35.8977H50.8217L49.5753 33.4991V34.9892C49.5753 35.2512 49.6241 35.4285 49.7212 35.5213C49.7842 35.581 49.8877 35.6111 50.0311 35.6111H50.1341V35.8894L49.4294 35.873L48.5953 35.8977V35.6196L48.7412 35.6111C48.8908 35.6111 48.9969 35.5701 49.0598 35.4884C49.151 35.3614 49.197 35.1212 49.197 34.7651V33.1896C49.197 33.0312 49.177 32.9087 49.137 32.8196C49.0681 32.6671 48.942 32.5908 48.7587 32.5908H48.6211V32.3123L48.9566 32.3205H49.2831H50.0994L51.3113 34.6205L52.4978 32.3205H53.3485C53.4689 32.3205 53.5906 32.3205 53.7136 32.3205C53.8372 32.3205 53.9586 32.3205 54.0789 32.3205V32.5824L53.933 32.5909C53.784 32.5909 53.6752 32.6291 53.6064 32.7054C53.5205 32.8038 53.4777 32.9743 53.4777 33.2141V34.9881C53.4777 35.2337 53.5144 35.4002 53.589 35.4845C53.664 35.569 53.7786 35.6114 53.933 35.6114H54.0789V35.8894H54.0791ZM59.3567 35.8894L58.1791 35.873L57.0874 35.8977V35.6196L57.1906 35.6111C57.3278 35.6003 57.4226 35.5676 57.474 35.5128C57.5602 35.4257 57.6032 35.2511 57.6032 34.9892V32.9752C57.6032 32.8443 57.5831 32.7599 57.5429 32.7216C57.5029 32.6834 57.4141 32.6645 57.2765 32.6645H56.5888C56.4513 32.6645 56.3626 32.6834 56.3223 32.7216C56.2825 32.7597 56.2622 32.8442 56.2622 32.9752V34.9892C56.2622 35.2512 56.3054 35.4259 56.3914 35.5128C56.4427 35.5676 56.5376 35.6003 56.6747 35.6111H56.7779V35.8894L55.6863 35.873L54.5092 35.8977V35.6196L54.6549 35.6111C54.8041 35.6111 54.9169 35.5676 54.9948 35.4802C55.0718 35.393 55.1104 35.2274 55.1104 34.9878V33.2138C55.1104 32.9686 55.0734 32.8021 54.999 32.7175C54.9245 32.6324 54.8099 32.5906 54.6551 32.5906H54.5093V32.3122L55.6865 32.3368H58.1791L59.3567 32.3122V32.5823L59.2106 32.5908C59.0615 32.5908 58.9526 32.6289 58.8839 32.7053C58.7985 32.8036 58.7551 32.9741 58.7551 33.2139V34.9879C58.7551 35.2336 58.7925 35.4 58.8664 35.4843C58.941 35.5689 59.0558 35.6112 59.2106 35.6112H59.3567V35.8894ZM63.8775 35.4715C63.7513 35.6468 63.5983 35.7722 63.4178 35.8484C63.2373 35.925 63.0554 35.9634 62.872 35.9634C62.6832 35.9634 62.5152 35.9194 62.3691 35.832C62.2232 35.745 62.1243 35.6111 62.0724 35.431C61.9237 35.5786 61.7631 35.6958 61.5914 35.7827C61.3564 35.903 61.1129 35.9634 60.8606 35.9634C60.5455 35.9634 60.2962 35.8703 60.1129 35.6846C59.9526 35.5211 59.8725 35.3219 59.8725 35.0873C59.8725 34.7326 60.0672 34.4324 60.4567 34.1866C60.7034 34.0341 61.0931 33.876 61.6253 33.7119C61.8147 33.6519 61.9365 33.6029 61.9909 33.5644C62.0453 33.5261 62.0724 33.4773 62.0724 33.4169V32.9997C62.0724 32.8521 62.0239 32.7431 61.9265 32.6721C61.8289 32.6012 61.7059 32.566 61.5572 32.566C61.4594 32.566 61.3733 32.5821 61.2991 32.6149C61.2246 32.6475 61.1529 32.7104 61.0839 32.8033C61.0151 32.9944 60.9581 33.1362 60.9119 33.2289C60.8319 33.4035 60.6885 33.4909 60.4824 33.4909C60.3335 33.4909 60.2115 33.446 60.1172 33.3557C60.0223 33.2657 59.9752 33.158 59.9752 33.0324C59.9752 32.8468 60.0669 32.6832 60.2501 32.5412C60.3761 32.443 60.5481 32.3679 60.766 32.3164C60.9839 32.2646 61.279 32.2383 61.6511 32.2383C62.2927 32.2383 62.737 32.3748 62.9834 32.6475C63.1442 32.8222 63.2238 33.0597 63.2238 33.3599V35.0462C63.2238 35.1716 63.2312 35.2577 63.2458 35.3041C63.2599 35.3503 63.3129 35.3735 63.4044 35.3735C63.525 35.3735 63.625 35.3302 63.7053 35.243L63.8775 35.4715ZM62.0726 34.7434V33.859L61.8495 33.9575C61.6254 34.0558 61.4652 34.1456 61.3682 34.2274C61.1678 34.3913 61.067 34.5934 61.067 34.8331C61.067 34.9971 61.1188 35.1226 61.222 35.2097C61.3025 35.2809 61.4025 35.3164 61.5229 35.3164C61.6775 35.3164 61.808 35.2631 61.9141 35.1569C62.0198 35.0504 62.0726 34.9127 62.0726 34.7434ZM69.0347 35.8894L67.8571 35.873L66.7227 35.8977V35.6196L66.8689 35.6111C67.0006 35.6111 67.0951 35.5808 67.1522 35.5213C67.2384 35.4285 67.2812 35.2512 67.2812 34.9892V34.1705H65.8202V34.9892C65.8202 35.2456 65.8631 35.4202 65.949 35.5128C66.0124 35.5787 66.1067 35.6111 66.2327 35.6111H66.3785V35.8894L65.244 35.873L64.0666 35.8977V35.6196L64.2128 35.6111C64.3618 35.6111 64.4745 35.5676 64.5521 35.4802C64.6295 35.393 64.6683 35.2274 64.6683 34.9878V33.2138C64.6683 32.9686 64.6311 32.8021 64.5569 32.7175C64.482 32.6324 64.3675 32.5906 64.2128 32.5906H64.0666V32.3122L65.244 32.3368L66.3785 32.3122V32.5823L66.2327 32.5908C66.1009 32.5908 66.0064 32.6206 65.949 32.6806C65.8631 32.775 65.8202 32.9534 65.8202 33.217V33.8429H67.2812V33.217C67.2812 32.9591 67.2384 32.7831 67.1522 32.6891C67.0894 32.6235 66.9952 32.5908 66.8689 32.5908H66.7227V32.3123L67.8571 32.3369L69.0347 32.3123V32.5824L68.8885 32.5909C68.7396 32.5909 68.6307 32.6291 68.5621 32.7054C68.4763 32.8038 68.433 32.9743 68.433 33.2141V34.9881C68.433 35.2337 68.4704 35.4002 68.5447 35.4845C68.6194 35.569 68.7339 35.6114 68.8885 35.6114H69.0347V35.8894ZM74.4324 35.8894L73.2546 35.873L72.1202 35.8977V35.6196L72.266 35.6111C72.3976 35.6111 72.4925 35.5808 72.5497 35.5213C72.6359 35.4285 72.6786 35.2512 72.6786 34.9892V33.4911L71.2176 35.2184V35.2587C71.2176 35.3464 71.2537 35.4271 71.3253 35.5007C71.3969 35.5739 71.4984 35.6111 71.63 35.6111H71.7764V35.8894L70.6418 35.873L69.4644 35.8977V35.6196L69.6103 35.6111C69.7593 35.6111 69.8725 35.5676 69.9497 35.4802C70.0271 35.393 70.0659 35.2274 70.0659 34.9878V33.2138C70.0659 32.9686 70.0286 32.8021 69.9544 32.7175C69.8798 32.6324 69.7652 32.5906 69.6103 32.5906H69.4644V32.3122L70.6418 32.3368L71.7764 32.3122V32.5823L71.63 32.5908C71.4984 32.5908 71.4042 32.6206 71.3467 32.6806C71.2607 32.775 71.2176 32.9522 71.2176 33.2156V34.7108L72.6786 32.9833V32.9004C72.6618 32.8156 72.6169 32.7432 72.5452 32.682C72.4752 32.6206 72.3842 32.5908 72.2705 32.5908H72.12V32.3123L73.2545 32.3369L74.4322 32.3123V32.5824L74.2858 32.5909C74.137 32.5909 74.0284 32.6291 73.9595 32.7054C73.8734 32.8038 73.8311 32.9743 73.8311 33.2141V34.9881C73.8311 35.2337 73.8681 35.4002 73.9423 35.4845C74.0168 35.569 74.1311 35.6114 74.2858 35.6114H74.4322V35.8894H74.4324ZM78.7983 30.8254C78.7983 31.0882 78.6753 31.3108 78.4293 31.4923C78.1536 31.6956 77.7929 31.7965 77.3456 31.7965C76.8934 31.7965 76.5384 31.7024 76.28 31.5126C76.0222 31.3226 75.8937 31.0938 75.8937 30.8254C75.8937 30.6926 75.9335 30.5893 76.0139 30.5129C76.0943 30.435 76.2061 30.3967 76.349 30.3967C76.4919 30.3967 76.6012 30.4295 76.6758 30.4949C76.7502 30.5604 76.7874 30.6396 76.7874 30.7322C76.7874 30.7758 76.7783 30.8169 76.7619 30.8554C76.7447 30.8937 76.7215 30.9287 76.693 30.9614C76.641 31.0378 76.6158 31.0978 76.6158 31.1415C76.6158 31.2453 76.677 31.3325 76.8001 31.4037C76.9234 31.4748 77.1057 31.5101 77.3456 31.5101C77.5807 31.5101 77.7617 31.4728 77.8878 31.3997C78.0137 31.3258 78.0765 31.2398 78.0765 31.1415C78.0765 31.1088 78.0689 31.0786 78.0555 31.0517C78.0409 31.0243 78.0224 30.9945 77.9991 30.9616C77.9361 30.8854 77.9049 30.8088 77.9049 30.7323C77.9049 30.634 77.9402 30.5536 78.0118 30.491C78.0835 30.4282 78.1942 30.3969 78.3432 30.3969C78.5266 30.3969 78.6553 30.4571 78.7292 30.5785C78.7753 30.6543 78.7983 30.7365 78.7983 30.8254ZM79.83 35.8894L78.6525 35.873L77.5178 35.8977V35.6196L77.6639 35.6111C77.7958 35.6111 77.8909 35.5808 77.9479 35.5213C78.0336 35.4285 78.0765 35.2512 78.0765 34.9892V33.4911L76.6158 35.2184V35.2587C76.6158 35.3464 76.6515 35.4271 76.7226 35.5007C76.7945 35.5739 76.8963 35.6111 77.0278 35.6111H77.1743V35.8894L76.04 35.873L74.8622 35.8977V35.6196L75.0084 35.6111C75.1572 35.6111 75.2702 35.5676 75.3476 35.4802C75.4249 35.393 75.4643 35.2274 75.4643 34.9878V33.2138C75.4643 32.9686 75.4267 32.8021 75.3519 32.7175C75.2774 32.6324 75.1631 32.5906 75.0085 32.5906H74.8623V32.3204L76.0402 32.3368L77.1745 32.3122V32.5823L77.0279 32.5908C76.8966 32.5908 76.8018 32.6206 76.7448 32.6806C76.6586 32.775 76.6159 32.9522 76.6159 33.2156V34.7108L78.0766 32.9833V32.9004C78.06 32.8156 78.0153 32.7432 77.9434 32.682C77.8734 32.6206 77.7814 32.5908 77.6687 32.5908H77.518V32.3205L78.6527 32.3369L79.8301 32.3123V32.5824L79.6843 32.5909C79.535 32.5909 79.4261 32.6291 79.3579 32.7054C79.2717 32.8038 79.2283 32.9743 79.2283 33.2141V34.9881C79.2283 35.2337 79.2657 35.4002 79.3407 35.4845C79.4145 35.569 79.5292 35.6114 79.6843 35.6114H79.8301V35.8894H79.83Z" fill="#1E2E56"/>
</svg>
