<svg width="60" height="40" viewBox="0 0 60 40" fill="none" xmlns="http://www.w3.org/2000/svg">
<path d="M49.072 34.0173V35.1084H46.7431V39.9091H45.1729V35.1084H42.8448V34.0173H49.072Z" fill="black"/>
<path d="M43.5151 38.8171V39.909H38.5253V34.0173H40.0944V38.8171H43.5151Z" fill="black"/>
<path d="M13.2891 38.8171V39.909H8.04678V34.0173H13.1903V35.109H9.61732V36.4036H12.8823V37.46H9.61732V38.8171H13.2891Z" fill="black"/>
<path d="M5.23423 37.7203C5.9065 37.3645 6.32159 36.6637 6.32159 35.9287C6.32159 35.3161 6.13847 34.8406 5.75464 34.5279C5.30848 34.167 4.6969 34.0171 3.66437 34.0171H0.0639565L0 34.3722C0 34.3722 0.063956 34.4784 0.138492 34.6057C0.250151 34.7932 0.240822 34.8484 0.240822 34.9739V39.9088H1.81165V38.0223C1.81165 38.0223 3.18878 38.0223 3.76285 38.0223L4.81001 39.9088H6.53895L5.23423 37.7203ZM4.44021 36.7639C4.31951 36.8791 4.17612 36.9347 3.95337 36.9347H1.81165V35.1389H3.50347C4.00694 35.1389 4.27614 35.1943 4.45733 35.3381C4.63497 35.4767 4.72085 35.6884 4.72085 36.0005C4.72085 36.3233 4.63295 36.5824 4.44021 36.7639Z" fill="black"/>
<path d="M19.8631 34.0164V37.9245C19.497 37.4745 19.1126 37.0405 18.4627 36.3434C17.9339 35.7768 16.8317 34.6141 16.2652 34.0173H14.7498L14.6865 34.3724C14.6865 34.3724 14.7512 34.4786 14.825 34.6059C14.9092 34.7459 14.9261 34.8123 14.9286 34.8884C14.9286 34.8946 14.9277 39.909 14.9277 39.909L16.3387 39.9046V36.0017C16.6202 36.3683 17.1219 36.931 17.4562 37.285C18.1223 37.9881 19.1283 39.0842 19.9112 39.9089H21.267V34.0172L19.8631 34.0164Z" fill="black"/>
<path d="M35.2367 34.0173V37.6201C35.2367 38.022 35.1546 38.2611 34.9537 38.4446C34.6995 38.6753 34.2798 38.7856 33.6737 38.7856C33.0585 38.7856 32.6278 38.6753 32.3748 38.4446C32.1745 38.2611 32.0922 38.0213 32.0922 37.6201V34.0173H30.3445L30.2808 34.3725C30.2808 34.3725 30.346 34.4786 30.4188 34.6059C30.4986 34.7409 30.517 34.807 30.5208 34.8801C30.5208 34.8893 30.5219 37.6756 30.5219 37.6756C30.5219 39.216 31.5912 39.9998 33.6527 39.9998H33.6963C35.7599 39.9998 36.7726 39.2375 36.7726 37.6756V34.0173H35.2367Z" fill="black"/>
<path d="M27.0272 34.0173H25.0652C24.4703 35.2168 23.4351 37.43 22.4663 39.9094H24.042C24.1676 39.5742 24.3009 39.2319 24.4349 38.889H27.6573C27.7928 39.2319 27.9254 39.5742 28.0503 39.9094H29.6268C28.6571 37.43 27.622 35.2168 27.0272 34.0173ZM24.8858 37.7784C25.2986 36.7746 25.7125 35.825 26.0459 35.0888C26.3795 35.825 26.7947 36.7746 27.2071 37.7784H24.8858Z" fill="black"/>
<path d="M34.2646 12.8051C33.8002 11.8464 32.7108 9.77055 31.6067 7.81178C30.0503 5.05048 27.6145 1.11829 27.3636 0.781472C27.2961 0.690884 27.2412 0.629585 27.185 0.589688C27.1538 0.567252 27.1231 0.552139 27.0896 0.542095C27.0274 0.523414 26.8891 0.534772 26.7876 0.545192C26.733 0.550825 26.6644 0.549511 26.6118 0.547351C26.0919 0.525948 25.0474 0.504639 24.0179 0.504639C22.7531 0.504639 21.2288 0.542188 21.0315 0.561526C20.929 0.571571 20.8904 0.589876 20.8516 0.608369C20.8011 0.635968 20.7496 0.662722 20.668 0.781472C20.4306 1.12702 17.9855 5.05048 16.429 7.81178C15.3249 9.77045 14.2356 11.8464 13.7711 12.8051C13.6481 13.0591 13.6296 13.227 13.6296 13.3051C13.6296 13.443 13.6773 13.6108 13.771 13.8045C14.2355 14.7631 15.3248 16.8391 16.4289 18.7978C17.9853 21.5591 20.4211 25.4913 20.672 25.8281C20.7109 25.8804 20.7455 25.9228 20.7788 25.9572C20.8354 26.0156 20.8866 26.0498 20.946 26.0675C21.0081 26.0861 21.1308 26.0748 21.2324 26.0644C21.2869 26.0588 21.3555 26.0605 21.4081 26.0623C22.0353 26.083 22.998 26.1053 24.0177 26.105C25.2825 26.1045 26.7604 26.0729 26.9829 26.0479L27.0185 26.044C27.1031 26.0347 27.151 26.0222 27.1766 26.01C27.2276 25.9892 27.2705 25.949 27.375 25.8088C27.6257 25.4721 30.0501 21.559 31.6066 18.7978C32.7107 16.8392 33.8001 14.7632 34.2645 13.8045C34.3875 13.5505 34.406 13.3512 34.406 13.273C34.406 13.1352 34.3585 12.9988 34.2646 12.8051ZM27.0813 13.8231C26.0397 16.1024 25.3003 17.5233 24.2033 19.5817C24.1401 19.7003 24.0883 19.7777 24.0166 19.7792C23.944 19.7792 23.894 19.701 23.8302 19.5812C22.7332 17.5227 21.9937 16.102 20.9522 13.8226C20.8632 13.6277 20.8003 13.4838 20.8003 13.3007C20.8028 13.123 20.866 12.9772 20.9531 12.7863C21.9947 10.507 22.7341 9.08611 23.831 7.02774C23.8943 6.90909 23.9447 6.83183 24.0165 6.83033C24.0166 6.83033 24.0167 6.83023 24.0168 6.83023C24.0167 6.83023 24.0167 6.83033 24.0165 6.83033C24.0171 6.83033 24.0178 6.83023 24.0185 6.83023C24.0913 6.83023 24.1421 6.90805 24.2058 7.02774C25.3028 9.08621 26.0423 10.507 27.0838 12.7863C27.1728 12.9812 27.2337 13.1248 27.2337 13.308C27.2337 13.4919 27.1685 13.6321 27.0813 13.8231Z" fill="url(#paint0_linear)"/>
<path d="M34.2646 12.8051C33.8002 11.8464 32.7108 9.77055 31.6067 7.81178C30.0503 5.05048 27.6145 1.11829 27.3636 0.781472C27.2961 0.690884 27.2412 0.629585 27.185 0.589688C27.1538 0.567252 27.1231 0.552139 27.0896 0.542095C27.0274 0.523414 26.8891 0.534772 26.7876 0.545192C26.733 0.550825 26.6644 0.549511 26.6118 0.547351C26.0919 0.525948 25.0474 0.504639 24.0179 0.504639C22.7531 0.504639 21.2288 0.542188 21.0315 0.561526C20.929 0.571571 20.8904 0.589876 20.8516 0.608369C20.8011 0.635968 20.7496 0.662722 20.668 0.781472C20.4306 1.12702 17.9855 5.05048 16.429 7.81178C15.3249 9.77045 14.2356 11.8464 13.7711 12.8051C13.6481 13.0591 13.6296 13.227 13.6296 13.3051C13.6296 13.443 13.6773 13.6108 13.771 13.8045C14.2355 14.7631 15.3248 16.8391 16.4289 18.7978C17.9853 21.5591 20.4211 25.4913 20.672 25.8281C20.7109 25.8804 20.7455 25.9228 20.7788 25.9572C20.8354 26.0156 20.8866 26.0498 20.946 26.0675C21.0081 26.0861 21.1308 26.0748 21.2324 26.0644C21.2869 26.0588 21.3555 26.0605 21.4081 26.0623C22.0353 26.083 22.998 26.1053 24.0177 26.105C25.2825 26.1045 26.7604 26.0729 26.9829 26.0479L27.0185 26.044C27.1031 26.0347 27.151 26.0222 27.1766 26.01C27.2276 25.9892 27.2705 25.949 27.375 25.8088C27.6257 25.4721 30.0501 21.559 31.6066 18.7978C32.7107 16.8392 33.8001 14.7632 34.2645 13.8045C34.3875 13.5505 34.406 13.3512 34.406 13.273C34.406 13.1352 34.3585 12.9988 34.2646 12.8051ZM27.0813 13.8231C26.0397 16.1024 25.3003 17.5233 24.2033 19.5817C24.1401 19.7003 24.0883 19.7777 24.0166 19.7792C23.944 19.7792 23.894 19.701 23.8302 19.5812C22.7332 17.5227 21.9937 16.102 20.9522 13.8226C20.8632 13.6277 20.8003 13.4838 20.8003 13.3007C20.8028 13.123 20.866 12.9772 20.9531 12.7863C21.9947 10.507 22.7341 9.08611 23.831 7.02774C23.8943 6.90909 23.9447 6.83183 24.0165 6.83033C24.0166 6.83033 24.0167 6.83023 24.0168 6.83023C24.0167 6.83023 24.0167 6.83033 24.0165 6.83033C24.0171 6.83033 24.0178 6.83023 24.0185 6.83023C24.0913 6.83023 24.1421 6.90805 24.2058 7.02774C25.3028 9.08621 26.0423 10.507 27.0838 12.7863C27.1728 12.9812 27.2337 13.1248 27.2337 13.308C27.2337 13.4919 27.1685 13.6321 27.0813 13.8231Z" fill="url(#paint1_radial)"/>
<path d="M20.1569 14.1342C20.1569 14.1342 19.8507 13.5755 19.8388 13.3555C19.8372 13.3262 19.8362 13.3167 19.8388 13.288C19.8439 13.2318 19.8216 13.2521 19.7713 13.2982C19.6815 13.3804 19.524 13.4618 19.1388 13.4618C18.7975 13.4618 15.8925 13.4582 14.5081 13.4582C14.3053 13.4582 14.0329 13.443 14.0329 13.7566C14.0329 13.9411 14.1967 14.3124 14.5327 14.9539C16.3696 18.4612 18.4103 21.9645 20.5979 25.3883C20.5979 25.3883 20.9317 25.9134 20.9662 25.9552C21.0005 25.997 21.041 26.0152 21.123 26.0143C21.123 26.0143 22.5105 23.5343 23.6312 20.8303C22.3845 18.5852 21.2331 16.3656 20.1569 14.1342Z" fill="url(#paint2_linear)"/>
<path d="M34.1491 13.3372C34.0992 13.3872 33.959 13.4604 33.6463 13.4604C33.5352 13.4604 30.9546 13.4604 29.8318 13.4604C28.0826 13.4604 28.2601 13.4148 27.8058 14.3176C27.6035 14.7195 27.3946 15.1922 27.1821 15.5805C25.6551 18.6971 21.9284 24.9737 21.4252 25.7516C21.2358 26.0444 21.2082 26.06 21.346 26.06C21.346 26.06 22.6105 26.1053 24.0181 26.1053C26.2161 26.1053 27.0024 26.046 27.0024 26.046C28.2773 24.1101 31.3172 19.2001 33.4876 14.9475C33.9874 13.9682 34.238 13.5417 34.2133 13.3323C34.2083 13.2917 34.1703 13.3158 34.1491 13.3372Z" fill="url(#paint3_linear)"/>
<path d="M26.9011 0.597118C26.8068 0.592706 26.7394 0.66283 26.6103 0.8579C25.5317 2.4883 21.8084 9.33527 20.2878 12.5281C20.1016 12.9192 20.0071 13.1102 20.0071 13.2997L20.8003 13.3011C20.8003 13.2997 20.7999 13.3023 20.8003 13.3011C20.8028 13.1234 20.866 12.9776 20.9531 12.7867C21.9947 10.5074 22.7341 9.0865 23.831 7.02813C23.8943 6.90948 23.9447 6.83222 24.0165 6.83071C24.0166 6.83071 24.0166 6.83062 24.0168 6.83062L24.3251 5.95515C25.3982 3.34349 26.9011 0.597118 26.9011 0.597118Z" fill="url(#paint4_linear)"/>
<path d="M28.024 13.3081C28.024 13.1187 27.9337 12.9324 27.7472 12.5455C26.6962 10.3667 25.5972 8.24299 24.3254 5.95435L24.0169 6.83047C24.0168 6.83047 24.0167 6.83056 24.0166 6.83056C24.0172 6.83056 24.0179 6.83047 24.0186 6.83047C24.0914 6.83047 24.1422 6.90829 24.2059 7.02798C25.3029 9.08645 26.0424 10.5072 27.0839 12.7866C27.1729 12.9815 27.2338 13.1251 27.2338 13.3082C27.2338 13.3106 27.2338 13.3059 27.2338 13.3082H28.024V13.3081Z" fill="url(#paint5_linear)"/>
<path d="M24.0166 19.779C24.0162 19.7791 24.0168 19.779 24.0166 19.779C23.944 19.779 23.894 19.7008 23.8302 19.581C22.7332 17.5225 21.9937 16.1018 20.9522 13.8224C20.8632 13.6275 20.8003 13.4836 20.8003 13.3005C20.8003 13.3001 20.8003 13.3009 20.8003 13.3005L20.0071 13.2991C20.006 13.4896 20.0966 13.6818 20.2842 14.071C21.3354 16.2503 22.4301 18.3682 23.7024 20.6574L24.0166 19.779Z" fill="url(#paint6_linear)"/>
<path d="M24.0166 19.7794C24.0162 19.7795 24.0168 19.7794 24.0166 19.7794C23.944 19.7794 23.894 19.7012 23.8302 19.5814C22.7332 17.5229 21.9937 16.1022 20.9522 13.8228C20.8632 13.6279 20.8003 13.484 20.8003 13.3009C20.8003 13.3005 20.8003 13.3012 20.8003 13.2997L20.0071 13.2983C20.006 13.49 20.0966 13.6822 20.2842 14.0714C21.3354 16.2507 22.4301 18.3686 23.7024 20.6578L24.0166 19.7794Z" fill="url(#paint7_linear)"/>
<path d="M21.123 26.0144C21.2105 26.0185 21.3146 25.9147 21.4356 25.7351C21.4674 25.6854 21.5101 25.6172 21.5626 25.5323C22.3751 24.1813 26.2921 17.125 27.7404 14.0838C27.9267 13.6927 28.0241 13.4974 28.0241 13.3079H27.234C27.2341 13.3077 27.234 13.3074 27.2339 13.3079C27.2339 13.4919 27.1687 13.6323 27.0815 13.8231C26.0399 16.1025 25.3005 17.5233 24.2035 19.5817C24.1403 19.7004 24.0885 19.7777 24.0167 19.7791L23.7025 20.6574C22.5701 23.4278 21.123 26.0144 21.123 26.0144Z" fill="url(#paint8_linear)"/>
<path d="M20.7791 25.9573C20.7458 25.9229 20.7112 25.8805 20.6722 25.8283C20.4215 25.4914 17.9856 21.5593 16.4292 18.798C15.3251 16.8392 14.2357 14.7634 13.7713 13.8046C13.6774 13.611 13.6299 13.4431 13.6299 13.3052L13.1176 13.3049C13.1176 13.475 13.1553 13.6954 13.3084 14.0199C13.67 14.7855 14.6826 16.736 15.9807 19.0406C17.398 21.5568 19.971 25.7411 20.2584 26.1241C20.3766 26.2817 20.4772 26.377 20.5737 26.4365L20.7791 25.9573Z" fill="url(#paint9_linear)"/>
<path d="M20.5736 26.4364C20.7119 26.5221 20.8397 26.5332 20.9945 26.5466C21.3775 26.5798 23.0536 26.6071 24.0179 26.6071C24.9822 26.6071 26.7923 26.5688 27.0414 26.5466C27.1594 26.5362 27.2679 26.5255 27.3797 26.477L27.1769 26.01C27.1513 26.0221 27.1034 26.0347 27.0188 26.044L26.9832 26.048C26.7607 26.0729 25.2829 26.1046 24.018 26.105C22.9983 26.1054 22.0355 26.0832 21.4084 26.0623C21.3559 26.0605 21.2873 26.0588 21.2327 26.0645C21.1311 26.0749 21.0084 26.0862 20.9463 26.0676C20.887 26.0498 20.8357 26.0156 20.7791 25.9573L20.5736 26.4364Z" fill="url(#paint10_linear)"/>
<path d="M34.9184 13.3048C34.9184 13.1663 34.8874 12.9153 34.7275 12.59C34.3398 11.8015 33.101 9.41969 32.0553 7.56925C30.6564 5.09389 28.0774 0.878207 27.7776 0.485815C27.6199 0.279386 27.5012 0.18204 27.3816 0.131348L27.1852 0.589921C27.2413 0.629817 27.2962 0.691117 27.3637 0.781705C27.6145 1.11852 30.0504 5.05071 31.6068 7.81201C32.7109 9.77078 33.8003 11.8466 34.2647 12.8053C34.3586 12.999 34.4061 13.1353 34.4061 13.2732L34.9184 13.3048Z" fill="url(#paint11_linear)"/>
<path d="M20.649 0.13379L20.8517 0.608698C20.8905 0.590298 20.929 0.571899 21.0316 0.561855C21.2289 0.542423 22.7531 0.504967 24.018 0.504967C25.0476 0.504967 26.092 0.526276 26.6119 0.54768C26.6644 0.549839 26.733 0.551153 26.7876 0.54552C26.8892 0.5351 27.0275 0.523742 27.0897 0.542423C27.1232 0.552467 27.1539 0.567674 27.1851 0.590016L27.3816 0.131443C27.2673 0.0808453 27.1567 0.0748368 27.0277 0.0632903C26.6292 0.0278999 24.9155 0.00292969 24.018 0.00292969C23.2279 0.00292969 21.393 0.023019 20.9634 0.0649806C20.8309 0.0779352 20.7317 0.0993378 20.649 0.13379Z" fill="url(#paint12_linear)"/>
<path d="M20.649 0.133789C20.487 0.200721 20.3905 0.315435 20.241 0.506093C19.9449 0.883372 17.3671 5.12928 15.9807 7.56944C15.0047 9.28724 13.4547 12.2637 13.3078 12.5902C13.1611 12.9168 13.1175 13.135 13.1175 13.3051L13.6298 13.3054C13.6298 13.2272 13.6482 13.0594 13.7713 12.8054C14.2357 11.8467 15.3251 9.77078 16.4292 7.8121C17.9857 5.05081 20.4307 1.12744 20.6682 0.7818C20.7497 0.66305 20.8012 0.636296 20.8518 0.608697L20.649 0.133789Z" fill="url(#paint13_linear)"/>
<path d="M27.3796 26.477C27.5039 26.4231 27.6309 26.3228 27.7775 26.1241C28.0554 25.7474 30.8284 21.2291 32.0552 19.0407C33.282 16.8523 34.5852 14.3308 34.7274 14.02C34.9045 13.6327 34.9183 13.4433 34.9183 13.3048L34.406 13.2732C34.406 13.3514 34.3876 13.5508 34.2645 13.8047C33.8001 14.7634 32.7107 16.8394 31.6066 18.798C30.0501 21.5593 27.6258 25.4723 27.375 25.809C27.2705 25.9493 27.2276 25.9894 27.1766 26.0102C27.1762 26.0103 27.1775 26.0094 27.1766 26.0102L27.3796 26.477Z" fill="url(#paint14_linear)"/>
<path d="M26.7877 0.545192C26.7967 0.544253 26.8061 0.543315 26.8157 0.542376C26.8154 0.542658 26.686 0.63916 26.3537 0.637658C25.9593 0.63578 25.1409 0.620009 24.4864 0.616067C23.2769 0.608557 21.8359 0.630335 21.1625 0.661783C20.8055 0.678493 20.7842 0.716324 20.556 0.953825L20.5556 0.953543L20.6682 0.781472C20.7498 0.662722 20.8012 0.635968 20.8518 0.608369C20.8906 0.58997 20.9291 0.571571 21.0317 0.561526C21.229 0.542095 22.7532 0.504639 24.0181 0.504639C25.0477 0.504639 26.0921 0.525948 26.612 0.547351C26.6645 0.549511 26.733 0.550825 26.7877 0.545192Z" fill="white"/>
<path d="M27.0839 12.7862C27.0419 12.6939 26.4551 11.4043 25.7858 10.0654C25.0564 8.60645 24.2402 7.09002 24.2059 7.02759C24.1401 6.9079 24.0893 6.83008 24.0186 6.83008C23.9479 6.83008 23.9008 6.89908 23.8311 7.02759C23.797 7.09067 22.9613 8.65386 22.2487 10.0654C21.5384 11.4723 20.9895 12.7087 20.9532 12.7862C20.88 12.9422 20.8004 13.123 20.8004 13.3005C20.8004 13.478 20.8692 13.6318 20.9523 13.8225C20.9921 13.9138 21.5828 15.2115 22.254 16.5526C22.9842 18.0116 23.7992 19.5216 23.8303 19.5811C23.8918 19.6991 23.945 19.7791 24.0167 19.7791C24.0883 19.7791 24.1396 19.7014 24.2034 19.5817C24.2368 19.5193 25.0482 18.0112 25.7776 16.553C26.4467 15.2155 27.0379 13.9198 27.0815 13.823C27.1725 13.6207 27.2339 13.4873 27.2339 13.3078C27.2339 13.1284 27.1736 12.9837 27.0839 12.7862ZM26.9523 13.7552L26.9476 13.7658C26.9421 13.778 26.3412 15.1012 25.6462 16.4904C25.0244 17.7338 24.348 19.0045 24.086 19.493L24.0738 19.5159C24.0483 19.5637 24.0264 19.5982 24.0166 19.5982C24.0067 19.5982 23.9853 19.5645 23.9603 19.5165C23.9568 19.5097 23.9436 19.485 23.9217 19.4442C23.1878 18.0736 22.6811 17.0812 22.3851 16.4901C21.72 15.1612 21.1289 13.8637 21.0867 13.7668L21.0807 13.7533C21.0057 13.581 20.9464 13.445 20.9464 13.3007C20.9464 13.1555 21.0153 12.9963 21.086 12.8457C21.0903 12.8363 21.1021 12.8105 21.1205 12.7697C21.5413 11.8387 21.965 10.9502 22.3798 10.1286C23.1111 8.68005 23.9531 7.10757 23.9603 7.09443C23.9839 7.05087 24.0043 7.01003 24.0181 7.01003C24.0319 7.01003 24.0531 7.05125 24.0772 7.09518C24.084 7.10748 24.9073 8.63349 25.6545 10.1281C26.3123 11.4439 26.887 12.7048 26.9504 12.8442C27.0358 13.0323 27.0877 13.1574 27.0877 13.308C27.0876 13.4543 27.0367 13.5675 26.9523 13.7552Z" fill="black"/>
<path d="M34.7301 12.5888C34.3337 11.7827 33.1019 9.41545 32.0578 7.56783C30.6262 5.03464 28.0703 0.864202 27.7799 0.484107C27.4931 0.108612 27.3328 0.091996 27.0671 0.064491L27.0279 0.0604545C26.6415 0.0192439 25.0034 0 24.0179 0C23.1738 0 21.3805 0.0213089 20.963 0.0620502C20.57 0.100445 20.4633 0.218069 20.2387 0.504197C19.9305 0.896965 17.3318 5.1855 15.9781 7.56792C14.9993 9.29069 13.4493 12.2684 13.3052 12.5889C13.1751 12.8782 13.1146 13.1056 13.1146 13.305C13.1146 13.5175 13.1753 13.745 13.3057 14.0211C13.6305 14.7088 14.6102 16.6135 15.9781 19.042C17.4047 21.5748 19.9825 25.7612 20.256 26.1257C20.5446 26.5104 20.7332 26.5268 20.9944 26.5495C21.3911 26.5839 23.1021 26.6098 24.0179 26.6098C25.0063 26.6098 26.795 26.5714 27.0416 26.5495C27.286 26.5278 27.497 26.509 27.7799 26.1256C28.0396 25.7737 30.8123 21.2635 32.0577 19.0419C33.2514 16.9126 34.5773 14.3548 34.7301 14.0209C34.8981 13.6538 34.9212 13.4597 34.9212 13.3046C34.9213 13.1826 34.8965 12.9272 34.7301 12.5888ZM34.5941 13.9617C34.4418 14.2944 33.119 16.8461 31.9271 18.9722C30.6834 21.1905 27.9176 25.6903 27.659 26.0407C27.4159 26.3702 27.2616 26.3839 27.0281 26.4046C26.7839 26.4262 25.0034 26.4644 24.0179 26.4644C23.1046 26.4644 21.4005 26.4388 21.0075 26.4046C20.7608 26.3832 20.6249 26.3714 20.3762 26.0399C20.1041 25.6771 17.5332 21.501 16.1088 18.972C14.7429 16.547 13.7651 14.6462 13.4411 13.9602C13.3202 13.7038 13.2637 13.4956 13.2637 13.3049C13.2637 13.1264 13.3203 12.9174 13.4417 12.6473C13.5852 12.3281 15.1313 9.35828 16.1086 7.63842C17.4601 5.25975 20.0512 0.982483 20.3571 0.592625C20.5717 0.319171 20.6482 0.238908 20.978 0.206804C21.3907 0.166532 23.1765 0.145504 24.0181 0.145504C25.0003 0.145504 26.6311 0.164467 27.0119 0.20502L27.0514 0.209151C27.2996 0.234872 27.4127 0.246607 27.6605 0.571034C27.9492 0.94897 30.498 5.10871 31.9274 7.63814C32.9701 9.48304 34.2002 11.8468 34.5959 12.6518C34.7495 12.9642 34.7724 13.195 34.7724 13.3048C34.7723 13.4438 34.7507 13.6195 34.5941 13.9617Z" fill="black"/>
<path d="M60 0H55.7697V40H60V0Z" fill="#FFCE00"/>
<defs>
<linearGradient id="paint0_linear" x1="24.018" y1="26.1049" x2="24.018" y2="0.504706" gradientUnits="userSpaceOnUse">
<stop stop-color="#E5E5E5"/>
<stop offset="0.6866" stop-color="white"/>
<stop offset="1" stop-color="#919191"/>
</linearGradient>
<radialGradient id="paint1_radial" cx="0" cy="0" r="1" gradientUnits="userSpaceOnUse" gradientTransform="translate(22.6623 7.10704) scale(13.0776 12.8121)">
<stop offset="0.401" stop-color="white"/>
<stop offset="1" stop-color="#919191"/>
</radialGradient>
<linearGradient id="paint2_linear" x1="18.832" y1="25.9793" x2="18.832" y2="13.3684" gradientUnits="userSpaceOnUse">
<stop offset="0.0104" stop-color="#E5E5E5"/>
<stop offset="0.3385" stop-color="#A7A7A7"/>
<stop offset="0.6941" stop-color="#303030"/>
<stop offset="0.8452" stop-color="#131313"/>
<stop offset="0.948" stop-color="#090909"/>
<stop offset="0.9619" stop-color="#0C0C0C"/>
<stop offset="0.972" stop-color="#151515"/>
<stop offset="0.981" stop-color="#252525"/>
<stop offset="0.9892" stop-color="#3C3C3C"/>
<stop offset="0.997" stop-color="#595959"/>
<stop offset="1" stop-color="#666666"/>
</linearGradient>
<linearGradient id="paint3_linear" x1="27.7371" y1="25.979" x2="27.7371" y2="13.3571" gradientUnits="userSpaceOnUse">
<stop offset="0.0104" stop-color="#E5E5E5"/>
<stop offset="0.3385" stop-color="#A7A7A7"/>
<stop offset="0.6941" stop-color="#303030"/>
<stop offset="0.8452" stop-color="#131313"/>
<stop offset="0.9538" stop-color="#090909"/>
<stop offset="0.9661" stop-color="#0C0C0C"/>
<stop offset="0.9751" stop-color="#151515"/>
<stop offset="0.9831" stop-color="#252525"/>
<stop offset="0.9904" stop-color="#3C3C3C"/>
<stop offset="0.9973" stop-color="#595959"/>
<stop offset="1" stop-color="#666666"/>
</linearGradient>
<linearGradient id="paint4_linear" x1="23.4542" y1="13.2209" x2="23.4542" y2="0.516415" gradientUnits="userSpaceOnUse">
<stop stop-color="#303030"/>
<stop offset="0.0109" stop-color="#222222"/>
<stop offset="0.0247" stop-color="#171717"/>
<stop offset="0.04" stop-color="#131313"/>
<stop offset="0.1396" stop-color="#0E0E0E"/>
<stop offset="0.2521"/>
</linearGradient>
<linearGradient id="paint5_linear" x1="26.0203" y1="13.3088" x2="26.0203" y2="5.95435" gradientUnits="userSpaceOnUse">
<stop stop-color="#747474"/>
<stop offset="0.1411" stop-color="#6F6F6F"/>
<stop offset="0.3157" stop-color="#5F5F5F"/>
<stop offset="0.5081" stop-color="#464646"/>
<stop offset="0.7118" stop-color="#242424"/>
<stop offset="0.7954" stop-color="#131313"/>
<stop offset="0.9207"/>
</linearGradient>
<linearGradient id="paint6_linear" x1="22.0118" y1="20.6708" x2="22.0118" y2="13.3126" gradientUnits="userSpaceOnUse">
<stop offset="0.3571" stop-color="#BFBFBF"/>
<stop offset="0.4744" stop-color="#BABABA"/>
<stop offset="0.6097" stop-color="#ACACAC"/>
<stop offset="0.7539" stop-color="#959595"/>
<stop offset="0.9034" stop-color="#757575"/>
<stop offset="0.9631" stop-color="#666666"/>
<stop offset="1" stop-color="#303030"/>
</linearGradient>
<linearGradient id="paint7_linear" x1="24.9719" y1="18.1767" x2="18.1716" y2="15.034" gradientUnits="userSpaceOnUse">
<stop offset="0.0132" stop-color="#F1F1F1" stop-opacity="0.8"/>
<stop offset="0.1096" stop-color="#EDEDED" stop-opacity="0"/>
</linearGradient>
<linearGradient id="paint8_linear" x1="24.5735" y1="25.9341" x2="24.5735" y2="13.2272" gradientUnits="userSpaceOnUse">
<stop stop-color="white"/>
<stop offset="0.2163" stop-color="#F9F9F9"/>
<stop offset="0.5116" stop-color="#E7E7E7"/>
<stop offset="0.8508" stop-color="#CBCBCB"/>
<stop offset="0.9693" stop-color="#BFBFBF"/>
<stop offset="0.9913" stop-color="#747474"/>
</linearGradient>
<linearGradient id="paint9_linear" x1="16.9483" y1="26.4365" x2="16.9483" y2="13.305" gradientUnits="userSpaceOnUse">
<stop stop-color="#666666"/>
<stop offset="0.2008" stop-color="#5D5D5D"/>
<stop offset="0.5917" stop-color="#505050"/>
<stop offset="0.9698" stop-color="#4C4C4C"/>
<stop offset="0.988" stop-color="#757575"/>
<stop offset="1" stop-color="#8C8C8C"/>
</linearGradient>
<linearGradient id="paint10_linear" x1="21.435" y1="24.8484" x2="26.5524" y2="27.8754" gradientUnits="userSpaceOnUse">
<stop offset="0.0193" stop-color="#666666"/>
<stop offset="0.0218" stop-color="#626262"/>
<stop offset="0.043" stop-color="#454545"/>
<stop offset="0.0641" stop-color="#313131"/>
<stop offset="0.0849" stop-color="#242424"/>
<stop offset="0.105" stop-color="#202020"/>
</linearGradient>
<linearGradient id="paint11_linear" x1="25.3564" y1="3.74174" x2="36.7101" y2="10.1101" gradientUnits="userSpaceOnUse">
<stop stop-color="#595959"/>
<stop offset="1" stop-color="#747474"/>
</linearGradient>
<linearGradient id="paint12_linear" x1="27.0696" y1="1.19327" x2="20.8725" y2="-0.627285" gradientUnits="userSpaceOnUse">
<stop offset="0.0096" stop-color="#595959"/>
<stop offset="0.0258" stop-color="#767676"/>
<stop offset="0.0444" stop-color="#919191"/>
<stop offset="0.061" stop-color="#A1A1A1"/>
<stop offset="0.0738" stop-color="#A7A7A7"/>
<stop offset="0.5011" stop-color="#BEBEBE"/>
<stop offset="1" stop-color="#BFBFBF"/>
</linearGradient>
<linearGradient id="paint13_linear" x1="11.3768" y1="8.87868" x2="22.3993" y2="4.54379" gradientUnits="userSpaceOnUse">
<stop stop-color="#8C8C8C"/>
<stop offset="0.9868" stop-color="#747474"/>
<stop offset="1" stop-color="#BFBFBF"/>
</linearGradient>
<linearGradient id="paint14_linear" x1="31.0475" y1="26.477" x2="31.0475" y2="13.2731" gradientUnits="userSpaceOnUse">
<stop offset="0.019" stop-color="#202020"/>
<stop offset="0.2571" stop-color="#2C2C2C"/>
<stop offset="0.6194" stop-color="#393939"/>
<stop offset="0.9698" stop-color="#3D3D3D"/>
<stop offset="0.9863" stop-color="#5D5D5D"/>
<stop offset="1" stop-color="#747474"/>
</linearGradient>
</defs>
</svg>
