<svg width="26" height="17" viewBox="0 0 26 17" fill="none" xmlns="http://www.w3.org/2000/svg">
<path d="M13 13.7778H4.27273C3.36891 13.7778 2.63636 13.0317 2.63636 12.1112V9.23172C2.63636 8.57339 2.82782 7.93006 3.18618 7.38228L3.72727 6.55561L1.54545 6.00005C1.24436 6.00005 1 5.75117 1 5.4445V4.33339C1 4.02672 1.24436 3.77783 1.54545 3.77783H4.27273L5.36364 5.4445L7 6.00005H13" stroke="#1F2532" stroke-miterlimit="10" stroke-linecap="round" stroke-linejoin="round"/>
<path d="M4.27271 8.22217L4.56507 8.51994C5.0767 9.04105 5.76998 9.33328 6.4938 9.33328H8.09089" stroke="#1F2532" stroke-miterlimit="10"/>
<path d="M3.18188 13.2222V15.4444C3.18188 15.7511 3.42625 15.9999 3.72734 15.9999H7.54552C7.84661 15.9999 8.09098 15.7511 8.09098 15.4444V13.7777" stroke="#1F2532" stroke-miterlimit="10" stroke-linejoin="round"/>
<path d="M13 13.7778H21.7273C22.6311 13.7778 23.3636 13.0317 23.3636 12.1112V9.23172C23.3636 8.57339 23.1722 7.93006 22.8138 7.38228L22.2727 6.55561L24.4545 6.00005C24.7562 6.00005 25 5.75117 25 5.4445V4.33339C25 4.02672 24.7562 3.77783 24.4545 3.77783H21.7273L20.6364 5.4445L19 6.00005H13" stroke="#1F2532" stroke-miterlimit="10" stroke-linecap="round" stroke-linejoin="round"/>
<path d="M21.1818 4.88889C21.1818 4.88889 19.7963 1.85833 19.5454 1.55556C19.2945 1.25278 18.8363 1 18.4545 1C17.6019 1 8.70448 1 7.54539 1C7.16357 1 6.70484 1.25278 6.45448 1.55556C6.20412 1.85833 4.81812 4.88889 4.81812 4.88889" stroke="#1F2532" stroke-miterlimit="10"/>
<path d="M21.7274 8.22217L21.435 8.51994C20.9234 9.04105 20.2301 9.33328 19.5068 9.33328H17.9092" stroke="#1F2532" stroke-miterlimit="10"/>
<path d="M22.8183 13.2222V15.4444C22.8183 15.7511 22.5745 15.9999 22.2728 15.9999H18.4546C18.153 15.9999 17.9092 15.7511 17.9092 15.4444V13.7777" stroke="#1F2532" stroke-miterlimit="10" stroke-linejoin="round"/>
<path d="M8.09082 11.5557H17.909" stroke="#1F2532" stroke-miterlimit="10"/>
</svg>
