<svg width="40" height="40" viewBox="0 0 40 40" fill="none" xmlns="http://www.w3.org/2000/svg">
<rect width="40" height="40" fill="#FFCE00"/>
<path d="M20 20.258C22.277 20.258 24.129 18.406 24.129 16.13C24.129 13.853 22.277 12 20 12C17.723 12 15.871 13.853 15.871 16.13C15.871 18.406 17.723 20.258 20 20.258ZM20 14.42C20.943 14.42 21.709 15.187 21.709 16.129C21.709 17.071 20.943 17.838 20 17.838C19.058 17.838 18.291 17.071 18.291 16.129C18.291 15.187 19.058 14.42 20 14.42Z" fill="white"/>
<path d="M21.67 23.6269C22.512 23.4349 23.322 23.1029 24.068 22.6339C24.632 22.2779 24.804 21.5299 24.447 20.9659C24.092 20.3999 23.345 20.2289 22.779 20.5859C21.088 21.6489 18.91 21.6489 17.219 20.5859C16.653 20.2299 15.906 20.3999 15.552 20.9659C15.196 21.5319 15.365 22.2779 15.931 22.6339C16.678 23.1029 17.488 23.4349 18.329 23.6269L16.02 25.9359C15.548 26.4079 15.548 27.1739 16.02 27.6459C16.257 27.8819 16.566 27.9999 16.876 27.9999C17.186 27.9999 17.496 27.8819 17.732 27.6459L20 25.3769L22.27 27.6459C22.741 28.1189 23.508 28.1189 23.979 27.6459C24.454 27.1739 24.454 26.4079 23.979 25.9359L21.67 23.6269Z" fill="white"/>
</svg>
