<?xml version="1.0" encoding="utf-8"?><svg viewBox="0 0 38 38" xmlns="http://www.w3.org/2000/svg" xmlns:xlink="http://www.w3.org/1999/xlink"><style>:root>svg{display:none}:root>svg:target{display:block}</style><svg fill="none" viewBox="0 0 38 38" id="credit" xmlns="http://www.w3.org/2000/svg"><path d="M32.667 17.967a4.773 4.773 0 00-.517-1.16l-.706-1.14 2.845-.767c.393 0 .711-.344.711-.767V12.6c0-.423-.318-.767-.711-.767h-3.556l-1.422 2.3-2.133.767H10.822l-2.133-.767-1.422-2.3H3.71c-.393 0-.711.344-.711.767v1.533c0 .423.318.767.711.767l2.845.767-.706 1.14a4.862 4.862 0 00-.717 2.553v4.74c0 1.27.955 2.3 2.134 2.3h14.223" stroke="#FFCE00" stroke-miterlimit="10"/><path d="M7.978 13.367s1.806-4.183 2.133-4.6c.327-.418.924-.767 1.422-.767h14.933c.498 0 1.095.349 1.423.767.327.418 2.133 4.6 2.133 4.6m-22.755 4.6l.38.41c.668.72 1.572 1.123 2.514 1.123h2.083m-6.4 6.133V28.7c0 .423.318.767.712.767h4.977c.394 0 .712-.344.712-.767v-2.3m9.245-3.833h-9.245m13.51 2.3c1.179 0 2.134-1.03 2.134-2.3 0-1.27-.955-2.3-2.134-2.3-1.178 0-2.133 1.03-2.133 2.3 0 1.27.955 2.3 2.133 2.3zM32.156 31c-1.178 0-2.133-1.03-2.133-2.3 0-1.27.954-2.3 2.133-2.3 1.178 0 2.133 1.03 2.133 2.3 0 1.27-.955 2.3-2.133 2.3zm-7.112 0l7.823-10.733" stroke="#FFCE00" stroke-miterlimit="10"/></svg><svg fill="none" viewBox="0 0 38 38" id="drive" xmlns="http://www.w3.org/2000/svg"><path d="M19 34c8.284 0 15-6.716 15-15 0-8.284-6.716-15-15-15-8.284 0-15 6.716-15 15 0 8.284 6.716 15 15 15z" stroke="#FFCE00" stroke-miterlimit="10"/><path d="M15.953 30.01a11.44 11.44 0 01-7.964-7.963.713.713 0 01.685-.904h3.79c.29 0 .54.181.657.446a6.44 6.44 0 003.29 3.29.724.724 0 01.446.657v3.79c0 .47-.45.81-.904.685zM8.92 16.597c-.53.141-1.02-.346-.863-.87C9.464 11.01 13.827 7.572 19 7.572s9.536 3.439 10.943 8.154c.156.524-.334 1.012-.862.871C26.353 15.868 22.84 15.43 19 15.43s-7.353.439-10.08 1.168zm12.223 12.729v-3.79c0-.29.18-.54.446-.658a6.44 6.44 0 003.29-3.289.725.725 0 01.657-.446h3.79c.471 0 .81.45.685.904a11.44 11.44 0 01-7.964 7.964.713.713 0 01-.904-.685z" stroke="#FFCE00" stroke-miterlimit="10"/></svg><svg fill="none" viewBox="0 0 38 38" id="order" xmlns="http://www.w3.org/2000/svg"><path d="M19 27.067H7.174c-1.153 0-2.087-.985-2.087-2.2v-5.268c0-.869.244-1.718.701-2.441l.69-1.091-2.782-.734c-.385 0-.696-.328-.696-.733v-1.467c0-.404.311-.733.696-.733h3.478l1.391 2.2 2.087.733H19" stroke="#FFCE00" stroke-miterlimit="10" stroke-linecap="round" stroke-linejoin="round"/><path d="M7.174 19l1.391 1.467h3.478" stroke="#FFCE00" stroke-miterlimit="10"/><path d="M5.783 26.333v2.934c0 .405.31.733.695.733h4.87c.385 0 .696-.328.696-.733v-.734" stroke="#FFCE00" stroke-miterlimit="10" stroke-linejoin="round"/><path d="M19 27.067h11.826c1.153 0 2.087-.985 2.087-2.2v-5.268c0-.869-.244-1.718-.701-2.441l-.69-1.091 2.782-.734c.385 0 .696-.328.696-.733v-1.467c0-.404-.311-.733-.696-.733h-3.478l-1.391 2.2-2.087.733H19" stroke="#FFCE00" stroke-miterlimit="10" stroke-linecap="round" stroke-linejoin="round"/><path d="M19 8h-6.957c-.927 0-1.71.688-2.086 1.467-.225.465-2.087 4.4-2.087 4.4M19 8h6.956c.928 0 1.71.688 2.088 1.467.224.465 2.086 4.4 2.086 4.4M30.826 19l-1.391 1.467h-3.479" stroke="#FFCE00" stroke-miterlimit="10"/><path d="M32.217 26.333v2.934c0 .405-.31.733-.695.733h-4.87c-.385 0-.696-.328-.696-.733v-.734" stroke="#FFCE00" stroke-miterlimit="10" stroke-linejoin="round"/><path d="M12.043 24.133h13.913" stroke="#FFCE00" stroke-miterlimit="10"/></svg><svg fill="none" viewBox="0 0 38 38" id="service" xmlns="http://www.w3.org/2000/svg"><path d="M11.8 2v5.6H7V2C4.5 2 3 4.188 3 6.8v1.6c0 2.383 1.383 4.1 3.2 4.8v19.6a3.2 3.2 0 006.4 0V13.2c1.817-.7 3.2-2.417 3.2-4.8V6.8c0-2.612-1.5-4.8-4-4.8zM9.4 31.2v1.6" stroke="#FFCE00" stroke-miterlimit="10" stroke-linejoin="round"/><path d="M14.2 29.2h16a2.4 2.4 0 002.4-2.4V22c0-.4-.047-.87-.134-1.002l-.836-1.253a.799.799 0 01.47-1.22L34.2 18a.8.8 0 00.8-.8v-1.6a.8.8 0 00-.8-.8h-3.572a.801.801 0 00-.666.356l-1.058 1.586C28.75 16.956 27.187 18 26.2 18h-12" stroke="#FFCE00" stroke-miterlimit="10"/><path d="M17.4 10c3.549 0 6.298.438 7.906.666.555.078 1.326.498 1.694.934.368.436 2.29 4.565 2.29 4.565m.91 5.035a5.466 5.466 0 01-3.863 1.6H24.6m7.2 5.6v3.2a.8.8 0 01-.8.8h-5.6a.8.8 0 01-.8-.8v-2.4M14.2 26h10.4" stroke="#FFCE00" stroke-miterlimit="10"/></svg><svg fill="none" viewBox="0 0 38 38" id="trade-in" xmlns="http://www.w3.org/2000/svg"><path d="M15.87 23.47H5.696c-1.297 0-2.348-1.066-2.348-2.382v-3.97c0-.397.046-.864.131-.995l.818-1.244a.797.797 0 00-.46-1.21l-2.054-.522A.788.788 0 011 12.353v-1.588c0-.44.35-.794.783-.794h3.494a.78.78 0 01.651.353l1.035 1.575c.15.21 1.68 1.248 2.646 1.248h7.043" stroke="#FFCE00" stroke-miterlimit="10"/><path d="M26.72 11.325s-1.17-3.037-1.39-3.555c-.302-.716-.935-.94-1.726-1.108C22.05 6.33 20.124 6 16.652 6c-3.471 0-5.396.33-6.952.66-.79.168-1.423.392-1.726 1.109-.22.519-1.388 3.556-1.388 3.556m-.89 4.998a5.308 5.308 0 003.779 1.589h1.699M4.13 22.677v3.176c0 .44.351.794.783.794h5.479a.788.788 0 00.782-.794v-2.382m5.478-3.177h-5.478" stroke="#FFCE00" stroke-miterlimit="10"/><path d="M29.957 17.118c0-.397-.046-.864-.132-.995l-.818-1.244a.797.797 0 01.461-1.21l2.054-.522a.788.788 0 00.783-.794v-1.588a.788.788 0 00-.783-.794h-3.494a.78.78 0 00-.651.353l-1.036 1.575c-.15.21-1.68 1.248-2.645 1.248h-7.044" stroke="#FFCE00" stroke-miterlimit="10"/><path d="M27.609 16.323a5.308 5.308 0 01-3.78 1.589h-1.698m-5.479 2.382h5.479" stroke="#FFCE00" stroke-miterlimit="10"/><path d="M33.87 16.323L23.696 26.548l-3.913-3.97-3.13 3.176L23.564 33 37 19.5l-3.13-3.177z" stroke="#FFCE00" stroke-miterlimit="10" stroke-linejoin="round"/></svg></svg>