<svg width="38" height="38" viewBox="0 0 38 38" fill="none" xmlns="http://www.w3.org/2000/svg">
<path d="M19 27.0667H7.17391C6.02122 27.0667 5.08696 26.0818 5.08696 24.8667V19.5992C5.08696 18.7302 5.33113 17.881 5.78817 17.1579L6.47826 16.0667L3.69565 15.3334C3.31096 15.3334 3 15.0048 3 14.6V13.1334C3 12.7286 3.31096 12.4 3.69565 12.4H7.17391L8.56522 14.6L10.6522 15.3334H19" stroke="#FFCE00" stroke-miterlimit="10" stroke-linecap="round" stroke-linejoin="round"/>
<path d="M7.17383 19L8.56513 20.4667H12.0434" stroke="#FFCE00" stroke-miterlimit="10"/>
<path d="M5.78271 26.3334V29.2667C5.78271 29.6715 6.09367 30 6.47837 30H11.3479C11.7326 30 12.0436 29.6715 12.0436 29.2667V28.5334" stroke="#FFCE00" stroke-miterlimit="10" stroke-linejoin="round"/>
<path d="M19 27.0667H30.8261C31.9788 27.0667 32.913 26.0818 32.913 24.8667V19.5992C32.913 18.7302 32.6689 17.881 32.2118 17.1579L31.5217 16.0667L34.3043 15.3334C34.689 15.3334 35 15.0048 35 14.6V13.1334C35 12.7286 34.689 12.4 34.3043 12.4H30.8261L29.4348 14.6L27.3478 15.3334H19" stroke="#FFCE00" stroke-miterlimit="10" stroke-linecap="round" stroke-linejoin="round"/>
<path d="M19.0001 8C19.0001 8 13.0432 8 12.0435 8C11.1162 8 10.3336 8.68787 9.95659 9.46667C9.73189 9.93233 7.86963 13.8667 7.86963 13.8667" stroke="#FFCE00" stroke-miterlimit="10"/>
<path d="M19 8C19 8 24.9569 8 25.9565 8C26.8838 8 27.6664 8.68787 28.0435 9.46667C28.2682 9.93233 30.1304 13.8667 30.1304 13.8667" stroke="#FFCE00" stroke-miterlimit="10"/>
<path d="M30.8261 19L29.4348 20.4667H25.9565" stroke="#FFCE00" stroke-miterlimit="10"/>
<path d="M32.2174 26.3334V29.2667C32.2174 29.6715 31.9065 30 31.5218 30H26.6522C26.2675 30 25.9565 29.6715 25.9565 29.2667V28.5334" stroke="#FFCE00" stroke-miterlimit="10" stroke-linejoin="round"/>
<path d="M12.0435 24.1333H25.9565" stroke="#FFCE00" stroke-miterlimit="10"/>
</svg>
