<svg width="38" height="38" viewBox="0 0 38 38" fill="none" xmlns="http://www.w3.org/2000/svg">
<path d="M11.8 2V7.6H7V2C4.5 2 3 4.188 3 6.8V8.4C3 10.7832 4.3832 12.5 6.2 13.2V32.8C6.2 34.5672 7.6328 36 9.4 36C11.1672 36 12.6 34.5672 12.6 32.8V13.2C14.4168 12.5 15.8 10.7832 15.8 8.4V6.8C15.8 4.188 14.3 2 11.8 2Z" stroke="#FFCE00" stroke-miterlimit="10" stroke-linejoin="round"/>
<path d="M9.3999 31.2V32.8" stroke="#FFCE00" stroke-miterlimit="10" stroke-linejoin="round"/>
<path d="M14.2 29.2H30.2C31.5256 29.2 32.6 28.1256 32.6 26.8V22C32.6 21.6 32.5528 21.1296 32.4656 20.9984L31.6296 19.7448C31.3224 19.2848 31.5639 18.6593 32.1007 18.5257L34.1999 18C34.6415 18 34.9999 17.6424 34.9999 17.2V15.6C34.9999 15.1576 34.6415 14.8 34.1999 14.8H30.628C30.3608 14.8 30.1112 14.9337 29.9624 15.1561L28.9039 16.7425C28.7503 16.9553 27.1872 18 26.2 18C25.6472 18 14.2 18 14.2 18" stroke="#FFCE00" stroke-miterlimit="10"/>
<path d="M17.3999 10C20.9487 10 23.6975 10.4376 25.3063 10.6656C25.8607 10.744 26.6319 11.164 26.9999 11.6C27.3679 12.036 29.2903 16.1648 29.2903 16.1648" stroke="#FFCE00" stroke-miterlimit="10"/>
<path d="M30.2001 21.2C29.1753 22.224 27.7857 22.8 26.3369 22.8H24.6001" stroke="#FFCE00" stroke-miterlimit="10"/>
<path d="M31.8001 28.4V31.6C31.8001 32.0424 31.4417 32.4 31.0001 32.4H25.4001C24.9585 32.4 24.6001 32.0424 24.6001 31.6V29.2" stroke="#FFCE00" stroke-miterlimit="10"/>
<path d="M14.2 26H24.6" stroke="#FFCE00" stroke-miterlimit="10"/>
</svg>
