<?xml version="1.0" encoding="utf-8"?><svg viewBox="0 0 16 17" xmlns="http://www.w3.org/2000/svg" xmlns:xlink="http://www.w3.org/1999/xlink"><style>:root>svg{display:none}:root>svg:target{display:block}</style><svg fill="none" viewBox="0 0 16 17" id="back" xmlns="http://www.w3.org/2000/svg"><path d="M10 4L6 8l4 4" stroke="#7B808A" stroke-width="2"/></svg><svg fill="none" viewBox="0 0 16 17" id="location" xmlns="http://www.w3.org/2000/svg"><path d="M10.658 8.742L6 16.068 1.342 8.742C-.932 5.165 1.674.5 6 .5c4.326 0 6.932 4.665 4.658 8.242z" fill="#7B808A" stroke="#7B808A"/><circle cx="6" cy="6" r="2.5" stroke="#fff"/></svg><svg fill="none" viewBox="0 0 16 17" id="message" xmlns="http://www.w3.org/2000/svg"><g clip-path="url(#cclip0)"><path d="M.666 8.028L14.995 2.85 8.571 13.444 6.734 12.19a.5.5 0 00-.628.053L4.654 13.64h0l-.008.006a.336.336 0 01-.142.097H4.5v-2.475l5.777-3.852a.5.5 0 00-.474-.876l-6.766 2.9L.666 8.028zm5.786 4.576l1.943 1.325H4c0 .184.5.571 1 .071l1.452-1.396z" fill="#7B808A" stroke="#7B808A" stroke-linecap="round" stroke-linejoin="round"/></g><defs><clipPath id="cclip0"><path fill="#fff" d="M0 0h16v17H0z"/></clipPath></defs></svg><svg fill="none" viewBox="0 0 16 17" id="more" xmlns="http://www.w3.org/2000/svg"><circle cx="3" cy="9" r="1.5" fill="#7B808A" stroke="#7B808A"/><circle cx="8" cy="9" r="1.5" fill="#7B808A" stroke="#7B808A"/><circle cx="13" cy="9" r="1.5" fill="#7B808A" stroke="#7B808A"/></svg><svg fill="none" viewBox="0 0 16 17" id="video" xmlns="http://www.w3.org/2000/svg"><circle cx="8" cy="8" r="8" fill="#7B808A"/><path d="M11 8l-4.5 2.598V5.402L11 8z" fill="#fff"/></svg></svg>