<svg width="118" height="40" viewBox="0 0 118 40" fill="none" xmlns="http://www.w3.org/2000/svg">
<g clip-path="url(#clip0)">
<path d="M39.9577 19.9998C39.9577 31.0452 31.0131 39.9995 19.9798 39.9995C8.94454 40 0 31.0456 0 19.9998C0 8.95485 8.94454 0 19.9793 0C31.0131 0 39.9577 8.95485 39.9577 19.9998Z" fill="#FF7700"/>
<path d="M23.8366 23.3672C24.8952 22.3028 25.4781 20.8876 25.4781 19.3828C25.4781 17.877 24.8952 16.4628 23.8366 15.3979C22.7804 14.3349 21.3726 13.7496 19.8737 13.7496C18.3753 13.7496 16.9684 14.3349 15.9122 15.3979C14.8532 16.4628 14.2702 17.8775 14.2702 19.3828C14.2702 20.8881 14.8532 22.3033 15.9122 23.3663C16.5847 24.044 17.4231 24.5353 18.3484 24.7969V34.8909H23.3522V31.8205H21.4009V24.7974C22.3243 24.5363 23.1617 24.0445 23.8366 23.3672ZM22.4251 19.3828C22.4251 20.0675 22.1594 20.712 21.6787 21.1968C20.6828 22.1973 19.0655 22.1973 18.0697 21.1968C17.5885 20.712 17.3237 20.0675 17.3237 19.3828C17.3237 18.6976 17.5885 18.0531 18.0697 17.5683C18.5504 17.0853 19.1914 16.8187 19.8742 16.8187C20.556 16.8187 21.1965 17.0853 21.6787 17.5683C22.1594 18.0531 22.4251 18.6976 22.4251 19.3828Z" fill="white"/>
<path d="M10.9046 17.8476H4.37037V20.9175H10.9046V17.8476Z" fill="white"/>
<path d="M35.377 17.8476H28.8432V20.9175H35.377V17.8476Z" fill="white"/>
<path d="M12.4523 24.6751L7.83124 29.3218L9.98969 31.4922L14.6107 26.8455L12.4523 24.6751Z" fill="white"/>
<path d="M25.1361 11.921L27.2948 14.0911L31.9146 9.44443L29.7558 7.2743L25.1361 11.921Z" fill="white"/>
<path d="M14.6118 11.9196L9.99146 7.27358L7.83268 9.44434L12.4531 14.0904L14.6118 11.9196Z" fill="white"/>
<path d="M27.2947 24.6734L25.1366 26.8442L29.7573 31.4892L31.9155 29.3185L27.2947 24.6734Z" fill="white"/>
<path d="M21.4004 3.79295H18.3479V10.364H21.4004V3.79295Z" fill="white"/>
<path d="M60.2836 23.3364C59.4001 24.3308 57.4851 25.05 55.4851 25.05C50.9188 25.05 47.7617 22.0034 47.7617 17.3903C47.7617 13.1369 50.3925 9.73016 55.4642 9.73016C57.4215 9.73016 59.0838 10.4069 59.9677 11.2747L58.4735 13.8146C57.6737 13.3274 56.853 12.9043 55.4642 12.9043C53.1915 12.9043 51.3396 14.4708 51.3396 17.3908C51.3396 20.0142 53.1497 21.8769 55.8009 21.8769C56.853 21.8769 58.0104 21.5378 58.9993 20.7975L60.2836 23.3364Z" fill="#1D1D1B"/>
<path d="M63.1039 9.9833H71.8379V13.1574H66.4714V15.7603H71.2067V18.9349H66.4714V21.6223H72.0483V24.796H63.1039V9.9833Z" fill="#1D1D1B"/>
<path d="M75.6048 9.9833H78.9932L83.539 16.226L87.8322 9.9833H91.0097V24.796H87.6422V15.3582L83.539 21.1352H83.055L78.9723 15.4222V24.796H75.6048V9.9833Z" fill="#1D1D1B"/>
<path d="M98.4427 14.6174C98.969 14.5539 99.4316 14.5334 99.7479 14.5334C103.578 14.5334 105.324 16.5011 105.324 19.5271C105.324 22.7007 103.136 24.8385 99.0326 24.8385C97.5166 24.8385 95.9387 24.7955 95.0753 24.7955V9.9833H98.4427V14.6174ZM98.4427 17.8135V21.5798C98.8213 21.6223 99.1158 21.6643 99.4316 21.6643C100.799 21.6643 101.747 21.1142 101.747 19.6121C101.747 18.1937 100.695 17.707 99.453 17.707C99.1789 17.707 98.8635 17.7495 98.4427 17.8135Z" fill="#1D1D1B"/>
<path d="M114.633 20.0348H113.139L110.34 24.7964H106.573L110.024 19.294C108.783 18.5542 107.752 17.2628 107.752 15.2526C107.752 12.4601 109.52 9.89877 114.086 9.89877C115.012 9.89877 117.138 9.98377 118 9.98377V24.7969H114.633V20.0348ZM114.633 16.8612V13.1579C114.423 13.1154 113.644 13.0724 113.412 13.0724C112.298 13.0724 111.33 13.7921 111.33 15.02C111.33 16.1199 112.066 16.6911 112.866 16.8607H114.633V16.8612Z" fill="#1D1D1B"/>
<path d="M50.5621 32.9395C50.3201 33.2529 49.8997 33.4192 49.4603 33.4192C48.55 33.4192 47.9262 32.8246 47.9262 31.9148C47.9262 31.0769 48.5374 30.4109 49.3777 30.4109C49.8361 30.4109 50.2379 30.5192 50.5045 30.7887L50.269 31.1913C50.0275 30.9676 49.7469 30.8901 49.4478 30.8901C48.9322 30.8901 48.4673 31.3067 48.4673 31.9143C48.4673 32.5481 48.9322 32.9386 49.4984 32.9386C49.8421 32.9386 50.1287 32.7849 50.3205 32.5678L50.5621 32.9395Z" fill="#1D1D1B"/>
<path d="M51.1515 30.4753H53.7614V30.9872H52.7107V33.3557H52.2021V30.9872H51.1515V30.4753Z" fill="#1D1D1B"/>
<path d="M54.5069 30.4753H55.0164V30.8144C55.2138 30.5846 55.5956 30.4118 55.9909 30.4118C56.806 30.4118 57.3146 31.0195 57.3146 31.8709C57.3146 32.748 56.7229 33.4201 55.8251 33.4201C55.5199 33.4201 55.2203 33.3557 55.0169 33.2221V34.6359H54.5073V30.4753H54.5069ZM55.0159 31.288V32.7163C55.2705 32.8886 55.5069 32.94 55.7805 32.94C56.3908 32.94 56.7731 32.4982 56.7731 31.8905C56.7731 31.3076 56.4363 30.8915 55.8441 30.8915C55.5069 30.8915 55.1943 31.0643 55.0159 31.288Z" fill="#1D1D1B"/>
<path d="M59.5808 30.4114C60.4982 30.4114 61.1085 31.0512 61.1085 31.9153C61.1085 32.7798 60.4982 33.4197 59.5808 33.4197C58.6639 33.4197 58.0532 32.7798 58.0532 31.9153C58.0532 31.0512 58.6644 30.4114 59.5808 30.4114ZM59.5808 32.9395C60.1535 32.9395 60.5674 32.5299 60.5674 31.9153C60.5674 31.3142 60.1535 30.891 59.5808 30.891C59.0207 30.891 58.5943 31.3076 58.5943 31.9153C58.5943 32.5173 59.0086 32.9395 59.5808 32.9395Z" fill="#1D1D1B"/>
<path d="M62.0152 33.3561V30.4758H62.5247V32.6201L64.1796 30.4758H64.6887V33.3561H64.1796V31.211L62.5247 33.3561H62.0152Z" fill="#1D1D1B"/>
<path d="M65.4374 30.4753H68.0473V30.9872H66.9967V33.3557H66.4881V30.9872H65.4374V30.4753Z" fill="#1D1D1B"/>
<path d="M71.196 33.0423C70.9159 33.2987 70.5021 33.4201 70.1208 33.4201C69.1913 33.4201 68.5857 32.8251 68.5857 31.9153C68.5857 31.0774 69.1203 30.4114 70.0632 30.4114C70.8012 30.4114 71.3934 30.9359 71.3934 31.7294C71.3934 31.8709 71.3813 31.9858 71.3623 32.075H69.1593C69.2039 32.6196 69.5987 32.9391 70.1588 32.9391C70.5281 32.9391 70.8523 32.812 71.0372 32.6388L71.196 33.0423ZM69.1268 31.6598H70.8649C70.8398 31.1857 70.5337 30.891 70.0372 30.891C69.5151 30.891 69.1844 31.218 69.1268 31.6598Z" fill="#1D1D1B"/>
<path d="M74.2012 30.9872H73.1956L73.1645 31.4739C73.0367 33.1123 72.6038 33.3944 72.0116 33.3944L71.9735 32.8947C72.19 32.9143 72.5973 32.7027 72.6675 31.3716L72.7186 30.4753H74.7112V33.3561H74.2012V30.9872Z" fill="#1D1D1B"/>
<path d="M75.7915 30.4758H76.3006V31.3399H76.8227C77.7019 31.3399 77.9556 31.82 77.9556 32.3319C77.9556 32.8377 77.6634 33.3561 76.7591 33.3561H75.7915V30.4758ZM76.3002 31.82V32.8755H76.72C77.2231 32.8755 77.414 32.6901 77.414 32.351C77.414 32.0054 77.217 31.82 76.7265 31.82H76.3002Z" fill="#1D1D1B"/>
<path d="M80.8883 32.1395H79.2974V33.3557H78.7879V30.4753H79.2974V31.6598H80.8883V30.4753H81.3983V33.3557H80.8883V32.1395Z" fill="#1D1D1B"/>
<path d="M82.5107 30.6738C82.7652 30.5136 83.1089 30.4109 83.4656 30.4109C84.2803 30.4109 84.5669 30.8401 84.5669 31.5888V33.3557H84.0829V32.9844C83.9111 33.202 83.6375 33.4005 83.166 33.4005C82.644 33.4005 82.2877 33.0675 82.2877 32.5108C82.2877 31.9218 82.7522 31.5953 83.3695 31.5953C83.5924 31.5953 83.8916 31.6402 84.0825 31.7808C84.0825 31.2432 83.9998 30.8719 83.4341 30.8719C83.0838 30.8719 82.8734 30.9615 82.644 31.083L82.5107 30.6738ZM84.0825 32.5682V32.2034C83.9041 32.0755 83.6877 32.0115 83.4396 32.0115C83.134 32.0115 82.8284 32.1525 82.8284 32.4855C82.8284 32.7611 83.0128 32.9395 83.3439 32.9395C83.7202 32.9391 83.9366 32.7415 84.0825 32.5682Z" fill="#1D1D1B"/>
<path d="M87.7235 30.4753V33.3557H87.2144V32.3954H86.6603L85.9604 33.3557H85.3426L86.1703 32.2674C85.8768 32.1978 85.553 31.9092 85.553 31.4356C85.553 30.9424 85.8768 30.4753 86.8322 30.4753H87.7235ZM86.6283 31.9153H87.2149V30.955H86.7495C86.2725 30.955 86.0946 31.1787 86.0946 31.4482C86.0941 31.7425 86.3737 31.9153 86.6283 31.9153Z" fill="#1D1D1B"/>
<path d="M90.3957 30.4753H90.9061V33.3557H90.3957V30.4753ZM91.6497 31.8513L93.0251 33.3561H92.3186L91.0264 31.8835L92.2359 30.4753H92.9038L91.6497 31.8513Z" fill="#1D1D1B"/>
<path d="M94.9141 30.4114C95.8314 30.4114 96.4417 31.0512 96.4417 31.9153C96.4417 32.7798 95.8314 33.4197 94.9141 33.4197C93.9972 33.4197 93.3864 32.7798 93.3864 31.9153C93.3864 31.0512 93.9972 30.4114 94.9141 30.4114ZM94.9141 32.9395C95.4868 32.9395 95.9006 32.5299 95.9006 31.9153C95.9006 31.3142 95.4868 30.891 94.9141 30.891C94.3539 30.891 93.9275 31.3076 93.9275 31.9153C93.9275 32.5173 94.3414 32.9395 94.9141 32.9395Z" fill="#1D1D1B"/>
<path d="M97.3479 30.4753H97.8129L98.9142 31.9027L99.9583 30.4753H100.411V33.3557H99.9012V31.2558L98.9077 32.5939H98.8886L97.8579 31.2558V33.3557H97.3479V30.4753Z" fill="#1D1D1B"/>
<path d="M103.56 30.955H102.001V33.3561H101.492V30.4758H104.07V33.3561H103.56V30.955Z" fill="#1D1D1B"/>
<path d="M105.179 30.6738C105.434 30.5136 105.777 30.4109 106.134 30.4109C106.949 30.4109 107.235 30.8401 107.235 31.5888V33.3557H106.751V32.9844C106.579 33.202 106.306 33.4005 105.834 33.4005C105.313 33.4005 104.956 33.0675 104.956 32.5108C104.956 31.9218 105.421 31.5953 106.038 31.5953C106.261 31.5953 106.56 31.6402 106.751 31.7808C106.751 31.2432 106.668 30.8719 106.102 30.8719C105.752 30.8719 105.542 30.9615 105.313 31.083L105.179 30.6738ZM106.751 32.5682V32.2034C106.573 32.0755 106.356 32.0115 106.108 32.0115C105.803 32.0115 105.497 32.1525 105.497 32.4855C105.497 32.7611 105.682 32.9395 106.013 32.9395C106.389 32.9391 106.606 32.7415 106.751 32.5682Z" fill="#1D1D1B"/>
<path d="M110.376 32.1395H108.785V33.3557H108.276V30.4753H108.785V31.6598H110.376V30.4753H110.886V33.3557H110.376V32.1395Z" fill="#1D1D1B"/>
<path d="M111.969 33.3561V30.4758H112.479V32.6201L114.134 30.4758H114.643V33.3561H114.134V31.211L112.479 33.3561H111.969Z" fill="#1D1D1B"/>
<path d="M117.836 30.4753V33.3557H117.327V32.3954H116.772L116.073 33.3557H115.455L116.283 32.2674C115.989 32.1978 115.666 31.9092 115.666 31.4356C115.666 30.9424 115.989 30.4753 116.944 30.4753H117.836ZM116.74 31.9153H117.327V30.955H116.862C116.385 30.955 116.207 31.1787 116.207 31.4482C116.207 31.7425 116.486 31.9153 116.74 31.9153Z" fill="#1D1D1B"/>
</g>
<defs>
<clipPath id="clip0">
<rect width="118" height="40" fill="white"/>
</clipPath>
</defs>
</svg>
