<?xml version="1.0" encoding="utf-8"?><svg viewBox="0 0 48 48" xmlns="http://www.w3.org/2000/svg" xmlns:xlink="http://www.w3.org/1999/xlink">
<style>:root>svg{display:none}:root>svg:target{display:block}
    .polygon:hover {
        fill: #000;
        transition: fill .2s ease;
    }
</style>
<svg fill="none" viewBox="0 0 48 48" id="LOGORenault" xmlns="http://www.w3.org/2000/svg"><path d="M134.06 18.59v1.969h-4.09v8.66h-2.757v-8.66h-4.089v-1.968h10.936zm-9.759 8.659v1.97h-8.763V18.59h2.756v8.658h6.007zm-53.083 0v1.97H62.01V18.59h9.033v1.969H64.77v2.335h5.734V24.8H64.77v2.448h6.449zm-15.541-3.703c-.212.208-.464.308-.855.308H51.06v-3.24h2.97c.885 0 1.358.1 1.676.36.312.25.463.632.463 1.195 0 .582-.155 1.05-.493 1.377zm1.394 1.725a3.698 3.698 0 001.91-3.232c0-1.105-.322-1.963-.996-2.527-.783-.65-1.857-.921-3.67-.921H47.99l-.112.64s.112.192.243.422c.196.338.18.438.18.664v8.902h2.759v-3.403h3.426l1.84 3.403h3.036L57.07 25.27zm25.692-6.681v7.05c-.643-.812-1.319-1.594-2.46-2.852a932.89 932.89 0 00-3.859-4.195h-2.662l-.11.64s.113.192.243.421c.148.253.177.373.181.51l-.001 9.056 2.478-.008v-7.04c.494.661 1.375 1.677 1.963 2.315 1.17 1.268 2.936 3.246 4.311 4.733h2.381V18.593l-2.465-.002zm26.999 0v6.5c0 .725-.144 1.156-.497 1.487-.446.416-1.183.615-2.248.615-1.08 0-1.836-.2-2.281-.615-.352-.331-.496-.764-.496-1.487v-6.5h-3.07l-.111.642s.114.191.242.42c.14.244.172.363.179.495l.002 5.043c0 2.778 1.878 4.192 5.498 4.192h.077c3.624 0 5.403-1.375 5.403-4.192v-6.6h-2.698zm-18.178 6.785c.725-1.81 1.452-3.523 2.038-4.851.585 1.328 1.314 3.04 2.039 4.851h-4.077zm3.76-6.784H91.9a141.61 141.61 0 00-4.564 10.628h2.767c.22-.605.455-1.222.69-1.84h5.66c.237.618.47 1.235.69 1.84h2.768a142.323 142.323 0 00-4.565-10.628z" fill="#000"/><path d="M158 0h-5v48h5V0z" fill="#FFCE00"/><path d="M13.905.991c-.18.019-.248.052-.316.085-.089.05-.179.098-.322.312-.417.624-4.711 7.7-7.445 12.681-1.939 3.534-3.852 7.278-4.668 9.008-.216.458-.248.76-.248.901 0 .25.083.552.248.901.816 1.73 2.729 5.474 4.668 9.007 2.734 4.981 7.011 12.074 7.452 12.682.068.094.129.17.188.233a.67.67 0 00.293.199c.11.033.324.013.503-.006.096-.01.216-.007.309-.004 1.1.038 2.792.078 4.582.077 2.222 0 4.817-.058 5.208-.103l.062-.007a.91.91 0 00.278-.061c.09-.037.165-.11.348-.363.44-.607 4.698-7.666 7.432-12.647 1.939-3.533 3.852-7.277 4.668-9.007.216-.458.248-.817.248-.958 0-.249-.084-.495-.248-.844-.816-1.73-2.73-5.474-4.668-9.008-2.733-4.98-7.011-12.074-7.452-12.681a1.538 1.538 0 00-.313-.346.553.553 0 00-.168-.086c-.11-.033-.352-.013-.53.006-.096.01-.217.008-.309.004-.913-.039-2.747-.077-4.555-.077-2.222 0-4.899.067-5.245.102zM19.15 12.3c.128 0 .218.14.33.356 1.926 3.713 3.225 6.276 5.054 10.388.156.351.263.61.263.94 0 .332-.114.586-.268.93-1.829 4.111-3.127 6.674-5.054 10.387-.11.215-.202.354-.328.357-.127 0-.215-.141-.327-.358-1.927-3.712-3.225-6.276-5.055-10.387-.156-.351-.267-.611-.267-.941.005-.321.116-.584.269-.928 1.83-4.112 3.128-6.675 5.054-10.388.111-.214.2-.353.326-.356h.003z" fill="url(#apaint0_linear)"/><path d="M11.69 23.979c-.157.148-.434.295-1.11.295-.6 0-5.702-.006-8.133-.006-.356 0-.834-.028-.834.538 0 .333.288 1.002.877 2.16a255.682 255.682 0 0010.652 18.822s.587.947.647 1.022c.06.075.131.108.275.107 0 0 2.437-4.474 4.405-9.351a238.369 238.369 0 01-6.101-12.079s-.538-1.008-.559-1.404c-.003-.053-.004-.07 0-.123.004-.043-.001-.061-.015-.061-.018 0-.053.032-.104.08z" fill="url(#apaint1_linear)"/><path d="M36.941 24.044c-.087.09-.333.222-.883.222H29.36c-3.072 0-2.76-.082-3.558 1.546-.355.725-.722 1.578-1.095 2.278-2.682 5.622-9.227 16.944-10.11 18.347-.333.528-.382.556-.14.556 0 0 2.221.082 4.693.082 3.86 0 5.241-.107 5.241-.107 2.24-3.492 7.578-12.349 11.39-20.02.877-1.766 1.317-2.535 1.274-2.913-.003-.029-.016-.04-.032-.04-.025 0-.058.025-.08.049z" fill="url(#apaint2_linear)"/><path d="M23.701 1.527C21.807 4.468 15.268 16.82 12.598 22.58c-.327.705-.493 1.05-.493 1.392l1.393.002s0 .001 0 0c.004-.32.115-.584.268-.928 1.83-4.112 3.128-6.675 5.054-10.388.112-.214.2-.353.326-.356l.542-1.579c1.885-4.71 4.524-9.665 4.524-9.665h-.014c-.159 0-.276.129-.497.47z" fill="url(#apaint3_linear)"/><path d="M19.147 12.317h.003c.128 0 .218.14.33.356 1.926 3.713 3.224 6.276 5.054 10.388.156.351.263.61.263.94 0 .003 0 .002 0 0 0 0 0-.002 0 0h1.388c0-.341-.159-.677-.486-1.375a230.291 230.291 0 00-6.01-11.89l-.542 1.581z" fill="url(#apaint4_linear)"/><path d="M12.591 25.363a229.633 229.633 0 006.003 11.881l.552-1.584c-.127 0-.215-.141-.327-.357-1.927-3.713-3.225-6.276-5.054-10.388-.157-.351-.267-.611-.267-.941l-1.393-.003c-.002.344.157.69.486 1.392zm.907-1.39zm5.648 11.687zm0 0z" fill="url(#apaint5_linear)"/><path d="M24.797 23.996c0 .332-.115.585-.268.93-1.83 4.11-3.128 6.674-5.054 10.387-.111.214-.202.353-.328.356l-.552 1.584c-1.988 4.997-4.53 9.663-4.53 9.663.154.007.336-.18.549-.504l.223-.366c1.427-2.437 8.306-15.165 10.85-20.65.326-.706.498-1.059.498-1.4h-1.388z" fill="url(#apaint6_linear)"/><path d="M.341 25.285c.635 1.38 2.413 4.9 4.693 9.056 2.49 4.539 7.008 12.087 7.513 12.778.207.284.384.456.553.563l.361-.864a2.324 2.324 0 01-.188-.233c-.44-.608-4.718-7.7-7.451-12.681-1.94-3.534-3.852-7.278-4.668-9.008-.165-.349-.248-.652-.248-.9h-.9c0 .306.066.703.335 1.289z" fill="url(#apaint7_linear)"/><path d="M13.1 47.678c.243.155.468.175.74.199.672.06 3.616.108 5.31.108 1.693 0 4.872-.069 5.31-.108.207-.02.397-.038.593-.126l-.356-.842a.91.91 0 01-.278.06l-.062.008c-.39.045-2.986.102-5.207.103-1.791 0-3.482-.04-4.583-.077a2.394 2.394 0 00-.309.004c-.178.019-.394.04-.503.006a.668.668 0 01-.293-.2l-.361.865z" fill="url(#apaint8_linear)"/><path d="M24.711 1.043c.099.072.196.183.314.346.44.608 4.719 7.7 7.452 12.682 1.939 3.533 3.852 7.278 4.668 9.007.164.35.248.595.248.844l.9.057c0-.25-.055-.703-.336-1.29-.68-1.422-2.856-5.718-4.693-9.056-2.456-4.465-6.986-12.07-7.512-12.777-.277-.373-.485-.548-.695-.64l-.346.827z" fill="url(#apaint9_linear)"/><path d="M13.784.112a1.87 1.87 0 00-.552.124l.357.857c.068-.033.135-.067.315-.085.347-.035 3.024-.103 5.245-.103 1.808 0 3.642.039 4.556.077.092.004.212.007.308-.003.178-.02.421-.04.53-.006a.551.551 0 01.168.086l.345-.827c-.2-.091-.395-.102-.621-.123-.7-.064-3.71-.109-5.286-.109-1.388 0-4.61.036-5.365.112z" fill="url(#apaint10_linear)"/><path d="M12.516.912c-.52.68-5.047 8.34-7.482 12.74C3.32 16.753.598 22.12.34 22.71c-.258.59-.334.983-.334 1.29h.9c0-.14.032-.443.248-.901.816-1.73 2.729-5.474 4.668-9.008C8.555 9.11 12.849 2.032 13.266 1.41c.144-.214.234-.262.323-.312L13.233.24c-.285.121-.454.328-.717.672z" fill="url(#apaint11_linear)"/><path d="M37.144 24.882c-.815 1.73-2.729 5.474-4.668 9.007-2.733 4.98-6.99 12.04-7.431 12.647-.184.253-.26.325-.348.362l.356.843c.218-.098.441-.279.698-.637.489-.68 5.358-8.83 7.513-12.777 2.154-3.948 4.443-8.496 4.693-9.057.311-.698.335-1.04.335-1.29l-.9-.057c0 .141-.032.5-.248.959zM24.697 46.898z" fill="url(#apaint12_linear)"/><path d="M24.012.962l.05-.005s-.228.174-.812.171c-.692-.003-2.13-.031-3.28-.038-2.123-.014-4.654.025-5.837.082-.626.03-.664.098-1.065.527l.197-.311c.144-.214.234-.262.323-.312a.784.784 0 01.316-.085C14.25.956 16.927.89 19.148.89c1.808 0 3.643.038 4.556.077.092.004.213.006.308-.004" fill="#fff"/><path d="M24.302 24.79l-.009.018c-.01.023-1.064 2.41-2.285 4.915a234.748 234.748 0 01-2.74 5.417l-.022.04c-.044.087-.083.15-.1.15s-.055-.062-.099-.148l-.068-.13a223.687 223.687 0 01-2.698-5.33A152.382 152.382 0 0114 24.81l-.011-.024c-.132-.31-.236-.556-.236-.816 0-.262.121-.55.245-.821l.06-.137a127.58 127.58 0 012.212-4.765 299.43 299.43 0 012.776-5.473c.041-.078.077-.152.101-.152.024 0 .062.075.104.153.012.023 1.458 2.775 2.77 5.472a164.345 164.345 0 012.276 4.899c.15.34.241.565.241.837 0 .264-.09.468-.237.806zm.23-1.748a165.063 165.063 0 00-2.28-4.908 226.46 226.46 0 00-2.774-5.48c-.115-.216-.205-.356-.329-.356-.124 0-.207.124-.329.356-.06.114-1.527 2.934-2.78 5.48-1.246 2.538-2.21 4.768-2.274 4.908-.129.281-.269.607-.269.928 0 .32.121.597.267.94.07.166 1.107 2.507 2.286 4.926 1.282 2.631 2.714 5.355 2.768 5.463.109.212.202.357.328.357s.216-.14.328-.356c.058-.113 1.483-2.833 2.764-5.464a165.191 165.191 0 002.29-4.924c.16-.365.268-.606.268-.93 0-.323-.106-.584-.263-.94" fill="#000"/><path d="M37.722 25.185c-.267.6-2.59 5.203-4.684 9.038-2.184 4.001-7.041 12.118-7.495 12.75-.427.595-.698.62-1.108.657-.429.039-3.556.108-5.287.108-1.604 0-4.596-.047-5.287-.108-.433-.04-.671-.06-1.108-.658-.478-.655-4.993-8.188-7.495-12.75-2.399-4.374-4.116-7.803-4.685-9.04C.361 24.719.262 24.344.262 24c0-.322.099-.7.312-1.186.252-.576 2.967-5.933 4.684-9.036 2.373-4.29 6.924-12.006 7.46-12.709.378-.493.512-.638 1.091-.696.725-.073 3.861-.11 5.34-.11 1.724 0 4.588.034 5.257.107l.07.007c.435.047.634.068 1.07.653.506.682 4.983 8.185 7.493 12.748 1.83 3.328 3.991 7.592 4.686 9.044.27.563.31.98.31 1.178 0 .25-.038.567-.313 1.185zm.24-2.477c-.697-1.454-2.86-5.724-4.694-9.057C30.754 9.081 26.265 1.56 25.755.873c-.503-.677-.785-.707-1.252-.757L24.434.11C23.756.035 20.88 0 19.148 0c-1.482 0-4.631.039-5.365.112-.69.07-.877.281-1.272.797-.541.709-5.105 8.445-7.482 12.742-1.72 3.108-4.441 8.48-4.694 9.057C.106 23.23 0 23.64 0 24c0 .383.107.794.336 1.292.57 1.24 2.29 4.676 4.693 9.057 2.505 4.569 7.032 12.12 7.513 12.778.506.694.838.723 1.296.764.697.062 3.702.109 5.31.109 1.736 0 4.878-.07 5.31-.109.43-.04.8-.073 1.297-.764.456-.635 5.326-8.77 7.513-12.778 2.096-3.841 4.425-8.455 4.693-9.057.295-.663.336-1.013.336-1.293 0-.22-.044-.68-.336-1.29m11.135 15.193h1.789c1.145 0 1.618-.413 1.618-1.42 0-1.008-.473-1.422-1.618-1.422h-1.79v2.842zm1.849-3.507c1.669 0 2.372.625 2.372 2.086 0 1.451-.703 2.076-2.372 2.076h-1.85v2.61h-.803V35.03c0-.07-.03-.1-.1-.13l-.303-.132.07-.373h2.986zm6.294 4.797c-.382-.151-.824-.222-1.307-.222-.914 0-1.297.242-1.297.867 0 .594.372.866 1.217.866.965 0 1.387-.332 1.387-1.068v-.443zm.11 1.47c-.301.424-.854.626-1.648.626-1.276 0-1.86-.454-1.86-1.441 0-.988.603-1.431 1.97-1.431.523 0 1.016.07 1.428.212v-.676c0-.836-.422-1.169-1.458-1.169a4.96 4.96 0 00-1.507.242v-.645a5.473 5.473 0 011.598-.231c1.508 0 2.14.554 2.14 1.864v2.469c0 .08.01.11.081.14l.302.132-.08.413h-.835c-.06 0-.08 0-.09-.08l-.04-.424zm3.831-4.513c.562 0 1.085.08 1.578.221l-.131.625a4.42 4.42 0 00-1.407-.222c-.825 0-1.206.272-1.206.776 0 1.19 2.944.293 2.944 2.257 0 .978-.713 1.482-1.96 1.482-.623 0-1.196-.08-1.708-.242v-.655a5.1 5.1 0 001.648.272c.854 0 1.247-.312 1.247-.846 0-1.32-2.945-.323-2.945-2.258 0-.947.723-1.41 1.94-1.41zm4.593 0c.563 0 1.086.08 1.579.221l-.131.625a4.42 4.42 0 00-1.407-.222c-.825 0-1.206.272-1.206.776 0 1.19 2.944.293 2.944 2.257 0 .978-.713 1.482-1.96 1.482-.623 0-1.196-.08-1.708-.242v-.655a5.1 5.1 0 001.648.272c.855 0 1.247-.312 1.247-.846 0-1.32-2.945-.323-2.945-2.258 0-.947.723-1.41 1.94-1.41zm3.459-1.898c.362 0 .523.151.523.514 0 .353-.161.504-.523.504-.372 0-.523-.151-.523-.504 0-.363.151-.514.523-.514zm-.684 2.006h1.016c.07 0 .09.02.09.1v4.797h-.804v-4.212c0-.081-.01-.111-.08-.141l-.302-.131.08-.413zm4.734 4.386c1.116 0 1.578-.554 1.578-1.925 0-1.37-.462-1.925-1.578-1.925-1.126 0-1.588.555-1.588 1.925s.462 1.925 1.588 1.925zm0-4.494c1.689 0 2.402.765 2.402 2.57 0 1.813-.713 2.569-2.402 2.569-1.688 0-2.412-.756-2.412-2.57 0-1.804.724-2.57 2.412-2.57zm7.82 4.333c0 .08.01.11.08.14l.302.132-.08.413h-1.015c-.07 0-.09-.02-.09-.101v-2.952c0-.948-.353-1.3-1.227-1.3-.633 0-1.236.211-1.448.362v3.99h-.804v-4.211c0-.081-.01-.111-.08-.141l-.301-.131.08-.414h1.015c.07 0 .09.02.09.101v.343c.342-.323.865-.564 1.589-.564 1.347 0 1.89.564 1.89 1.944v2.389zm4.977-4.225h1.467v.634h-1.467v4.263h-.805v-4.142c0-.11 0-.12-.1-.15L84.6 36.7l.07-.443h.603v-.645c0-1.18.513-1.673 1.719-1.673.402 0 .724.06.915.131l-.13.625a2.216 2.216 0 00-.695-.111c-.703 0-1.005.292-1.005.997v.676zm4.372 4.386c1.116 0 1.578-.554 1.578-1.925 0-1.37-.462-1.925-1.578-1.925-1.126 0-1.588.555-1.588 1.925s.462 1.925 1.588 1.925zm0-4.494c1.689 0 2.402.765 2.402 2.57 0 1.813-.713 2.569-2.402 2.569-1.688 0-2.412-.756-2.412-2.57 0-1.804.724-2.57 2.412-2.57zm3.569.806c0-.08-.01-.111-.08-.141l-.301-.131.08-.413h1.016c.07 0 .09.02.09.1v.494c.372-.473.895-.715 1.588-.715.171 0 .362.02.473.04l-.141.705c-.12-.03-.271-.06-.453-.06-.703 0-1.115.242-1.467.534v3.799h-.804v-4.212zm6.535 3.513c0 .08.011.11.081.14l.301.132-.08.413h-1.015c-.07 0-.09-.02-.09-.1v-6.309c0-.08-.01-.11-.08-.14l-.302-.132.08-.413h1.015c.07 0 .09.02.09.1v6.309zm2.202-6.217c.362 0 .523.151.523.514 0 .353-.161.504-.523.504-.372 0-.523-.151-.523-.504 0-.363.151-.514.523-.514zm-.684 2.006h1.016c.07 0 .09.02.09.1v4.797h-.804v-4.212c0-.081-.01-.111-.08-.141l-.302-.131.08-.413zm3.819 0h1.467v.634h-1.467v4.263h-.804v-4.142c0-.11 0-.12-.101-.15l-.573-.162.071-.443h.603v-.645c0-1.18.512-1.673 1.718-1.673.403 0 .724.06.915.131l-.131.625a2.212 2.212 0 00-.693-.111c-.704 0-1.005.292-1.005.997v.676zm2.745 2.139h2.865c-.02-1.19-.402-1.663-1.337-1.663-1.045 0-1.497.494-1.528 1.663zm1.528-2.247c1.488 0 2.111.745 2.111 2.489 0 .11 0 .221-.01.312h-3.629c.04 1.22.573 1.703 1.89 1.703.523 0 1.035-.08 1.558-.242v.645c-.493.161-1.025.232-1.618.232-1.84 0-2.624-.756-2.624-2.57 0-1.804.694-2.57 2.322-2.57z" fill="#000"/><defs><linearGradient id="apaint0_linear" x1="19.149" y1="47.067" x2="19.149" y2=".889" gradientUnits="userSpaceOnUse"><stop stop-color="#E5E5E5"/><stop offset=".69" stop-color="#fff"/><stop offset="1" stop-color="#919191"/></linearGradient><linearGradient id="apaint1_linear" x1="10.041" y1="46.854" x2="10.041" y2="24.106" gradientUnits="userSpaceOnUse"><stop stop-color="#E5E5E5"/><stop offset=".01" stop-color="#E5E5E5"/><stop offset=".34" stop-color="#A7A7A7"/><stop offset=".69" stop-color="#303030"/><stop offset=".85" stop-color="#131313"/><stop offset=".95" stop-color="#090909"/><stop offset="1" stop-color="#666"/></linearGradient><linearGradient id="apaint2_linear" x1="25.681" y1="46.847" x2="25.681" y2="24.079" gradientUnits="userSpaceOnUse"><stop stop-color="#E5E5E5"/><stop offset=".01" stop-color="#E5E5E5"/><stop offset=".34" stop-color="#A7A7A7"/><stop offset=".69" stop-color="#303030"/><stop offset=".85" stop-color="#131313"/><stop offset=".95" stop-color="#090909"/><stop offset="1" stop-color="#666"/></linearGradient><linearGradient id="apaint3_linear" x1="18.158" y1="23.828" x2="18.158" y2=".912" gradientUnits="userSpaceOnUse"><stop stop-color="#303030"/><stop offset=".04" stop-color="#131313"/><stop offset=".25" stop-color="#1E0F00"/><stop offset="1" stop-color="#1E0F00"/></linearGradient><linearGradient id="apaint4_linear" x1="22.666" y1="24.003" x2="22.666" y2="10.737" gradientUnits="userSpaceOnUse"><stop stop-color="#747474"/><stop offset=".8" stop-color="#131313"/><stop offset=".92" stop-color="#1E0F00"/><stop offset="1" stop-color="#1E0F00"/></linearGradient><linearGradient id="apaint5_linear" x1="15.626" y1="37.268" x2="15.626" y2="23.995" gradientUnits="userSpaceOnUse"><stop stop-color="#BFBFBF"/><stop offset=".36" stop-color="#BFBFBF"/><stop offset=".96" stop-color="#666"/><stop offset="1" stop-color="#303030"/></linearGradient><linearGradient id="apaint6_linear" x1="20.125" y1="46.771" x2="20.125" y2="23.85" gradientUnits="userSpaceOnUse"><stop stop-color="#fff"/><stop offset=".97" stop-color="#BFBFBF"/><stop offset=".99" stop-color="#747474"/><stop offset="1" stop-color="#747474"/></linearGradient><linearGradient id="apaint7_linear" x1="6.734" y1="47.682" x2="6.734" y2="23.995" gradientUnits="userSpaceOnUse"><stop stop-color="#666"/><stop offset=".97" stop-color="#4C4C4C"/><stop offset="1" stop-color="#8C8C8C"/></linearGradient><linearGradient id="apaint8_linear" x1="14.613" y1="44.813" x2="23.724" y2="50.06" gradientUnits="userSpaceOnUse"><stop stop-color="#666"/><stop offset=".02" stop-color="#666"/><stop offset=".1" stop-color="#202020"/><stop offset="1" stop-color="#202020"/></linearGradient><linearGradient id="apaint9_linear" x1="21.5" y1="6.729" x2="41.691" y2="17.755" gradientUnits="userSpaceOnUse"><stop stop-color="#595959"/><stop offset="1" stop-color="#747474"/></linearGradient><linearGradient id="apaint10_linear" x1="24.508" y1="2.147" x2="13.58" y2="-.979" gradientUnits="userSpaceOnUse"><stop stop-color="#595959"/><stop offset=".01" stop-color="#595959"/><stop offset=".07" stop-color="#A7A7A7"/><stop offset=".5" stop-color="#BEBEBE"/><stop offset="1" stop-color="#BFBFBF"/></linearGradient><linearGradient id="apaint11_linear" x1="-3.051" y1="16.014" x2="16.443" y2="8.55" gradientUnits="userSpaceOnUse"><stop stop-color="#8C8C8C"/><stop offset=".99" stop-color="#747474"/><stop offset="1" stop-color="#BFBFBF"/></linearGradient><linearGradient id="apaint12_linear" x1="31.494" y1="47.741" x2="31.494" y2="23.923" gradientUnits="userSpaceOnUse"><stop stop-color="#202020"/><stop offset=".02" stop-color="#202020"/><stop offset=".97" stop-color="#3D3D3D"/><stop offset="1" stop-color="#747474"/></linearGradient></defs></svg><svg fill="none" viewBox="0 0 48 48" id="LOGO_RTDS" xmlns="http://www.w3.org/2000/svg"><path d="M167.065 34.406H.867v12.497h166.198V34.406z" fill="#fff"/><path fill-rule="evenodd" clip-rule="evenodd" d="M168 47.523V10.465h-.02V0H0v35.33h.009v11.228H0V48h167.98v-.477h.02zm-1.47-12.193v11.228H1.479V35.33H166.53z" fill="#1E2E56"/><path fill-rule="evenodd" clip-rule="evenodd" d="M118.101 24.661c.421.536.925.804 1.515.804.364 0 .697-.106.996-.319.298-.214.617-.598.957-1.152l.31.245c-.459.972-.968 1.662-1.525 2.066-.56.404-1.205.607-1.936.607-1.26 0-2.216-.511-2.863-1.531-.521-.825-.782-1.846-.782-3.066 0-1.493.383-2.683 1.15-3.568.767-.884 1.664-1.326 2.695-1.326.86 0 1.606.368 2.24 1.108.63.737.974 1.83 1.021 3.282h-4.683c.056 1.202.356 2.152.905 2.85zm1.542-3.462c0-1.03-.053-1.735-.161-2.12-.107-.383-.273-.674-.498-.872-.129-.116-.3-.173-.514-.173-.319 0-.578.163-.779.49-.36.568-.541 1.347-.541 2.338v.337h2.493zm-7.411-.321c-.359 0-.656-.123-.891-.375-.234-.248-.379-.694-.434-1.334-.036-.403-.125-.685-.265-.847a.636.636 0 00-.492-.24c-.294 0-.543.165-.75.488-.317.491-.475 1.245-.475 2.257 0 .84.127 1.646.382 2.413.254.769.601 1.341 1.045 1.717.335.273.727.412 1.183.412.295 0 .578-.075.843-.221.268-.146.583-.422.948-.83l.281.23c-.4.799-.898 1.392-1.494 1.78a3.42 3.42 0 01-1.901.585c-1.134 0-2.039-.45-2.716-1.35-.678-.9-1.018-1.983-1.018-3.248 0-1.22.31-2.292.931-3.217.745-1.117 1.775-1.677 3.086-1.677.881 0 1.581.233 2.101.7.519.466.778.986.778 1.56 0 .366-.104.656-.315.873-.209.216-.487.324-.827.324zm-9.109-5.368c-.457 0-.844-.171-1.166-.508a1.72 1.72 0 01-.483-1.229c0-.48.162-.892.483-1.232a1.544 1.544 0 011.166-.516c.465 0 .857.174 1.179.516.321.34.482.751.482 1.232s-.163.891-.488 1.229a1.57 1.57 0 01-1.173.508zm-2.171 11.133V26.3c.385-.014.673-.128.86-.349.125-.146.188-.538.188-1.173v-5.223c0-.636-.073-1.041-.216-1.218-.144-.177-.422-.277-.832-.303v-.343h3.587v7.087c0 .635.071 1.042.212 1.217.143.177.42.278.838.305v.343h-4.637zm-1.161-8.292c-.17.175-.424.685-.763 1.533l-2.824 7.029h-.407l-2.883-6.954c-.346-.837-.615-1.366-.81-1.59-.139-.165-.346-.277-.618-.334v-.344h4.507v.344c-.287 0-.48.053-.583.162a.675.675 0 00-.218.501c0 .238.13.686.4 1.34l1.405 3.36 1.114-2.901c.321-.834.483-1.423.483-1.77a.628.628 0 00-.205-.486c-.14-.124-.38-.194-.724-.206v-.344h2.781v.344a1.114 1.114 0 00-.655.316zM90.66 19.69c-.194.237-.43.356-.706.356-.324 0-.602-.111-.839-.333a5.466 5.466 0 00-.42-.37.379.379 0 00-.209-.058.714.714 0 00-.488.21c-.241.218-.427.527-.55.93a7 7 0 00-.283 2.05l.013 2.06.004.538c0 .363.021.598.064.699a.75.75 0 00.324.38c.145.08.387.127.73.148v.343h-4.614V26.3c.374-.034.626-.14.758-.323.132-.182.197-.663.197-1.445V19.58c0-.512-.024-.837-.072-.978a.774.774 0 00-.267-.394c-.116-.084-.322-.14-.616-.173v-.343h3.447l.014 2.024c.56-.924 1.05-1.537 1.471-1.84.421-.302.827-.454 1.22-.454.338 0 .609.11.812.332.202.22.305.533.305.936 0 .43-.098.765-.294 1.001zm-11.872 4.971c.42.536.925.804 1.515.804.366 0 .696-.106.995-.319.299-.214.616-.598.959-1.152l.31.245c-.461.972-.97 1.662-1.527 2.066-.558.404-1.203.607-1.935.607-1.26 0-2.214-.511-2.862-1.531-.522-.825-.78-1.846-.78-3.066 0-1.493.381-2.683 1.148-3.568.765-.884 1.663-1.326 2.693-1.326.86 0 1.608.368 2.24 1.108.632.737.974 1.83 1.023 3.282h-4.683c.054 1.202.356 2.152.904 2.85zm1.543-3.462c0-1.03-.054-1.735-.161-2.12-.107-.383-.273-.674-.5-.872-.128-.116-.299-.173-.513-.173-.319 0-.578.163-.78.49-.36.568-.541 1.347-.541 2.338v.337h2.495zm-14.423-6.973c.385.281 1.276.785 2.67 1.504 1.951 1.002 3.26 1.947 3.928 2.838.66.888.99 1.906.99 3.051 0 1.455-.54 2.707-1.62 3.754-1.08 1.048-2.452 1.572-4.115 1.572a6.448 6.448 0 01-1.479-.165c-.464-.113-1.048-.322-1.75-.63-.39-.172-.711-.256-.964-.256-.213 0-.438.086-.673.259-.237.174-.429.436-.575.792h-.437v-6.572h.437c.358 1.848 1.053 3.258 2.078 4.228 1.024.971 2.13 1.458 3.316 1.458.915 0 1.645-.26 2.189-.784.541-.525.814-1.132.814-1.824 0-.411-.107-.809-.314-1.195-.208-.386-.526-.752-.953-1.098-.425-.346-1.18-.799-2.263-1.355-1.518-.78-2.605-1.444-3.262-1.99-.656-.55-1.16-1.161-1.513-1.835a4.745 4.745 0 01-.53-2.235c0-1.385.485-2.566 1.456-3.543.97-.972 2.19-1.463 3.666-1.463.538 0 1.058.07 1.564.205.383.103.85.29 1.4.567.55.276.936.413 1.154.413.213 0 .38-.067.503-.203.12-.136.234-.461.341-.982h.374l.125 5.82h-.499c-.239-1.463-.819-2.64-1.746-3.53-.926-.89-1.93-1.336-3.009-1.336-.832 0-1.491.235-1.977.702-.486.466-.729 1.004-.729 1.61 0 .387.086.73.258 1.03.24.401.62.8 1.145 1.193zm-6.919 7.051c-.373 1.034-.858 1.886-1.453 2.557a7.206 7.206 0 01-2.056 1.62c-.777.405-1.727.718-2.85.943-.495.102-1.278.155-2.342.155h-7.407v-.46h.551c.481 0 .851-.08 1.108-.241.259-.161.448-.379.572-.655.072-.181.108-.726.108-1.635V12.125c0-.9-.044-1.463-.133-1.688-.091-.224-.273-.422-.547-.592-.274-.169-.643-.25-1.108-.25h-.551v-.462h7.407c1.976 0 3.566.283 4.771.847 1.473.694 2.589 1.743 3.35 3.147.76 1.405 1.14 2.993 1.14 4.767 0 1.223-.186 2.353-.56 3.383zm-4.842-8.67c-.53-1.045-1.211-1.757-2.04-2.135-.587-.266-1.561-.394-2.921-.385v13.62c0 .718.032 1.16.098 1.324a.714.714 0 00.33.374c.22.129.538.194.954.194 1.358 0 2.397-.491 3.115-1.469.977-1.322 1.465-3.371 1.465-6.155 0-2.239-.333-4.027-1.002-5.367zm-12.909 1.226c-.262-1.09-.551-1.87-.87-2.347a3.397 3.397 0 00-1.31-1.137c-.31-.153-.853-.23-1.628-.23h-1.218V23.56c0 .899.046 1.462.14 1.688.091.224.273.42.545.59.27.169.641.254 1.11.254h.545v.46h-8.646v-.46h.55c.478 0 .865-.092 1.156-.275.213-.121.38-.327.502-.622.088-.208.134-.753.134-1.635V10.12H31.03c-1.127 0-1.945.247-2.453.745-.715.693-1.168 1.683-1.357 2.969h-.436v-4.7h14.89v4.7h-.437zM21.812 26.552l-5.328-7.955h-1.082v4.93c0 .936.056 1.523.169 1.768.112.242.308.434.591.579.282.144.81.218 1.582.218v.46H9.189v-.46c.782 0 1.31-.076 1.589-.224.277-.15.473-.342.585-.58.112-.239.168-.825.168-1.76V12.155c0-.935-.056-1.524-.168-1.766-.112-.243-.31-.436-.592-.58-.282-.145-.81-.216-1.582-.216v-.461h7.706c2.007 0 3.475.145 4.403.437.931.29 1.69.827 2.277 1.607.588.783.88 1.7.88 2.752 0 1.282-.442 2.341-1.32 3.18-.564.529-1.352.927-2.363 1.19l3.967 5.924c.523.764.892 1.24 1.114 1.43.333.266.721.411 1.162.44v.459h-5.203zm-2.266-15.52c-.588-.632-1.536-.945-2.841-.945h-1.303v7.59h.694c1.127 0 1.97-.108 2.531-.326.56-.217 1-.608 1.32-1.176.32-.566.48-1.305.48-2.218 0-1.32-.293-2.295-.881-2.925z" fill="#fff"/><path fill-rule="evenodd" clip-rule="evenodd" d="M13.525 40.307h-.353l-.089-.236c-.13-.347-.317-.59-.56-.727-.177-.098-.405-.147-.687-.147H11.6c-.137 0-.224.014-.26.044-.036.03-.054.087-.054.172v2.582c0 .235.019.396.059.483.085.177.265.265.54.265h.167v.324l-1.425-.02-1.345.03v-.324l.167-.01c.17 0 .3-.052.388-.159.088-.104.132-.303.132-.59v-2.135c0-.297-.042-.495-.127-.596-.086-.104-.216-.154-.393-.154h-.167v-.334l1.345.03 2.702-.03.196 1.532zm5.884.594c0 .604-.18 1.125-.54 1.566a1.831 1.831 0 01-1.483.709c-.255 0-.508-.053-.757-.157a2.043 2.043 0 01-.658-.433v2.04c0 .244.02.404.06.482.084.179.27.268.559.268h.167v.334l-1.444-.03-1.346.03v-.325l.168-.01c.176 0 .307-.05.392-.152.085-.101.128-.303.128-.605v-4.3c0-.294-.03-.502-.089-.62-.098-.203-.298-.304-.599-.304v-.336a9.63 9.63 0 001.056-.152c.292-.063.581-.146.87-.253.032.18.054.316.063.415.01.098.015.247.015.443.164-.255.373-.455.629-.599.255-.144.54-.216.854-.216.577 0 1.051.226 1.425.68.354.425.53.934.53 1.525zm-1.404.07c0-.612-.112-1.052-.334-1.32a.854.854 0 00-.688-.317.953.953 0 00-.712.312c-.2.206-.3.492-.3.861v.789c0 .451.089.787.265 1.003.158.192.377.287.659.287a.951.951 0 00.717-.297c.262-.275.393-.715.393-1.319zm6.699-1.862c-.296.045-.538.27-.722.677-.146.334-.26.596-.346.786l-1.8 3.92c-.202.445-.345.723-.428.834-.22.302-.48.452-.778.452a.584.584 0 01-.402-.142.497.497 0 01-.16-.388c0-.151.048-.275.147-.374a.717.717 0 01.285-.167c.222-.072.445-.143.667-.216.25-.157.498-.523.747-1.1l.098-.225-1.473-3.36a3.005 3.005 0 00-.158-.344.733.733 0 00-.56-.354v-.334l1.346.03 1.218-.03v.334h-.108c-.164 0-.278.025-.343.074a.247.247 0 00-.099.211.89.89 0 00.07.31c.045.12.087.23.127.329l.677 1.66.6-1.395.137-.334c.066-.177.099-.334.099-.472 0-.157-.058-.26-.173-.309a.946.946 0 00-.377-.074v-.334l.913.03.795-.03v.335zm5.736 3.958l-1.346-.02-1.247.03v-.334l.118-.01c.157-.013.265-.052.324-.118.098-.104.147-.314.147-.628V39.57c0-.157-.022-.258-.068-.304-.046-.046-.148-.069-.304-.069h-.786c-.158 0-.26.023-.305.069-.046.045-.07.147-.07.304v2.417c0 .314.05.524.149.628.059.066.166.105.323.118h.119v.334l-1.248-.02-1.345.03v-.334l.166-.01c.17 0 .3-.052.388-.157.089-.105.133-.303.133-.59v-2.13c0-.294-.043-.494-.128-.595-.085-.102-.216-.153-.393-.153h-.166v-.334l1.345.03h2.849l1.345-.03v.325l-.166.01c-.171 0-.295.045-.374.137-.098.118-.147.323-.147.61v2.13c0 .294.043.494.128.595.085.101.216.152.393.152h.166v.334zm6.031 0l-1.345-.02-1.247.03v-.334l.118-.01c.157-.013.264-.052.324-.118.098-.104.147-.314.147-.628V39.57c0-.157-.023-.258-.069-.304-.046-.046-.147-.069-.305-.069h-.785c-.157 0-.259.023-.305.069-.046.045-.069.147-.069.304v2.417c0 .314.05.524.148.628.059.066.166.105.324.118h.118v.334l-1.248-.02-1.346.03v-.334l.167-.01c.17 0 .3-.052.389-.157.088-.105.132-.303.132-.59v-2.13c0-.294-.042-.494-.128-.595-.085-.102-.216-.153-.393-.153h-.167v-.334l1.346.03h2.849l1.345-.03v.325l-.166.01c-.17 0-.295.045-.374.137-.098.118-.147.323-.147.61v2.13c0 .294.042.494.128.595.085.101.216.152.392.152h.167v.334zm5.168-.501c-.145.21-.32.36-.526.452a1.521 1.521 0 01-.624.138c-.216 0-.408-.053-.574-.158a.782.782 0 01-.34-.481c-.17.177-.353.318-.55.422a1.744 1.744 0 01-.834.217c-.36 0-.646-.112-.855-.335a1.01 1.01 0 01-.275-.716c0-.426.222-.786.668-1.081.281-.183.727-.373 1.336-.57.216-.072.355-.13.418-.177a.21.21 0 00.093-.177v-.5c0-.178-.056-.309-.167-.394a.675.675 0 00-.423-.127c-.111 0-.21.02-.294.059a.643.643 0 00-.246.226c-.079.229-.144.4-.196.51a.494.494 0 01-.492.315.564.564 0 01-.417-.162.529.529 0 01-.162-.388c0-.223.104-.42.314-.59.144-.118.34-.208.59-.27.249-.062.586-.093 1.01-.093.735 0 1.242.164 1.524.49.183.21.275.495.275.856v2.023c0 .15.008.254.024.31.017.055.077.083.182.083a.437.437 0 00.344-.157l.197.275zm-2.063-.874V40.63l-.256.118c-.255.118-.438.225-.55.324a.922.922 0 00-.343.727c0 .196.059.347.176.451a.485.485 0 00.344.129.593.593 0 00.447-.192.693.693 0 00.182-.496zm10.088.667c-.125.322-.318.544-.58.669a1.517 1.517 0 01-.658.128c-.236 0-.435-.046-.599-.138-.242-.137-.439-.383-.59-.737l-.343-.786c-.072-.17-.137-.285-.197-.343a.476.476 0 00-.363-.148h-.246v.987c0 .231.017.39.05.476.071.184.215.276.431.276h.148v.334l-1.287-.03-1.287.03v-.324l.147-.01c.217 0 .357-.089.423-.267.04-.105.059-.267.059-.483v-2.135c0-.229-.017-.388-.05-.473-.071-.184-.215-.276-.432-.276h-.147v-.334l1.287.03 1.287-.03v.324l-.148.01c-.216 0-.357.088-.422.267-.039.104-.059.266-.059.484v.752h.275c.32 0 .583-.194.786-.58.131-.282.229-.49.295-.628a1.53 1.53 0 01.354-.472c.19-.164.418-.246.687-.246.216 0 .38.053.492.157.11.105.166.23.166.374a.485.485 0 01-.127.343.473.473 0 01-.364.138c-.105 0-.226-.046-.364-.138a.377.377 0 00-.196-.068c-.118 0-.298.222-.54.668-.144.268-.308.461-.491.58l.079.048c.333.086.625.288.874.61l.57.844c.058.072.117.13.176.172a.364.364 0 00.217.063c.143 0 .254-.087.333-.265l.354.147zm5.216-1.444c0 .663-.244 1.201-.732 1.617a2.573 2.573 0 01-1.724.624c-.727 0-1.32-.246-1.778-.737-.413-.439-.619-.947-.619-1.523a2 2 0 01.727-1.586 2.53 2.53 0 011.7-.624c.66 0 1.23.208 1.709.624.478.416.717.951.717 1.605zm-1.464.099c0-.773-.08-1.288-.24-1.547a.785.785 0 00-.712-.388c-.387 0-.656.19-.806.57-.111.275-.167.687-.167 1.237 0 .74.092 1.248.275 1.523.157.236.39.354.698.354.373 0 .634-.184.785-.55.112-.275.167-.675.167-1.199zm8.389 2.053l-1.346-.02-1.297.03v-.334l.119-.01c.163 0 .28-.036.353-.108.111-.113.167-.327.167-.645v-1.8l-1.425 2.897h-.294l-1.425-2.878v1.788c0 .314.056.527.167.638.072.072.19.108.354.108h.118v.334l-.805-.02-.954.03v-.334l.167-.01c.171 0 .292-.05.364-.147.105-.152.157-.44.157-.868v-1.89c0-.19-.023-.338-.068-.445-.08-.183-.223-.274-.433-.274h-.157v-.334l.383.01h1.307l1.385 2.76 1.355-2.76h1.807v.314l-.166.01c-.17 0-.295.046-.374.137-.098.118-.147.323-.147.61v2.13c0 .294.042.494.128.595.085.102.216.152.393.152h.166v.334zm6.031 0l-1.346-.02-1.247.03v-.334l.118-.01c.156-.013.265-.052.324-.118.098-.104.147-.314.147-.628V39.57c0-.157-.023-.258-.069-.304-.045-.046-.147-.069-.304-.069h-.786c-.157 0-.259.023-.305.069-.045.045-.068.147-.068.304v2.417c0 .314.049.524.147.628.059.066.167.105.324.118h.118v.334l-1.247-.02-1.346.03v-.334l.167-.01c.17 0 .3-.052.388-.157.088-.105.132-.303.132-.59v-2.13c0-.294-.042-.494-.127-.595-.085-.102-.216-.153-.393-.153h-.167v-.334l1.346.03h2.848l1.346-.03v.325l-.167.01c-.17 0-.295.045-.373.137-.098.118-.147.323-.147.61v2.13c0 .294.042.494.127.595.085.101.216.152.393.152h.167v.334zm5.167-.501c-.144.21-.32.36-.525.452a1.52 1.52 0 01-.624.138 1.06 1.06 0 01-.575-.158.787.787 0 01-.34-.481 2.18 2.18 0 01-.549.422 1.743 1.743 0 01-.835.217c-.36 0-.645-.112-.855-.335a1.011 1.011 0 01-.274-.716c0-.426.222-.786.667-1.081.282-.183.728-.373 1.336-.57.216-.072.356-.13.418-.177a.21.21 0 00.093-.177v-.5c0-.178-.056-.309-.167-.394a.675.675 0 00-.422-.127.7.7 0 00-.295.059.65.65 0 00-.246.226c-.079.229-.144.4-.196.51a.493.493 0 01-.491.315.564.564 0 01-.418-.162.528.528 0 01-.162-.388c0-.223.105-.42.314-.59.144-.118.34-.208.59-.27.249-.062.586-.093 1.011-.093.734 0 1.241.164 1.523.49.184.21.275.495.275.856v2.023c0 .15.008.254.025.31.016.055.076.083.181.083a.438.438 0 00.344-.157l.197.275zm-2.063-.874V40.63l-.255.118c-.256.118-.44.225-.55.324a.922.922 0 00-.344.727c0 .196.059.347.177.451a.486.486 0 00.344.129.593.593 0 00.447-.192.693.693 0 00.181-.496zm7.957 1.375l-1.346-.02-1.297.03v-.334l.168-.01c.15 0 .258-.036.323-.108.099-.111.148-.324.148-.638v-.983h-1.67v.983c0 .307.05.517.147.628.073.08.18.118.325.118h.166v.334l-1.296-.02-1.346.03v-.334l.167-.01c.17 0 .3-.052.388-.157.088-.105.133-.303.133-.59v-2.13c0-.294-.043-.494-.128-.595-.085-.102-.216-.153-.393-.153h-.167v-.334l1.346.03 1.296-.03v.325l-.166.01c-.151 0-.26.035-.325.108-.098.113-.147.327-.147.643v.751h1.67v-.75c0-.31-.05-.522-.148-.634-.071-.079-.18-.118-.323-.118h-.168v-.334l1.297.03 1.346-.03v.324l-.167.01c-.17 0-.295.046-.373.137-.098.118-.148.323-.148.61v2.13c0 .294.043.494.128.595.085.102.216.152.393.152h.167v.334zm6.168 0l-1.346-.02-1.296.03v-.334l.167-.01c.15 0 .259-.036.324-.108.098-.111.147-.324.147-.638v-1.798l-1.67 2.073v.048a.42.42 0 00.124.29.453.453 0 00.348.133h.167v.334l-1.296-.02-1.346.03v-.334l.167-.01c.17 0 .3-.052.387-.157.089-.105.133-.303.133-.59v-2.13c0-.294-.042-.494-.127-.595-.085-.102-.216-.153-.393-.153h-.167v-.334l1.346.03 1.296-.03v.325l-.167.01c-.15 0-.258.035-.324.108-.098.113-.148.325-.148.642v1.794l1.67-2.073v-.1a.46.46 0 00-.466-.371h-.172v-.334l1.296.03 1.346-.03v.324l-.167.01c-.17 0-.294.046-.373.137-.098.118-.147.323-.147.61v2.13c0 .294.043.494.127.595.086.102.216.152.393.152h.167v.334zm4.99-6.077c0 .316-.14.583-.422.8-.315.244-.727.366-1.238.366-.517 0-.923-.113-1.218-.341-.295-.228-.441-.503-.441-.825 0-.16.045-.283.137-.375a.512.512 0 01.383-.14c.163 0 .288.04.373.119a.387.387 0 01.098.433.517.517 0 01-.078.127c-.06.091-.088.163-.088.216 0 .124.07.229.21.314.141.086.35.128.624.128.269 0 .476-.045.62-.133.144-.088.215-.191.215-.31a.25.25 0 00-.024-.107 1.028 1.028 0 00-.064-.108.444.444 0 01-.108-.275c0-.118.04-.215.122-.29.082-.075.209-.113.379-.113.21 0 .357.072.441.218a.58.58 0 01.08.296zm1.18 6.077l-1.346-.02-1.297.03v-.334l.167-.01c.15 0 .26-.036.324-.108.098-.111.147-.324.147-.638v-1.798l-1.67 2.073v.048c0 .105.042.202.123.29a.455.455 0 00.349.133h.167v.334l-1.296-.02-1.346.03v-.334l.167-.01c.17 0 .3-.052.388-.157.088-.105.133-.303.133-.59v-2.13c0-.294-.043-.494-.129-.595-.085-.102-.215-.153-.392-.153h-.167v-.324l1.346.02 1.296-.03v.325l-.167.01c-.15 0-.258.035-.324.108-.098.113-.147.325-.147.642v1.794l1.67-2.073v-.1a.458.458 0 00-.467-.371h-.172v-.325l1.297.02 1.345-.03v.325l-.166.01c-.17 0-.295.046-.373.137-.099.118-.148.323-.148.61v2.13c0 .294.042.494.128.595.084.102.216.152.393.152h.166v.334z" fill="#1E2E56"/></svg><svg fill="none" viewBox="0 0 24 24" id="btn-phone-icon" xmlns="http://www.w3.org/2000/svg"><path d="M7.902 16.098c5.607 5.607 10.964 6.794 12.941 6.902 1.263-1.851 1.797-3.38 2.157-4.746-1.366-1.33-3.354-2.687-5.176-3.45l-2.157 2.156c-.737-.197-2.76-1.033-5.176-3.45-2.418-2.419-3.254-4.44-3.452-5.177l2.158-2.157C8.433 4.354 7.076 2.366 5.745 1 4.38 1.36 2.851 1.893 1 3.157c.108 1.977 1.295 7.333 6.902 12.941zm5.084-7.733a2.682 2.682 0 012.682 2.683m-2.682-5.365a5.366 5.366 0 015.364 5.365M12.986 3a8.048 8.048 0 018.047 8.047" stroke="#1F2532" stroke-miterlimit="10"/></svg><svg fill="none" viewBox="0 0 40 40" id="fb" xmlns="http://www.w3.org/2000/svg"><path class="polygon" fill="#FFCE00" d="M0 0h40v40H0z"/><path d="M21.193 28v-7.298h2.357l.354-2.845h-2.711v-1.815c0-.824.219-1.385 1.355-1.385h1.451v-2.545A18.817 18.817 0 0021.887 12c-2.091 0-3.522 1.326-3.522 3.76v2.098H16v2.845h2.365V28h2.828z" fill="#fff"/></svg><svg fill="none" viewBox="0 0 40 40" id="inst" xmlns="http://www.w3.org/2000/svg"><path class="polygon" fill="#FFCE00" d="M0 0h40v40H0z"/><path d="M27.953 16.815c-.036-.777-.152-1.383-.379-1.965a4.074 4.074 0 00-.956-1.469 4.068 4.068 0 00-1.469-.957c-.582-.226-1.188-.343-1.965-.378C22.357 12.009 22.083 12 20 12s-2.358.009-3.185.046c-.777.036-1.383.153-1.965.379-.58.225-1.033.52-1.469.957a4.073 4.073 0 00-.957 1.468c-.226.582-.342 1.188-.378 1.965C12.008 17.642 12 17.917 12 20c0 2.084.009 2.358.046 3.185.036.777.152 1.384.378 1.965.225.58.52 1.032.957 1.469.437.437.89.731 1.469.957.582.226 1.188.343 1.965.378.827.037 1.101.046 3.185.046s2.358-.009 3.185-.047c.777-.035 1.383-.152 1.965-.378a4.09 4.09 0 001.469-.957c.437-.436.731-.889.956-1.469.227-.581.343-1.188.379-1.965.036-.826.046-1.1.046-3.184 0-2.083-.01-2.358-.047-3.185zM20 25.995c-2.046 0-2.288-.008-3.093-.045-.705-.032-1.081-.147-1.33-.244a2.063 2.063 0 01-.777-.505 2.089 2.089 0 01-.506-.778c-.097-.248-.211-.625-.244-1.329-.037-.807-.045-1.048-.045-3.094 0-2.045.008-2.288.044-3.093.032-.705.147-1.081.244-1.33.125-.32.267-.538.506-.777a2.07 2.07 0 01.777-.505c.249-.097.625-.212 1.33-.244.804-.038 1.046-.046 3.094-.046s2.29.008 3.093.044c.705.032 1.081.147 1.33.244.32.124.538.266.777.505s.381.458.506.777c.097.249.212.625.243 1.33.037.807.045 1.049.045 3.095 0 2.046-.008 2.288-.045 3.094-.031.704-.146 1.081-.243 1.329-.125.32-.267.538-.506.777a2.06 2.06 0 01-.777.506c-.249.097-.625.212-1.33.244-.806.037-1.047.045-3.093.045z" fill="#fff"/><path d="M20 15.741A4.264 4.264 0 0015.741 20 4.264 4.264 0 0020 24.259 4.264 4.264 0 0024.259 20 4.264 4.264 0 0020 15.741zm0 6.513A2.256 2.256 0 0117.747 20 2.256 2.256 0 0120 17.746 2.256 2.256 0 0122.253 20 2.257 2.257 0 0120 22.254z" fill="#fff"/><path d="M24.104 17.127a1.232 1.232 0 100-2.464 1.232 1.232 0 000 2.464z" fill="#fff"/></svg><svg fill="none" viewBox="0 0 40 40" id="ok" xmlns="http://www.w3.org/2000/svg"><path class="polygon" fill="#FFCE00" d="M0 0h40v40H0z"/><path d="M20 20.258a4.133 4.133 0 004.129-4.128A4.134 4.134 0 0020 12a4.134 4.134 0 00-4.129 4.13A4.133 4.133 0 0020 20.258zm0-5.838a1.71 1.71 0 011.709 1.709A1.71 1.71 0 0120 17.838a1.711 1.711 0 01-1.709-1.709c0-.942.767-1.709 1.709-1.709zm1.67 9.207a7.728 7.728 0 002.398-.993 1.21 1.21 0 00-1.289-2.048 5.246 5.246 0 01-5.56 0 1.209 1.209 0 10-1.288 2.048 7.747 7.747 0 002.398.993l-2.309 2.309a1.21 1.21 0 101.712 1.71L20 25.376l2.27 2.27a1.207 1.207 0 001.709 0 1.204 1.204 0 000-1.71l-2.309-2.31z" fill="#fff"/></svg><svg fill="none" viewBox="0 0 40 40" id="vk" xmlns="http://www.w3.org/2000/svg"><path class="polygon" fill="#FFCE00" d="M0 0h40v40H0z"/><path fill-rule="evenodd" clip-rule="evenodd" d="M19.828 23.963h.956s.289-.032.437-.188c.136-.145.132-.414.132-.414s-.019-1.265.577-1.453c.586-.183 1.34 1.224 2.139 1.765.605.408 1.064.32 1.064.32l2.137-.03s1.117-.068.588-.936c-.043-.068-.309-.639-1.59-1.813-1.34-1.225-1.16-1.027.455-3.147.982-1.292 1.375-2.08 1.252-2.418-.117-.322-.84-.237-.84-.237l-2.406.015s-.178-.023-.311.054c-.129.076-.211.254-.211.254s-.381 1-.889 1.851c-1.072 1.793-1.5 1.888-1.676 1.776-.407-.26-.305-1.043-.305-1.6 0-1.738.267-2.463-.521-2.65-.261-.062-.454-.103-1.122-.11-.859-.008-1.585.002-1.997.202-.273.132-.485.426-.356.443.159.021.519.096.71.352.247.331.238 1.073.238 1.073s.142 2.047-.331 2.301c-.325.174-.77-.182-1.725-1.809-.488-.834-.858-1.755-.858-1.755s-.071-.172-.198-.264a1.004 1.004 0 00-.369-.148l-2.287.015s-.343.01-.469.157c-.112.131-.009.401-.009.401s1.79 4.13 3.816 6.21c1.859 1.91 3.969 1.783 3.969 1.783z" fill="#fff"/></svg></svg>