<?xml version="1.0" encoding="utf-8"?><svg viewBox="0 0 12 12" xmlns="http://www.w3.org/2000/svg" xmlns:xlink="http://www.w3.org/1999/xlink"><style>:root>svg{display:none}:root>svg:target{display:block}</style><svg fill="none" viewBox="0 0 12 12" id="facebook" xmlns="http://www.w3.org/2000/svg"><path d="M9 .002L7.443 0C5.695 0 4.565 1.16 4.565 2.953v1.362H3.001a.245.245 0 00-.245.245v1.973c0 .135.11.244.245.244h1.564v4.978c0 .135.11.245.245.245h2.041c.136 0 .245-.11.245-.245V6.777h1.83c.135 0 .244-.11.244-.244V4.56a.245.245 0 00-.244-.245h-1.83V3.16c0-.555.132-.837.855-.837h1.048c.135 0 .245-.11.245-.245V.247A.245.245 0 009 .002z" fill="#7B808A"/></svg><svg fill="none" viewBox="0 0 12 12" id="instagram" xmlns="http://www.w3.org/2000/svg"><path d="M8.425 0h-4.85A3.579 3.579 0 000 3.575v4.85A3.579 3.579 0 003.575 12h4.85A3.579 3.579 0 0012 8.425v-4.85A3.579 3.579 0 008.425 0zm2.368 8.425a2.368 2.368 0 01-2.368 2.368h-4.85a2.368 2.368 0 01-2.368-2.368v-4.85a2.368 2.368 0 012.368-2.368h4.85a2.368 2.368 0 012.368 2.368v4.85z" fill="#7B808A"/><path d="M6 2.896A3.107 3.107 0 002.896 6 3.107 3.107 0 006 9.104 3.107 3.107 0 009.104 6 3.107 3.107 0 006 2.896zm0 5a1.896 1.896 0 110-3.792 1.896 1.896 0 010 3.793zm3.11-4.233a.744.744 0 100-1.487.744.744 0 000 1.487z" fill="#7B808A"/></svg><svg fill="none" viewBox="0 0 12 12" id="vk" xmlns="http://www.w3.org/2000/svg"><g clip-path="url(#cclip0)"><path d="M11.936 8.76a.81.81 0 00-.04-.078c-.209-.375-.606-.835-1.194-1.381l-.012-.013-.006-.006-.006-.006h-.007a7.177 7.177 0 01-.506-.512c-.13-.167-.158-.336-.087-.507.05-.129.237-.401.562-.818.17-.22.306-.398.406-.531.72-.958 1.033-1.57.937-1.837l-.037-.062c-.025-.038-.09-.072-.194-.103a.983.983 0 00-.4-.016l-1.799.012a.233.233 0 00-.125.004l-.081.018-.032.016-.024.019a.278.278 0 00-.07.065.429.429 0 00-.062.11c-.195.504-.418.972-.668 1.406a13.25 13.25 0 01-.425.671c-.13.19-.237.33-.325.419-.087.09-.166.161-.237.215-.071.054-.125.077-.163.069a4.601 4.601 0 01-.106-.025.416.416 0 01-.14-.153.685.685 0 01-.072-.244 2.686 2.686 0 01-.02-.553 9.28 9.28 0 00.007-.262c0-.158.003-.33.01-.516.006-.185.01-.332.015-.44a9.33 9.33 0 00.006-.344c0-.12-.007-.215-.022-.284a.973.973 0 00-.065-.2.337.337 0 00-.128-.15.722.722 0 00-.21-.084 4.157 4.157 0 00-.843-.081c-.775-.009-1.272.041-1.493.15a.842.842 0 00-.238.187c-.075.092-.085.142-.03.15.25.037.426.127.53.268l.038.076a1.2 1.2 0 01.087.287c.03.137.048.29.056.456.021.304.021.564 0 .78a8.33 8.33 0 01-.059.507 1.014 1.014 0 01-.16.431.107.107 0 01-.03.031.468.468 0 01-.17.032c-.058 0-.128-.03-.212-.088a1.5 1.5 0 01-.259-.24 3.214 3.214 0 01-.303-.428 7.47 7.47 0 01-.35-.65l-.1-.181a15.575 15.575 0 01-.256-.51 9.818 9.818 0 01-.287-.646.412.412 0 00-.15-.2l-.031-.019a.663.663 0 00-.244-.094L.4 2.89c-.175 0-.294.04-.356.119l-.025.037a.202.202 0 00-.019.1.48.48 0 00.038.169c.25.587.521 1.153.815 1.7.293.545.549.984.765 1.317.217.334.437.648.662.944.225.295.374.485.447.568.073.084.13.146.172.188l.156.15c.1.1.247.22.44.359.194.14.409.277.644.412.236.136.51.246.822.331.312.086.616.12.912.104h.719a.498.498 0 00.33-.138l.026-.031a.414.414 0 00.046-.116.635.635 0 00.022-.172 2.14 2.14 0 01.04-.484c.032-.143.067-.252.107-.325a.799.799 0 01.24-.274.408.408 0 01.05-.022c.1-.034.218-.001.354.097.135.098.262.218.38.362.12.144.262.305.429.484.167.18.312.313.437.4l.125.075c.084.05.192.096.325.138a.7.7 0 00.35.03l1.6-.024a.725.725 0 00.368-.078c.087-.052.14-.11.156-.172a.483.483 0 00.003-.213.786.786 0 00-.044-.165z" fill="#7B808A"/></g><defs><clipPath id="cclip0"><path fill="#fff" d="M0 0h12v12H0z"/></clipPath></defs></svg><svg fill="none" viewBox="0 0 12 12" id="youtube" xmlns="http://www.w3.org/2000/svg"><path d="M9.508 1.754H2.492A2.492 2.492 0 000 4.247v3.507a2.492 2.492 0 002.492 2.492h7.016A2.492 2.492 0 0012 7.754V4.247a2.492 2.492 0 00-2.492-2.493zM7.822 6.171L4.541 7.736a.132.132 0 01-.189-.12V4.39c0-.098.104-.162.192-.117l3.281 1.662c.098.05.096.19-.003.237z" fill="#7B808A"/></svg></svg>