<?xml version="1.0" encoding="utf-8"?><svg viewBox="0 0 80 80" xmlns="http://www.w3.org/2000/svg" xmlns:xlink="http://www.w3.org/1999/xlink"><style>:root>svg{display:none}:root>svg:target{display:block}</style><svg fill="none" viewBox="0 0 34 34" id="account" xmlns="http://www.w3.org/2000/svg"><path d="M33 17c0-8.843-7.156-16-16-16C8.157 1 1 8.156 1 17c0 8.765 7.096 16 16 16 8.867 0 16-7.195 16-16zM17 2.875c7.789 0 14.125 6.336 14.125 14.125 0 2.85-.847 5.588-2.419 7.907-6.31-6.788-17.09-6.8-23.412 0A14.06 14.06 0 012.875 17C2.875 9.211 9.211 2.875 17 2.875zM6.463 26.406c5.611-6.293 15.464-6.292 21.073 0-5.63 6.299-15.44 6.3-21.073 0z" fill="#FECD00"/><path d="M17 17c2.757 0 5-2.307 5-5.143v-1.714C22 7.307 19.757 5 17 5s-5 2.307-5 5.143v1.714C12 14.693 14.243 17 17 17zm-3.333-6.857c0-1.89 1.495-3.429 3.333-3.429s3.333 1.538 3.333 3.429v1.714c0 1.89-1.495 3.429-3.333 3.429s-3.333-1.538-3.333-3.429v-1.714z" fill="#FECD00"/></svg><svg fill="none" viewBox="0 0 26 14" id="arrow" xmlns="http://www.w3.org/2000/svg"><path d="M0 7h24m0 0l-8-6m8 6l-8 6" stroke="#fff" stroke-width="2"/></svg><svg fill="none" viewBox="0 0 40 40" id="btn-icon" xmlns="http://www.w3.org/2000/svg"><circle opacity=".3" cx="20" cy="20" r="19.5" stroke="#1C1D1F"/><path d="M11.429 20H28.57m0 0l-5.714-4.286M28.571 20l-5.714 4.286" stroke="#1C1D1F"/></svg><svg fill="none" viewBox="0 0 40 40" id="button-arrow-yellow" xmlns="http://www.w3.org/2000/svg"><circle cx="20" cy="20" r="19.5" stroke="#FECD00"/><path d="M11.429 20H28.57m0 0l-5.714-4.286M28.571 20l-5.714 4.286" stroke="#FECD00"/></svg><svg fill="none" viewBox="0 0 19 19" id="cross" xmlns="http://www.w3.org/2000/svg"><path d="M1 1l16.97 16.97M1 17.97L17.97 1" stroke="#fff" stroke-width="2"/></svg><svg fill="none" viewBox="0 0 34 34" id="globe" xmlns="http://www.w3.org/2000/svg"><path d="M5.689 5.689c6.251-6.251 16.37-6.252 22.622 0 6.252 6.251 6.252 16.37 0 22.622-6.251 6.251-16.37 6.252-22.622 0-6.251-6.251-6.252-16.37 0-22.622zm.668 20.342a16.036 16.036 0 012.39-1.77c-.557-1.924-.887-4.04-.965-6.242H3.079a13.831 13.831 0 003.278 8.012zm24.564-8.012h-4.703c-.078 2.201-.408 4.318-.965 6.242a16.1 16.1 0 012.39 1.77 13.831 13.831 0 003.278-8.012zM27.643 7.97a16.035 16.035 0 01-2.39 1.77c.557 1.924.887 4.04.965 6.242h4.703a13.832 13.832 0 00-3.278-8.012zm-9.624 1.98a13.85 13.85 0 004.752-1.204c-.864-2.225-2.458-4.895-4.752-5.556v6.76zm0 2.043v3.989h6.16a24.02 24.02 0 00-.774-5.286 15.888 15.888 0 01-5.386 1.297zm0 6.027v3.99c1.881.116 3.698.557 5.386 1.296.439-1.636.703-3.424.773-5.286H18.02zm0 6.032v6.76c2.294-.661 3.888-3.33 4.752-5.556a13.85 13.85 0 00-4.752-1.204zm-2.038 0a13.85 13.85 0 00-4.752 1.204c.864 2.225 2.458 4.895 4.752 5.556v-6.76zm0-2.043V18.02H9.82c.071 1.862.335 3.65.774 5.286a15.888 15.888 0 015.386-1.297zm0-6.027v-3.99a15.888 15.888 0 01-5.386-1.296 24.018 24.018 0 00-.773 5.286h6.159zm0-6.032V3.19c-2.294.661-3.888 3.33-4.752 5.556a13.85 13.85 0 004.752 1.204zM11.4 4.207a13.896 13.896 0 00-3.613 2.307c.52.458 1.068.873 1.64 1.245.509-1.259 1.158-2.482 1.974-3.552zm13.17 3.552a13.99 13.99 0 001.64-1.245 13.896 13.896 0 00-3.613-2.307c.816 1.07 1.466 2.294 1.974 3.552zm0 18.482c-.507 1.259-1.157 2.482-1.973 3.552a13.895 13.895 0 003.614-2.307 14.02 14.02 0 00-1.64-1.245zm-15.143 0a14.16 14.16 0 00-1.64 1.245 13.897 13.897 0 003.614 2.307c-.816-1.07-1.465-2.293-1.974-3.552zm-1.646-10.26c.078-2.201.408-4.318.965-6.242a16.038 16.038 0 01-2.39-1.77 13.832 13.832 0 00-3.278 8.012h4.703z" fill="#FECD00"/></svg><svg fill="none" viewBox="0 0 80 80" id="leaf" xmlns="http://www.w3.org/2000/svg"><path fill-rule="evenodd" clip-rule="evenodd" d="M40 1c21.492 0 39 17.387 39 39 0 21.492-17.387 39-39 39-21.613-.12-39-17.508-39-39C1 18.387 18.387 1 40 1z" fill="#233C78"/><path fill-rule="evenodd" clip-rule="evenodd" d="M22.078 31.876C32.743 39.442 35.472 50.356 32.371 64c-12.279-6.574-14.884-18.233-10.294-32.124zM58.543 16C41.178 24.93 35.1 40.93 37.705 62.14 57.178 54.946 63.132 38.078 58.543 16z" fill="#FECD00"/></svg><svg fill="none" viewBox="0 0 24 40" id="mouse" xmlns="http://www.w3.org/2000/svg"><rect x="1" y="1" width="22" height="38" rx="11" stroke="#1C1D1F" stroke-width="2"/><rect opacity=".2" x="7.5" y="8.5" width="9" height="19" rx="4.5" stroke="#1C1D1F"/><circle cx="12" cy="13" r="3" fill="#1C1D1F"/></svg></svg>