<?xml version="1.0" encoding="utf-8"?><svg viewBox="0 0 80 80" xmlns="http://www.w3.org/2000/svg" xmlns:xlink="http://www.w3.org/1999/xlink"><style>:root>svg{display:none}:root>svg:target{display:block}</style><svg fill="none" viewBox="0 0 44 36" id="Vector_5" xmlns="http://www.w3.org/2000/svg"><path d="M44 18H3m0 0L19 2M3 18l16 16" stroke="#fff" stroke-width="4"/></svg><svg fill="none" viewBox="0 0 34 34" id="account" xmlns="http://www.w3.org/2000/svg"><path d="M33 17c0-8.843-7.156-16-16-16C8.157 1 1 8.156 1 17c0 8.765 7.096 16 16 16 8.867 0 16-7.195 16-16zM17 2.875c7.789 0 14.125 6.336 14.125 14.125 0 2.85-.847 5.588-2.419 7.907-6.31-6.788-17.09-6.8-23.412 0A14.06 14.06 0 012.875 17C2.875 9.211 9.211 2.875 17 2.875zM6.463 26.406c5.611-6.293 15.464-6.292 21.073 0-5.63 6.299-15.44 6.3-21.073 0z" fill="#FECD00"/><path d="M17 17c2.757 0 5-2.307 5-5.143v-1.714C22 7.307 19.757 5 17 5s-5 2.307-5 5.143v1.714C12 14.693 14.243 17 17 17zm-3.333-6.857c0-1.89 1.495-3.429 3.333-3.429s3.333 1.538 3.333 3.429v1.714c0 1.89-1.495 3.429-3.333 3.429s-3.333-1.538-3.333-3.429v-1.714z" fill="#FECD00"/></svg><svg fill="none" viewBox="0 0 26 14" id="arrow" xmlns="http://www.w3.org/2000/svg"><path d="M0 7h24m0 0l-8-6m8 6l-8 6" stroke="#fff" stroke-width="2"/></svg><svg fill="none" viewBox="0 0 40 40" id="btn-icon" xmlns="http://www.w3.org/2000/svg"><circle opacity=".3" cx="20" cy="20" r="19.5" stroke="#1C1D1F"/><path d="M11.429 20H28.57m0 0l-5.714-4.286M28.571 20l-5.714 4.286" stroke="#1C1D1F"/></svg><svg fill="none" viewBox="0 0 40 40" id="button-arrow-yellow" xmlns="http://www.w3.org/2000/svg"><circle cx="20" cy="20" r="19.5" stroke="#FECD00"/><path d="M11.429 20H28.57m0 0l-5.714-4.286M28.571 20l-5.714 4.286" stroke="#FECD00"/></svg><svg fill="none" viewBox="0 0 24 24" id="button-ttn" xmlns="http://www.w3.org/2000/svg"><g clip-path="url(#fclip0)" fill="#8CA050"><path d="M17.435 10.39V5.846c0-.13-.06-.25-.145-.345L12.198.155A.508.508 0 0011.833 0H3.759C2.27 0 1.08 1.215 1.08 2.706v15.267c0 1.49 1.19 2.686 2.68 2.686h6.373A6.879 6.879 0 0016.024 24c3.792 0 6.888-3.081 6.888-6.878.005-3.316-2.376-6.087-5.477-6.733zm-5.102-8.634l3.416 3.596h-2.216c-.66 0-1.2-.545-1.2-1.205V1.756zM3.759 19.658c-.935 0-1.68-.75-1.68-1.686V2.707c0-.94.745-1.706 1.68-1.706h7.573v3.147c0 1.215.986 2.206 2.201 2.206h2.901v3.906c-.15-.005-.27-.02-.4-.02a6.98 6.98 0 00-4.561 1.721H5.12c-.275 0-.5.225-.5.5s.225.5.5.5h5.422c-.355.5-.65 1-.88 1.551H5.12c-.275 0-.5.225-.5.5s.225.5.5.5h4.217c-.126.5-.19 1.056-.19 1.611 0 .9.175 1.791.49 2.541H3.759v-.005zm12.27 3.347a5.884 5.884 0 01-5.877-5.878 5.88 5.88 0 015.877-5.877 5.88 5.88 0 015.878 5.877 5.883 5.883 0 01-5.878 5.878z"/><path d="M5.12 10.454h5.067c.275 0 .5-.225.5-.5s-.225-.5-.5-.5H5.12c-.275 0-.5.225-.5.5s.225.5.5.5zm13.47 6.568l-2.055 2.216v-5.462a.5.5 0 00-1 0v5.462l-2.072-2.216a.505.505 0 00-.71-.025.498.498 0 00-.025.706l2.926 3.146c.095.1.225.16.365.16.14 0 .27-.06.366-.16l2.93-3.146a.499.499 0 10-.726-.68z"/></g><defs><clipPath id="fclip0"><path fill="#fff" d="M0 0h24v24H0z"/></clipPath></defs></svg><svg fill="none" viewBox="0 0 14 14" id="cart" xmlns="http://www.w3.org/2000/svg"><path d="M13.877 3.182a.547.547 0 00-.424-.202H3.547l-.04-.372-.002-.012A2.992 2.992 0 00.547 0a.547.547 0 100 1.094c.943 0 1.748.704 1.873 1.638l.65 5.972a1.643 1.643 0 00-.965 1.523c0 .904.736 1.64 1.641 1.64h.223A1.615 1.615 0 005.496 14a1.615 1.615 0 001.528-2.133h2.359A1.615 1.615 0 0010.91 14c.89 0 1.614-.724 1.614-1.613 0-.89-.724-1.614-1.614-1.614H3.746A.547.547 0 013.2 10.2c0-.301.246-.547.547-.547h6.982c.97 0 1.861-.6 2.27-1.53a.547.547 0 00-1.002-.44c-.23.525-.74.877-1.268.877H4.155l-.488-4.485h9.113l-.267 1.283a.547.547 0 001.07.223l.405-1.941a.547.547 0 00-.11-.457zm-2.967 8.685a.52.52 0 11-.001 1.04.52.52 0 01.001-1.04zm-5.414 0a.52.52 0 11-.001 1.04.52.52 0 01.001-1.04z" fill="#465A1E"/></svg><svg fill="none" viewBox="0 0 19 19" id="cross" xmlns="http://www.w3.org/2000/svg"><path d="M1 1l16.97 16.97M1 17.97L17.97 1" stroke="#fff" stroke-width="2"/></svg><svg fill="none" viewBox="0 0 16 16" id="footer-phone" xmlns="http://www.w3.org/2000/svg"><g clip-path="url(#iclip0)"><path d="M15.565 11.742L13.332 9.51c-.798-.798-2.153-.479-2.472.558-.24.718-1.037 1.116-1.755.957-1.595-.399-3.748-2.472-4.146-4.147-.24-.718.239-1.515.956-1.754 1.037-.32 1.356-1.675.559-2.472L4.24.419c-.638-.559-1.595-.559-2.153 0L.573 1.934c-1.516 1.595.16 5.821 3.907 9.57 3.748 3.747 7.974 5.502 9.57 3.907l1.515-1.515c.558-.639.558-1.595 0-2.154z" fill="#233C78"/></g><defs><clipPath id="iclip0"><path fill="#fff" d="M0 0h16v16H0z"/></clipPath></defs></svg><svg fill="none" viewBox="0 0 34 34" id="globe" xmlns="http://www.w3.org/2000/svg"><path d="M5.689 5.689c6.251-6.251 16.37-6.252 22.622 0 6.252 6.251 6.252 16.37 0 22.622-6.251 6.251-16.37 6.252-22.622 0-6.251-6.251-6.252-16.37 0-22.622zm.668 20.342a16.036 16.036 0 012.39-1.77c-.557-1.924-.887-4.04-.965-6.242H3.079a13.831 13.831 0 003.278 8.012zm24.564-8.012h-4.703c-.078 2.201-.408 4.318-.965 6.242a16.1 16.1 0 012.39 1.77 13.831 13.831 0 003.278-8.012zM27.643 7.97a16.035 16.035 0 01-2.39 1.77c.557 1.924.887 4.04.965 6.242h4.703a13.832 13.832 0 00-3.278-8.012zm-9.624 1.98a13.85 13.85 0 004.752-1.204c-.864-2.225-2.458-4.895-4.752-5.556v6.76zm0 2.043v3.989h6.16a24.02 24.02 0 00-.774-5.286 15.888 15.888 0 01-5.386 1.297zm0 6.027v3.99c1.881.116 3.698.557 5.386 1.296.439-1.636.703-3.424.773-5.286H18.02zm0 6.032v6.76c2.294-.661 3.888-3.33 4.752-5.556a13.85 13.85 0 00-4.752-1.204zm-2.038 0a13.85 13.85 0 00-4.752 1.204c.864 2.225 2.458 4.895 4.752 5.556v-6.76zm0-2.043V18.02H9.82c.071 1.862.335 3.65.774 5.286a15.888 15.888 0 015.386-1.297zm0-6.027v-3.99a15.888 15.888 0 01-5.386-1.296 24.018 24.018 0 00-.773 5.286h6.159zm0-6.032V3.19c-2.294.661-3.888 3.33-4.752 5.556a13.85 13.85 0 004.752 1.204zM11.4 4.207a13.896 13.896 0 00-3.613 2.307c.52.458 1.068.873 1.64 1.245.509-1.259 1.158-2.482 1.974-3.552zm13.17 3.552a13.99 13.99 0 001.64-1.245 13.896 13.896 0 00-3.613-2.307c.816 1.07 1.466 2.294 1.974 3.552zm0 18.482c-.507 1.259-1.157 2.482-1.973 3.552a13.895 13.895 0 003.614-2.307 14.02 14.02 0 00-1.64-1.245zm-15.143 0a14.16 14.16 0 00-1.64 1.245 13.897 13.897 0 003.614 2.307c-.816-1.07-1.465-2.293-1.974-3.552zm-1.646-10.26c.078-2.201.408-4.318.965-6.242a16.038 16.038 0 01-2.39-1.77 13.832 13.832 0 00-3.278 8.012h4.703z" fill="#FECD00"/></svg><svg fill="none" viewBox="0 0 80 80" id="leaf" xmlns="http://www.w3.org/2000/svg"><path fill-rule="evenodd" clip-rule="evenodd" d="M40 1c21.492 0 39 17.387 39 39 0 21.492-17.387 39-39 39-21.613-.12-39-17.508-39-39C1 18.387 18.387 1 40 1z" fill="#233C78"/><path fill-rule="evenodd" clip-rule="evenodd" d="M22.078 31.876C32.743 39.442 35.472 50.356 32.371 64c-12.279-6.574-14.884-18.233-10.294-32.124zM58.543 16C41.178 24.93 35.1 40.93 37.705 62.14 57.178 54.946 63.132 38.078 58.543 16z" fill="#FECD00"/></svg><svg fill="none" viewBox="0 0 80 80" id="leaf-yellow" xmlns="http://www.w3.org/2000/svg"><path fill-rule="evenodd" clip-rule="evenodd" d="M40 1c21.492 0 39 17.387 39 39 0 21.492-17.387 39-39 39-21.613-.12-39-17.508-39-39C1 18.387 18.387 1 40 1z" fill="#FECD00"/><path fill-rule="evenodd" clip-rule="evenodd" d="M22.077 31.876C32.744 39.442 35.473 50.356 32.372 64c-12.28-6.574-14.884-18.233-10.295-32.124zM58.543 16C41.178 24.93 35.1 40.93 37.706 62.14 57.178 54.945 63.132 38.076 58.543 16z" fill="#465A1E"/></svg><svg fill="none" viewBox="0 0 24 40" id="mouse" xmlns="http://www.w3.org/2000/svg"><rect x="1" y="1" width="22" height="38" rx="11" stroke="#1C1D1F" stroke-width="2"/><rect opacity=".2" x="7.5" y="8.5" width="9" height="19" rx="4.5" stroke="#1C1D1F"/><circle cx="12" cy="13" r="3" fill="#1C1D1F"/></svg><svg fill="none" viewBox="0 0 44 36" id="slider-next" xmlns="http://www.w3.org/2000/svg"><path d="M0 18h41m0 0L25 2m16 16L25 34" stroke="#fff" stroke-width="4"/></svg><svg fill="none" viewBox="0 0 44 36" id="slider-prev" xmlns="http://www.w3.org/2000/svg"><path d="M44 18H3m0 0L19 2M3 18l16 16" stroke="#fff" stroke-width="4"/></svg></svg>