<?xml version="1.0" encoding="utf-8"?><svg viewBox="0 0 64 64" xmlns="http://www.w3.org/2000/svg" xmlns:xlink="http://www.w3.org/1999/xlink"><style>:root>svg{display:none}:root>svg:target{display:block}</style><svg fill="none" viewBox="0 0 64 64" id="chat" xmlns="http://www.w3.org/2000/svg"><circle opacity=".3" cx="32" cy="32" r="31.5" stroke="#fff"/><g clip-path="url(#aclip0)" fill="#fff"><path d="M32.806 33.596H19.973a.469.469 0 000 .938h12.833a.469.469 0 000-.938zm0 2.958H19.973a.469.469 0 000 .938h12.833a.469.469 0 100-.938zm-6.416 2.958h-6.417a.469.469 0 000 .938h6.416a.469.469 0 100-.938zM45.138 27.68H32.306a.469.469 0 100 .938h12.832a.469.469 0 100-.938zm0 2.958h-6.416a.469.469 0 100 .938h6.416a.469.469 0 100-.938zM18.903 19.58h9.376a.469.469 0 100-.938h-9.376a.469.469 0 100 .937zm0 2.343h4.688a.469.469 0 000-.938h-4.688a.469.469 0 100 .938z"/><path d="M33.753 30.101H19.026a3.029 3.029 0 00-3.025 3.026v7.606a3.029 3.029 0 003.025 3.025h.106l-.606 3.364a.744.744 0 001.247.673l4.148-3.938a.358.358 0 01.248-.099h9.583a3.029 3.029 0 003.026-3.025v-7.606a3.029 3.029 0 00-3.025-3.026zm2.087 10.632a2.09 2.09 0 01-2.087 2.088h-9.584c-.334 0-.651.127-.893.356l-3.723 3.534.526-2.92a.824.824 0 00-.81-.97h-.243a2.09 2.09 0 01-2.087-2.088v-7.606a2.09 2.09 0 012.087-2.088h14.727a2.09 2.09 0 012.087 2.088v7.606zm-18-16.395h3.496a.02.02 0 01.018.01l1.493 2.578a.851.851 0 00.744.43c.31 0 .588-.161.744-.43l1.493-2.578a.02.02 0 01.018-.01h3.496c1 0 1.815-.814 1.815-1.815v-4.708c0-1-.814-1.815-1.815-1.815H17.84c-1 0-1.815.814-1.815 1.815v.198a.469.469 0 00.938 0v-.198c0-.484.393-.878.877-.878h11.502c.484 0 .877.394.877.878v4.708a.878.878 0 01-.877.878h-3.496a.96.96 0 00-.829.477l-1.426 2.462-1.426-2.462a.96.96 0 00-.829-.477H17.84a.878.878 0 01-.877-.878v-2.32a.469.469 0 00-.938 0v2.32c0 1.001.815 1.815 1.815 1.815z"/><path d="M45.26 24.797H32.184a2.742 2.742 0 00-2.74 2.74v.842a.469.469 0 00.938 0v-.843c0-.993.808-1.801 1.802-1.801H45.26c.994 0 1.802.808 1.802 1.801v6.666c0 .993-.808 1.801-1.802 1.801h-.215a.784.784 0 00-.771.923l.439 2.436-3.19-3.028a1.2 1.2 0 00-.829-.33h-2.193a.469.469 0 100 .937h2.193c.069 0 .134.026.184.073l3.683 3.496a.713.713 0 001.195-.644l-.527-2.925h.031A2.742 2.742 0 0048 34.2v-6.665a2.742 2.742 0 00-2.74-2.739z"/></g><defs><clipPath id="aclip0"><path fill="#fff" transform="translate(16 16)" d="M0 0h32v32H0z"/></clipPath></defs></svg><svg fill="none" viewBox="0 0 64 64" id="check" xmlns="http://www.w3.org/2000/svg"><circle opacity=".3" cx="32" cy="32" r="31.5" stroke="#fff"/><circle cx="32" cy="32" r="15.5" stroke="#fff"/><path d="M25 32l5 5 10-11" stroke="#fff"/></svg><svg fill="none" viewBox="0 0 64 64" id="dots" xmlns="http://www.w3.org/2000/svg"><circle opacity=".3" cx="32" cy="32" r="31.5" stroke="#fff"/><circle cx="32" cy="32" r="15.5" stroke="#fff"/><circle cx="27" cy="32" r="1" fill="#fff"/><circle cx="37" cy="32" r="1" fill="#fff"/><circle cx="32" cy="32" r="2" fill="#fff"/></svg><svg fill="none" viewBox="0 0 64 64" id="global-connections" xmlns="http://www.w3.org/2000/svg"><circle opacity=".3" cx="32" cy="32" r="31.5" stroke="#fff"/><g clip-path="url(#dclip0)"><path d="M42.867 32c0-5.992-4.875-10.867-10.867-10.867-5.992 0-10.867 4.875-10.867 10.867 0 2.821 1.082 5.395 2.85 7.329l-2.31 2.31a.534.534 0 00.754.755l2.314-2.314a10.823 10.823 0 007.26 2.787c5.991 0 10.866-4.875 10.866-10.867zm-5.623-.533h-4.71V22.7c1.484 1.172 4.494 4.107 4.71 8.766zm-5.777-9.252v9.252h-4.71c.153-3.221 1.664-5.61 2.943-7.073a.533.533 0 00-.803-.702c-1.4 1.6-3.055 4.224-3.208 7.775h-3.474c.268-4.98 4.272-8.984 9.252-9.252zm-9.252 10.318h3.474c.192 4.53 2.803 7.574 4.529 9.104-4.357-.804-7.756-4.52-8.003-9.104zm4.54 0h4.712v8.761c-2.64-2.095-4.546-5.165-4.711-8.76zm5.778 9.252v-9.252h4.71c-.158 3.333-1.765 5.783-3.125 7.277a.533.533 0 10.789.718c1.487-1.634 3.246-4.322 3.404-7.995H40a.533.533 0 000-1.066h-1.689c-.192-4.528-2.801-7.573-4.526-9.104 4.554.842 8.015 4.843 8.015 9.637 0 5.225-4.11 9.507-9.267 9.785zm11.463 1.523l-2.586-2.585a.533.533 0 10-.754.754l2.6 2.6C42.192 45.779 43.422 48 45.433 48A2.57 2.57 0 0048 45.433c0-2.06-2.313-3.272-4.004-2.125zm1.437 3.625a1.501 1.501 0 010-3 1.501 1.501 0 010 3zm-25.51-26.189l2.6 2.6a.533.533 0 10.754-.754l-2.585-2.586c1.147-1.69-.066-4.004-2.125-4.004A2.57 2.57 0 0016 18.567c0 2.014 2.224 3.24 3.923 2.177zm-1.356-3.677a1.501 1.501 0 010 3 1.501 1.501 0 010-3zm0 25.8A2.57 2.57 0 0016 45.433 2.57 2.57 0 0018.567 48a2.57 2.57 0 002.566-2.567 2.57 2.57 0 00-2.566-2.566zm0 4.066a1.5 1.5 0 11.001-3.001 1.5 1.5 0 01-.001 3.001zM41.41 23.277l2.586-2.585c1.69 1.147 4.004-.066 4.004-2.125A2.57 2.57 0 0045.433 16c-2.014 0-3.24 2.224-2.177 3.923l-2.6 2.6a.533.533 0 10.755.754zm4.023-6.21a1.5 1.5 0 11-.001 3.001 1.5 1.5 0 01.001-3.001z" fill="#fff"/></g><defs><clipPath id="dclip0"><path fill="#fff" transform="translate(16 16)" d="M0 0h32v32H0z"/></clipPath></defs></svg><svg fill="none" viewBox="0 0 64 64" id="globe" xmlns="http://www.w3.org/2000/svg"><g clip-path="url(#eclip0)" fill="#fff"><path d="M40.23 45.001a.625.625 0 00-.855-.227l-.024.014a.625.625 0 00.627 1.081l.024-.014a.625.625 0 00.227-.854z"/><path d="M45.856 24.006a15.891 15.891 0 00-9.713-7.453 15.891 15.891 0 00-12.138 1.598 15.891 15.891 0 00-7.453 9.713 15.892 15.892 0 001.598 12.138A15.993 15.993 0 0032.014 48c1.941 0 3.88-.353 5.711-1.057a.625.625 0 10-.448-1.167c-4.876 1.874-10.155 1.023-14.1-1.938l.56-2.922.27-.088a1.947 1.947 0 001.25-2.45l-.199-.61a.69.69 0 010-.43 1.945 1.945 0 00-1.474-2.514l-1.41-.276-2.722-2.07a.625.625 0 00-.572-.096l-1.593.517c-.034-.57-.034-1.14-.002-1.706.063.059.104.098.129.125a.64.64 0 00.115.14c.13.119.248.172.495.172.228 0 .564-.045 1.12-.127a62.737 62.737 0 001.057-.167.625.625 0 00.413-.968l-.766-1.124 1.098-.785a.626.626 0 00.178-.198l1.702-2.97.686-.735c.7-.75.9-1.85.51-2.8a2.875 2.875 0 00-1.14-1.34c.547-.43 1.13-.826 1.748-1.184a14.654 14.654 0 017.202-1.97l-1.116 1.4-4.138 1.45a.625.625 0 00-.371.352l-1.156 2.801a.625.625 0 00.07.602l1.687 2.364c-.241.22-.477.542-.758.94a6.51 6.51 0 01-.32.434l-.21.237c-.362.408-.738.83-1.004 1.395-.587 1.241-.468 2.684.309 3.765.751 1.045 1.99 1.577 3.312 1.421a4.86 4.86 0 00.61-.123c.536-.132.706-.146.878.015.083.078.091.093.09.359a2.43 2.43 0 00.055.62c.093.383.335.649.528.862.097.106.196.216.227.29.195.466.11.725-.076 1.292a20.54 20.54 0 00-.049.149c-.282.874.112 1.742.46 2.507.112.249.219.483.288.69.563 1.668.984 2.05 1.322 2.204.177.08.36.116.545.116.901 0 1.841-.837 2.273-1.367.271-.333.338-.667.387-.91.024-.121.043-.217.08-.28.056-.095.122-.17.205-.263.167-.189.376-.424.511-.85.103-.322.177-.402.424-.665l.138-.148c.833-.905.618-1.597.391-2.33-.19-.617.143-1.01.951-1.763.35-.326.713-.664.993-1.069.122-.177.495-.717.264-1.252-.226-.524-.8-.612-1.262-.683-.182-.028-.458-.07-.545-.127-.387-.253-.624-.78-.853-1.291-.045-.102-.09-.202-.136-.3a10.107 10.107 0 01-.248-.605c-.227-.589-.485-1.256-.924-1.721-.394-.418-1.137-.619-1.793-.797a7.704 7.704 0 01-.566-.166.624.624 0 00-.36-.023c-.319.075-.518.158-.666.276a.775.775 0 00-.222.3 7.106 7.106 0 01-.737-.449l-.012-.008a.886.886 0 00-.056-.602c-.349-.738-1.508-.68-1.736-.66-.13.01-.295.016-.468.022-.273.01-.575.02-.874.054l.015-.043a1.598 1.598 0 011.501-1.056h.355a.625.625 0 000-1.25h-.355c-.996 0-1.908.525-2.42 1.35l-.931-1.306.917-2.223 4.044-1.418a.626.626 0 00.282-.2l1.797-2.255c4.594.437 8.917 3.012 11.395 7.304a14.581 14.581 0 011.473 3.577l-.265.236a1.67 1.67 0 00-.557 1.23l-.431-1.187a1.56 1.56 0 00-.282-.483l-.77-.902a1.566 1.566 0 00-1.192-.55h-.943a.904.904 0 00-.753 1.408l.096.143a6.926 6.926 0 01-2.064 1.225l-1.292-2.474v-.552c0-.17-.07-.334-.193-.452l-1.163-1.11a.625.625 0 00-.225-.138l-1.047-.368a.625.625 0 10-.414 1.179l.92.323.872.833v.438c0 .101.025.2.071.29l1.618 3.098a.625.625 0 00.77.297l.47-.174a8.18 8.18 0 002.933-1.877.623.623 0 00.078-.788l-.033-.05h.299c.093 0 .181.04.242.111l.77.902a.311.311 0 01.057.098l.85 2.336a.625.625 0 001.029.228l.404-.404a1.95 1.95 0 00.517-.94c.625 5.013-1.34 10.199-5.495 13.46a.625.625 0 10.772.983c3-2.355 5.06-5.722 5.802-9.482.75-3.796.095-7.734-1.842-11.09zm-26.9 9.667l2.577 1.959a.623.623 0 00.258.116l1.553.303a.686.686 0 01.466.33.686.686 0 01.061.568 1.93 1.93 0 00-.002 1.207l.198.61a.695.695 0 01-.446.874l-.62.202a.625.625 0 00-.421.477l-.5 2.61a14.912 14.912 0 01-2.847-3.552 14.667 14.667 0 01-1.816-5.205l1.539-.5zm3.642-9.969l-.735.788a.628.628 0 00-.086.116l-1.67 2.915-1.483 1.06a.625.625 0 00-.153.861l.555.814c-.32.048-.607.087-.798.108a31.902 31.902 0 00-.777-.7 14.772 14.772 0 014.402-8.36c.456.144.83.484 1.012.928a1.385 1.385 0 01-.267 1.47zm5.096 3.416c.278-.157.925-.18 1.398-.197.189-.006.368-.013.528-.026.084-.007.177-.006.266 0a.625.625 0 00.287.778c.118.063.28.172.454.287.488.326 1.042.695 1.562.728.473.03.736-.239.849-.354l.026-.026a.67.67 0 00.167-.205c.1.029.205.057.313.086.37.1 1.059.287 1.211.448.27.287.481.832.667 1.313.094.243.183.473.282.686.043.091.085.185.128.28.288.644.615 1.373 1.309 1.826.314.206.7.265 1.04.317l.136.021c-.202.282-.49.55-.793.832-.774.72-1.737 1.617-1.294 3.048.21.676.22.749-.117 1.115l-.129.138c-.288.307-.516.549-.704 1.143-.055.172-.126.252-.255.397a2.79 2.79 0 00-.35.463 2.025 2.025 0 00-.225.664c-.038.185-.059.277-.131.366a3.641 3.641 0 01-.789.698c-.294.187-.465.212-.524.209-.066-.072-.308-.385-.673-1.468-.09-.267-.215-.542-.335-.808-.267-.587-.542-1.193-.408-1.607l.047-.144c.214-.651.416-1.267.041-2.163-.113-.273-.295-.473-.454-.649-.104-.114-.221-.242-.24-.317-.021-.09-.02-.195-.02-.316.003-.327.006-.82-.485-1.28-.691-.647-1.498-.447-2.032-.315-.164.04-.319.079-.456.095-.878.103-1.662-.229-2.151-.91-.512-.712-.586-1.67-.194-2.501.19-.402.477-.725.81-1.099l.218-.248c.122-.14.256-.33.398-.532.17-.24.485-.688.622-.773z"/><path d="M41.626 37.517l-.3-1.133a.625.625 0 00-1.154-.138c-.068.127-.13.26-.19.39-.1.217-.204.442-.312.566-.06.07-.216.145-.367.218-.36.173-.852.411-1.04 1.011-.117.373-.074.667-.042.882.028.187.034.251-.016.368l-.006.015c-.199.467-.569 1.336-.05 2.075.37.527.76.663 1.062.663.06 0 .115-.005.167-.014.637-.104 1.117-.767 1.508-2.087l.735-2.477a.625.625 0 00.005-.339zm-1.938 2.46c-.2.673-.376.988-.478 1.127a1.187 1.187 0 01-.038-.052c-.12-.17.059-.589.177-.866l.006-.015c.19-.447.14-.79.103-1.041-.024-.16-.033-.23-.003-.324.025-.078.171-.154.392-.26.098-.048.205-.1.314-.163l-.473 1.594zm-6.811-16.548l-.042-.015a.625.625 0 00-.414 1.18l.042.014a.624.624 0 10.414-1.18z"/></g><circle opacity=".3" cx="32" cy="32" r="31.5" stroke="#fff"/><defs><clipPath id="eclip0"><path fill="#fff" transform="translate(16 16)" d="M0 0h32v32H0z"/></clipPath></defs></svg><svg fill="none" viewBox="0 0 64 64" id="man" xmlns="http://www.w3.org/2000/svg"><circle opacity=".3" cx="32" cy="32" r="31.5" stroke="#fff"/><g clip-path="url(#fclip0)" fill="#fff"><path d="M45.9 32.004a22.246 22.246 0 001.572-4.021c1.153-4.166.594-7.655-1.574-9.823s-5.656-2.727-9.822-1.573a22.26 22.26 0 00-4.022 1.571c-1.67-.838-3.342-1.451-4.953-1.804-3.743-.82-6.897-.18-8.883 1.806-1.274 1.274-2.013 3.065-2.136 5.178-.111 1.9.274 4.082 1.114 6.33a2.969 2.969 0 000 4.665c-.84 2.247-1.225 4.429-1.114 6.33.124 2.113.862 3.903 2.136 5.177 1.423 1.423 3.42 2.157 5.831 2.157.484 0 .985-.03 1.502-.09 2.067-.238 4.277-.942 6.507-2.064a22.255 22.255 0 004.018 1.57c1.417.393 2.757.587 3.992.587 2.395 0 4.4-.73 5.83-2.16 1.986-1.985 2.627-5.14 1.807-8.883-.353-1.61-.967-3.283-1.805-4.953zm-9.574-14.512c3.826-1.06 6.99-.586 8.908 1.332 1.919 1.919 2.392 5.082 1.332 8.908a20.827 20.827 0 01-1.21 3.244 30.748 30.748 0 00-3.32-4.782 2.958 2.958 0 00.634-1.832c0-.668-.216-1.298-.625-1.824l-.742.576a2.037 2.037 0 01-1.607 3.283 2.037 2.037 0 01-2.034-2.035 2.037 2.037 0 013.072-1.75l.48-.807a2.972 2.972 0 00-3.35.217 30.77 30.77 0 00-4.781-3.32 20.845 20.845 0 013.243-1.21zm-17.443 1.332c2.538-2.539 7.194-2.444 12.147-.124-2.418 1.349-4.79 3.155-6.954 5.318a32.868 32.868 0 00-4.203 5.127 2.996 2.996 0 00-1.849.059c-1.627-4.435-1.322-8.2.859-10.38zm5.19 28.23c-2.124 0-3.93-.617-5.19-1.878-2.18-2.18-2.486-5.945-.859-10.38a2.961 2.961 0 001.849.057 32.843 32.843 0 004.203 5.129c2.163 2.163 4.535 3.968 6.952 5.317-2.483 1.162-4.872 1.755-6.954 1.755zm7.983-2.266c-2.537-1.332-5.041-3.196-7.315-5.47a31.967 31.967 0 01-4.013-4.874 2.972 2.972 0 001.27-2.709l-.935.083a2.036 2.036 0 01-2.027 2.217A2.037 2.037 0 0117.002 32c0-1.122.913-2.035 2.034-2.035.775 0 1.473.431 1.82 1.124l.84-.42a2.977 2.977 0 00-.966-1.116 31.98 31.98 0 014.01-4.87c2.275-2.276 4.78-4.14 7.318-5.472a29.375 29.375 0 015.166 3.5 2.955 2.955 0 00-.502 1.651 2.977 2.977 0 002.974 2.974c.61 0 1.179-.185 1.651-.502a29.411 29.411 0 013.5 5.166c-1.332 2.537-3.196 5.043-5.47 7.318-.251.25-.508.498-.768.742a2.96 2.96 0 00-1.918-.704 2.95 2.95 0 00-1.824.625l.576.742a2.037 2.037 0 013.283 1.607 2.037 2.037 0 01-2.035 2.035 2.037 2.037 0 01-1.75-3.073l-.807-.48a2.973 2.973 0 00-.11 2.83c-.658.42-1.316.802-1.968 1.146zm13.178.388c-1.918 1.919-5.082 2.392-8.908 1.332a20.845 20.845 0 01-3.241-1.21c.495-.276.99-.573 1.483-.889.54.552 1.292.895 2.123.895a2.977 2.977 0 002.974-2.974 2.96 2.96 0 00-.442-1.558c.277-.259.55-.524.817-.79 2.164-2.164 3.97-4.536 5.318-6.954 2.32 4.954 2.415 9.609-.124 12.148z"/><path d="M39.759 36.852h-.97v-2.366a2.357 2.357 0 00-1.71-2.26l-.352-.099-.255.904.352.1c.604.17 1.026.727 1.026 1.355v2.366h-1.69V35.57h-.94v1.283h-4.226v.939h8.765v-.939z"/><path d="M33.611 32.224l1.957.553.256-.904-1.919-.541v-1.248a3.286 3.286 0 001.44-2.717V25.99a3.29 3.29 0 00-3.287-3.287 3.29 3.29 0 00-3.287 3.287v1.377c0 1.128.572 2.125 1.44 2.717v1.248l-3.172.894a2.357 2.357 0 00-1.71 2.26v2.366h-.971v.939h5.697v-.939h-1.158V35.57h-.94v1.283h-1.69v-2.366c0-.628.422-1.185 1.027-1.356l3.211-.905a2.1 2.1 0 001.553.683c.6 0 1.158-.251 1.553-.684zm-1.553-8.582a2.35 2.35 0 012.348 2.348v.523l-.987-1.306h-3.574a2.351 2.351 0 012.213-1.565zm-2.347 3.725v-1.22h3.24l1.377 1.82a2.352 2.352 0 01-2.27 1.748 2.35 2.35 0 01-2.347-2.348zm1.44 4.168v-1.01a3.266 3.266 0 001.815 0v1.01a1.16 1.16 0 01-.908.434 1.16 1.16 0 01-.907-.434z"/><path d="M34.539 34.437l-1.323-.373.255-.904 1.322.373-.254.904zm2.061-.396l-.255.904-.904-.255.255-.903.904.255zm2.627-10.148h.939v.939h-.94v-.94zM36.222 41.86h.939v.94h-.94v-.94zM18.567 31.53h.94v.94h-.94v-.94z"/></g><defs><clipPath id="fclip0"><path fill="#fff" transform="translate(16 16)" d="M0 0h32v32H0z"/></clipPath></defs></svg><svg fill="none" viewBox="0 0 64 64" id="radio" xmlns="http://www.w3.org/2000/svg"><circle opacity=".3" cx="32" cy="32" r="31.5" stroke="#fff"/><g clip-path="url(#gclip0)" fill="#fff"><path d="M25.947 28.146a.666.666 0 01-.552-.29A8.005 8.005 0 0124 23.333c0-1.62.483-3.182 1.396-4.522a.667.667 0 011.101.752 6.665 6.665 0 00-1.164 3.77c0 1.35.403 2.655 1.164 3.77a.667.667 0 01-.55 1.043zm12.106 0a.667.667 0 01-.55-1.043 6.674 6.674 0 001.163-3.77c0-1.35-.402-2.654-1.163-3.77a.667.667 0 111.1-.752A7.996 7.996 0 0140 23.333a8 8 0 01-1.396 4.523.666.666 0 01-.55.29zM22.655 30.4a.668.668 0 01-.551-.29A11.929 11.929 0 0120 23.334c0-2.43.728-4.772 2.104-6.777a.667.667 0 011.099.755 10.6 10.6 0 00-1.87 6.022 10.6 10.6 0 001.87 6.023.666.666 0 01-.548 1.044zm18.69 0a.666.666 0 01-.55-1.044 10.59 10.59 0 001.871-6.023c0-2.158-.646-4.241-1.869-6.022a.666.666 0 111.099-.755A11.928 11.928 0 0144 23.333c0 2.43-.728 4.772-2.104 6.778a.668.668 0 01-.55.289zM32 26.667a3.338 3.338 0 01-3.334-3.334A3.338 3.338 0 0132 20a3.338 3.338 0 013.333 3.333A3.338 3.338 0 0132 26.667zm0-5.334c-1.103 0-2 .898-2 2 0 1.103.897 2 2 2 1.102 0 2-.897 2-2 0-1.102-.898-2-2-2z"/><path d="M38.15 48h-12.3a1.98 1.98 0 01-1.623-.83 1.983 1.983 0 01-.275-1.803l6.575-19.724a.666.666 0 111.264.421L25.218 45.79a.664.664 0 00.631.878h12.302a.656.656 0 00.54-.278.663.663 0 00.092-.6l-6.575-19.725a.666.666 0 111.264-.421l6.575 19.724a1.975 1.975 0 01-.275 1.803c-.381.527-.97.83-1.621.83z"/><path d="M24.666 47.265a.667.667 0 01-.279-1.272l11.66-5.361-8.711-3.419a.666.666 0 01-.088-1.198l7.42-4.26a.666.666 0 11.664 1.157l-6.216 3.568 8.877 3.483a.667.667 0 01.035 1.225l-13.084 6.015a.643.643 0 01-.277.062z"/></g><defs><clipPath id="gclip0"><path fill="#fff" transform="translate(16 16)" d="M0 0h32v32H0z"/></clipPath></defs></svg><svg fill="none" viewBox="0 0 64 64" id="server" xmlns="http://www.w3.org/2000/svg"><circle opacity=".3" cx="32" cy="32" r="31.5" stroke="#fff"/><g clip-path="url(#hclip0)" fill="#fff"><path d="M38 44a.502.502 0 01-.194-.039C37.568 43.86 32 41.454 32 36.536v-4.179a.5.5 0 01.34-.474l5.5-1.857a.5.5 0 01.32 0l5.5 1.857a.5.5 0 01.34.474v4.179c0 4.918-5.568 7.324-5.806 7.425A.502.502 0 0138 44zm-5-11.283v3.819c0 3.784 4.055 5.958 5 6.413.944-.456 5-2.639 5-6.413v-3.819l-5-1.689-5 1.689z"/><path d="M37.5 39l-.027-.001a.496.496 0 01-.363-.187l-2-2.5a.5.5 0 01.781-.625l1.65 2.063 3.105-3.104a.5.5 0 01.707.707l-3.5 3.5A.498.498 0 0137.5 39zm1-11h-15c-1.93 0-3.5-1.57-3.5-3.5s1.57-3.5 3.5-3.5h15c1.93 0 3.5 1.57 3.5 3.5S40.43 28 38.5 28zm-15-6a2.502 2.502 0 00-2.5 2.5c0 1.379 1.121 2.5 2.5 2.5h15c1.379 0 2.5-1.121 2.5-2.5S39.879 22 38.5 22h-15z"/><path d="M24.5 26c-.827 0-1.5-.673-1.5-1.5s.673-1.5 1.5-1.5 1.5.673 1.5 1.5-.673 1.5-1.5 1.5zm0-2c-.275 0-.5.225-.5.5s.225.5.5.5.5-.225.5-.5-.225-.5-.5-.5zm5 2c-.827 0-1.5-.673-1.5-1.5s.673-1.5 1.5-1.5 1.5.673 1.5 1.5-.673 1.5-1.5 1.5zm0-2c-.275 0-.5.225-.5.5s.225.5.5.5.5-.225.5-.5-.225-.5-.5-.5zm0 10h-6c-1.93 0-3.5-1.57-3.5-3.5 0-.934.364-1.812 1.026-2.474A3.475 3.475 0 0123.5 27h15c.782 0 1.519.251 2.128.726a.5.5 0 11-.615.789A2.435 2.435 0 0038.5 28h-15c-.666 0-1.294.261-1.767.733A2.482 2.482 0 0021 30.5c0 1.379 1.121 2.5 2.5 2.5h6a.5.5 0 010 1z"/><path d="M24.5 32c-.827 0-1.5-.673-1.5-1.5s.673-1.5 1.5-1.5 1.5.673 1.5 1.5-.673 1.5-1.5 1.5zm0-2c-.275 0-.5.225-.5.5s.225.5.5.5.5-.225.5-.5-.225-.5-.5-.5zm5 2c-.827 0-1.5-.673-1.5-1.5s.673-1.5 1.5-1.5 1.5.673 1.5 1.5-.673 1.5-1.5 1.5zm0-2c-.275 0-.5.225-.5.5s.225.5.5.5.5-.225.5-.5-.225-.5-.5-.5zm0 10h-6c-1.93 0-3.5-1.57-3.5-3.5 0-.934.364-1.812 1.026-2.474A3.475 3.475 0 0123.5 33h6a.5.5 0 010 1h-6c-.666 0-1.294.261-1.767.733A2.482 2.482 0 0021 36.5c0 1.379 1.121 2.5 2.5 2.5h6a.5.5 0 010 1z"/><path d="M24.5 38c-.827 0-1.5-.673-1.5-1.5s.673-1.5 1.5-1.5 1.5.673 1.5 1.5-.673 1.5-1.5 1.5zm0-2c-.275 0-.5.225-.5.5s.225.5.5.5.5-.225.5-.5-.225-.5-.5-.5zm5 2c-.827 0-1.5-.673-1.5-1.5s.673-1.5 1.5-1.5 1.5.673 1.5 1.5-.673 1.5-1.5 1.5zm0-2c-.275 0-.5.225-.5.5s.225.5.5.5.5-.225.5-.5-.225-.5-.5-.5z"/></g><defs><clipPath id="hclip0"><path fill="#fff" transform="translate(20 20)" d="M0 0h24v24H0z"/></clipPath></defs></svg><svg fill="none" viewBox="0 0 64 64" id="user" xmlns="http://www.w3.org/2000/svg"><circle opacity=".3" cx="32" cy="32" r="31.5" stroke="#fff"/><circle cx="32" cy="32" r="15.5" stroke="#fff"/><circle cx="32" cy="28" r="4.5" stroke="#fff"/><path fill-rule="evenodd" clip-rule="evenodd" d="M32.385 36.007a10 10 0 00-10.068 7.495l-.968-.25a11 11 0 0121.482.828l-.985.175a10 10 0 00-9.46-8.248z" fill="#fff"/></svg><svg fill="none" viewBox="0 0 64 64" id="waves" xmlns="http://www.w3.org/2000/svg"><circle opacity=".3" cx="32" cy="32" r="31.5" stroke="#fff"/><g clip-path="url(#jclip0)" stroke="#fff"><circle cx="32" cy="32" r="10.5"/><circle cx="32" cy="32" r="3.5"/><path d="M21.04 42.96a15.499 15.499 0 010-21.92M43 42.96a15.5 15.5 0 000-21.92"/></g><defs><clipPath id="jclip0"><path fill="#fff" transform="translate(16 16)" d="M0 0h32v32H0z"/></clipPath></defs></svg></svg>