<svg width="38" height="38" viewBox="0 0 38 38" fill="none" xmlns="http://www.w3.org/2000/svg">
<path d="M15.8696 23.4706H5.69567C4.39888 23.4706 3.34783 22.4041 3.34783 21.0883V17.1177C3.34783 16.7206 3.39401 16.2537 3.47931 16.1234L4.29714 14.879C4.59766 14.4224 4.36132 13.8014 3.83618 13.6688L1.78261 13.1471C1.35061 13.1471 1 12.7921 1 12.3529V10.7647C1 10.3256 1.35061 9.97058 1.78261 9.97058H5.27697C5.53836 9.97058 5.78254 10.1032 5.9281 10.324L6.9635 11.8987C7.11376 12.1099 8.64298 13.1471 9.60872 13.1471C10.1495 13.1471 16.6522 13.1471 16.6522 13.1471" stroke="#FFCE00" stroke-miterlimit="10"/>
<path d="M26.7191 11.3254C26.7191 11.3254 25.5514 8.28786 25.3315 7.76851C25.0287 7.05301 24.3963 6.82827 23.6051 6.66071C22.0485 6.32956 20.124 6 16.6524 6C13.1807 6 11.2563 6.32956 9.70044 6.66071C8.90922 6.82827 8.27687 7.05221 7.97399 7.76851C7.7533 8.28786 6.58643 11.3254 6.58643 11.3254" stroke="#FFCE00" stroke-miterlimit="10"/>
<path d="M5.69556 16.3235C6.69808 17.34 8.05748 17.9117 9.47478 17.9117H11.1738" stroke="#FFCE00" stroke-miterlimit="10"/>
<path d="M4.13062 22.6765V25.853C4.13062 26.2921 4.48123 26.6471 4.91323 26.6471H10.3915C10.8235 26.6471 11.1741 26.2921 11.1741 25.853V23.4706" stroke="#FFCE00" stroke-miterlimit="10"/>
<path d="M16.6521 20.2942H11.1738" stroke="#FFCE00" stroke-miterlimit="10"/>
<path d="M29.9567 17.1177C29.9567 16.7206 29.9106 16.2537 29.8253 16.1234L29.0074 14.879C28.7069 14.4224 28.9433 13.8014 29.4684 13.6688L31.522 13.1471C31.954 13.1471 32.3046 12.7921 32.3046 12.3529V10.7647C32.3046 10.3256 31.954 9.97058 31.522 9.97058H28.0276C27.7662 9.97058 27.522 10.1032 27.3765 10.324L26.3411 11.8987C26.1908 12.1099 24.6616 13.1471 23.6958 13.1471C23.1551 13.1471 16.6523 13.1471 16.6523 13.1471" stroke="#FFCE00" stroke-miterlimit="10"/>
<path d="M27.6089 16.3235C26.6064 17.34 25.247 17.9117 23.8297 17.9117H22.1306" stroke="#FFCE00" stroke-miterlimit="10"/>
<path d="M16.6523 20.2942H22.1306" stroke="#FFCE00" stroke-miterlimit="10"/>
<path d="M33.8698 16.3235L23.6958 26.5478L19.7828 22.5772L16.6523 25.7537L23.5651 33L37.0002 19.5L33.8698 16.3235Z" stroke="#FFCE00" stroke-miterlimit="10" stroke-linejoin="round"/>
</svg>
