<?xml version="1.0" encoding="utf-8"?><svg viewBox="0 0 19 16" xmlns="http://www.w3.org/2000/svg" xmlns:xlink="http://www.w3.org/1999/xlink"><style>:root>svg{display:none}:root>svg:target{display:block}</style><svg fill="none" viewBox="0 0 19 16" id="flag" xmlns="http://www.w3.org/2000/svg"><path d="M.5 13c5.899-3.44 8.75 1.036 15-1.25V3C9.25 5.286 6.398.81.5 4.25V13z" stroke="#1F2532" stroke-miterlimit="10" stroke-linecap="round" stroke-linejoin="round"/><path d="M.5 16V1.75a1.25 1.25 0 012.5 0V3m0 9v4" stroke="#1F2532" stroke-miterlimit="10" stroke-linejoin="round"/><path d="M.5 7.116c5.899-3.441 8.75 1.036 15-1.25M.5 10.24c5.899-3.44 8.75 1.036 15-1.25" stroke="#1F2532" stroke-miterlimit="10" stroke-linecap="round" stroke-linejoin="round"/></svg><svg fill="none" viewBox="0 0 19 16" id="mail" xmlns="http://www.w3.org/2000/svg"><path d="M5.257 8.028l-3.171 3m11.1-3.265v-4.21c0-.581-.455-1.053-1.015-1.053H1.515C.955 2.5.5 2.972.5 3.553v7.894c0 .581.455 1.053 1.015 1.053H12.17c.56 0 1.015-.472 1.015-1.053V9.342" stroke="#1F2532" stroke-miterlimit="10"/><path d="M11.6 4.028L7.594 8.624c-.61.539-.892.539-1.502 0L2.086 4.028m6.343 4l3.171 3m3.171-.633H19m-7.4-2.632h5.286" stroke="#1F2532" stroke-miterlimit="10"/></svg><svg fill="none" viewBox="0 0 16 16" id="renault" xmlns="http://www.w3.org/2000/svg"><path d="M10.066 7.164c-.029-.053-.424-.8-.875-1.576a68.625 68.625 0 00-1.064-1.76c-.044-.069-.078-.114-.126-.114-.047 0-.079.04-.126.114a91.09 91.09 0 00-1.066 1.76c-.478.815-.848 1.53-.873 1.576-.049.09-.103.195-.103.298 0 .102.047.192.103.302.027.052.425.804.877 1.58.491.846 1.04 1.72 1.061 1.755.042.068.078.115.126.115s.083-.045.126-.114c.022-.037.568-.91 1.06-1.755.45-.775.848-1.524.878-1.58.062-.118.103-.195.103-.299 0-.104-.04-.188-.101-.302z" stroke="#1F2532" stroke-miterlimit="10"/><path d="M14.387 7.596a71.478 71.478 0 00-1.593-2.83C11.94 3.338 10.417.987 10.244.773 10.073.56 9.977.552 9.819.536L9.796.534C9.565.51 8.588.5 8.001.5 7.497.5 6.429.512 6.18.535c-.235.022-.298.088-.432.25-.184.221-1.734 2.639-2.54 3.982a73.468 73.468 0 00-1.594 2.83A.962.962 0 001.5 8c0 .12.036.248.114.403.193.388.777 1.461 1.593 2.83.85 1.428 2.387 3.788 2.55 3.993.173.217.285.226.44.239.237.019 1.258.034 1.803.034.59 0 1.656-.022 1.803-.034.146-.013.272-.023.44-.239.154-.198 1.808-2.74 2.55-3.993a73.221 73.221 0 001.594-2.83c.1-.207.113-.316.113-.404a.872.872 0 00-.113-.404zM1.5 8h4.333m4.334 0H14.5M8 3.714L10.167.5m-4.334 15L8 11.214" stroke="#1F2532" stroke-miterlimit="10"/></svg></svg>