<svg width="12" height="12" viewBox="0 0 12 12" fill="none" xmlns="http://www.w3.org/2000/svg">
<g clip-path="url(#clip0)">
<path d="M11.9364 8.75984C11.9219 8.72852 11.9083 8.70255 11.8957 8.68174C11.6875 8.30676 11.2897 7.84651 10.7024 7.30084L10.69 7.28835L10.6838 7.28222L10.6775 7.27594H10.6712C10.4046 7.02185 10.2358 6.85101 10.1652 6.76354C10.0358 6.59692 10.0069 6.42826 10.0775 6.25737C10.1275 6.12826 10.3151 5.85559 10.6399 5.43899C10.8107 5.21821 10.946 5.04126 11.0459 4.90795C11.7666 3.94989 12.079 3.33767 11.9832 3.07107L11.9459 3.00876C11.9209 2.97126 11.8564 2.93694 11.7523 2.90565C11.6481 2.87442 11.5148 2.86926 11.3524 2.89007L9.55301 2.9025C9.52386 2.89217 9.48224 2.89313 9.42801 2.90565C9.37385 2.91817 9.34676 2.92445 9.34676 2.92445L9.31544 2.94009L9.29058 2.95889C9.26975 2.97132 9.24684 2.99318 9.22182 3.02443C9.19694 3.05557 9.17613 3.09212 9.1595 3.13376C8.9636 3.63776 8.74087 4.10635 8.49089 4.53952C8.33677 4.79781 8.19522 5.02165 8.06596 5.21119C7.93687 5.40065 7.82856 5.54025 7.74116 5.62973C7.65363 5.7193 7.57463 5.79106 7.50368 5.84526C7.43285 5.89949 7.37877 5.9224 7.34133 5.91402C7.3038 5.90564 7.26846 5.89732 7.235 5.88901C7.17672 5.8515 7.12985 5.80049 7.0945 5.73593C7.05901 5.67137 7.03511 5.59012 7.02262 5.49224C7.01019 5.39429 7.00283 5.31003 7.00073 5.2392C6.99879 5.16845 6.99968 5.06837 7.00391 4.93926C7.00824 4.81008 7.01019 4.72268 7.01019 4.67686C7.01019 4.51855 7.01327 4.34674 7.01947 4.16139C7.02577 3.97604 7.03087 3.82918 7.03513 3.72098C7.03938 3.61268 7.04135 3.4981 7.04135 3.3773C7.04135 3.25651 7.034 3.16177 7.01947 3.09302C7.00511 3.02434 6.98307 2.95769 6.95403 2.89307C6.92482 2.82851 6.88206 2.77857 6.82595 2.74312C6.76973 2.70771 6.69984 2.67961 6.61666 2.65874C6.39587 2.60878 6.11474 2.58175 5.77311 2.57755C4.99841 2.56923 4.50063 2.61926 4.27987 2.72756C4.1924 2.77332 4.11325 2.83584 4.04248 2.91493C3.96748 3.0066 3.95702 3.05662 4.01116 3.06485C4.26111 3.10229 4.43806 3.19186 4.54221 3.33347L4.57974 3.40851C4.60893 3.46265 4.63808 3.5585 4.66725 3.69593C4.69638 3.83336 4.71518 3.98538 4.72345 4.15191C4.74424 4.45603 4.74424 4.71636 4.72345 4.93292C4.70259 5.14956 4.6829 5.31822 4.6641 5.43902C4.6453 5.55981 4.6172 5.6577 4.57974 5.73265C4.54221 5.80762 4.51724 5.85345 4.50472 5.87008C4.49223 5.88671 4.48181 5.89719 4.47354 5.9013C4.4194 5.92205 4.36309 5.93262 4.30482 5.93262C4.24645 5.93262 4.17568 5.90343 4.09239 5.84509C4.00913 5.78674 3.92271 5.70661 3.83314 5.60454C3.74357 5.50246 3.64255 5.3598 3.53005 5.17654C3.41764 4.99329 3.301 4.77671 3.1802 4.5268L3.08026 4.34556C3.01778 4.22897 2.93243 4.05919 2.82413 3.8364C2.71577 3.61351 2.61998 3.39792 2.53672 3.18965C2.50343 3.10218 2.45343 3.03559 2.38679 2.98977L2.35552 2.97097C2.33473 2.95434 2.30136 2.93668 2.25558 2.91786C2.20973 2.89906 2.16189 2.88558 2.11187 2.87729L0.399943 2.88972C0.225006 2.88972 0.10631 2.92935 0.0438108 3.0085L0.0187979 3.04594C0.00630245 3.0668 0 3.10011 0 3.14595C0 3.19178 0.0124955 3.24802 0.0375083 3.31461C0.287418 3.90196 0.559189 4.46842 0.852822 5.01406C1.14646 5.5597 1.40162 5.99923 1.61815 6.33226C1.83474 6.66552 2.0555 6.98005 2.28044 7.2757C2.50538 7.57145 2.65427 7.76099 2.72712 7.84425C2.80006 7.92767 2.85735 7.99004 2.899 8.03169L3.05522 8.18161C3.15519 8.2816 3.30198 8.40134 3.49567 8.54085C3.68941 8.68045 3.90389 8.81787 4.13922 8.95335C4.3746 9.08862 4.64843 9.199 4.96086 9.28437C5.27325 9.36982 5.5773 9.40411 5.87305 9.38757H6.59158C6.7373 9.37498 6.8477 9.32916 6.92274 9.25007L6.9476 9.21876C6.96432 9.1939 6.97997 9.15527 6.99441 9.1033C7.00903 9.05124 7.01629 8.99388 7.01629 8.93149C7.01203 8.75242 7.02566 8.59103 7.05682 8.44734C7.08796 8.3037 7.12346 8.1954 7.16315 8.12246C7.20283 8.04959 7.2476 7.98809 7.29743 7.93824C7.34737 7.88828 7.38295 7.85802 7.40383 7.8476C7.42457 7.83712 7.44114 7.83001 7.45364 7.82574C7.5536 7.79243 7.67124 7.82469 7.80675 7.92266C7.94214 8.02055 8.06913 8.14141 8.18791 8.28505C8.30663 8.42883 8.44927 8.59013 8.61585 8.76921C8.78253 8.94834 8.92828 9.0815 9.05319 9.1691L9.1781 9.24408C9.26152 9.2941 9.36982 9.33993 9.50314 9.38157C9.63621 9.42319 9.7528 9.43361 9.85292 9.4128L11.4523 9.38785C11.6105 9.38785 11.7336 9.36166 11.8209 9.30968C11.9084 9.25762 11.9604 9.20027 11.9772 9.13788C11.9939 9.07542 11.9948 9.00456 11.9803 8.92534C11.9655 8.84632 11.9509 8.79107 11.9364 8.75984Z" fill="#7B808A"/>
</g>
<defs>
<clipPath id="clip0">
<rect width="12" height="12" fill="white"/>
</clipPath>
</defs>
</svg>
