<svg width="40" height="40" viewBox="0 0 40 40" fill="none" xmlns="http://www.w3.org/2000/svg">
<rect width="40" height="40" fill="#FFCE00"/>
<path fill-rule="evenodd" clip-rule="evenodd" d="M19.828 23.9631H20.784C20.784 23.9631 21.073 23.9311 21.221 23.7751C21.357 23.6301 21.353 23.3611 21.353 23.3611C21.353 23.3611 21.334 22.0961 21.93 21.9081C22.516 21.7251 23.27 23.1321 24.069 23.6731C24.674 24.0811 25.133 23.9921 25.133 23.9921L27.27 23.9631C27.27 23.9631 28.387 23.8951 27.858 23.0271C27.815 22.9591 27.549 22.3881 26.268 21.2141C24.928 19.9891 25.108 20.1871 26.723 18.0671C27.705 16.7751 28.098 15.9861 27.975 15.6491C27.858 15.3271 27.135 15.4121 27.135 15.4121L24.729 15.4271C24.729 15.4271 24.551 15.4041 24.418 15.4811C24.289 15.5571 24.207 15.7351 24.207 15.7351C24.207 15.7351 23.826 16.7351 23.318 17.5861C22.246 19.3791 21.818 19.4741 21.642 19.3621C21.235 19.1021 21.337 18.3191 21.337 17.7621C21.337 16.0241 21.604 15.2991 20.816 15.1111C20.555 15.0501 20.362 15.0091 19.694 15.0021C18.835 14.9941 18.109 15.0041 17.697 15.2041C17.424 15.3361 17.212 15.6301 17.341 15.6471C17.5 15.6681 17.86 15.7431 18.051 15.9991C18.298 16.3301 18.289 17.0721 18.289 17.0721C18.289 17.0721 18.431 19.1191 17.958 19.3731C17.633 19.5471 17.188 19.1911 16.233 17.5641C15.745 16.7301 15.375 15.8091 15.375 15.8091C15.375 15.8091 15.304 15.6371 15.177 15.5451C15.023 15.4331 14.808 15.3971 14.808 15.3971L12.521 15.4121C12.521 15.4121 12.178 15.4211 12.052 15.5691C11.94 15.7001 12.043 15.9701 12.043 15.9701C12.043 15.9701 13.833 20.1001 15.859 22.1801C17.718 24.0891 19.828 23.9631 19.828 23.9631Z" fill="white"/>
</svg>
